<svg xmlns="http://www.w3.org/2000/svg" xmlns:xlink="http://www.w3.org/1999/xlink" xmlns:inkscape="http://www.inkscape.org/namespaces/inkscape" version="1.1" width="394.2276" height="133.10132" viewBox="0 0 394.2276 133.10132">
<defs>
<clipPath id="clip_0">
<path transform="matrix(1,0,0,-1,-345.6371,488.7369)" d="M345.6371 355.6356H739.8647V488.7369H345.6371Z" clip-rule="evenodd"/>
</clipPath>
<clipPath id="clip_1">
<path transform="matrix(1,0,0,-1,-345.6371,488.7369)" d="M347.29 357.893H738.117V487.661H347.29Z"/>
</clipPath>
</defs>
<g clip-path="url(#clip_0)">
<g clip-path="url(#clip_1)">
<path transform="matrix(1,0,0,-1,-345.6371,488.7369)" d="M347.5396 399.6484C347.8564 384.1236 354.8268 364.0046 372.7279 362.1036 393.7973 362.1036 405.2033 383.8067 407.5795 402.1831 407.8964 404.7177 408.3716 412.6386 408.2132 413.7475 407.8964 415.9653 406.629 418.5 405.0449 419.6089 403.4607 420.8762 401.5597 421.6683 399.5003 421.6683 394.9062 421.6683 390.4705 418.5 387.1438 415.4901 382.7081 410.896 379.8566 404.2425 380.3319 399.1731 380.4903 398.3811 380.3319 398.0642 380.1735 397.4306 379.6982 396.6385 379.0645 396.1632 377.6388 396.1632 376.0546 396.1632 375.4209 396.9553 374.7873 399.9652 374.1536 402.8167 374.312 410.5792 375.2625 416.4406 376.3714 422.4604 377.7972 426.5792 380.1735 430.2228 381.5992 432.1238 383.6586 434.8169 383.9755 434.8169 384.1339 434.8169 384.2923 434.5001 384.2923 434.1833 384.2923 429.5892 390.7874 422.6188 395.8567 422.6188 397.2825 422.6188 397.5993 422.7772 398.7082 423.2525 401.4013 424.6782 403.7775 428.6387 403.7775 431.6486 405.0449 435.4506 405.837 440.0447 405.9954 444.3219 406.629 452.4012 405.0449 459.3715 401.5597 463.8072 399.8171 466.025 397.7577 467.4508 395.0646 468.4013 393.9557 468.7181 393.1636 468.8765 391.421 468.8765 387.9359 469.0349 384.926 468.2429 380.9655 466.3419 366.0744 458.8963 351.8169 436.4011 348.9654 415.9653 348.8069 414.5396 348.4901 412.4802 348.3317 411.5297 347.5396 406.9356 347.5396 404.8762 347.5396 399.6484ZM365.5991 430.5397 365.7575 431.3317C366.3912 436.2427 369.5595 442.2625 372.5694 446.2229 374.4704 448.5992 379.3814 453.1933 380.1735 453.1933 380.1735 453.1933 380.6487 452.4012 380.9655 451.4507L381.7576 449.5497 380.1735 448.4408C376.6883 445.9061 372.0942 440.6783 368.9259 436.0843 368.1338 434.9753 367.1833 433.2328 366.5496 432.2823L365.5991 430.5397ZM386.5101 379.8463C389.0448 383.9651 392.3715 391.0939 394.431 397.2721 394.9062 398.6979 395.3815 399.8068 395.5399 399.8068 395.5399 399.8068 396.1735 399.3316 396.8072 398.6979L397.9161 397.4306 397.5993 396.0048C396.0151 389.1929 391.5795 383.0146 386.0349 378.8958 385.8765 378.8958 386.1933 379.3711 386.5101 379.8463ZM416.7655 380.6384C421.8349 374.3017 429.122 370.1829 436.8844 369.074 439.1023 368.7571 443.6964 368.7571 445.7558 368.9156 462.3895 370.975 476.9639 383.6483 485.2016 397.9058 495.4986 415.8069 497.2412 436.8763 489.6372 452.0843 484.5679 462.6983 475.5381 469.3518 464.6074 470.7775 462.0727 471.0944 456.0529 470.9359 453.5182 470.4607 435.9339 467.1339 419.4586 451.6091 411.8546 431.3317 404.8843 412.4802 406.7853 392.8365 416.7655 380.6384ZM455.2608 435.609C456.6865 436.7179 457.9539 437.3516 458.9044 437.3516 459.8549 437.3516 460.647 436.7179 461.1222 435.609 461.5975 434.6585 461.5975 434.5001 461.5975 431.807 461.5975 424.0446 456.5281 413.4307 451.142 408.0445 449.241 406.3019 447.9736 405.193 446.5479 404.7177 444.0132 403.6088 442.5875 405.193 442.2706 408.8366 441.7954 417.0742 448.4489 430.8565 455.2608 435.609ZM427.3794 430.5397C429.2804 438.6189 434.6666 448.2823 441.9538 456.52 442.9043 457.7873 444.0132 458.8963 444.1716 459.0547 444.4885 459.2131 445.1221 458.8963 447.4984 457.3121 447.4984 457.3121 446.3895 455.8863 444.6469 454.1438 437.3597 446.5398 431.4983 438.6189 428.8052 432.4407 428.3299 431.6486 427.8547 430.3812 427.5379 429.4307 426.7458 427.6882 426.7458 428.005 427.3794 430.5397ZM461.5975 385.2325C466.0331 389.8266 469.5183 395.5296 470.6272 400.4405L471.1025 401.7078H471.7361C472.053 401.8662 472.6866 401.7078 473.0035 401.7078 473.7956 401.5494 473.7956 401.391 473.3203 399.3316 471.8945 392.0444 467.6173 386.0246 462.2311 383.9651 461.439 383.6483 460.647 383.3315 460.3301 383.3315 459.538 383.1731 459.6965 383.1731 461.5975 385.2325ZM487.7333 377.3116C489.6343 366.2225 494.3868 359.8858 501.5156 358.46 503.0997 358.1432 506.1096 358.1432 508.0106 358.6185 516.8819 360.5195 527.4959 368.4403 539.0603 382.0641 543.9712 387.7671 544.6049 388.7176 546.6643 393.9454 550.3079 403.292 551.8921 411.0544 551.5752 417.5495 551.4168 422.7772 549.6742 426.4208 546.6643 427.8466 545.0801 428.4802 542.8623 428.6387 540.8029 428.1634 534.4662 426.2624 526.7038 419.1337 519.4166 408.0445 518.4661 406.4603 517.5156 405.193 517.5156 405.193 517.3572 405.0346 518.4661 408.8366 521.0008 418.0247 522.5849 423.5693 524.6444 430.0644 526.7038 436.2427 532.09 452.2428 534.1494 459.0547 534.9415 462.8567 535.2583 463.9656 535.4167 464.7577 535.5751 465.0745 535.5751 465.2329 535.892 466.5003 536.2088 467.7676 536.3672 469.0349 536.8425 470.6191 536.8425 471.2528 537.3177 473.3122 537.4761 475.3716 537.1593 476.9558 537.0009 478.0647 536.8425 478.8568 536.0504 480.5994 533.6741 485.035 530.0306 487.4113 524.9612 487.4113 522.9018 487.4113 521.7929 487.0944 519.2582 485.8271 501.0403 475.3716 490.7432 428.3218 487.8917 407.7277 487.0996 401.5494 486.9412 398.3811 486.7828 392.0444 486.6244 385.3909 486.9412 381.5889 487.7333 377.3116ZM510.3869 456.6784C511.9711 464.4408 516.7236 471.4112 522.9018 475.2132L523.5354 475.53 524.1691 473.9459C524.3276 473.1538 524.486 472.3617 524.486 472.2033 524.486 472.0449 524.0107 471.728 523.5354 471.4112 518.6246 468.5597 512.9216 461.2725 510.7037 454.9358 510.3869 454.1438 510.2284 453.5101 510.0701 453.5101 509.9116 453.5101 510.0701 455.0943 510.3869 456.6784ZM535.4167 395.2127C537.6346 398.6979 539.694 403.7672 540.6445 407.8861L540.9613 409.6287 542.5455 408.8366C543.3376 408.3613 544.1296 407.8861 544.1296 407.7277 544.2881 407.4108 541.7534 402.8167 540.4861 400.9157 539.2187 398.6979 537.1593 396.3216 535.4167 394.5791L534.4662 393.6286 535.4167 395.2127ZM549.672 404.0841C551.7314 388.8761 558.0681 374.1433 570.5831 364.9551 573.1177 363.2125 576.2861 361.9452 579.2959 361.6284 583.7316 360.8363 587.6921 361.6284 590.8604 363.6878 596.5634 367.3314 597.9891 374.3017 594.8208 380.9552 593.2366 383.9651 590.702 386.8166 587.6921 388.7176 585.3158 390.3018 584.999 390.6186 583.7316 392.2028 581.1969 395.0543 578.1871 400.4405 577.8702 404.2425L577.7118 405.8267H578.1871C579.7712 405.8267 582.1474 402.9752 586.2663 395.8464 589.5931 390.3018 596.5634 381.5889 603.3753 380.9552 606.7021 380.6384 610.3456 382.5394 611.2961 384.9156 612.0882 386.4998 612.2466 389.5097 611.9298 395.0543 611.7714 399.49 611.613 409.7871 611.7714 410.1039 611.9298 410.1039 611.9298 415.3317 612.0882 421.3515 612.2466 433.5496 612.5635 437.0348 613.3555 440.3615 613.514 441.4704 613.9892 442.8962 614.3061 443.5298 614.9397 444.4803 614.9397 444.6388 615.5734 444.7972 616.3655 444.7972 616.6823 444.1635 617.1575 442.2625 618.2665 437.9853 618.4249 432.1238 617.6328 423.8862 616.5239 408.8366 615.415 399.1731 614.3061 391.5691 613.8308 389.3513 613.8308 388.084 613.8308 383.8067 613.8308 378.2621 613.9892 377.3116 614.9397 373.9849 616.6823 369.2324 620.0091 363.5294 625.8705 363.5294 628.5635 363.5294 632.0488 364.9551 634.2665 367.0145 635.0586 367.8066 635.8508 368.4403 636.1675 368.5987 636.8012 368.7571 638.5438 370.975 639.9695 373.1928 645.5141 381.7473 649.1578 393.3117 650.5835 407.094 650.9003 411.2128 651.0588 421.8267 650.5835 425.6287 649.1578 445.4308 639.1775 477.431 617.6328 481.7083 615.7318 482.0251 612.4051 482.0251 610.3456 481.7083 594.504 479.0152 585.9495 458.7378 583.0979 444.6388 582.6227 442.5793 582.3058 441.1536 582.1474 441.1536 582.1474 441.312 581.5138 441.6288 580.8801 441.9457 576.9197 444.7972 572.3256 446.0645 568.2068 445.5893 558.2265 444.3219 551.0978 434.0248 549.3552 418.5 549.0384 415.1732 549.1968 407.2524 549.672 404.0841ZM562.0285 426.104C563.1374 428.6387 562.9791 428.4802 564.5632 426.7377L565.9889 425.1535 565.6721 424.3614C565.3553 423.8862 564.8801 422.7772 564.5632 421.9852 562.1869 415.8069 561.5533 407.4108 562.9791 400.2821 563.2958 399.1731 563.4543 398.2226 563.4543 398.2226 563.2958 398.0642 562.3454 399.6484 561.7117 400.9157 558.2265 408.0445 558.2265 418.3416 562.0285 426.104ZM594.504 452.2428C595.7713 458.2626 597.8307 462.6983 600.8406 466.8171 602.108 468.7181 604.1674 470.7775 604.3258 470.4607 604.4842 470.4607 604.9595 469.5102 605.2763 468.4013L606.0684 466.6587 603.3753 463.9656C600.207 460.7973 597.9891 457.3121 595.4545 453.6685 594.9792 452.718 594.504 452.0843 594.504 452.2428ZM636.0091 386.183C636.0091 386.183 636.4844 387.1335 636.9596 388.2424 637.9101 390.1434 640.6032 397.4306 640.6032 399.49 640.7616 399.49 642.029 397.4306 642.3458 396.1632 642.5042 395.5296 642.5042 395.5296 641.3953 393.3117 640.7616 392.2028 639.8111 390.4602 639.1775 389.6681 637.9101 388.084 635.8508 385.8661 636.0091 386.183ZM650.5798 381.2721C652.7977 379.8463 655.6492 379.2126 658.6591 379.5295 660.7185 379.8463 662.4611 380.3216 664.5205 381.4305L666.2631 382.2226 666.8968 381.4305C672.1245 374.9354 679.4117 370.975 687.8078 369.7076 690.0256 369.3908 694.4612 369.3908 696.8375 369.7076 714.7386 371.4502 729.1545 385.0741 735.9665 400.9157 737.3922 404.5593 737.8675 406.3019 737.8675 409.3118 737.8675 412.6386 736.9169 415.0148 735.1744 416.9158 733.1149 418.8168 730.7387 419.6089 727.4119 419.4505 720.6 419.4505 713.9465 413.9059 709.9861 408.995 706.1841 404.0841 699.2138 400.7573 693.0355 400.4405 691.4513 400.2821 689.5503 400.4405 690.0256 400.7573 690.184 400.7573 691.2929 401.0742 692.4018 401.5494 699.2138 403.4504 712.2039 411.6881 712.2039 419.7673 712.2039 424.5198 708.0851 425.9456 703.8078 425.9456 699.8475 425.9456 694.1445 424.3614 690.0256 421.9852 689.3919 421.6683 688.7582 421.3515 688.7582 421.3515 688.5998 421.3515 688.7582 421.8267 689.0751 422.302 690.5008 425.3119 694.7781 428.005 697.788 429.1139L699.3722 429.7476H704.2831C709.6692 429.7476 710.4614 429.906 713.4712 430.8565 720.6 433.2328 726.303 438.7773 728.0456 445.2724 728.5209 446.8566 728.3625 450.5002 728.0456 452.0843 726.1446 459.2131 719.1742 462.5398 712.3624 462.5398 694.7781 462.5398 678.1443 446.5398 670.5403 431.807 666.2631 423.7277 664.2037 415.9653 663.7284 407.5692L663.57 405.0346 661.9858 404.8762C655.4908 404.2425 648.9957 399.0147 646.9362 392.6781 645.5105 388.2424 646.9362 383.6483 650.5798 381.2721ZM712.8376 389.6681C718.0654 395.0543 722.501 400.5989 724.402 404.5593 725.1941 405.9851 725.1941 405.9851 726.4615 406.4603 727.2535 406.9356 727.8872 407.094 728.0456 407.094 728.204 406.7772 726.9367 403.4504 725.8278 401.2326 722.8179 395.3711 717.4317 390.1434 712.2039 387.7671 709.8277 386.6582 709.8277 386.6582 712.8376 389.6681ZM687.9662 439.0942C690.5008 443.6883 695.4118 449.0744 699.2138 450.817L700.1642 451.2923 700.7979 450.5002C701.2732 450.1833 701.59 449.7081 701.59 449.7081 701.59 449.5497 700.9563 449.2328 700.1642 448.916 697.3128 447.4903 693.5108 444.3219 690.0256 440.3615 689.0751 439.0942 687.9662 437.8268 687.6493 437.51 687.1741 437.0348 687.0157 436.7179 687.0157 436.8763 687.0157 437.0348 687.4909 437.9853 687.9662 439.0942Z" fill="#2d2d2d"/>
</g>
</g>
</svg>
