<svg xmlns="http://www.w3.org/2000/svg" xmlns:xlink="http://www.w3.org/1999/xlink" xmlns:inkscape="http://www.inkscape.org/namespaces/inkscape" version="1.1" width="91.70799" height="53.008394" viewBox="0 0 91.70799 53.008394">
<defs>
<clipPath id="clip_0">
<path transform="matrix(1,0,0,-1,-50.40331,403.4885)" d="M50.40331 350.4801H142.1113V403.4885H50.40331Z" clip-rule="evenodd"/>
</clipPath>
<clipPath id="clip_1">
<path transform="matrix(1,0,0,-1,-50.40331,403.4885)" d="M54.5612 350.634H141.028V399.282H54.5612Z"/>
</clipPath>
</defs>
<g clip-path="url(#clip_0)">
<g clip-path="url(#clip_1)">
<path transform="matrix(1,0,0,-1,-50.40331,403.4885)" d="M55.2242 358.0234C55.9323 353.893 57.7025 351.5328 60.3577 351.0017 60.9478 350.8837 62.0689 350.8837 62.777 351.0607 66.0813 351.7688 70.0347 354.7191 74.3421 359.7936 76.1713 361.9178 76.4073 362.2718 77.1744 364.219 78.5316 367.7003 79.1216 370.5916 79.0036 373.0109 78.9446 374.958 78.2955 376.3152 77.1744 376.8462 76.5844 377.0822 75.7583 377.1413 74.9912 376.9642 72.631 376.2562 69.7397 373.6009 67.0254 369.4705 66.6714 368.8805 66.3173 368.4084 66.3173 368.4084 66.2583 368.3494 66.6714 369.7655 67.6155 373.1879 68.2055 375.2531 68.9726 377.6723 69.7397 379.9735 71.7459 385.9331 72.5129 388.4704 72.808 389.8865 72.926 390.2995 72.985 390.5946 73.044 390.7126 73.044 390.7716 73.162 391.2436 73.28 391.7157 73.339 392.1877 73.5161 392.7778 73.5161 393.0138 73.6931 393.7809 73.7521 394.5479 73.6341 395.138 73.5751 395.551 73.5161 395.8461 73.221 396.4951 72.3359 398.1473 70.9788 399.0324 69.0906 399.0324 68.3235 399.0324 67.9105 398.9144 66.9664 398.4423 60.1807 394.5479 56.3453 377.0232 55.2832 369.3525 54.9882 367.0513 54.9292 365.8711 54.8702 363.5109 54.8112 361.0327 54.9292 359.6165 55.2242 358.0234ZM63.6621 387.5853C64.2521 390.4766 66.0223 393.0728 68.3235 394.4889L68.5595 394.607 68.7956 394.0169C68.8546 393.7219 68.9136 393.4268 68.9136 393.3678 68.9136 393.3088 68.7366 393.1908 68.5595 393.0728 66.7304 392.0107 64.6061 389.2964 63.7801 386.9362 63.6621 386.6412 63.603 386.4051 63.544 386.4051 63.485 386.4051 63.544 386.9952 63.6621 387.5853ZM72.985 364.691C73.8111 365.9892 74.5782 367.8773 74.9322 369.4115L75.0502 370.0606 75.6403 369.7655C75.9353 369.5885 76.2303 369.4115 76.2303 369.3525 76.2893 369.2345 75.3452 367.5233 74.8732 366.8152 74.4011 365.9892 73.6341 365.1041 72.985 364.455L72.631 364.101 72.985 364.691ZM81.1847 359.2625C83.0729 356.9023 85.7871 355.3681 88.6784 354.9551 89.5045 354.8371 91.2157 354.8371 91.9828 354.8961 98.1784 355.6632 103.6069 360.3836 106.6752 365.6941 110.5106 372.3618 111.1597 380.2096 108.3274 385.8741 106.4392 389.8275 103.0759 392.3057 99.0045 392.8368 98.0604 392.9548 95.8181 392.8958 94.8741 392.7188 88.3244 391.4796 82.1878 385.6971 79.3555 378.1443 76.7592 371.1227 77.4673 363.806 81.1847 359.2625ZM95.5231 379.7375C96.0542 380.1505 96.5262 380.3866 96.8803 380.3866 97.2343 380.3866 97.5293 380.1505 97.7063 379.7375 97.8834 379.3835 97.8834 379.3245 97.8834 378.3214 97.8834 375.4301 95.9952 371.4767 93.989 369.4705 93.2809 368.8214 92.8088 368.4084 92.2778 368.2314 91.3337 367.8184 90.8026 368.4084 90.6846 369.7655 90.5076 372.8338 92.9859 377.9673 95.5231 379.7375ZM85.1381 377.8493C85.8461 380.8586 87.8523 384.458 90.5666 387.5263 90.9207 387.9983 91.3337 388.4113 91.3927 388.4704 91.5107 388.5294 91.7467 388.4113 92.6318 387.8213 92.6318 387.8213 92.2188 387.2902 91.5697 386.6412 88.8554 383.8089 86.6722 380.8586 85.6691 378.5574 85.4921 378.2624 85.3151 377.7903 85.1971 377.4363 84.902 376.7872 84.902 376.9052 85.1381 377.8493ZM97.8834 360.9737C99.5355 362.6848 100.8337 364.809 101.2467 366.6382L101.4237 367.1103H101.6597C101.7777 367.1693 102.0138 367.1103 102.1318 367.1103 102.4268 367.0513 102.4268 366.9923 102.2498 366.2252 101.7187 363.5109 100.1256 361.2687 98.1194 360.5016 97.8243 360.3836 97.5293 360.2656 97.4113 360.2656 97.1163 360.2066 97.1753 360.2066 97.8834 360.9737ZM108.3245 377.3183C109.8587 374.0139 113.458 372.3618 116.9394 372.3618 118.9456 372.3618 122.781 372.5978 124.8462 373.0109 126.4983 373.2469 127.6195 373.0698 128.3865 372.5388 128.8586 372.2438 129.0356 371.8307 129.0356 371.2407 129.0356 369.9426 127.9735 369.1165 126.7344 368.8805 126.0853 368.7624 124.9642 368.8214 124.2561 368.9985 123.371 369.2345 121.6008 369.8245 119.8897 370.4736 118.0605 371.1817 116.9984 371.4767 115.7593 371.6537 114.2841 371.8307 112.986 371.7127 112.0419 371.1817 110.5667 370.5326 109.7407 368.4674 109.3866 366.9923 109.2096 366.1072 109.2096 364.632 109.3866 363.983 109.7407 362.2128 111.2748 360.6197 112.6319 359.4985 115.0512 357.6103 117.8835 356.4302 121.2468 356.0762 121.4238 356.0762 122.2499 356.0762 123.135 356.0762 124.4331 356.0762 124.9642 356.1352 125.9673 356.2532 128.2095 356.6663 131.8679 357.8464 133.6971 359.2625 137.5915 362.0948 139.3026 365.9302 140.4238 370.5326 140.7188 371.5947 140.7188 371.7127 140.7778 372.9518 140.7778 375.4891 140.1877 377.3773 138.8896 379.5015 136.8244 382.4518 133.225 384.93 129.5667 384.93 127.9735 384.93 127.1474 384.812 125.4362 384.34 123.9021 383.8679 122.958 383.7499 121.8959 383.8089 121.1288 383.8679 120.5978 383.9269 120.2437 384.1629 120.0077 384.2809 119.7717 384.517 119.7717 384.635 119.7717 384.812 120.3617 385.343 120.7748 385.5791 121.6008 385.9921 122.1909 386.1691 123.194 386.2281 126.0853 386.3462 132.576 386.8772 134.2871 389.5915 135.1722 390.8896 135.4083 392.7188 134.8772 394.0169 134.2281 395.61 132.1039 397.3802 130.1567 398.0293 129.1536 398.3243 128.2685 398.4423 126.6164 398.4423 118.2375 398.4423 112.0419 394.0169 108.9146 386.4642 108.5605 385.6971 108.1475 384.34 107.9705 383.4549 107.5574 381.3897 107.6754 378.6164 108.3245 377.3183ZM113.222 384.871C113.458 386.1101 114.1661 388.2343 114.7562 389.2964 115.6412 390.8896 117.0574 392.4237 117.6475 392.4237 117.7655 392.4237 117.8835 392.4237 117.9425 392.4828 117.9425 392.4828 118.0605 392.5417 118.1785 392.5417 118.4145 392.6008 118.4735 392.5417 118.6505 392.3647 118.8866 392.0697 118.8866 391.8337 118.7096 391.5387 118.5325 391.3026 118.2375 391.0666 117.2934 390.3585 115.5822 389.0604 114.4021 387.5853 113.576 385.5791 113.517 385.343 113.34 384.871 113.281 384.517 113.104 383.8679 113.045 384.0449 113.222 384.871ZM131.6909 363.3339C132.93 364.632 133.7561 365.9302 134.5822 367.8773 134.9362 368.6444 135.2312 369.1165 135.7623 369.4705 136.1163 369.7065 136.1753 369.7065 136.1753 369.2935 136.1753 367.2283 133.225 364.278 131.5138 362.9799L131.1008 362.6848 131.6909 363.3339Z" fill="#2d2d2d"/>
</g>
</g>
</svg>
