<?xml version="1.0" encoding="UTF-8" standalone="no"?>
<svg
   id="Destellos"
   viewBox="0 0 57.10174 46.122424"
   version="1.1"
   width="57.101742"
   height="46.122425"
   xmlns="http://www.w3.org/2000/svg"
   xmlns:svg="http://www.w3.org/2000/svg">
  <defs
     id="defs7" />
  <path
     d="m 24.024353,36.157687 c -2.58,4.86 -2.25,7.3 -0.49,8.79 2.28,1.93 5.8,1.4 7.59,-0.99 4.07,-5.43 4.73,-16.35 12.86,-12.82 2.95,0.43 12.11,5.6 13.03,2.42 1.36,-4.69 -13.55,-5.27 -17.18,-9.35 -4.19,-4.34 3.64,-14.5799996 4.69,-21.1199996 0.5,-3.12999996 -4.06,-4.34 -5.35,-1.44 -8.29,18.6099996 -4.11,24.4099996 -28.14,12.1299996 -2.1199997,-1.01 -10.12999974,-4.5799996 -10.96999974,-0.7 -1.76999996,8.12 33.63999974,7.12 23.94999974,23.07 z"
     style="fill:#000000;stroke-width:0px"
     id="path1" />
</svg>
