<?xml version="1.0" encoding="UTF-8" standalone="no"?>
<svg
   id="Destellos"
   viewBox="0 0 70.007391 105.21571"
   version="1.1"
   width="70.007393"
   height="105.21571"
   xmlns="http://www.w3.org/2000/svg"
   xmlns:svg="http://www.w3.org/2000/svg">
  <defs
     id="defs7" />
  <path
     d="m 26.380499,75.509584 c -29.0699999,47.109996 -35.4399999,13.33 -12.45,-14.76 1.86,-2.28 5.42,0.25 3.86,2.75 -5.7,9.17 -14.5399999,21.24 -13.6999999,27.47 0.26,1.94 2.8,2.62 4.09,1.15 4.1399999,-4.72 9.6099999,-14.28 14.4699999,-19.53 1.94,-2.09 5.22,0.49 3.72,2.92 z m 24.26,26.969996 c 4.42,5.23 13.15,2.51 13.48,-4.329996 0.86,-17.42 -13.66,-45.85 -17.65,-43.33 -4.35,2.74 3.71,4.03 12.41,35.63 1.34,4.86 -2.78,10.099996 -6.26,6.45 -6.32,-6.63 -6.61,-16.42 -9.74,-14.8 -4.91,2.54 1.42,12.91 7.75,20.379996 z m -8.33,-69.299996 c 5.3,-1.04 12.12,-15.11 19.29,-20.8 1.84,-1.46 4.54,0.33 3.88,2.59 -2.62,9.03 -13.02,15.5 -18.95,23.05 -1.8,2.29 1.21,5.26 3.47,3.42 10.36,-8.43 24.78,-29.21 18.46,-36.0800004 -0.74,-0.8 -1.99,-0.9 -2.92,-0.34 -8.14,4.92 -29.59,29.4000004 -23.23,28.1600004 z m -22.21,-31.8400004 c -14.7799999,-10.33 -3.21,42.6200004 3.06,38.0100004 3.08,-2.26 -12.45,-28.73 -6.43,-33.5400004 2.91,-2.32 6.35,8.0700004 9.24,14.6700004 0.94,2.14 4.05,1.44 4.01,-0.89 -0.1,-5.47 -5.01,-14.2900004 -9.88,-18.2400004 z"
     style="fill:#000000;stroke-width:0px"
     id="path6" />
</svg>
