<?xml version="1.0" encoding="UTF-8"?>
<svg id="Amplificador" xmlns="http://www.w3.org/2000/svg" viewBox="0 0 425.2 425.2">
  <path id="Amplificador-2" data-name="Amplificador" d="M359.52,206.42c-.58-2.44-2.1-6.58-3.82-9.27-3.2-9.37-68.85-104.57-79.21-118.5-3.13-4.2-12.2-7.11-12.2-7.11,0,0-61.88-12.99-76.22-3.69-14.82,8.43-36.95,45.68-36.95,45.68,0,0-40.63,61.29-56.92,94.29-5.76,12.58-9.19,27.95-3.05,40.92,10,20.25,24.69,44.38,32.12,59.58,9.3,19.05,29.6,70.81,46.62,70.81,47.36,0,72.56,3.46,88.3-8.41,18.58-9.55,82.81-103.53,99.64-138.4,4.53-8.38,3.2-19.6,1.69-25.91ZM252.01,230.65l-3.12,4.04-3.01-12.46,6.13,8.41ZM242.34,227.45s1.75,6.06,2.25,12.83l-10.58,13.72c-3.32-30.72-10.17-75.36-10.17-75.36l18.5,48.82ZM138.89,284.15c-.43-9.62-.21-21.02-4.61-29.33-3.25,9.29.3,20.55-2.03,29.93-.8-.26-1.85-.41-2.3-1-4.38-6.5-10.24-12.75-10.02-21.11.05-2.62-1.25-3.93-4.03-3.89-2.33-1.45-7.97-13.43-11.4-21.09-1.78-3.98-1.47-8.56.83-12.26,13.69-22.04,73.85-117.3,77.56-119.72,1.06-.69,2.55-.34,3.33.89,5.77,10.86,31.47,54.97,31.53,54.95,0,.09,7.42,62.72,7.42,62.72,0,0,1.99,20.41,4.13,35.82l-8.2,10.63c-2.82-25.76-12.79-118.66-12.86-118.7.61.6-.02-2.35-7.01-9.6-5.61,7.36-54.33,68.11-67.31,90.2-1.78,5.06,7.12,3.08,6.71,7.9,1.5,22.37,5.55,44.7,5.55,67.11-8.29-2.67-7.02-15.98-7.31-23.44ZM146.95,251.27c.51-9.2-6.08-18.74.29-27.03,3.66-5.54,7.38-11.04,11.16-16.49,1.99-3.59,4.57-.12,6.66,1.97,0-.02,0-.04,0-.06.06.05.11.11.16.16-.59-5.88-.3-11.51,4-16.07,7.44-8.79,14.64-17.78,21.94-26.69,2.23-1.68,8.28-12.83,10.49-9.93,3.86,29.42,7.37,58.74,10.91,88.11,1,10.58,2.18,21.18,3.74,31.74l-10.23,13.26c-.72-4.51-.77-9.11-1-13.85-2.03-18.91-4.72-37.76-5.28-56.72-1.3-3.84-4.58-52.46-8.98-44.71.98,11.5,8.55,91.67,11.85,119.7l-7.97,10.34c-3.15-28.14-10.41-91.98-11.3-98.99-.07-.51-.86-.94-1.32-1.4-.99,2.18,8.38,67.84,7.78,106.66l-8.29,10.74c-4.98-32.32-13.86-101.62-14.04-107.84-.19-1.79-.96-3.21-2.29-4.35,0,.02,0,.05,0,.07-.06-.06-.11-.11-.17-.17-.52,7.18,7.63,80.37,11.41,118.88l-7.22,9.36c-3.08-28.42-4.79-57.03-7.96-85.44-2.16-10.54-.88-22.85-5.83-32.33-1.75,3.92,6.89,97.64,6.43,114.39-3.56,1.52-7.63-10.2-7.84-13.36-2.75-23.32-4.25-46.68-7.1-69.95ZM121.63,239.66c-1.19,4.51-11.94,8.8-12.94-2.07.08-3.04,1.21-6.32,4.36-8.82,6.36-5.05,11.66,3.89,8.58,10.89ZM177.44,125.72c13.48-8.99,15.12,17.13,7.49,23.75-16.21,12.55-16.67-19.41-7.49-23.75ZM152.2,161.96c-1.89-6.39,7.63-7.42,7.37-.37-.06,1.7-2.1,2.95-3.81,2.95-2.65,0-3.28-1.86-3.56-2.58ZM159.35,169.35c1.84-4.05,7.53-3.15,8.42,1.2.77,3.8-1.44,7.6-6.29,5.29-2.83-1.27-3.19-4.15-2.13-6.49ZM126.25,222.35c-5.24-1.3-4.51-8.44-.56-11.24,6.89-2.4,5.85,9.89.56,11.24ZM139.01,202.94c1.8.52,1.44,5.57-1.17,4.41-3.66-1.22-1.63-5.22,1.17-4.41ZM145.46,192.03c1.8.52,1.44,5.57-1.17,4.41-3.66-1.22-1.63-5.22,1.17-4.41ZM152.97,181.66c1.8.52,1.44,5.57-1.17,4.41-3.66-1.22-1.63-5.22,1.17-4.41Z" style="fill: #000; stroke-width: 0px;"/>
</svg>