<?xml version="1.0" encoding="UTF-8"?>
<svg id="Botellita" xmlns="http://www.w3.org/2000/svg" viewBox="0 0 425.2 425.2">
  <path id="Botellita-2" data-name="Botellita" d="M349.93,207.79c-2.03-24.42-20.31-40.01-44.13-42.03-23.48-4.76-46.2-12.63-69.49-18.33-45.5-7.71-110.57-45.18-138.27,12.88-2.45,5.5-3.74,14.95-11.06,10.06-11.51-3.6-15.62,7.35-27.18-2.92-19.09-5.86-29.68,24.81-17.34,36.94,7.17,9.33,21.51,3.94,27.55,14.88,6.13,7.17,14.94,1.16,22.48,3.02,8.62,15.59,16.51,33.76,33.76,41.97,51.41,23.1,100.23,37.69,157.31,43.97,52.28,10.79,72.93-59.55,66.38-100.44ZM63.54,182.47c-2.79,6.19-4.08,12.63-3.8,19.36-7.76,10.68-16.3-7.68-14.43-15.07-.2-9.05,16.49-16.64,17.97-5.28.09.33.2.66.26.99ZM342.07,231.66c-2.26,20.13-12.86,76.54-41.97,57.07-8.73-14.71-11.68-3.86-4.51,5.96-52.61-3.75-105.15-22.63-156.55-35.25-29.03-4-25.24-56.28-47.4-52.05-9.88,1.89-10.03-8.61-10.85-14.24-.1-.44-.8-1.18-.92-1.13-10.03,4.16-1.43,13.97,2.56,19.47-.24.54-.58.97-1.07,1.12-14.07,11.29-21.91-36.54-.39-32.91,3.21-1.73,27.57,18.37,33.14-14.89,3.8-22.7,32.47-25.22,54.16-21.12-15.27,2.67-32.24,1.28-41.96,15.53.05,0,.1,0,.15,0-.02.06-.05.11-.07.17,47.2-23.52,91.58-1.65,139.5,7.58,8.39,4.52,32.6-.55,34.03,9.21-.26,1.59-1.56,3.55.26,4.52,4.27.43,6.29-6.72,11.27-6.2,8.18,2.66-8.05,11.23-8.41,16.67-2.28,4.68,2.88,6.11,5.07,2.76,22.68-35.27,36.46,17.57,33.99,37.73ZM281.21,280.81c-2.99,2.37-5.97,2.04-8.67,1.55-6.13-1.12-71.11-13.29-88.61-17.82,1.27-1.08,1.88-2.05,2.58-2.11,2.25-.2,89.62,16.82,94.7,18.39ZM289.55,204.44c-18.5-1.18-37.04.68-55.45-1.71,41.71-9.48,6.69-47.59-8.13-3.91,3.95-3.57,21.42-27.8,20.72-9.67-3.48,9.98-14.07,7.16-21.85,11.55-5.72-4.45-2.5-13.42-5.01-20.19-13.59-25.24-29.37,8.04-10.06,21.41-32.92,1.05-29.44-34-53.85-42.81-24.09,3.56-35.74,63.85-1.75,65.39,39.12.75,44.37-4.9,79.47,15.73,23.33,13.62,54.86,25.73,76.8,14.21,7.91-20.48,12.79-59.02-20.87-50.01ZM207.97,191.12c-7.32-24.21,10.48-19.71,8.96,10.59-4.63-.39-7.52-8.4-8.96-10.59ZM190.41,217.09c-14.42-2.24-32.95,3.93-45.15-4.23-9.95-13.77-5.79-34.86,4.02-47.39,11.83-9.22,26.4,25.12,30.44,33.83,1.16,5.54,17.24,13.48,10.68,17.79ZM204.94,214.02c-7.26,5.61-11.74-11.68-15.26-15.95,6.42,3.25,11.8,8.55,19.45,7.92-1.96,2.24-3.4,4.88-4.19,8.02ZM213.24,213.26c4.57-16.48,6.65.6,4.57,8.48-3.44-2.02-4.53-4.97-4.57-8.48ZM285.49,255.4c-23.1-9.11-67.44-14.22-61.93-49.23,20.86,1.99,41.96,7.73,62.07,1.77,6.81-2.06,13.76-4.22,20.72-.11-28.18,4.81-10.35,49.71-20.86,47.58ZM306.77,249.93c-1.47-3.29-.94-10.53-4.27-8.15.34-15.76,9.42-5.7,5.29-13.29-10.82-2.38-2.04,20.05-10.84,17.62-10.94-5.45,1.02-14.03,0-22.22,11.01-24.75,19.17,15.38,9.83,26.04ZM171.4,257.81c.44.06.46.63,0,.68-11.52,1.19-23.14-.42-32.79-7.27-11.04-7.84-15.6-20.53-20.2-32.66-.07-.18.27-.23.36-.11,5.98,8.71,9.74,19.18,17.32,26.64,9.79,9.62,22.43,10.92,35.31,12.72Z" style="fill: #000; stroke-width: 0px;"/>
</svg>