<?xml version="1.0" encoding="UTF-8"?>
<svg id="ColBros" xmlns="http://www.w3.org/2000/svg" viewBox="0 0 867.12 867.12">
  <path id="Derecha" d="M671.6,765.88l.04.04-.04-.04h.07v.07h-.19s.07-.06.11-.07ZM703.84,177.65c.43-1.88.45-4.52-1.8-5.15-2.01-.56-2.62,3.96-2.79,4.37-1.12,2.62-2.16,2.84-3.38.04-1.13-2.64-3.48-4.33-5.6-6.02-4.91-3.9-14.13-2.42-16.9,2.44-.28-.32-.56-.63-.84-.93-.26-1.19,1.93-2.68-.07-3.5-1.54-.63-1.77,1.3-2.45,2.19-.37.48-.61,1.06-.87,1.62-.41.82-.78,1.86-1.97,1.32-.93-.43-2.62-.59-2.53-1.69.3-3.64-.39-8.44-1.54-9.22-1.73-1.19-7.9-4.31-9.07-6.38-.91-1.58-2.08-.73-3.16-.15-4.56,2.44-4.03,9.59.91,12.98,13.55,9.24,28.99,12.33,44.94,13.44,3.42.24,6.32-1.71,7.14-5.34v-.02ZM716.91,196.38s0,.06.02.07c.04,0,.06.02.09.04,0-.04-.04-.07-.04-.11h-.07ZM757.74,180.8c2.81-.86,3.57-2.86,4.54-4.65,1.12-1.97,2.14-3.96,1.78-6.34-.04-.97-.67-2.16-1.41-1.71-1.43.84.8,3.07-1.73,7.25-.97,1.6-2.58,2.7-3.2,5.45h.02ZM723.44,159.28c2.77-2.44,1.75-4.85-.17-2.9-.78.8-1.58,1.64-2.62,2.06-10.67,4.37-25.34.33-28.67-10.9-.46-1.58-2.55-4.46-1.84-.02,2.12,13.2,22.53,20.49,33.28,11.77l.02-.02ZM738.72,134.2c-.06-2.84-2.6-2.99-4.67-3.48-3.44-.8-50.55-17.29-52.04-17.79-4.8-1.65-4.72,1.51-5.61,4.57-.5,1.73-2.16,6.82,3.64,4.33.26-.11,25.94,9.76,25.66,10.36-.35.8-8.55-1.58-10-1.45.3.13.59.28.91.43,1.17.52,2.36,1,3.55,1.49,3.85,1.38,7.7,2.73,11.58,4,3.42,1.02,6.97,2.47,10.45,3.31-2.29-1-6.27-3.57-8.55-4.59.32-.3,14.26,4.13,18.43,4.57,2.62.28,6.71-3.16,6.66-5.78v.04ZM726.17,145.17c-8.27-2.7-30.4-9.98-33.8-11.08-1.1.54-2.12,1.38-3.03,2.57-.89,1.19-2.55,2.47-1.34,4,.89,1.12,2.31.24,3.37-.74,1-.91,2.45-1.13,3.7-.61l4.98,2.1s.07,6.86,3.27,9.44c4.35,3.53,14.11,4.96,17.83.63,3.59-4.2,4.44-4.03,6.6.09.35.67.91,1.39,1.8.97,1.02-.46.99-1.41.73-2.36-.19-.67-.41-1.3-.65-1.92-.63-1.51-1.95-2.58-3.5-3.09h.04ZM664.05,180.67c-1.32-1.56-3.14-2.7-5.3-1.71-2.06.95-2.55,2.92-2.68,5.8-.74,3.03,3.18,5.54,2.94,9.24,0,.15,1.04.58,1.13.48,2.16-2.6,6.28-2.83,7.34-6.95.95-3.68-1.77-4.91-3.42-6.88l-.02.02ZM559.66,140.91s-.04.06-.04.09M692.19,42.26l-.09.04s.04,0,.06-.02h.04v-.02ZM774.2,123.29s-.04.07-.06.11h0l.06-.11ZM742.85,493.09s0,.04-.02.06v.04l.04-.07-.02-.02ZM645.82,131.75c.52,3.25,3.85,8.91,8.39,10.99-.06-.06,1.41-.52,1.45-.69-2.23-.97-4.69-3.01-5.86-5.17-4.41-5.69-1.73-16.03-1.8-16.44,2.12,1.04,5.09,3.33,5.09,3.33,0,0-4.33,13.98,11.03,13.8.07,0-.58,1.97-.8,2.99-.13-.07-3.44,5.21-2.73,5.76,1.02-.91,1.9-1.69,2.77-2.49,0,1.36-1.36,8.74-.95,11.21,2.57,2.81,17.22,3.16,18.13,1.43-2.96-1.3-14.11-.04-15.49-2.51-2.7-4.83,4.57-28.97,5.95-34.51,0,0-1.41-.71-2.29,0s-2.25,4.56-2.25,4.56c0,0-13.22-7.27-18-10.43-.67.2-1.17.46-1.54.76-.11.39-.22.78-.35,1.15.41.33-1.39,12.18-.74,16.23v.02ZM773.21,178.86c-2.08,5.82-7.08,10.77-13.03,12.64,0,.56-1.69,6.45-2.12,7.83-.91,3.07-2.34,5.15-5.84,5.5-3.63.35-5.17-1.82-6.4-4.61-.84-2.1-1.38-4.24-1.65-6.49-.2-1.6-13.01,18.82-14.28,26.64-14.54,38.51,51.8,50.05,34.12,117.49l.04-.11c-16.16,38.58,15.97,97.91-17.44,125.87h0c-.71,7.2-.95,14.45-2.29,21.59-.5,2.64-.93,5.28-1.52,7.9-.91,1.43.3,3.29-.89,4.67v-.07c-1,1.43.3,3.33-.93,4.72-2.44,10.34-4.78,20.69-7.33,31.01-3.09,12.44-12.29,28.93-17.89,42.32h0s-6.4,18-6.99,15.39c-.06-1.15,19.13-49.88,22.2-61.63,3.29-12.64,6.41-41.15,8.39-54.1.22-1.52.33-3.05.5-4.57.32-2.68-.65-3.51-3.51-2.44-2.53.95-5.24,1.17-7.94,1.34-3.89.24-5.08,2.53-5.39,6.28-1.71,19.67-5.63,38.91-11.17,57.84-3.55,12.14-8.14,23.85-14.6,34.77-1.26,2.14-7.62,8.4-9.85,8.7h0c-1.62,1.41-3.29,2.79-4.85,4.28-6.12,5.86-12.09,6.3-19.08,1.36-2.21-1.56-4.22-3.83-7.38-2.27-3.44,1.67-4.07,4.78-4.03,8.16.02,2.16.26,4.29.43,6.43.41,5.39,2.23,10.63.04,16.25-1.38,3.53-.2,7.6,1.52,11.19,2.18,4.52,3.31,4.63,7.96,2.97,6.1-2.18,12.14-.43,18.03,1.6,3.61,1.19,5.84-.71,8.05-3.27,3.9-4.52,7.1-9.52,10.49-14.39h0c1.17-2.19,6.41-12.57,6.41-13.01.67-.19,1.52-1.3,1.88-.56.74,1.6-13.52,26.31-17.96,31.24-3.55,3.92-7.2,7.21-12.85,3.68h0c-1.12-.09-15.45,1.39-20.75-.04-4.24-1.15-9.37-10.71-7.38-16.1,3.2-8.65.33-16.83.17-25.17-.11-5.54,2.31-9.82,5.09-13.94,2.29-3.38,5.82-2.84,9.07-1.02,1.6.89,3.12,1.92,4.69,2.86,5.34,3.14,10.62,2.71,15.84-.24,2.92-1.6,5.17-3.94,7.38-6.3v.17c.04-.13.04-.22,0-.17.02-.5.11-.99.26-1.45,13.59-24.73,16.92-52.11,20.82-79.37.89-6.28.35-12.61,1.02-18.87.33-3.1-.89-4.85-3.44-6.32-9.59-5.5-15.43-14.45-18.76-24.34-2.53-7.49-3.38-15.77-4.16-24.45h-.06c-8.31,12.27-14.71,24.91-19.41,38.41-.2.58-.28,1.21-.52,1.77-6.6,15.02-5.45,29.92.59,44.81,1.26,3.1,2.44,6.32,2.64,9.76.2,3.51-.41,6.82-2.79,9.5-1.86,2.08-1.86,4.26-1.54,6.84,1.25,10.06.26,38.78.26,38.78l-1.56-.11c-2.27-9.41-6.53-40.14-11.17-40.92-2.4-.39-1.38-3.1-2.38-4.57h-.04c-4.8,1.21-8.91,4.03-13.5,5.67-1.23.45-1.58,1.15-1.26,2.47.3,1.17.26,2.44.32,3.64.09,2.03-.71,4.37,2.31,5.19,2.71.73,5.06.52,7.2-1.58,1.88-1.84,2.9-4.7,5.97-5.43-.59,8.57-9.46,12.59-17.38,8.03.04.04.09.06.13.09-4.22,3.87-9.44,4.11-14.67,3.74-10.8-.76-21.01-3.51-29.86-10.15-1.1-.5-2.06-1.13-2.27-2.55,1.47-.3,2.6.22,3.55,1.28,10.84,5.73,22.16,9.46,34.64,8.78,2.68-.15,5.13-.84,7.4-2.21.15.45.54.63.87.87-.3-.45-.65-1.02-.93-1.45-.19-3.07,1.49-6.94-.95-8.59-1.9-1.28-5.8.43-8.81.74-12.18,1.26-23.85-1.75-35.6-4.09-5.22-1.04-5.24-1.15-4.96,4.26.19,3.68.52,7.36.78,11.04-.93,2.42.82,5.21-1.04,7.51-3.85-6.3-4.24-13.44-4.13-20.41.07-4.65-2.25-5.76-5.76-6.4-2.1-.37-4.22-.54-6.34-.8l-.04.04.69,15.32h0c-.89,2.16.78,4.72-1.08,6.71,0,0-.19-.09-.24-.13-1.34-1.88-1.52-12.22-2.47-14.41-.41-5.35-3.64-7.57-8.61-9-4.76-1.38-9.85-2.86-12.79-7.49h-.04c.3,11.68-2.64,23.18-2.18,34.84.69,17.18,1.78,34.34,3.37,51.48,2.1,22.85,5.37,45.5,10.41,67.88,4.13,18.31,9.72,36.26,14.5,54.38,1.32,4.98,4.89,7.18,9.2,8.79.71.3,1.39.63,2.01,1.1.99.74,2.1,1.52,1.6,2.97-.37,1.12-1.41,1.6-2.53,1.77-2.55.37-21.2-15.93-18.87.45.35,2.51,1.51,2.66,2.83,3.44,5.02,2.97,8.94,6.95,11.58,12.18,1.65,3.25,1.47,6.69.73,10.24,0,.02,0,.04.04.04,9.44-3.18,23.98-12.31,18.67-24.82h0c-.13.89-4.54-150.99-4.05-153-.13-.39-.24-.74-.37-1.13-8.57-8.18-19.6-11.84-29.95-16.71-2.12-1-4.57-5.47-4.09-5.35.22-.04.46-.09.71-.13,8.57.99,15.93,5.35,24.15,8.68-.2-1.64-1.3-2.44-2.18-3.33-.99-.99-2.32-1.58-3.18-2.64-1.08-1.34-4.16-2.1-1.78-4.76,6.27,3.12,11.36,7.34,15.32,13.35,8.39,12.7,17.27,25.08,26.03,37.54,5.54,7.85,9.82,16.49,12.96,25.58,4.5,13.01,10.86,25.55,12.72,39.25,2.36,17.2,7.72,33.93,8.11,51.41.22,9.97.22,19.95-2.21,29.8-1.71,6.9,1.58,12.9,4.63,18.8.65,1.26,1.6,1.64,3.05,1.26,5.19-1.32,10.11.54,14.91,1.86,4.83,1.34,6.32,6.27,8.65,10.39h.04c2.81-4.39,6.8-8.07,7.92-13.5,0,0-8.33-125.26-8.76-129.37-.11-1.1-.59-2.6,1.34-2.84,1.9-.22,2.36,1.15,2.64,2.53,1.34,6.95,2.88,13.87,3.85,20.88,2.55,18.46,2.92,37.09,3.92,55.68.61,11.56.58,23.07-.41,34.58h0c.02,2.77.06,5.56.07,8.33,1.43,2.86,1.12,5.93.95,8.96-.24,4.29-1.95,8.2-.11,13.01,1.39,3.68-1.73,8.39-3.22,12.53-.41,1.13-.93,2.23-1.41,3.33.52,6.99.61,13.94-2.6,20.45-6.9,18.8-21.83,26.79-39.08,20.92-9.22-3.14-16.84-15.43-15.38-24.9.56-3.61,2.12-6.84,5-9.11,3.57-2.83,6.02-6.56,8.78-10.06,1.71-2.18,2.71-4.41,2.44-7.57-.22-2.64,2.57-5,2.6-8.16.02-1.9.04-3.55-.95-5.26-2.79-4.85-4.76-10.13-6.19-15.49-1.64-6.15-.09-12.55,3.48-17.83.97-1.43,1.1-2.66,1.19-4.07,1.25-17.59-1.97-34.66-6.32-51.54-6.95-26.96-15.19-53.49-28.48-78.16-3.98-7.4-8.53-14.45-13.91-22.11h-.06c-1.71,9.15-2.01,17.51-2.6,25.81-2.19,31.16,4.52,62.3,3.33,93.52-.32,8.5-1.95,16.18.99,23.87,1.92,5.02,2.36,9.78,2.19,15.47-.11,3.83,1.23,7.72,2.96,11.43,4.63,10.04,2.31,17.27-6.82,23.41-2.32,1.56-5.19,1.73-7.51,1.54-3.46-.28-5.08,1.26-5.65,3.89-2.34,10.8-10.91,13.68-19.91,15.95-7.75,1.95-15.56,3.96-23.67,1.73-9.82-2.7-18.44-7.29-23.35-16.58-4.7-8.92-1.06-17.7,8.26-21.34,4-1.56,7.96-3.4,12.12-4.37,4.33-1,5.99-3.57,6.79-7.53,1.32-6.69,3.44-12.87,9.89-16.7,2.05-1.23,3.25-3.4,3.57-5.76.61-4.56,7.14-5.32,6.21-9.71-.32-1.51-10.58-37.89-18.67-80.95h0c-8.14-64.39-10.08-138.81-11.08-143.42-.06-.28-.39-.86-.65-1.49-.06.02-.09.02-.13.06-5.5-8.24-1.1-19.02,3.01-26.81,13.67-35.16,23.52-72.06,41.46-105.72,1.64-2.92,6.71-8.65,6.25-11.75-4.11-3.79-10.62.22-12.09-4.61-.35-4.07-2.25-2.99-5.08-1.99-76.14,27.03-68.48-109.75-69.11-110.68h0c-10.43-2.75-13.07-25.73-15.62-28.56-13.41-14.89-1.64-32.74,3.31-33.24h.02c9.13-16.38,18.37-23.15,27.41-10.3.32.54,1.95-.19,1.75-3.57-.33-5.91-3.14-21.16-2.96-29.56.11-5.56,3.24-8.94,5.91-9.48,7.55-1.47,8.85,14.58,8.85,14.58,3.51,12.36,3.29,31.83,8.74,28.35,5.6-3.55,6.62-42.82,21.94-35.27,2.38,1.17,4.29,4.52,4.39,7.16.86,26.49-25.62,57.92-21.25,73.05l.06-.11c.99,10.71-6.95,17.85-14.73,24.02h0c-.52,1.67-13.96,19.39,3.09,59.96,10.88,25.88,33.35,6.71,35.21,5.97.87-.84,2.29-1.17,2.57-2.6.58-2.55.33-5.3,1.71-7.68,1.15-5.3,5.67-7.44,9.87-8.81,8.83-2.88,15.34-8.98,22.29-14.48h0c20.99-24.3,48.4-38.69,80.75-32.26h0c2.27-1.02,4.83.39,7.08-.84h0c3.22-4.46,3.44-10.1,5.84-14.87,1.04-1.25,2.18-1.88,3.63-.59.89,10.08-3.01,18.54-9.3,25.92-2.7,3.16-7.07,4.05-10.97,2.6-6.19-2.29-9.67,0-9.91,6.41-.3,7.33,3.12,12.87,9.24,16.47,13.68,8.03,36.44,9.13,50.83-1.75,2.36-1.78,4.56-3.7,5.75-6.49.89-2.08,1.43-4.46-.39-6.06-4.95-4.33-5.45-10.13-5.39-15.92.11-11.53,16.6-53.1,17.51-52.64,4.67,2.44,3.48-2.1,5.78-3.96,4.98-4.02,6.95,2.03,6.15,5.35-.22.91-.61,2.16.76,2.75,2.47-.87,4.95-1.84,7.46-2.62,4.59-1.43,7.51-4.33,8.48-9.09.91-3.64-1.02-6.4-2.84-9.18-4.59-4.29-9.18-2.71-14,.52,1.43-3.7,3.7-5.3,7.16-5.5,8.96-.52,8.63,6.27,10.43,5.73.11-2.62,0-5.21-.99-7.7-2.62-6.64-8.66-8.03-14.43-3.72-7.6,5.69-11.75,14-16.94,21.51-.06,1.93-.48,3.57-2.86,3.74-1.64,1.32-2.34-.73-3.53-1-1.73.95-.17,1.78.09,2.66h0c.65,1.1.74,2.34.35,3.44-.76,2.14-1.25.82-1.65-.26-1.41-4.02-2.88-8.03-4.2-12.09-.41-1.25-1.36-2.66-.33-3.96,1.56-2.01,2.23,1.86,3.76.67h0c.87-1.19,1.9-.43,2.86-.22.06-1.08.13-2.14.19-3.22,2.49-5.93,6.14-11.32,9.59-16.58,5-7.62,7.77-15.02,3.76-23.58-2.05-4.37-1.97-8.42.2-12.35,5.6-10.11,4.87-20.25,1-30.64-2.49-6.69-7.29-11.21-13.18-14.82-.73-.45-1.6-.59-2.44-.48-13.24,1.69-24.77-3.81-36.44-8.66-.82-.33-1.84-.89-2.19-1.62-2.68-5.56-6.9-3.79-10.91-2.27-8.61,3.27-15.12,9.35-20.34,16.64-4.29,6.01-7.49,12.68-9.8,19.75-.52,1.6-.48,2.51.5,4.03,4.41,6.79,11.71,9.46,18.11,13.41,2.58-3.81,2.55-8.74,5.37-12.48.45-.59.46-1.49,2.32-1.02-2.45,5.22-5.65,16.83-5.86,17.2-1.36,3.68-3.16,4.16-7.27,1.99-4.83-2.55-16.81-9.09-17.18-9.09-1.38-.06-2.73.86-3.48,1.95-.52.76-22.76,57.3-2.66,85.86,1.08,1.95,2.23,3.68,3.42,5.22v.41c-.43-.63-.8-1.15-1.06-1.51-4.69-6.53-11.51-15.34-10.04-23.76.22-1.26-.76-2.55-2.14-2.18-.78-9.63.09-17.53.19-19.32.11-1.78,9.58-48.23,10.26-53.1.43-2.99,1.62-5.86,3.46-8.27,4.2-5.54,5.95-12.62,10.21-18.09,35.77-45.96,70.26-27.85,78.14-23.82,15.19,7.81,28.37,17.9,34.82,34.19,12.92,32.72-.5,55.13-3.42,61.21-.78,1.6-1.78,3.22.39,4.18,4.63,2.05,6.04,6.34,7.85,10.41,1.15,5.88,1.51,11.69-.89,17.38l.17.07ZM529.28,200.43c-11.82-23.74-56.58-2.01-36.55,8.87,8.59,4.37,8.74-6.54,19.82-1.49,5.76,2.62,8.11,13.14,12.85,15.41h.04c14.3-9.15,3.85-22.79,3.85-22.79ZM495.2,191.75h.04c4.26-3.53,11.84-3.25,15.08-6.32,2.12-2.03,1.08-6.45.52-11.03.82-7.83,2.32,11.19,2.34,11.27h0c.06,0,9.69,1.41,13.63,7.92,5.47,5.93,19.47-22.98,25.9-49.38,3.27-13.41-5.32-17.44-10.02-.82-19.71,69.57-19.24-17.85-27.31-17.25-10.23.74-.26,28.6-3.09,39.7-.48,1.9-2.77,2.53-4.2,1.21-6.04-5.6-13.98-8.79-18.54,2.79-2.44,6.01,4.48,20.17,5.69,21.94l-.04-.02ZM484.73,205.64c-.5-5.21,3.53-9.91,8.11-12.14v-.04c-8.96-30.79-23.02-1.82-8.16,12.2,0,0,.06,0,.04-.02h.02ZM563.95,333.91c-.58-4.28-.78-19.52-1.3-23.8-.28-2.23-.95-3.09-2.97-2.32-2.29.86-4.57,1.78-6.97,2.23-13.2,2.4-23.61-2.27-30.36-12.49-14-21.2-15.12-44.03-6.82-67.64.91-2.51,2.75-5.19,5.75-5.41t.02-.04c-26.44-32.44-12.85,5.41-35.53-12.57-.02,0-.06,0-.06.04,7.08,25.12,18.57,2.25,13.5,34.66-1,8.94,1.3,88.93,41.96,95.6,7.07,1.15,13.41.41,19.69-2.6,2.4-1.15,3.46-3.09,3.12-5.61l-.02-.04ZM759.12,191.88c.2-.52-3.48,1.06-3.48,1.06,0,0-.37,2.92-.86,4.72-.78,2.86-3.96,4.29-4.24-3.83-.07-2.06.13-4.33.65-6.19.37-1.34.89-2.83.69-4.22-.06-.33-.61-2.25-3.03-1.39-.99.35-1.21,1.41-1.54,2.44-.43,1.32-.87,3.18-.95,3.87-.39,3.5-.65,12.9,3.05,14.95,7.99,4.39,9.63-9.97,9.71-11.38v-.02ZM646.95,209.04c6.34,5.43,15.26,8.81,27.83,8.24,4.33-.19,9.05-.3,12.46-3.66,1.86-1.82,3.77-2.27,6.21-2.01,5.65.63,10.99-.59,16.06-3.07,1.36-.65,3.09-1.23,2.88-3.14-.3-3.05-.43-6.21-1.39-9.07-1.26-3.72-3.79-2.9-6.01-.67-1.9,1.92-10.82,9-21.81,13.24.26.71.46,1.45.56,2.23.09.87-1.41.89-1.38,0,.02-.65-.07-1.26-.19-1.86-.84.3-1.67.59-2.53.86.02.06.04.11.06.17.46.87-.89,1.45-1.25.52-.04-.11-.04-.2-.07-.32-8.87,2.53-18.56,2.62-26.77-3.37,0,.07.02.15.04.24.22,1.25.63,2.49.61,3.76,0,.65-.95.95-1.28.35-.91-1.67-1.21-3.89-1.43-6.01-.84-.74-1.65-1.56-2.45-2.45.19.8.43,1.6.58,2.4.73,1.75.84,3.27-.71,3.63h-.02ZM644.38,199.96c-4.69-6.53-11.51-15.34-10.04-23.76.22-1.26-.76-2.55-2.14-2.18h-.04c-12.18,3.44,4.85,34.08,13.41,35.05.58.06,1,.04,1.36-.06,1.54-.35,1.43-1.88.71-3.63-.17-.8-.39-1.6-.58-2.4-.02-.09-.06-.2-.07-.3-.28-1.45-.35-2.92-.33-4.39,0-.67-.97-.65-1.02,0-.07.8-.15,1.75-.19,2.75v.41c-.43-.63-.8-1.15-1.06-1.51h0ZM714.05,199.46c.22.61,1.21.35.99-.28-.84-2.42-1.78-4.78-3.01-7.01-.32-.58-1.21-.06-.89.52,1.19,2.16,2.08,4.44,2.9,6.77h.02ZM713.06,191.58c.46,1.6,1.15,3.12,2.03,4.56.35.56,1.23.06.89-.52-.84-1.36-1.47-2.77-1.92-4.31-.19-.63-1.17-.37-.99.28h-.02ZM652.25,211.14c.04-1.26-.39-2.51-.61-3.76,0-.07-.02-.15-.04-.24-.26-1.45-.46-2.92-.67-4.37-.15-1.08-1.86-1.1-1.71,0,.11.84.2,1.77.3,2.71.22,2.1.52,4.33,1.43,6.01.33.61,1.26.32,1.28-.35h.02ZM679.71,210.3s-.04-.11-.06-.17c-.37-.78-.54-1.58-.5-2.44.02-.56-.93-.73-1-.13-.15,1-.06,1.99.26,2.96.04.11.04.2.07.32.35.93,1.71.35,1.25-.52l-.02-.02ZM683.74,211.14c-.07-.78-.28-1.52-.56-2.23-.32-.86-.76-1.69-1.36-2.44-.24-.3-.73.09-.54.41.45.76.73,1.56.89,2.4.13.59.22,1.21.19,1.86-.04.89,1.47.87,1.38,0Z" style="fill: #010202; stroke-width: 0px;"/>
  <path id="Izquierda" d="M240.93,479.47c10.56,6.14,21.94,9.31,33.95,9,18.56-.5,35.68-5.88,50.81-16.88,4.63-3.37,8.33-7.57,11.03-12.62.41-.93,1.08-2.55,1.95-1.77,1.32,1.17-.17,3.12-.78,3.92-5.71,7.27-15.79,19.58-27.42,24.8-21.86,9.82-44.01,12.68-65.93-.22-3.72-2.18-3.66-2.27-3.61-6.23h0ZM179.37,318.9c3.33,2.77,6.95,5.08,10.9,6.9,25.3,11.64,50.68,11.06,75.97.04,15.02-6.54,24.37-17.16,30.81-33.15,1.23-3.05,3.01-13.16,2.32-15.32-1.38.69-2.94,10.04-3.29,11.58-4.56,14.54-14.17,24.47-27.83,30.88-16.86,7.9-34.4,10.99-52.9,8.16-12.1-1.84-23.69-5.19-34.38-11.3-.91-.52-1.92-1.49-2.83-.26-.99,1.34.5,1.88,1.23,2.49v-.02ZM184.68,38.49c4.02,3.38,12.22,12.66,10.13,30.64-.19,1.56-.71,3.76,1.41,4.35,1.23.33,1.88-.32,2.42-1.15.76-1.92.93-4.07,1.12-6.1.45-4.98-.22-10.02-1.52-14.84-.43-1.6-.91-3.22-1.54-4.78-2.14-3.4-4.76-6.47-7.83-9.3-1.77-1.62-5.93-5.35-2.45-6.47,3.74-1.19,10.45,8.61,13.33,15.1.32.69,4.07,6.6,2.38,22.14.06-.06.09-.11.15-.17,1.62-.69,3.25-18.52,21.23-25.86,69.95-28.58,63.31,21.01,66.08,25.97,2.6,5.13,5.02,10.37,10.19,13.57.63.15,1.28.3,1.92.45,2.16.84,4.52-.28,6.66.71,3.61.17,6.34-2.9,9.95-2.68-1.15,5.78-2.84,11.29-8.07,14.86.37,2.27.73,2.45,2.4,1.3,5.26-2.47,6.45-7.42,7.57-12.4h0c.32-.33.61-.67.93-1,.78-1.78.3-3.64.33-5.47-.59-2.88-2.03-2.1-3.87-1.1-2.42,1.32-27.16,12.75-27.87-30.14-.06-3.77-8.59-25.27-45.98-17.4-29.75,6.27-38.45,24.58-38.9,22.89-.54-2.01-1.6-12.79-17.01-24.13-2.75-2.03-5.3-1.3-6.86.73-1.38,1.8-.54,3.1.22,5.22.71,1.97,1.92,3.7,3.5,5.06h0ZM345.9,360.94v.04l.06-.11-.04.07h-.02ZM379.33,511.65v.04-.04h0ZM241.52,208.61c-1.73-.61-3.46-1.23-5.99-2.12,1.84,3.5,4,4.35,6.88,3.77,1.1.17,2.12.06,2.96-.74,1.64.13,2.27-1.41,3.42-2.06,1.06-.15,2.31-.69,1.56-1.75-.58-.84-1.77.07-2.42.89-1.6-.2-2.57.99-3.72,1.75-.89.09-1.8.19-2.7.28v-.02ZM251.28,188.16c-.67.07-1.17.39-1.21,1.52-.02.8-.26,1.25-.67,1.41,0,1.64-.24,3.33-.67,4.89-.2.76-.48,1.56-.86,2.32.67-.09,1.3-.28,1.93-.52.65-1.9,1.15-3.85,1.47-5.82.17-.99.32-2.03.2-3.03-.02-.28-.09-.61-.2-.78h0ZM251.6,196.1c-.09.33-.2.65-.3.99.13-.07.28-.15.41-.22,4.59-.86,9.05-2.19,13.42-3.85,1.08-.41,2.01-1,2.06-2.18.07-1.36-.99-1.77-2.16-1.73-.87.02-1.39-.97-1.82-.99-3.53-.15-7.14-4.24-10.6.07h-.02s.02.09.04.13c.22,1.12.07,2.29-.09,3.4-.2,1.47-.56,2.92-.95,4.35v.02ZM243.85,190.33s0-.09,0-.07h0v-.09s-.04-.06-.04-.09c-.3.13-.56.33-.61.78-1.69,3.64-3.79.26-5.69.35-6.75.37-13.63-.84-20.25,1.69-1.75.67-4.5-.11-4.35,2.79.13,2.47,18.43,2.94,18.43,2.94,4.13,2.18,8.05,1.51,11.99.5.24-1.1.41-2.21.5-3.33.11-1.28.15-2.58.13-3.87,0-.45-.02-.89-.06-1.34,0-.09,0-.17-.02-.26h-.04ZM244.66,198.77c.5-.13,1-.26,1.51-.39h.24c.06-.09.11-.17.17-.26.87-1.52,1.26-3.33,1.47-5.06.07-.69.13-1.38.13-2.06-.06-.02-.11-.04-.17-.06.04-.26.09-.54.15-.82h0c-.17-.22-.2-.52.07-.74,0,0,.02,0,.04-.02.07-.71,0-1.38-.63-1.71-1.3-.73-1.99.61-2.51,1.73-.06.11-.11.19-.19.24.19.41.17,1,.19,1.36.13,2.29,0,4.61-.33,6.88-.04.3-.09.61-.15.93l.02-.02ZM181.41,186.89c5.47,1.04,5.88-1.3,5.58-3.4-.45-3.22-2.01-6.02-5.65-6.21-2.47-.13-3.77,1.69-3.77,4.59.32,2.06.71,3.66,3.85,5.02h0ZM203.61,117.99c3.89-6.49,6.53-7.38,14.22-6.04,1.58.28,3.2,1.02,4.83,1.28-.32-.86-.63-1.71-.86-2.6-.07-.3-.15-.63-.15-.95-.11-.04-.22-.07-.33-.09-2.96-.93-5.99-1.92-9.09-2.16-.89.13-1.78.32-2.68.56-2.84,1.41-9.87,12.07-8.44,12.61,1.8.69,1.64-1.69,2.47-2.6h.02ZM189.82,119.65c1.51-3.01,4-6.1,6.15-9.31.39-.26.65-.84.89-1.41.56-.89,1.06-1.78,1.49-2.7,8.85-15.32,6.4-23.91,5.34-27.57-1.19,2.57,1.15,9.72-8.35,28.2-.46.89-1.62,2.1-.95,3.01-1.77,3.16-3.5,6.34-4.76,9.74-.04.09.15.11.19.04h0ZM276.14,207.22c-.46-.5-.76-1.12-1.17-1.78-.32-.52-.71-1-1.06-1.49-.69.67-1.45,1.34-2.23,1.99.52,1.26,1.13,2.49,1.73,3.72.97-.8,1.86-1.62,2.71-2.44h.02ZM368.73,555.51c-1.13,3.96,5.78,31.35-18.61,125.41-6.73,19.45-12.85,39.14-20.49,58.21-3.85,9.59-4.5,18.31-1.06,27.72.99,2.7.82,5.39-1.23,7.81-2.27,2.66.84,4.82.91,7.29,2.1,3.31,5.04,5.58,8.46,7.46,8.72,4.8,16.6,10.95,25.36,15.79,7.68,4.24,5.95,19.24,5.04,19.5-12.61,9.33-25.75,16.21-41.96,9.3-1.64-.43-6.43-10.45-18.41-14-2.42-.74-4.61-.09-6.49,1.39-3.4,2.71-7.59,3.38-11.6,3.96-8.61,1.21-15.23-3.59-16.57-12.14-1.21-7.75-3.18-15.73,3.14-22.68,4.33-4.76,3.96-4.91,1.36-10.04-1.67-3.31-4.48-6.49-2.53-10.71.37-.82.54-2.27,1.02-2.4,4.05-.91,3.66-4.44,4.35-7.21,7.18-28.95,12.96-58.16,16.9-87.74.86-6.47.54-8.98-2.01-13.37-8.87,21.73-17.74,43.39-26.55,65.07-3.24,7.94-7.07,15.62-10.65,23.39-3.2,6.93-3.57,14.76-6.47,21.83-1.36,3.35-2.71,6.64-5.39,8.96-2.9,2.53,1.32,26.31,3.2,32.31,3.27,5.08,7.46,9.72,7.55,16.29.3,21.34-35.79,32.83-51.24,11.53-5.69-7.85-6.86-16.42-3.35-26.05,2.25-6.15,3.1-12.96.95-19.88-2.45-7.92,1.39-15.88,9-20.79,2.84-14.65,15.49-69.11,18.56-86.79,3.68-21.18,5.82-93.43,3.66-114.62-.63-6.28-1.8-11.95-2.32-18.24-.13-1.67-.3-3.22-1.9-4.44-17.53-13.46-40.64-32.57-50.27-41.03-8.87-7.79-25.81-48.12-28.04-59.33-2.14-10.78-11.73-16.62-14.39-27.41-1.75-7.08,1.3-13.93,3.1-20.73,5-18.76,7.05-37.93,8.68-57.19.84-3.27.35-6.8,2.06-9.89,1.21-4.05,39.9-56.6,44.21-60.28h.02c1.15-1.43,2.1-3.1,4.11-3.55,40.81-22.65,3.72-58.21,3.22-57.82-.07-.26-.24-.82-.45-1.43.71-.93,1.47-1.8,2.32-2.62.04-.04.02-.07.04-.11,3.01,2.73,6.56,5.47,10.65,7.77-.32.73-.58,1.47-.76,2.25-.2.86,1.12,1.23,1.32.37.17-.67.41-1.3.67-1.93,6.45,3.38,14.11,5.54,22.79,4.74-.06,1.25-.13,2.51-.19,3.76-3.48-.07-7.99-.22-10.1-.48-4-.5-15.82-3.4-15.71-3.64.24.32,2.34,2.7,2.55,3.03,6.15,10.99,6.82,22.98,5.39,34.99-.74,6.25-5,11.51-8.98,16.4-2.14,2.62-1.93,3.94.89,5.71,9.61,6.01,16.71,15.82,27.54,18.82,7.49,2.08,29.08-8.57,32.31-15.13,7.4-15.06-21.29-31.68-22.39-33.15-4.52-6.12-6.93-26.46-6.93-26.46,0,0-1.34,0-3.22-.04-.06-1.3-.13-2.62-.19-3.92,1.06-.13,2.14-.26,3.22-.46.56,1.67.65,3.46,1.04,5.19.19.86,1.56.48,1.32-.37-.48-1.67-.71-3.4-1.3-5.02,11.69-2.57,20.23-6.75,26.46-11.69.59,1.19,1.25,2.36,1.88,3.53-5.61,4.41-13.01,8.44-22.85,11.29-1.92,1.06-1.64,2.84-1.19,4.43,1.69,6.25,3.16,12.59,5.82,18.54,39.49-16.49,52.11,9.95,57.13,21.34,11.4,25.9,18.67,60.46,19.62,62.02,2.47,4.85,6.1,8.59,10.95,11.1,9.13,18.2-.71,40.16-2.49,42.35-.11.11-3.16,38.11,4.35,59.38,3.9,3.55,54.07,41.94,25.1,114.44l.04.15ZM344.73,447.34c.67,2.12,10,23.98,10,23.98,0,0,9.22,2.77,12.74,6.19-5.47-8.48-17.38-22.79-22.74-30.18h0ZM322.31,372.43c-.3,1-.91,1.62-1.8,1.84.02.06.04.11.06.17,1.67,4.56,2.34,4.85,5.84,2.01,9.56-7.83,11.92-18.82,10.47-29.84-.35-2.71-2.19-2.84-4.31-2.45-.11,2.83-5.54,22.35-10.24,28.26v.02ZM333.59,386c-1.04,1.51-2.42,2.7-4.15,3.22-3.27,1-3.16,2.83-2.21,5.63,2.84,8.35,7.79,31.46,8.89,24.93,1.23-7.36-2.84-23.46-2.53-33.8v.02ZM171.91,442.69c12.49.46,17.05-4.16,20.81-15.23,1.28-3.77,1.36-7.88,2.57-11.71.76-2.44-.02-3.29-2.62-3.27-12.55.09-22.31-7.18-32.76-12.62-.8-.43-1.39-1.21-1.54-2.21,0-.07.04-.15.04-.22.09.06.19.11.28.19l1.23-1.23c-.09-.09-.2-.19-.3-.28,4.8.59,8.94,2.96,13.26,4.83,5.47,2.38,10.9,4.85,16.84,5.84,4.05.67,7.66-.04,10.11-3.66,1.97-2.92,8.7-6.06,10.88,2.01.82,1.47,1.15,3.1,1.67,4.67,1.51,6.19,5.08,11.51,7.59,17.27,6.15,14.13,10.67,28.8,15.47,43.41,3.12,9.54-3.7,19.26-2.38,28.95.52,3.89,1.9,5.67,5.76,7.55,9.17,4.44,26.48,5.6,35.98,8.22,70.45,19.45,74.52-31.31,74.72-38.95,0-.61-.07-1.21-.3-1.78-3.2-8.78-30.71-84.06-33.13-87.91-.22-.76-.28-1.54-.32-2.32-.22-.48-.45-.99-.67-1.47-1.56,2.08-3.1,4.16-4.67,6.23-21.68,28.74-58.79,38.04-91.92,23.02-.69-.32-1.43-.5-2.14-.74-.61-.65-1.23-1.28-2.57-2.71,36.05,9,69.81,11.14,95.57-21.27,1.8-2.57,3.63-5.13,5.43-7.7-.2-.48-.39-.97-.46-1.49-2.29-14.99-5.06-29.92-4.31-45.18.11-2.12-.24-4.31.97-6.27.17-.15.32-.24.46-.32-.37-.97-.22-1.9.26-2.94.65,1.08,1.28,2.06,1.36,3.25.24.2.46.43.69.65,2.88,5.86,6.21,43.21,6.21,43.21,2.47-.69,10.43-25.66,10.73-27.78-.28-.56-18.44-63.92-22.91-72.98-17.48-35.44-44.73-21.01-42.84-21.66,0,0,20.21,22.94,19.89,33.06-.09,3.33-.09,6.97-2.55,9.22-47.97,43.99-70.13-.15-78.57-5.22-6.4-3.85-6.97-4.18-12.07,1.38-7.07,7.72-20.08,23.85-26.59,32-7.27,9.11-10.17,19.62-12.79,30.45-.48,2.03-.59,5.37-.09,7.4,3.96,15.92-1,30.49-7.01,44.96-.35.86-.71,1.71-1.15,2.53-9.71,17.33,9.15,38.19,27.81,38.88l.07-.04ZM224.86,483.67c.09-4.85-.71-9.71-1.88-14.41-1.06-4.29-2.47-8.48-4.09-12.61-2.19-5.61-4.15-11.32-6.19-16.99-2.31-6.38-4.72-12.75-7.75-18.83-.15-.28-.58-.39-.84-.22-9.35,6.19-5.43,19.32-10.17,28.04-1.47,2.7-3.81,4.69-6.66,5.84-.33.13-.63.56-.37.91.82,1.12,3.18,20.82,6.49,25.97,12.18,19,29.3,20.19,29.52,19.89,2.53-3.48,1.84-13.33,1.92-17.57l.02-.02ZM238.1,547.01c2.16,2.27,3.68,1.95,4.52-1.1.93-3.38,3.29-14.45,5.54-18.43-2.05-.45-30.12-14.97-47.36-29.47-17.87-15.02-21.44-38.56-21.27-40.88.37-4.83.46-4.98-4.39-4.85-6.01.17-11.62-1.15-16.9-3.9-3.89-2.01,15.95,44.9,20.9,51.11,19.22,24.11,42.3,34.32,48.99,39.01,1.41.99,8.85,7.29,10,8.52h-.04ZM303.1,780.44c-.32.19-.65.33-1,.48-3.5,1.52-7.21,1.38-10.91,1.32-1.9-.04-1.75.33-2.31,2.6-3.24,13.16,3.72,11.4,8.72,8.74,2.4-1.28,3.92-3.7,4.28-6.38.41-2.94,1.41-6.67,1.23-6.77h0ZM361.98,547.25c3.96-4.2,4.52-9.59,6.75-14.84,15.67-37.04-14.2-51.71-13.65-51.06.15-.15.73,14.61-5.95,21.08-2.4,2.32-4.72,4.74-7.12,7.08-.3.3-.61.59-.91.87-.04-.37,3.09,25.04,1.34,34.71-.32,1.8-.76,3.59-1.15,5.39,0,1.21-.24,2.45-1.45,2.84-.33.11-.33-1.25-.13-1.97.67-6.92,1.62-13.81,1.56-20.79h0c-.93-2.55-.71-5.19-.63-7.81-.09-1.47-.17-2.96-.26-4.43-.45-2.03-.91-4.03-1.36-6.06-6.36,5.37-13.59,9.22-21.42,11.99-.07.04,2.53,10.02,3.05,15.12.32,1.49.67,3.16.91,3.16v16.53c-.39.02-.78.06-1.17.07.95-4.69.35-13.24-.17-19.11-1.9-3.79-4.03-12.51-4.48-15.08h0c-5.95,1.86-12.01,3.09-18.37,3.05,3.12,3.89,6.88,12.74,6.88,12.74.24.39,1.52,3.07.56,3.68-.86.54-5.95-6.32-7.44-8.53-3.7-5.43-8.44-8.57-15.19-8.72-6.6-.15-13.09-1.47-19.48-3.01-3.46-.84-5.06.45-7.12,3.2-17.63,23.46-6.54,46.18-8.27,46.46-1.93.3-3.96-18.09-4.43-19.43-.84-2.38-5.69,1.06-5.41,2.47,3.46,18.2-5.21,197.82-21.33,211.68-.63.54-4.82,8.87-.13,14.07.99-1.32,2.03-2.6,2.97-3.94,2.42-3.44,11.04-3.46,14.78-1.26,1.1.74,4.74,4.11,5.73,3.46,8.33-5.08,6.23-12.66,8.94-26.42-4.65,3.09-9.18,5.82-14.74,5.48-1.82-.11-5.89-2.64-5.91-3.31,0-.24,6.19-.73,7.51-1.34,27.01-3.87,56.73-104.49,60.24-106.52-.06-.04-.11-.07-.19-.09,6.34-15.3,12.18-30.81,20.45-45.24.67-1.39,19.95-28.65,20.06-28.99,0,0,8.14-8.48,9.56-9.28-.17,2.08-13.93,16.62-12.74,17.14,3.85-1.56,7.53-3.94,12.01-2.75.56,1.9-2.62,1.51-2.77,1.78-9.84,1.6-23.69,22.26-24.99,23.85-10.32,12.62-12.72,29.9-19.69,44.57.13.33.2.71.26,1.1,1.88,5.65,4.15,11.21,4.59,17.25.17,2.16.61,4.29.26,6.43-3.77,22.29-5.86,44.88-11.66,66.82-2.05,7.73-4,15.49-6.32,23.15-3.12,10.21-.09,13.57,10.45,12.09,3.2-.45,24.9-4.35,25.45-6.51.19-1.12.13-2.25.13-3.37-4.63,1.23-9.28,2.62-13.87-.41-.73-.48-4.52-3.81-5.3-5.84,2.57.46,7.23,4.44,8.42,4.78,3.29.99,4.39-1.19,5.63-3.2-.06-.58.06-1.34.28-2.21,4.03-11.97,8.44-23.78,13.01-35.57,5.61-14.52,28.41-47.67,33.39-138.25.56-10.15-.58-20.27-2.49-30.27-.61-3.25.24-6.17,2.47-8.53h.02ZM277.83,204c-.45-.87-1-1.69-1.56-2.49,8.31-9.5,10.21-20.3,10.28-27.33.5-.5.97-1.04,1.45-1.56.15.37.3.76.37,1.12l.61,3.57s12.75-.41,11.45-16.77c-.11-1.38-1.73-8.72-2.71-7.86-.56.5-8.61,2.97-8.61,2.97.56,3.14.17,5.08-.69,6.28.02,3.03-1.71,6.15-4.22,8.79-.2.46-.46.93-.73,1.39-.02.02-.06.06-.07.07-.2.2-.32.45-.41.71-2.83,4.16-8.29,7.46-12.87,8.27-2.73.48-6.95.15-10.11-1.25-2.94-.46-5.61-1.77-7.75-4.05-1.88-2.01-3.44-4.28-4.48-6.84-.11.13-.22.26-.35.39.35,3.5,1.26,6.94.87,10.49-.59,5.15-6.08,9.59-10.21,8.24-.71-.24-1.56-.45-1.64-1.38-.07-1.08.84-1,1.56-1.17,6.71-1.6,7.94-3.38,7.14-10.17-.17-1.38.17-4.2.3-6.51.11-1.9-1.47-3.44-3.37-3.29-2.53.2-5.56.45-7.2.61l-.8.78c-.09.41-.19.84-.26,1.25-3.94,12.05-16.81,19.82-29.19,17.57-4.15-.74-7.2-3.22-9.67-6.51-.58-.76-1.1-1.88-1.95-2.23-.73-1.73-1.36-3.5-1.78-5.37-.13-.59-2.44-.32-2.19.33.26.69.48,1.38.73,2.06.09,1.43.28,2.86.48,4.28-1.36-.91-2.66-1.97-4-2.9-.11-.5-.2-1-.32-1.51,0-.09-.02-.19-.04-.28,0-.06-.04-.09-.06-.15-.19-.73-.37-1.47-.61-2.18-.02-.07-.07-.15-.13-.2.02-.07.06-.15.07-.22-1.17-1.04-1.67,1.86-4.29-1.64-4.82-8.31,4.63-10.13,5.08-10.13.33,0,.61-.28.61-.61v-1.99s0-.07-.02-.13c0-.07.02-.13.02-.2,0-.19-.07-.33-.2-.45.02-.13.04-.28.06-.41-.35-.5-.63-1.04-.87-1.6-2.34-4.02-.65-8.55-1.71-12.74,1.3-3.16,2.81-11.43,3.61-11.9.8-.06,1.21.28,1.1,1.1-.09.91-.19,1.82-.26,2.73.02,1.84.17,3.7.04,5.54-.19,2.36,1.21,2.86,3.09,3.01.3.11.52.04.69-.22,8.66-12.64,25.08-14.43,32.35-8.18,13.41,8.44,11.36,22.66,11.36,22.66l8.24-.5s-.04-9.24,5.67-17.53c2.79-4.05,9.11-9.82,13.65-11.68.74-.3,1.64-.56,2.55-.71-.07-.22-.39-.48-1.17-.76-5.04-1.93-10.26-3.63-14.69-6.86-3.42-1.64-6.3-4-8.65-6.9-14.93-1.65-26.74-20.99-26.03-34.97,0-.19.39-.19.39,0,.52,13.11,11.43,27.24,23.87,32.57-7.08-10.86-7.73-26.88-1.62-37.65.09-.15.48-.11.39.07-6.54,13.39-2.84,28.07,6.15,38.67,40.66,30.18,59.18.82,58.38.5-.91-.13-25.3-7.85-26.03-8.37-.24-.95-.56-1.95,1.1-1.45.69.46,26.9,7.66,27.76,8.2-.09.91.39,1.97-.74,2.58-.17,2.01-.91,3.79-2.1,5.43l-1.65,2.79c-4.26,5.34-17.38,8.24-18.89,8.48.32.28,4.56,2.19,6.92,9.93l1.86.04c2.96.07,5.61,1.93,6.53,4.74.15.48.3.87.45,1.13.82.13,9.61-5.88,9.61-5.88,5.15-5.88,6.04-12.72,4.63-20.08-1.04-4.44-3.37-8.31-5.56-12.22-.99-1.65-2.79-2.96-2.23-5.22.3-1.23.69-2.55,2.14-.76.02,1.28,22.2,19.22,4.85,41.11-3.74,4.72-7.55,6.27-10,6.82-.5,0,2.18,1.28,3.1,6.77,3.2,18.7-2.66,26.75-15.08,28.11,0,0-.87,11.56-11.27,22.81-.13-.33-.28-.67-.46-1.04h-.04ZM294.36,146.59c-.43-1.12-1.28-2.06-2.47-2.38-1.17-.32-2.31.07-3.29.69-11.12-31.05-31.59-11.45-31.79-11.29-3.4,2.79-10.69,12.62-9.52,22.89v.02c-.04.97,0,1.95.19,2.9-.45.07-13.83.33-13.83.33-.15,0-.3.07-.41.17h0c1.77-29-20.28-28.33-21.94-28.06-23.07,3.94-23.39,27.46-23.39,28.06-.32.07-.61.28-.84.52-.02.02-.02.04-.04.07-.06,0-.13,0-.19.02-1.28.43-2.62.82-3.83,1.49-.19,0-.39.07-.54.3-.59.39-1.23.95-1.26,1.71,0,.11,0,.2.02.3-.19.56-.2,1.15-.13,1.77.06.99,2.03,3.42,2.31,3.37,2.32-.48,6.08-2.34,8.37-2.92.04.06-3.59-6.06-1.56-12.18,6.54-19.88,18.41-19.19,23.2-19.56,20.92,1.49,16.83,18.41,17.24,20.99.06,2.47.28,4.93.19,7.4,0,.09,18.76-.26,18.96-.37.09.04.28-13.11.99-15.04.8-2.21,5.17-15.38,17.59-16.6,20.02-2.47,18.91,21.98,18.91,21.98,0,0,5.24-1.13,5.8-1.6.22,0,.45-.07.58-.28.13-.24.26-.48.35-.74.71-1.12.91-2.53.37-3.94h-.02ZM203.57,205.93c-3.29-3.05-5.88-6.01-7.68-8.27-.69.84-1.38,1.67-2.08,2.47.84,1.65,1.49,3.09,1.84,3.55h0c-.15.28-.09.48.19.61,2.29,3.5,2.31,3.5,3.72,2.9h0c.73-.15,1.21.19,1.69.56.07.24.15.48.22.73.61-.87,1.28-1.73,2.03-2.53.02-.02.06,0,.07-.04v.02ZM193.13,194.03c-1.43-1.88-2.77-3.89-3.89-6.01-.06.3-1.1,6.38-11.97,0-5.97-3.94-12.16-9.87-12.33-17.68-.04-1.92.54-3.87,1.84-5.26,3.46-3.66,8.01-1.82,10.36.24.09-.59.26-1.15.46-1.71.02-.15.06-.3.09-.45-.33-.17-.71-.35-1.08-.74-5.04-5.3-9.84.32-10.52.54,3.55-8.09,7.18-9.63,14.35-6.15.82.39,3.46,1.3,3.72,1.28h.06c.11-.46.61-.89.93-1.19,0-.04-2.7-6.02-5.3-7.03-3.05-1.73-9.54-.06-10.13.56-21.31-6.95-29.67-68.64,19.8-73.24,2.36-.22,2.58-1.28,1.25-2.97-.67-.86-2.45-1.97-2.45-1.97-3.5-2.4-7.27-1.6-11.03-.91l.07-.04c-1.99.65-9.15,1.75-22.31,22.13-4.03,7.33-16.51,27.7-.93,53.68,1.34,1.21,8.61,10.43,10.36,11.77-.06,2.06-4.83,9.02.37,18.82,6.36,11.95,11.47,13.57,11.47,13.57,0,0-4.2,7.9-4.59,10.28-.82,1.52-.69,3.07-.07,4.63,1.6,2.57,3.94,2.16,5.91.99,2.97-1.78,4.09-.63,5.47,2.05,4.41,8.53,10.63,11.81,17.07,7.98,1.78-.69,2.23-2.1,1.67-3.72-.09-.24-.2-.43-.32-.59-1.1.91-2.38,1.56-3.87,1.6-2.36.06-4.39-1.3-6.02-3.01-.8-.59-1.54-1.28-2.18-2.06-1.56-.97-2.27-2.68-2.51-4.59-.86-1.58-1.34-3.31-1.26-5.02-1.02.74-2.1,1.39-3.12,2.06-.19.13-.39.11-.56.04-.11.06-.2.13-.32.2-.99.56-2.31,1.12-3.35.39-1.49-1-.87-3.09.13-4.7.35-.91,1-1.78,1.58-2.4.2-.22.46-.22.67-.11.91-.58,6.51-1.71,7.94-1.73,1.47,0,3.24,2.88,4.65,5.61.63-.8,1.25-1.62,1.84-2.44-.95-1.23-1.64-2.18-2.01-2.66l.06-.02ZM273.04,211.98c.32.69,1.54.2,1.25-.52-.24-.61-.56-1.19-.86-1.78-.61-1.23-1.21-2.45-1.73-3.72-.06-.15-.15-.3-.2-.45-.43-1.15-2.06-.48-1.56.65.13.32.32.59.46.89.59,1.19,1.25,2.36,1.88,3.53.26.46.54.91.74,1.39h.02ZM276.14,207.22c.26.28.56.52.99.71.39.17.97.15,1.17-.32.43-.99.33-1.75,0-2.58-.13-.33-.28-.67-.46-1.04-.45-.87-1-1.69-1.56-2.49-.24-.35-.43-.73-.67-1.08-1.45-1.97-4.28.15-2.7,2.08.37.45.67.97,1.02,1.43.35.5.74.97,1.06,1.49.41.67.71,1.28,1.17,1.78l-.02.02ZM204.04,206.34c.13-.28-.19-.58-.45-.41-.02,0-.06,0-.07.04-.74.8-1.39,1.64-2.03,2.53-.46.67-.93,1.36-1.34,2.06-.11.19.17.35.3.17.37-.58.8-1.12,1.21-1.65.71-.93,1.47-1.8,2.32-2.62.04-.04.02-.07.04-.11h.02ZM215.23,216.74c.17-.67.41-1.3.67-1.93.33-.82.74-1.6,1.25-2.32s-.69-1.41-1.19-.69c-.5.74-.91,1.52-1.26,2.34-.32.73-.58,1.47-.76,2.25-.2.86,1.12,1.23,1.32.37l-.02-.02ZM238.49,223.43c-.04.87,1.41.87,1.38,0v-.11c-.07-1.3-.13-2.62-.2-3.92-.06-.95-.09-1.9-.15-2.86-.02-.45-.67-.45-.69,0-.06,1-.09,2.01-.15,2.99-.06,1.25-.13,2.51-.19,3.76v.15ZM245.24,223.74c-.48-1.67-.71-3.4-1.3-5.02-.11-.32-.22-.65-.39-.97-.3-.59-1.13-.07-.89.52.09.2.15.43.22.65.56,1.67.65,3.46,1.04,5.19.19.86,1.56.48,1.32-.37ZM197.83,195.37c.59-.67-.43-1.64-.97-.97-.59.74-1.17,1.51-1.73,2.29-.59.82-1.21,1.64-1.84,2.44-.09.11-.17.22-.24.33-.41.5.28,1.23.73.73,0,0,.02-.04.04-.04.73-.8,1.41-1.64,2.08-2.47.63-.78,1.26-1.54,1.93-2.29v-.02Z" style="fill: #010202; stroke-width: 0px;"/>
</svg>