<?xml version="1.0" encoding="UTF-8"?>
<svg id="CD" xmlns="http://www.w3.org/2000/svg" viewBox="0 0 425.2 425.2">
  <path id="CD-2" data-name="CD" d="M234.62,228.63c.23.28.45.56.83,1.04-.53.82-1.08,1.73-1.71,2.58-.18.25-.72.5-.94.4-.8-.36-1.07-1.14-.52-1.83.66-.82,1.55-1.46,2.34-2.18ZM207.06,189.98c-1,.33-2.19.52-2.9,1.19-8.01,7.64-14.42,16.56-20.4,25.8-.35.54-.47,1.23-.57,1.93.02.01.03.02.05.04.07.05.14.09.21.14.04.01.08.02.12.04.15.04.27.14.4.23.9-1.04,2.39-2.81,4.09-4.82.21-.31.41-.64.63-.95,2.69-3.82,5.79-7.27,9.07-10.55.34-.4.61-.72.71-.84,2.75-3.13,5.58-6.2,8.31-9.35.46-.53.65-1.32.82-2.03.05-.23-.46-.85-.55-.82ZM188.72,241.96c-.11-.24-.22-.48-.35-.71,0-.02,0-.03-.02-.05-1.63.6-3.26,1.2-4.91,1.77-1.71.59-3.78-.26-4.84-1.86-1.53-2.29-2.34-4.7-1.08-7.37,1.44-3.03,3.03-6,4.41-9.06.45-.98.71-2.04.98-3.1-.15-.02-.3-.04-.43-.12-.17-.09-.31-.21-.46-.33-.02-.01-.04-.02-.05-.03-.11.02-.22.04-.33.01,0,0-.02,0-.02,0-3.59,3.7-5.72,8.32-7.34,13.08-1.32,3.86.4,7.29,3.22,10.11.26.26.57.58.9.64,3.97.77,7.78.91,10.71-1.95-.13-.35-.25-.69-.39-1.03ZM218.57,212.02c-3.54,2.35-6.4,5.24-7.88,9.25.32.12.55.37.66.68.03.04.08.08.11.13.06.13.15.24.23.36,3-1.91,5.16-4.64,7.12-7.53.37-.54.4-1.36.42-2.05,0-.28-.62-.85-.65-.83ZM168.52,300.43c-2.64,1.52-5.52,2.77-8.5,3.41-24.3,5.2-29.16-13.28-29.16-20.51,0-15.54,3.59-22.67,5.59-27.19,37.37-84.23,97-114.22,109.03-121.01,1.99-1.12,4.2-1.84,6.33-2.71,6.44-2.62,12.87-1.86,19.06.61,2.39.96,4.51,2.9,6.37,4.77,17,17.13-9.34,105.61-108.72,162.63ZM274.26,150.78c-.38-1.68-.94-3.56-3.12-4.11-1.44,2.95-.46,6.09-.93,9.08-.12.75.11,1.81-1.4,2.04-.08-1.76-.14-3.28-.21-4.79-.1-2.29-.1-4.6-.3-6.88-.32-3.5-3.32-6.18-6.98-6.39-4.64-.26-9.07.22-13.43,2.19-15.49,7.02-29.81,15.69-41.45,28.31-5.59,4.26-8.32,9.8-7.56,16.9.03.33-.28.69-.44,1.06-2.74-.86-.7-4.16-2.79-5.38-3.16.96-23.98,12.31-55.25,77.12-2.65,5.5-11.55,23.24-.75,28.23,15.79,7.29,23.75-.64,26.83-2.14,9.68-4.71,34.41-22.63,34.41-22.63,0,0,.63-16.68.2-23.5-.16-2.47-2.11-4.12-3.89-3.13-2.43,1.35-3.41,3.79-5.97,4.45,0-.01,0-.03,0-.04,0-.02-.01-.05-.02-.07,0-.05,0-.11-.01-.15-.07-.17-.13-.35-.21-.5-.13-.25-.4-.49-.68-.57,0,0,0,0,0,0,10.3-6.92,14.06-12.46,18.17-16.2.69-.63,1.79-.31,2.04.58,1.09,3.98.3,15.79.3,15.79l-1.68-13.66c-.44.59-5.45,6.73-5.89,7.32-.33.44-.01,26.52.39,26.16,4.52-4.11,14.14-13.13,18.61-17.28.21-.19.72-.32.94-.2.81.44,1.03,1.23.43,1.96-5.8,7.14-21.49,20.39-21.49,20.39,0,0-26.11,21.08-41.74,27.78-2.87,1.23-5.83,1.71-8.93,1.81-3.32.1-7.23,3.35-5.34,3.51,2.64.22,5.43.45,7.96-.16,4.44-1.07,8.84-2.51,13.06-4.25,10.69-4.42,20.5-10.32,29-18.27,1.95-1.83,4.14-3.4,6.15-5.17,14.68-12.92,28.79-26.36,39.67-42.81,1.82-2.75,3.72-5.44,5.73-8.04,11.45-14.85,18.99-31.71,25.38-49.16.37-1,.9-2.66,1.13-3.69,1.15-5.15,1.2-10.34.04-15.51ZM217.75,193.79c9.64,5.82-16.11,32.98-26.79,39-1.84,1.04-4.22,1.06-5.79-.37-7.41-6.77,16.15-31.05,26-38.09,1.93-1.38,4.54-1.77,6.57-.54ZM211.35,200.85c-34.04,28.63-24.67,42.05,2.8.72.46-1.14-1.54-1.45-2.8-.72ZM232.34,182.46c-.22-.22-.68-.37-.99-.31-.33.06-.9.49-.87.61,1.31,4.26-1.86,7.82-1.82,11.86-1.87,1.25-3.38,2.77-3.66,5.14-.03.27.25.65.49.86.2.17.63.3.84.2,2.24-1.07,2.82-3.18,3.28-5.36,2.26-2.13,3.18-4.96,3.87-7.84.43-1.81.31-3.69-1.14-5.16Z" style="fill: #000; stroke-width: 0px;"/>
</svg>