<?xml version="1.0" encoding="UTF-8"?>
<svg id="Café-2" data-name="Café" xmlns="http://www.w3.org/2000/svg" viewBox="0 0 425.2 425.2">
  <path id="Café-3" data-name="Café" d="M348.59,104.49c-1.59-26.2-67.06-19.32-84.48-12.83-21.4,6.12-9.65,33.4-22.05,43.32-33.24,5.68-155.19,19.41-125.03,73.39-4.45,15.34-13.43,28.04-17.1,42.8,2.77,34.71-1.62,85.16,37.69,100.12,49.46,17.22,114.62.78,148.9-23.57,12.18-8.65,36.37-20.58,42.18-42.35,10.87-23.8-.67-49.02-1.03-73.64.39-12.82-13.13-22.61-19.7-32.86-8.02-8.2,7.02-13.51-3.03-27.93-11.92-21.93-37.71.59-16.61-42.51,5.06-4.05,11.28-1.93,17.1-1.25,5.48,1.46,16.41-2.42,17.72,5.13.21,17.69-.79,35.52-2.11,52.88-.03,5.69-4.4,13.73.83,17.96,6.67,2.93,19.55,3.18,21.71-5.5,5.37-24.02,2.92-48.79,5.01-73.14ZM144.49,186.89c27.32-12.94,57.4-20.76,87.52-23.11,7.24,1.43,38.49-4.91,36.22,5.56-27.04,11.97-57.61,18.1-87.04,19.25-11.16.57-14.73,14.38-21.81,21.25-7.46-2.95-2.8-18.28-17.4-20.25.86-.95,1.5-2.19,2.51-2.69ZM285.73,191.7c7.2-1.39,9.77,8.81,15.99,11.02,7.24-.82-4.36-10.93-6.02-13.89-1.03-1.22-.62-3.68,1.28-3.62,23.67,11.98,26.98,83.42,26.98,83.42,0,0,2.66,24.17-34.79,46.62-36.9,22.12-121.71,53.49-169.96,14.96-12.97-21.3-7.88-49.96-13.13-73.92-1.91-14.67,11.7-28.91,15.62-43.31,32.36.38,22.1,70.87,69.14,2.4,32.44-3.37,65.01-9.48,94.89-23.69ZM302.7,238.61c1.17,1.1,4.53,2.33,4.72-.11-.26-7.21-7.51-17.98-2.34-23.69,11.38,8.89,7.91,30.04,11.23,43.56,1.9,37.52-40.6,49.97-68.32,63.09-38.49,16.4-92.59,24.17-125.31-7.53-7.88-15.38-8.29-34.5-10.43-51.57-1.2-6.01-1.62-11.54,1.12-17.21,1.57-3.21,10.56-31.66,13.33-19.61-1.23,3.75-5.95,10.35.87,10.86,11.97,4.01.3,25.19,14.23,27.85,44.44,7.4,69.04-50.9,114.46-40.08,16.49,2.11,32.86,3.76,46.43,14.45Z" style="fill: #000; stroke-width: 0px;"/>
</svg>