<?xml version="1.0" encoding="UTF-8"?>
<svg id="Café" xmlns="http://www.w3.org/2000/svg" viewBox="0 0 425.2 425.2">
  <path id="Café-2" data-name="Café" d="M185.08,116.74c-14.13,1.18-17.16-15.78-6.82-23.49,17.91-14.08,26.67,19.85,6.82,23.49ZM304.93,219.08c-1.46.13-2.58,2.33-3.49,3.79-.65,1.04-1.02,2.5-.92,3.72.14,1.73.89,3.4,1.25,5.12,1.18,5.68,7.07,31.69-12.46,63.95-.97,18.63-61.29,70.69-106.33,30.08-18.58-13.97-50.68-61.84-55.35-70.38-3.96-7.24-6.13-14.9-5.86-23.14.15-4.54-.82-9.03-2.52-13.24-4.79-11.84-7.01-24.23-5.8-36.98,1.13-11.9,3.21-23.62,8.68-34.48,2.82-5.61,6.6-10.44,11.05-14.81,5.26-5.16,11.62-9.39,18.85-8.93,22.26,1.4,9.95,24.57,7.5,29.78-1.19,2.53-5.6,9.08-4.54,9.71.2.12,24.6-25.85,44.31-34.9,42.78-19.62,56.79,11.94,57.62,14.04.05.13.13.27.24.43,1.97,2.94,6.42,2.71,8.37-.25,1.68-2.55,3.94-5.52,6.47-7.69,8.93-7.66,24.71-2.66,26.77,11.96,3.44,24.46,16.91,34.69,20.64,52.66,1.34,6.46-4.48,18.68-14.47,19.56ZM289.53,237.72c-2.08-6.8-4.77-13.3-7.68-19.76-6.36-14.08-27-59.9-30.79-67.38,0,0-6.39-16.5-20.26-19.09-24.14-4.51-44.52,13.17-50.18,17.57-13.86,10.74-24.33,24.37-33.85,38.83-2.12,3.22-1.9,6.83-.08,10.12.01.02.02.04.04.07,1.82,3.31,6.61,3.3,8.29-.09.08-.15.15-.31.23-.46,7.39-15.12,18.65-26.78,32.54-36,3.66-2.43,7.63-4.52,11.68-6.24.86-.37,1.73-.7,2.6-1.01-14.83,3.1-26.73,15.48-42.94,30.89l-.92-.82c45.31-64.94,82.96-39.02,90.42-21.23,11.18,26.65,5.73,67.2-52.65,95.91-27.77,7.9-45.99,1.19-59.72-13.71-.3-.32-.66-.6-1.03-.83-.37-.23-.92-.62-1.16-.5-.94.49-1.23,1.4-.64,2.29,14.29,21.84,28.43,43.76,45.11,63.96,20.84,26.38,68.88,28.02,90.37,1.68,13.02-15.47,28.66-49.25,20.64-74.2ZM279.2,180.56c2.18,6.2,4.89,12.17,8.64,17.61.16.23.85.26,1.22.15.36-.11.62-.52.92-.81.09-.4.36-.89.23-1.19-2.75-6.4-5.55-12.79-8.39-19.15-.07-.15-.94-.16-1.25.05-1.16.79-1.81,2.09-1.37,3.34ZM308.82,195.92c-4.79-8.82-9.42-17.73-12.88-27.15-3.62-9.85-2.51-25.85-14.93-28.34-7.46-1.5-9.36,11.63-14.89,17.63,1.1,3.5,1.82,6.05,2.7,8.54,1.18,3.34,5.01,3.85,7.32.95,1.37-1.71,2.64-3.52,3.75-5.41.89-1.51,1.47-3.2,3.21-3.97.38-.17.92-.23,1.28-.08.37.15.86.63.85.95-.06,1.73-.16,3.48-.47,5.18-.4,2.15-.25,4.36.63,6.36,4.3,9.72,8.6,19.44,12.92,29.15.47,1.07.04,2.32-1.01,2.83-2.52,1.24-6,2.7-4.8,5.61.82,2,1.77,3.97,2.9,5.81.38.62,1.45,1.06,2.23,1.12.79.06,19.17-4.49,11.18-19.18Z" style="fill: #000; stroke-width: 0px;"/>
</svg>