<?xml version="1.0" encoding="UTF-8"?>
<svg id="Guante" xmlns="http://www.w3.org/2000/svg" viewBox="0 0 425.2 425.2">
  <path id="Guante-2" data-name="Guante" d="M295.9,131.77c-5.39-4.75-10.89-9.38-16.32-14.09-5.76-5-12.14-9.08-18.64-13.02-9.09-5.5-27.36-11.22-52.28-8.5-10.33,1.13-19.28,4.56-26.48,12.25-7.16,7.64-12.97,16.22-17.86,25.41-5.44,10.23-9.9,20.92-14.1,31.71-2.17,5.57-4.19,11.24-5.75,17-2.83,10.46-4.75,21.06-1.41,31.82,1.3,4.18,2.73,8.33,4.22,12.45.81,2.25,2,4.36,2.72,6.63.33,1.04.25,2.44-.19,3.43-.81,1.8-1.96,3.47-3.09,5.11-2.51,3.65-4.63,7.5-5.72,11.8-2.16,8.49-3.75,17.07-4.14,25.95-2.52,1.69-5.63,2.58-7.6,5.38-8.8,12.48-7.36,28.9,3.59,39.34,6.4,6.1,13.75,11.07,22.12,14.05,11.75,4.18,23.9,6.37,36.46,5.48,6.26-.45,11.6-2.78,15.66-7.67,1.53-1.84,3.08-3.7,4.37-5.71,2.88-4.5,4.67-9.24,2.71-14.69-.98-2.71-.31-5.42.06-8.22.86-6.52,10.58-23.97,13.35-25.91,3.01-2.11,4.86-5.23,6.06-8.72.64-1.85,1.36-3.67,2.08-5.61,2-.68,3.83-1.5,5.74-1.92,7.93-1.77,14.99-5.47,21.71-9.83,5.02-3.26,9.85-6.82,14.66-10.39,13.37-9.91,19.49-23.86,21.86-39.81.54-3.64-.09-7.17-2.5-10.18-1-1.25,5.55-6.03,5.99-8.03,15.53-26.33-3.26-51.99-7.28-55.53ZM205.46,327.61c-1.55,1.82-3.32,3.45-4.95,5.2-2.01,2.16-4.45,3.41-7.4,3.36-5.59-.08-11.22.14-16.75-.53-10.37-1.24-20.21-4.11-29.24-9.8-8.2-5.16-13.5-12.3-16.73-21.15-.66-1.81-.68-3.93-.65-5.9.06-3.25,1.17-6.34,2.82-9.05,1.19-1.96,3.15-3.46,4.7-5.09,3.56,1.47,4.12,5.13,6.5,7.21,3.37,2.95,5.73,6.54,7.21,10.82.79,2.29,2.62,3.95,4.76,5.2,2.49,1.45,5.11,2.55,7.96,1.47,2.81-1.06,5.34-.67,8.11.23,3.4,1.11,7.09,1.36,10.44,2.56,6.88,2.46,13.88,3.57,21.16,3.22.77-.04,1.65.07,2.31.43.64.35,1.33,1.02,1.54,1.69,1.12,3.65.75,7.13-1.79,10.12ZM176.49,278.12c0,.2-.01.4-.04.58-.03.19-.07.37-.14.54-2.34,5.86-4.73,11.7-7.17,17.51-.96,2.29-2.89,3.71-5,4.83-1.87.99-3.81.94-5.58-.29-1.6-1.11-2.45-3.5-1.9-5.2.48-1.5.97-3.01,1.54-4.48,3-7.71,6.27-15.31,10.03-22.69.39-.77,1.36-1.03,2-.37,1.92,1.96,3.72,4.04,5.46,6.17.35.43.48,1.03.64,1.61.05.2.11.39.17.57-.01.19-.01.39-.01.6,0,.2,0,.4,0,.6ZM234.57,196.03c.25.73.49,1.61,1.04,2.07,1.52,1.28,3.07,2.62,4.83,3.48,3.2,1.58,6.56,2.84,10.11,4.34-.87,2.72-1.72,5.34-2.51,7.98-.07.25.26.87.45.89.68.07,1.4.04,2.06-.12.33-.08.66-.48.84-.82,3.99-7.3,4.63-7.06,12.12-7.5,8.84-.52,17.47-2.12,24.71-7.92,1.37-1.1,3.16.06,3.21,1.92.02.8.18,1.61.09,2.39-1.98,16.26-8.83,29.71-22.58,39.25-12.21,8.47-24.71,16.3-39.47,19.66-1.81.41-3.12,2.53-3.08,4.61.02.79.18,1.59.31,2.38.56,3.6-1.28,6.18-3.83,8.27-.81.66-2.43,1.18-3.27.82-3.38-1.46-38.86-5.97-52.71-27.11-1.28-1.95-1.42-4.54-2.05-6.84-.64-2.34-1.71-4.4-3.19-6.37-9.99-13.31-14.58-28.23-13.3-44.91.53-6.86,2.32-13.36,4.98-19.66,7.16-17.02,16.49-32.84,26.59-48.24,1.52-2.32,3.56-4.29,5.28-6.49,17.65-22.65,51.91-13.09,62.99-9.55,4.14,1.32,8.22,3.32,11.79,5.79,10.87,7.5,21.16,15.78,30.78,24.86,1.16,1.1,2.25,2.28,3.33,3.46,1.38,1.51,18.47,28.75-10.39,51.98-3.49,2.81-7.57,4.43-12.18,4.42-1.6,0-3.2.09-4.8.19-10.49.63-20.78.16-30.19-5.37-.31-.18-1.27.55-1.8,1-.22.19-.26.81-.15,1.15ZM227.71,193.43c.31.57-1.42,1.47-2.77,1.44-.4,0-.8,0-2.51,0-4.37-.13-9.71-1.76-14.81-4.07-8.11-3.68-15.04-8.98-20.68-15.92-2.29-2.82-4.07-5.94-5.31-9.31-.88-2.39-2.44-3.98-4.36-5.5-2.17-1.72-4.18-3.67-6.1-5.68-1.1-1.15-1.81-2.67-1.62-4.34.08-.72.56-1.42.97-2.07.07-.1.83.03,1.04.26,1.06,1.15,1.99,2.43,3.08,3.56.79.82,1.75,2.05,2.64,2.07,1.49.02,1.03-1.62,1.11-2.63.18-2.35-.32-4.79,1-6.97.18-.3.54-.68.83-.69.34,0,.9.27,1.01.56.93,2.61,2.04,5.18,2.6,7.87,3.42,16.25,13.68,26.55,28.43,33.05,4.74,2.09,9.41,4.34,14.07,6.61.61.3,1.04,1.1,1.39,1.76ZM226.15,223.35c.14.35.21.83.08,1.17-3.52,9.07-8.97,16.68-17.15,22.13-.46.31-1.49.05-2.11-.24-.7-.32-.64-1.13-.05-1.94,4.87-6.74,9.71-13.51,14.66-20.2.65-.88,1.79-1.42,2.77-2.02.23-.14.75.05,1.05.23.32.2.63.52.77.87Z" style="fill: #000; stroke-width: 0px;"/>
</svg>