<?xml version="1.0" encoding="UTF-8"?>
<svg id="Audifonos" xmlns="http://www.w3.org/2000/svg" viewBox="0 0 425.2 425.2">
  <path id="Audifonos-2" data-name="Audifonos" d="M114.52,217.96c1.43,6.03,3.42,11.89,5.58,17.71,3.44,9.29,10.2,14.91,19.11,18.4.9.35,1.89.57,2.85.66,8.54.76,16.93-.19,25.19-2.41.62-.17,1.25-.43,1.79-.77,5.25-3.29,10.52-6.56,15.7-9.95,1.12-.73,1.53-2.07,1.18-3.47-.31-1.27-.61-2.54-1.03-3.78-2.33-6.81-3.95-13.83-5.04-20.89-1.09-7.09-2.33-14.12-3.82-21.15-1.94-9.13-1.59-18.18,3.35-26.57,1.65-2.81,2.78-6,4.77-8.53,2.71-3.44,2.47-6.2-.05-9.62-4.56-6.17-9.65-11.49-17.16-13.95-.62-.2-1.21-.5-1.79-.79-1.57-.8-2.53-2.13-2.73-3.82-.47-3.89-.57-7.83-1.23-11.68-.4-2.37-.44-4.46.74-6.58,1.32-2.39,1.54-4.84.64-7.54-1.05-3.13-1-6.44-.51-9.7.2-1.31.84-2.43,1.94-3.27,3.98-3.04,8.58-4.75,13.38-5.77,3.18-.68,6.48-.51,9.65.71,3.96,1.53,7.94,2.99,11.96,4.32,2.78.92,4.22,2.97,5.11,5.51.9,2.55.76,5.12-.11,7.68-.63,1.84-1.36,3.68-1.73,5.57-.55,2.8,1.24,5.97,3.78,7.38,1.76.98,3.65,1.32,5.61,1.56,1.84.23,2.81,1.59,3.36,3.16.43,1.21.74,2.51.81,3.79.28,5.52-.04,11.1,1.82,16.47.3.85-.42,1.9-1.35,2.37-1.74.88-3.65,1.49-5.25,2.56-4.6,3.09-9.26,6.14-13.58,9.6-6.13,4.92-9.65,11.56-10.23,19.36-.5,6.82-.35,13.71-.28,20.56.03,2.58.56,5.17.97,7.74,1.51,9.37,4.5,18.37,7.23,27.42,1.89,6.26,4.84,12.11,8.8,17.4,1.59,2.12,3.44,3.87,5.51,5.51,4.6,3.65,10.12,4.6,15.61,4.98,5.22.36,10.38.39,15.47,1.95,3.17.97,6.41.38,9.56-.91,6.95-2.84,14.07-5.3,20.02-9.88,2.85,1.34,5.49,2.51,8.05,3.84.82.43,1.59,1.19,2.06,1.99,4.22,7.18,6.5,14.9,6.33,23.3-.1,4.95-1.44,9.67-2.6,14.41-.7,2.84-2.5,5.26-4.54,7.46-1.97,2.12-4.3,3.05-7.04,2.48-4.48-.93-9.02-1.43-13.49-2.29-3.8-.73-7.67-1.54-11.25-3.27-2.94-1.41-6.06-2.42-9.03-3.78-3.91-1.79-8.1-2.5-12.23-3.46-1.55-.36-3.29-.39-4.86-.13-10.43,1.78-19.09,6.73-25.41,15.22-5.23,7.03-8,15.04-6.81,23.89.6,4.5,1.58,8.97,3.05,13.33,1.5,4.44,3.86,8.14,7.07,11.55,4.45,4.74,8.47,9.89,12.67,14.86,1.25,3.31,3.98,4.96,6.94,6.51,4.65,2.43,9.5,4.3,14.46,5.96,3.08,1.03,5.75.33,8.4-1.2,2.08-1.21,3.71-2.83,3.96-5.26.21-1.98.63-3.79,1.56-5.57.75-1.43-.01-3.48-1.27-4.29-5.22-3.35-10.44-6.68-15.67-10.01-1.1-.7-2.22-1.37-3.35-2.03-3.15-1.83-6.34-3.09-10.19-2.58-3.01.4-5.8-.67-7.96-3.02-.44-.48-.96-.9-1.51-1.24-2.34-1.48-3.45-3.76-4.41-6.26-2.04-5.3-2.38-10.78-2.32-16.37.07-5.91,2.6-10.71,6.48-14.9,2.96-3.19,6.73-5.33,10.85-6.38,4.79-1.22,9.73-1.08,14.43.85,2.41.99,4.78,2.12,7.18,3.15,11.23,4.84,22.96,7.23,35.17,7.62,4.93.15,8.98-1.36,12.16-5.1,1.48-1.73,3.04-3.45,4.21-5.38,3.6-5.96,5.82-12.39,6.05-19.41.09-2.61.04-5.23.14-7.84.27-7.01-1.4-13.59-4.34-19.89-.83-1.77-1.66-3.55-2.56-5.29-1.8-3.47-3.67-6.82-3.75-10.97-.04-1.79-1.35-3.61-2.3-5.29-1-1.78-1.41-3.6-1.25-5.62.93-12.08.79-24.12-1.4-36.09-.18-.96-.19-1.95-.24-2.93-.14-2.94-.58-5.82-1.25-8.7-1.11-4.79-1.39-9.69-1.28-14.6.08-3.59.33-7.18.26-10.77-.13-6.14-2.12-11.53-7.23-15.33-1.28-.96-2.82-1.58-4.26-2.32-1.16-.59-2.51-.93-3.48-1.73-2.53-2.12-5.09-4.03-8.45-4.65-.47-.08-1.13-.94-1.13-1.44.02-7.42-2.08-14.95,1.24-22.2.39-.85.21-1.94.41-2.9.64-3.08.1-5.83-2.09-8.17-1.34-1.44-2.79-2.85-3.16-4.86-.83-4.48-2.82-8.75-2.84-13.35-.02-3.14-1.2-5.73-2.87-8.16-4.4-6.38-10.03-11.01-17.77-12.99-3.82-.98-7.71-1.33-11.53-2.12-11.03-2.28-22.17-1.85-33.19-.86-9.37.84-18.68,2.6-27.88,4.98-10.82,2.8-19.9,8.38-27.59,16.04-6.34,6.31-9.07,14.23-6.33,23.33.84,2.79,1.54,5.63,2.23,8.19-.55.86-.83,1.48-1.26,1.94-1.99,2.15-2.09,4.72-1.55,7.36.61,2.93,1.95,5.53,4.14,7.63.93.89,1.93,1.7,2.45,2.15,1.51,5.95,2.88,11.31,4.27,16.76-1.11,2.82-3.76,4.32-5.97,6.19-3.24,2.74-6.59,5.34-9.91,7.99-4.58,3.66-7.22,8.29-7.42,14.26-.08,2.27-.38,4.56-.91,6.76-1.01,4.18-1.02,8.41-1.1,12.65-.03,1.65.32,3.2,1.02,4.73,3.29,7.13,5.57,14.59,7.38,22.22ZM221.34,366.88c.4-1.56.77-3.14,1.33-4.64.16-.43,1.08-.97,1.43-.85,1.51.52,3,1.16,4.38,1.97,4.16,2.44,8.27,4.98,12.35,7.45-.06,1.5-.93,2.49-1.89,3.27-.7.57-1.82,1.19-2.58,1.02-5.04-1.13-9.97-2.64-14.27-5.64-.86-.6-1-1.59-.75-2.57ZM229.41,121.58c.13-.58.71-1.08,1.14-1.57,1.57-1.79,3.72-2.61,5.89-3.36.57-.2,1.28-.16,1.89-.04,1.92.38,3.86.74,5.71,1.34.88.29,1.56,1.15,1.62,2.24.12,1.95.23,3.9.22,3.82,0,3.34.03,4.65,0,5.95-.09,3.19-.53,3.71-3.83,4.64-1.88.53-3.76,1.1-5.65,1.58-2.76.71-5.2-.58-6.51-3.15-1.87-3.67-1.34-7.61-.46-11.47ZM138.84,125.38c-.03-1.41,1.25-3.08,2.84-3.44.92-.21,1.97-.38,2.84-.13.85.24,2,.87,2.23,1.59.98,3.04,1.68,6.16,2.45,9.27.28,1.13-.43,2.51-1.61,3.21-.82.49-1.68.93-2.53,1.39-1.12.6-2.24,1.18-4.26,2.23-.73-4.65-1.33-8.42-1.93-12.2-.05-.32-.06-.64-.06-.96,0-.32.04-.64.03-.96Z" style="fill: #000; stroke-width: 0px;"/>
</svg>