<?xml version="1.0" encoding="UTF-8"?>
<svg id="Lámpara" xmlns="http://www.w3.org/2000/svg" viewBox="0 0 425.2 425.2">
  <path id="Lámpara-2" data-name="Lámpara" d="M282.61,277.74c-1.6,6.9-8.82,13.83-21.46,20.59-8.55,4.58-16.52,6.87-24.65,6.87-8.78,0-17.76-2.67-27.9-8.04l-1.42-.75,1.33-3.04,1.73.57c17.56,7.77,30.64,8.03,45.17.91,11.9-5.83,25.14-15.22,20.63-26.84-.36-.95.02-1.98.92-2.47.89-.48,2.27-.39,2.98.59,2.69,3.73,3.59,7.63,2.68,11.59ZM341.05,103.12c-25.95,39.08-27.69,41.86-28.81,94.35-.58,26.94-21.84,49.03-21.09,49.27,40.83,13.34,15.46,84.8-76.72,79.05-21.35-1.33-44.11-27.55-33.48-50.52,2.5-4.92-3.11-11.3-6.32-12.92-2.35-1.19-3.27-.66-7.82,7.07-17.6,29.85-54.81,12.74-48.38-17.11,1.32-16.52,27.39-10.48,24.12,12.64-1.99,14.02,17.1-9.49,8.68-13.99-4.42-2.4-7.41-6-9.29-10.57-12.78-18.8-42.56-3.07-61.48-11.6-35.81-10.91-25.13-62.6-3.5-82.9,37.48-32.05,59.42,20.43,89.01,24.49,32.6-9.04,45.2,9.43,71.74-.26,43.29-12.79,59.66-72.76,104.39-78.81,5.96,2.46,1.13,8.3-1.04,11.8ZM135.5,223.14c-14.7-2.75-30.07,1.29-47.81-2.11-4.19-.8-10.72-3.34-14.04-8.24-7.4-2.75,2.37,8.64,5.29,9.37,30.07,7.52,35.71.5,54.47,2.02.47,0,.94-.45,2.09-1.03ZM143.74,198.31c1.02-12.88-15.74-18.01-23.85-25.33-27.59-23.25-66.87,27.43-29.45,42.01,10.48,4.08,51.92,11.69,53.3-16.68ZM149.76,181.21c-3.86-9.75-13.85-14.33-21.1-21.2-27.94-26.21-64.59-1.35-64.4,32.98.13,2.13,3.45,2.14,3.33,0,3.46-37.4,47.11-47.12,70.16-17.81,2.88,2.15,12.07,15.34,12.01,6.03ZM164.93,259.23c-5.63,6.44-10.09,18.5-21.12,14.94-11.39-4.01-1.46-29.31-15.37-23.73-9.57,3.84,8.5,51.77,34.01,17.98,0,.03,5.4-6.14,2.48-9.19ZM270.14,157.46c-17.1,20.95-41.19,43.86-70.46,38.94-5.74-.57-12.89-7.88-8.53-13.54,1.39-3.35,9.22-2.41,7.81-6.13-14.36-8.72-34.05,1.68-41.99,15.1-35.92,64.61,33.87,44.07,38.31,90.38-14.75,4.83-2.82,56.37,70.16,31.17,19.69-6.8,34.89-29.51,33.72-43.15-.52-6.12-13.08-18.52-18.93-15.63-19.3,9.1-47.68,23.73-68.89,17.11-.52-.04-1.04-.08-1.53-.12-5.35-.48-11.28-1.42-15.39-5.17-2.63-2.4-5.45-6.67-3.14-10.18,2.36-3.6,7.87-3.65,11.51-2.5,3.2,1.01,9.03,3.54,9.99,7.23.88,3.37-2.52,4.51-5.22,4.19-.29-.03-.51-.32-.33-.58,4.77-6.87-16.02-11.28-10.48-2.66,2.23,3.47,7.02,6.73,16.61,6.34,3.2.03,6.26-.32,8.62-.87,9.17-2.16,2.42-15.07-2.69-17.67-25.73-13.09-40.31-8.68-50.32-7.46-4.35.53-5.38-6.05-1.05-6.75,10.61-1.73,31.58,1.02,54.69,11.4,14.82,6.66,12.39,15.1,7.23,20.98,14.9-1.77,28.88-7.3,42.24-15.52,27.97-13.27,31.61-43.1,33.79-70.58-1.2-9.1-22.92,9.98-28.72-2.59,1.05-3.95,10.77-1.32,14.43-2.33,5.65-.73,14.05-3.8,14.37-10.37-.52-5.37,5.1-32.67,6.72-37.19,12.83-35-37.43,20.72-42.52,28.16Z" style="fill: #000; stroke-width: 0px;"/>
</svg>