<?xml version="1.0" encoding="UTF-8"?>
<svg id="Master_Sword" data-name="Master Sword" xmlns="http://www.w3.org/2000/svg" viewBox="0 0 425.2 425.2">
  <path id="Master_Sword-2" data-name="Master Sword" d="M322.48,366.14c.23,0-7.3-34.03-8.59-40.86-1.99-10.58-39.96-62.17-50.42-78.31,0,0,0,0,0,0-.61-1.34-3.71-10.75-4.13-12.22,1.62.55-11.51-15.03-16.28-14.97-.23,0-1.2.7-2.38,1.62-2.94,2.29-7.18,1.9-9.64-.91-.02-.02-.03-.03-.04-.05.32-.38,6.21-20.37-16.97-23.21,0,0,0,0,0,0-1.05-1.73-2.11-3.46-3.13-5.2-2.83-4.81-5.66-9.58-10.23-13.05-1.43-1.09-2.28-2.76-2.48-4.54-.77-7.11.04-14,3.02-20.51.82-1.8,2.45-3.12,4.4-3.47s4.08-.35,6.12-.38c2.78-.05,5.56.08,8.33-.03,1.94-.07,3.3-4.16,3.3-4.16,0,0,0,0,0,0,0,0-4.23-16.15-7.35-23.91-.97-2.42-3.28-3.89-6.28-3.04-8.85,2.49-18.05,2.28-26.97.08-5.25-1.29-9.07,1.73-8.83,6.71.22,4.36.88,8.7,1.26,13.05.06.73-.26,1.52-.53,2.23-.11.29-.52.54-.85.64-.34.1-.84.12-1.1-.07-3.01-2.25-18.71-33.52-27.26-44.61-2.29-2.97-4.69-5.31-8.61-5.75-1.73-.2-2.53-1.72-3.26-3.17-1.51-2.98-1.99-5.9-.49-9.14,1.13-2.44.24-4.77-1.96-6.27-5.29-3.6-13.51-13.84-19.57-15.9-1.61-.55-3.16-.11-4.58.69-2.2,1.23-3.69,3.11-4.14,5.57-1.01,5.52,1.52,18.56,2.27,24.12.05.39.22.76.36,1.13.85,2.36,2.18,4.25,4.88,4.67,1.96.3,4.06.19,5.86.9,2.25.89,3.93,2.69,4.45,5.24.16.77.35,1.6.23,2.36-.81,5.02,1.02,9.44,3.18,13.73,1.96,3.91,4.2,7.69,6.36,11.5,5.5,9.7,11.02,19.38,16.55,29.06,4.15,7.26,8.33,14.49,12.48,21.75.8,1.39,1.59,2.8,2.29,4.24.89,1.82.18,4.25-1.52,5.34-4.02,2.58-7.92,5.4-12.15,7.6-8.05,4.2-8.36,5.3-7.72,14.03.03.4.06.79.08,1.19.5,11.54.95,23.05-2.1,34.42-.69,2.57-2.33,6.99.11,8.28,2.85,1.51,20.56,3.86,27.37,4.72,1.84.23,3.66-.59,4.65-2.15.68-1.08,1.23-2.34,1.02-3.42-1.34-7.03-2.68-14.05-4.05-21.07-.64-3.3-.11-6.27,1.96-9.02,2.17-2.87,4.25-5.77,7.27-7.84,1.31-.9,3.2-1.03,4.44-.14,3.23,2.31,6.08,5,8.76,7.86-.31.62-.45,1.31-.34,2.06-.35,4.13-.41,7.47,2.5,10.94,5.82,6.93,13.32,3.82,14.73,2.68h.03c.37.4.98,1.16,1.64,2.02,1.51,1.97.64,4.85-1.71,5.65-.34.12-.69.23-1.03.35-.92.32-1.75,1.21-1.77,2.22-.08,5.41-2.95,19.16-2.95,19.16.65,1.77,1.92,3.23,3.63,4.12,3.39,1.76,5.72,4.23,7.96,6.99,3.01,3.71,5.96,7.46,8.78,11.31,9.2,12.56,16.45,26.31,24.07,39.84,4.49,7.97,9.12,15.87,13.69,23.79.13.23.32.43.51.62,1.91,4.42,4.79,8.32,9.15,10.7,0,0,0,0,0,0,0,.37,49.23,9.99,50.79,9.78,1.31-.18,3-2.04,3.03-3.31.03-1.43.09-2.87-.09-4.28ZM190.11,205.25c-.81-.54-5.26-4.85-5.62-6.85-.46-2.53-3.01-12.99-2.6-15.66.08-.51,1.09-1.08,1.77-1.25.71-.18,1.6-.08,2.29.2,4.33,1.77,8.62,3.63,12.81,5.41,0,0,0,0,0,0,1.83,2.33,2.49,5,3.33,7.59,1.44,4.47,2.9,8.93,4.25,13.43.19.64.03,1.61-.36,2.12-.4.52-1.35,1.03-1.95.92-5.06-.97-9.69-3.06-13.93-5.92ZM317.86,367.79c-.39-.05-48.16-5.59-52.62-10.91-1.13-1.34-6.65-13.34-6.75-13.36.06,0,.13-.06.05-.09-.5-.21-.67-.3-.92-.31-5.05-10.36-10.65-20.43-16.2-30.54-6.95-12.66-15.01-24.68-24.01-35.99-2.77-3.48-5.47-6.89-9.64-8.93-.59-.29-.96-.77-1.22-1.31,1.89-5.52,1.92-11.72,2.8-17.48,0,0,2.43,0,3.31-.38,3.16-1.35,4.35-5.22,2.47-8.09-4.96-7.57-13.35-20.53-13.34-21.67,0-.49.38-1.13.92-1.2.83-.11,3.66-1.28,7.13-1.65,2.45-.26,2.95-1,3.04-2.37.08-1.2-.23-2.38-.28-3.58-.17-1.55-.36-3.09-.38-4.65-.02-1.3,1.66-1.62,2.32-.63.27.41.53.82.79,1.23,1.16,3.14,3.35,6.21,4.93,8.64,1.48,2.28,9.51,13.08,11.87,14.61,5.48,3.56,10.25.56,14.11-3.39h0c3.48,3.05,6.11,6.83,9.71,9.79,0,0,0,0,0,0,0,0,2.73,10.43,2.73,10.43,0,0,0,0,0,0,7.98,16.28,50.31,78.61,50.32,78.63,0,0,0,0,0,0,0,0-15.59,1.33-15.85,1.6h0c-8.68-13.29-38.8-54.51-39.72-55.32-.84-.74-1.44-.69-1.83.34-.12.32-.13.79.01,1.09,1.4,2.83,39.41,56.08,39.6,55.91.26-.22-3.27,16.27-4.05,21.36-.36,2.37-.08,4.77,1.96,6.51.27.23.78.28,1.15.23.29-.04.73-.34.77-.58.29-1.53,4.04-25.24,4.04-25.24,0,0,0,0,0,0l15.22-1.77s0,0,0,0c0,0,9.06,39.27,7.57,39.09Z" style="fill: #000; stroke-width: 0px;"/>
</svg>