<?xml version="1.0" encoding="UTF-8"?>
<svg id="Monitor" xmlns="http://www.w3.org/2000/svg" viewBox="0 0 425.2 425.2">
  <path id="Monitor-2" data-name="Monitor" d="M140.06,244.34l64.85,108.01c3.62,6.03,12.29,6.23,16.19.37h0c2.39-3.59,6.9-5.19,10.98-3.79.34.12.68.24,1,.37,38.08,11.95,94.8-63.51,55.23-89.73-4.35-2.88-5.6-8.72-2.8-13.12l16.77-26.38c1.6-2.52,1.94-5.63.91-8.43l-46.32-126.57c-2.7-7.39-12.66-8.55-16.99-1.98l-99.59,151.05c-2.03,3.08-2.11,7.04-.22,10.2ZM162.85,229.76l73.66-111.41c4.33-6.55,14.28-5.39,16.98,1.98l31.93,86.99c1.01,2.75.71,5.8-.82,8.3l-61.69,100.87c-3.8,6.21-12.85,6.08-16.48-.23l-43.89-76.45c-1.8-3.14-1.68-7.03.32-10.05Z" style="fill: #000; stroke-width: 0px;"/>
</svg>