<?xml version="1.0" encoding="UTF-8"?>
<svg id="Planta-2" data-name="Planta" xmlns="http://www.w3.org/2000/svg" viewBox="0 0 425.2 425.2">
  <path id="Planta-3" data-name="Planta" d="M233.65,318.94c.27.45.45,1.23.24,1.66-1.23,2.49-4.93,8.05-5.24,8.57-5.69,9.49-12.38,18.18-20.58,25.67-2.81,2.57-5.84,4.81-9.13,6.67-3.86,2.18-8,3.73-12.52,3.72-5.67-.02-11.36.16-16.99-.34-5.95-.54-11.76-2.07-17.29-4.41-20.26-8.56-34.12-23.37-41.66-43.86-1.47-4-2.59-8.21-3.45-12.39-4.06-9.96-4.02-22.61-5.31-32.88-1.04-8.29-1.78-17.51,4.79-23.66.51-.48,1.48.18,1.01.78-7.03,9.18.88,20.74,2.84,30.42.87,4.29,1.16,8.41,1.16,12.51,2.24,10.92,4.76,22.69,6.08,25.61,8.43,18.66,21.79,32.09,41.55,38.62.89.3,1.76.77,2.68.9,14.7,2.02,28.99,1.44,41.56-7.7,3.54-2.57,6.57-5.85,9.84-8.79.8-.72,17.36-18.48,19.01-20.73.46-.62,1.15-.8,1.41-.36ZM323.7,96.62c-6.56,1.2-4.76-9.95-11.41-10.52-7.42.05-.77,9.39.64,13.26.08.22.12.45.13.68.12,6.62-10.45,9.75-15.71,12.64-4.82,2.65-7.25-12.48-10.58-16.12-5.61-3.1-6.04,8.79-5.8,12.56,0,.08.02.16.03.24,1.03,5.69,1.57,9.81-.56,12.38-.1.17-.25.3-.39.44-.09.09-.2.18-.3.26-.07.04-20.74,8.31-26.64,9.28-3.22.53-4.93-2.63-6.27-5.73-1.4-3.24-5.93-3.49-7.7-.44-7.94,13.68-21.67,41.2-5.59,35.72,33.54-7.43,49.54,32.06,58.54,57.37.02.06.04.12.06.19,1.71,6.77,3.81,14.71,3.41,22.04-.14,2.61-4.03,2.57-4.17-.04-.53-9.95-.44-20.27-5.58-29.38-.04-.07-.07-.13-.1-.21-5.97-15.2-12.36-31.81-27.29-40.39-11.79-7.86-30.84-5.48-39.14,4.92-.23.29-.4.63-.44.99-.28,2.79,2.66,5.23,3.86,7.65,4.65,6.75,6.39,15.5,13.96,19.67.52.29,1.17.36,1.71.11,6.56-2.96,9.99-17.68,19.21-14.4.22.08.43.19.62.33,7.14,5.3,7.87,15.68,7.33,23.88-.21,6.15-5.78,8.42-9.55,12.16-.79.78-.81,2.05-.07,2.87,9.54,10.7,8.24,10.4,21.1,2.31,6.01-1.05,5.79,7.36,6.98,11.32,1.8,8.04-5.07,14.99-3.42,22.96,2.78,4.02,8.84-6.36,11.1-8.39,8.35-1.16-11.31,22.29-14.93,10.05-1.76-6.03,8.04-27.87-.47-29.94-.45-.11-.93-.03-1.33.19-3.77,2.1-8.45,7.88-12.45,4.52-2.94-4.77-17.64-13.83-9.6-18.81,12.25-4.5,10.98-18.86,5.4-28.31-.2-.34-.49-.63-.84-.8-9.89-5.01-11.99,18.69-22.51,13.21-1.53-.8-3.3.48-3.03,2.19.44,2.72,1.91,5.93.61,8.42-4.9,7.07-19.87-4.93-28.57,1.78-1.05.81-1.11,2.44-.07,3.25,1.64,1.27,4.73,2.47,7.9,3.83,2.48,1.06.99,4.8-1.55,3.87-4.07-1.49-8.15-2.91-12.43-3.77-8.19-4.46,3.08-13.03,8.53-14.31.16-.04.31-.05.47-.06,5.99-.25,12.4.78,18.33,2.08.29,0,.53-.12.73-.27,0-.03-.04-.06-.04-.09-.51-7-1.03-17.16-6.23-22.49-7.68-7.87-18.64,1.16-25.8,5.47-1.08.65-2.32,0-2.7-1.1-3-8.54,3.52-17.19,10.59-21.37.08-.05.18-.08.26-.13.34.25.81.32,1.21-.04.5.09,1,.21,1.5.37.25.08.49.2.69.36.62.48,1.19,1.02,1.73,1.59-1.76.55-3.54,1.69-5.37,3.26-2.16,1.86-4.46,4.42-5.9,7.26-.94,1.85,1.04,3.8,2.86,2.8,5.14-2.82,10.89-5.34,16.16-4.28,1.7.34,3.06-1.41,2.29-2.96-.71-1.44-1.42-2.78-2.1-3.99-.58-.54-1.16-.95-1.75-1.3.28-.35.37-.87,0-1.32-.06-.07-.13-.13-.19-.2.12-1.83.45-3.64.48-5.47,0,0,0,0,0-.01.22-1.1.42-2.2.6-3.31.01-.07.03-.13.05-.19,6.19-20.21,2.91-44.19-1.37-64.8-7.87-34.71-68.24-44.21-85.78,1.73-1.38,3.63-1.48,6.71,2.39,6.98,5.2.36,21.63-.74,21.63-.74,0,0,.71.12,1.52.1,1.33-.04,2.24-1.34,1.92-2.63-6.78-26.6,23.5-27.23,17.53.17-.25,1.13.51,2.26,1.64,2.46,5.63.99,14.27,1.13,18.74,1.13.09-.35.19-.7.29-1.09.77-2.98,1.07-6.09.95-9.16-.12-2.93-1.82-6.39-1.28-9.31.04-.2.33-.27.46-.12,2.46,2.86,3.66,6.52,4,10.29.1,1.13.21,2.53.23,4,.01,1.02.75,1.95,1.76,2.09,4.74.66,12.73,8.35,14,11.57,4.55,11.49.46,32.56-3.14,49.3-.29,1.33-1.76,2.03-2.97,1.4-17.67-9.06-40.84,2.73-46.44,21.67-1.7,9,5.29,6.22,1.06,19.8-1.23,5.83-9.03,3.25-13.07,2.34-5.23.43-2.67,8.55-4.38,12.14-.61,2.74-.92,5.5-1.07,8.27-.08,1.52,1.44,2.59,2.86,2.04,10.6-4.07,24.51-2.6,24.73,6.18.04,1.5-1.14,3.14-2.63,3.46-2.83.61-20.81-1.96-23.48-1.18-.91.27-1.52,4.47-1.54,5.68.49,6.6,8.64,4.33,12.64,7.79,5.03,4.46.93,12.96-.13,18.74-.86,4.7-6.77,1.5-10.33,1.12-1.49-.16-2.63,1.33-2.16,2.74,11.59,35.09,28.1,40,52.38,11.88.73-.84.67-2.15-.16-2.9-7.04-6.43-11.3.43-5.7-18.07,2.05-4.45,14.74-.73,18.59,1.51.28.16.49.41.66.68,2.31,3.56,6.21,1.2,8.08-1.93.38-.64.38-1.44,0-2.09-.94-1.63-1.94-3.2-3.2-4.68-3.24-3.78-7.87-5.98-12.74-6.51-1.74-.19-2.7-2.21-1.68-3.63,1.44-2,3.45-3.02,6.8-2.84,4.57.24,8.8,2.91,12.1,5.87.67.6,1.32,1.24,1.94,1.89.86-3.99,1.74-7.96,3.04-11.71.06-.16.14-.31.23-.45.22-.34.42-.68.6-1.02,1.04-2,4.05-1.2,3.93,1.05-.22,4-.31,7.98,2.62,10.46,18.9,19.12,18.85,47.26-3.43,58.33-2.39,1.19-4.23-2.4-1.89-3.71,4.67-2.62,9.75-5.34,12-9.69,8.77-12.67,1.62-28.72-6-40.12-.09-.13-.18-.23-.29-.34-1.13-1.11-3.61-4.65-4.58-2.32-.45,1.56-.64,3.27.57,4.45,6.21,6.55,8.15,15.53,8.82,24.11,0,.11.01.22,0,.33-.63,17.1-26.83,18.27-38.38,12.08-4.07-2.13-7.62,3.86-11.08,5.5-10.32,8.08-27.03,13.57-35.94.79-6.71-5.84-7.56-17.22-13.78-22.31-.28-.23-.64-.36-1-.42-3.61-.57-6.7-2.4-9.79-4.25-22.06-12.92-11.9-44.53,9.38-51.94,6.7-13.78-26,14.39-26.19,14.07-5.77-9.98,14.93-18.02,25.33-23.12,2.74-1.19,4.64-3.13,5.8-5.86,3.43-7.79,17.29,2.4,19.07-6.96,1.58-5.19-5.28-6.73-5.36-11.24.43-16.08,13-27.1,26.53-33.78.97-.55,1.23-1.59.62-2.25-4.87-5.25-24.99-16.62-44.5-2.9-10.54,7.42-18.65,16.89-21.58,29.94.01,6.82,15.06,4.07,17.58.42,3.75-5.42,1.56-18.69,8.44-22.68,2.97-1.73,8.13-3.97,10.14.03.04.41-.5,1.17-.9,1.27-13.52-.34-12.46,13.02-11.25,22.76.11,1.98-.04,4.99-2.46,5.4-10.99-.44-34.65,3.84-23.5-14.48,23.12-47.92,54.94-40.3,75.42-20.73.36.35.83.56,1.34.58,4.95.17,10.85-.3,15.18,2.85,2.25,1.45,3.36.77,3.54-2.05,1.39-16.66,10.55-40.85-9.65-48.04-1.06-.38-2.19.15-2.67,1.17-.28.6-.62,1.15-1.03,1.63,2.25,2.05-15.8.46-23.91-.33-3.05-.3-5.15-3.26-4.5-6.25,1.03-4.67,3.24-10.89-.33-15.54-.61-1.35-2.79-1.94-4.02-1.19-10.76,5.91,1.95,16.77-3.29,21.2-.28.23-.64.36-.99.42-10.58,1.57-21.47,1.35-32.23,2.16-4.21.39-6.59-4.03-5.63-7.79,1.37-6.83,12.12-24.59,20.93-29.8,43.85-25.97,66.38.8,75.77,21.63.04.09.08.19.11.29,6.78,21.7-.17,35.88,16.11,5.78.04-.07.08-.13.12-.2,29.38-52.72,88.18-49.3,106.48-41.21.32.14.62.36.84.64,7.27,9.26-8.65,26.4-16.56,31.39ZM315.99,64.5c-12.83.52-74.52,1.61-93.62,81.13-1.4,4.72-2.96,17.64-3.36,19-.36,1.22,1.64,1.76,1.9.52,5.6-27,12.59-43.66,18.59-52.19,3.23-4.58,10.27-2.78,11.23,2.74.05.28.12.53.17.8.91,1.53-.8,13.33,8.76,8.37,4.8-2.12,14.88-6.33,14.95-6.67-2.25-8.27-1.43-21.8,5.5-26.11,3.6-2.24,6.53-5.03,10.04-1.47,4.17,3.31,3.5,13.94,8.37,14.63,4.1-2.29,6.86-5.32,6.27-10.48-3.03-14.73,6.45-22.43,14.92-7.15,4.89,2.99,11.86-8.62,14.65-12.17,2.89-10.86-11.32-10.23-18.36-10.96ZM152.91,174.01c.24-.88.3-1.85.22-2.75-.05-.49-.54-.96-.92-1.37-.06-.07-.64.17-.79.39-.54.76-1.15,1.51-1.46,2.37-2.41,6.75-3.8,13.77-5.22,20.77-.14.67.76,1.57,1.23,2.33.15.25.48.39.74.56.26.17.51.4.79.48.87.25,1.93.85,2.59.57.97-.42.56-1.57-.2-3.69-.72-3.06-.62-7.36.6-11.62.77-2.69,1.67-5.34,2.42-8.04Z" style="fill: #000; stroke-width: 0px;"/>
</svg>