<?xml version="1.0" encoding="UTF-8"?>
<svg id="Peón" xmlns="http://www.w3.org/2000/svg" viewBox="0 0 425.2 425.2">
  <path id="Peón-2" data-name="Peón" d="M191.03,265.71c-14.9,17.08,5.26,37.81,24.96,34.83,32.04-.69,93.95-52.4,74.6-80.89-5.09-7.49-14.45-10.6-23.28-8.6-27.56,6.23-39.43-28.04-26.23-52.2,12.49-39.77-34.66-71.49-62.63-36.76-54.05,76.56,73.58,78.73,12.58,143.61ZM214.6,272.38c6.76.94,16.8-.98,33.17-12.44,4.18-4.28,14.09-9.56,12.51-16.27-1.52-.76-41.52,35.17-47.68,12.88-2.43-8.81,8.2-10.94,9.72-19.96.79-4.68-9.72-42.07-33.4-64.76-34.36-32.92,32.45-75.95,35.52-21.62,2.86,50.73,7.96,86.78,35.79,76.97,25.88-9.43,42.83,19.11-36.94,61.6-4.85,1.48-9.69.92-13.69-1.08-8.31-4.15-4.18-16.6,5.01-15.32Z" style="fill: #000; stroke-width: 0px;"/>
</svg>