<?xml version="1.0" encoding="UTF-8"?>
<svg id="Lápiz" xmlns="http://www.w3.org/2000/svg" viewBox="0 0 425.2 425.2">
  <path id="Lápiz-2" data-name="Lápiz" d="M279.65,153.49c.1-.25.23-.49.37-.71,1.82-2.81,12.25-20.06.05-28.65-10.3-7.26-15.05-9.52-26.97,2.7-.17.18-.34.37-.48.58-28.96,41.66-49.61,77.74-76.27,120.99-.1.16-.21.31-.33.46s-.23.28-.34.42c-2.64,3.28.48,8.04,4.52,6.86,11.43-3.33,20.6,17.8,22.77,9.47.29-1.13.12-2.33-.48-3.32-3.68-6.12-7.43-12.48-12.5-14.07-2.77-.87-4.08-4-2.53-6.46l43.78-69.44c.97-1.54,2.8-2.31,4.58-1.91,2.15.48,4.89,1.13,6.13,1.59,1.9.7,9.86,7.24,9.13,3.28-.14-.76-.53-1.45-1.07-2-2.29-2.34-6.82-4.64-10.36-6.21-2.49-1.11-3.34-4.22-1.76-6.44l2.88-4.03c1.17-1.64,3.33-2.29,5.17-1.47,5.73,2.56,13.38,10.84,16.87,14.86,1.16,1.33,1.39,3.22.58,4.79-6.98,13.56-40.54,77.64-68.59,111.61-8.07,9.77-22.07-17.88-25.14-9.43,3,40.16,5.8,54.04,30.11,13.63,71.05-118.11,79-134.85,79.89-137.06ZM262.57,124.12c12.89-5.47,20.12,7.64,19.66,13.6-.17,2.2-2.66,6.16-4.85,9.25-1.49,2.12-4.48,2.35-6.4.61-4.58-4.17-11.69-7.04-15.93-8.49-1.9-.65-3.14-2.53-2.9-4.52.35-2.88,1.65-6.72,10.42-10.45ZM246.33,147.17l1.19-2.41c.98-1.99,3.31-2.92,5.39-2.13,6.23,2.39,16.37,9.31,17.75,12.56.35.82-.88,3.81-2.18,6.57-1.22,2.59-4.6,3.28-6.74,1.38-3.77-3.34-9.37-8.02-13.58-10.27-2.05-1.1-2.85-3.62-1.82-5.7Z" style="fill: #000; stroke-width: 0px;"/>
</svg>