<?xml version="1.0" encoding="UTF-8"?>
<svg id="Planta" xmlns="http://www.w3.org/2000/svg" viewBox="0 0 425.2 425.2">
  <path d="M164.08,265.86c2.36-1.51,4.83-3.09,7.31-4.68,3-1.92,3.1-4.85,2.68-7.91-.06-.45-.49-1.18-.78-1.2-.86-.05-2.01-.11-2.57.37-3.85,3.31-6.52,7.43-7.75,12.39-.06.22.69.65,1.12,1.02Z" style="fill: none; stroke-width: 0px;"/>
  <path d="M237.5,184.32c.04-.7-.89-1.71-1.63-2.12-1.07-.6-2.03-.06-2.49,1.07-5.75,14.17-4.18,27.86,2.8,41.16.62,1.18,1.57,1.34,2.15.63.29-.36.63-.96.52-1.33-2.94-9.94-2.81-20.1-2.3-31.04.28-2.3.78-5.33.95-8.37Z" style="fill: #000; stroke-width: 0px;"/>
  <path d="M262.61,297.25c-13.87,9.51-29.17,14.34-46.01,14.21-.47,0-.99.21-1.4.46-.43.26-.9.63-1.06,1.06-.07.19.53.88.89.95,2.97.51,5.96.93,6.93,1.07,16.12-.02,30.32-4.93,41.74-13.83.77-.6,1.26-1.58,1.76-2.46.16-.28.07-.9-.15-1.16-.28-.33-.8-.61-1.24-.65-.48-.04-1.08.07-1.47.34Z" style="fill: #000; stroke-width: 0px;"/>
  <path d="M317.34,322.67c-1.68-18.44-16.96-67.31-16.74-67.48,16.77-12.46,22.71-38.18,1.72-55.59-.16-.13-.37-.2-.57-.14-5.43,1.75,17.54,29.86-1.83,45.68-22.23,18.16,15.06,56.19,4.21,83.43-12.12,31-57.06,56.26-81.75,14.15-.01-.02-.02-.04-.03-.06-4.41-9.75-22.21-37-26.51-30.07-.12.19-.11.43-.01.63,13.47,26.06,29.61,66.01,65.12,62.98,27.01-1.72,52.37-27.09,56.39-53.35,0-.06.01-.11,0-.17Z" style="fill: #000; stroke-width: 0px;"/>
  <path d="M252.55,141.03c.69.62,1.54,1.49,2.31,1.48.79-.01,2.15-.87,2.24-1.51.59-4.05.95-8.13,1.3-12.21,1.31-15.29,6.29-29.11,16.43-40.82.44-.5,1.7-.41,2.56-.36.29.02.8.84.74,1.23-1.56,11.3-5.21,22-9.39,32.55-1.33,3.35-3.99,12.96-3.62,14.37.36,1.37,1.98,1.79,3.99,1.24.86-.23,4.61-2.85,5.65-3.89,2.25-2.37,4.64-4.61,7.16-6.7.27-.23.56-.44.83-.67,0,0,0-.01,0-.02-.07.03-.12.07-.19.1,0-.06.01-.11.01-.17-2.41.57-4.82,1.15-7.24,1.69-.49.11-1.1.22-1.53.04-1.2-.5-1.28-1.34-.81-2.5,2.89-7.16,6.21-14.12,8.34-21.61,1.87-6.58,2.26-13.15,1.77-19.87-.27-3.75-4.89-5.94-8.1-3.8-1.27.85-2.64,1.7-3.58,2.86-1.93,2.4-3.7,4.94-5.36,7.54-4.76,7.44-7.19,15.93-10.76,23.91-3.74,8.34-4.33,16.86-3.28,25.7.06.49.18,1.1.51,1.4Z" style="fill: #000; stroke-width: 0px;"/>
  <path d="M179.73,294.61c-.37-.29-.87-.47-1.34-.57-.48-.1-1.24-.23-1.45.02-.59.7-1.5,1.71-1.35,2.37,1.22,5.2,4.79,8.6,9.21,11.22.36.21,1.02.12,1.47-.05.42-.16.74-.59,1.11-.9.07-.44.35-.98.19-1.32-1.95-4.07-4.21-7.93-7.83-10.78Z" style="fill: #000; stroke-width: 0px;"/>
  <path d="M119.64,176.67c19.36,14.39-8.62-13.61-9.79-20.71-4.25-25.69,20.88,8.18,24.4,13.69,4.37,6.83,16.98,19.5,19.27,22.48.18.24.46.36.76.34h0c.71-.04,1.09-.86.66-1.43-4.21-5.54-20.02-27.24-20-41.27,2.38-25.13,29.29,38.76,33.36,44.99,9.13,10.08,1.63-9.88.74-13.48,1.2-4.39.57-39.88,7.85-47.83,10.48-11.45-.14,30.74,1.47,39.13,2.8,13.64,13.73-39.82,5.72-44.12-17.84-9.58-16.02,30.03-17.59,43.97-12.15-23.1-41.26-69.85-34.88-11.65-27.66-37.47-33.98-8.77-11.97,15.9Z" style="fill: #000; stroke-width: 0px;"/>
  <path d="M190.86,219.41c.61,1.04,1.53,1.1,2.47.12,6.41-6.7,13.97-11.73,22.4-15.5.46-.21,1.01-.37,1.32-.73.57-.65.99-1.43,1.47-2.16-.92-.31-1.95-1.05-2.74-.85-8.8,2.22-17.57,4.59-26.78,7.03,1.95,1.45,3.67,2.74,5.42,4.04-1.34,2.36-2.6,4.53-3.77,6.74-.17.32,0,.96.21,1.32Z" style="fill: #000; stroke-width: 0px;"/>
  <path d="M224.98,81.48c3.55,7.62-5.12,16.89-2.38,23.94,1.81,2.48,3.54,4.68,2.33,8.32-3.59,12.49-8.13,32.7,2.62,41.87,4.55-1.78,2.22-8.65,1.59-12.31-2.35-9.75-.14-20.73,2.44-30.05,6.32,8.36,7.97,19.84,9.18,31.06,0-1.16,0-2.33,0-3.49.02-6.42.05-12.84.19-19.25-2.76-9.57-4.73-19.16-2.69-28.47.53-2.41,3.82-2.91,5.03-.76,5.05,8.92,3.66,29.84,4.18,30.34.33-.39.88-.74.95-1.18,1.43-8.62.87-17.26-.34-25.81-.55-3.9-1.22-8.13-4.17-11.25-.59-.62-4.43-3.83-8.17.62-2.89,3.43-2.48,12.92-6.7,16.63-2.79-7.97,5.73-17.95,6.53-26.72.33-3.68-3.59-6.29-6.85-4.56-15.77,8.34-22.39,50.33-18.83,64.73,8.56,41.13-3.71-36.24,15.09-53.66Z" style="fill: #000; stroke-width: 0px;"/>
  <path d="M310.38,169.14c-1.28-6.76-17.78-6.72-18.51-13.53,12.67-8.82,5.91-16.69-.39-20.35-2.93-5.31,8.58-8.35,11.22-12.32,21.39-20.9-6.32-28.8-15.66-.61,2.23-1.68,17.34-15.04,15.31-6.91-7.91,7.54-15.37,15.7-24.01,22.46,2.97,3.32,7.34,4.88,11.11,7.11,5.05,4.33-9.32,9.92.21,16.63,5.96,1.73,13.24,6.81,10.6,13.78-4.76,1.88-12.03-11.09-18.51-10.91,3.18,5.85,5.11,12.3,8.71,17.83-4.96,2.4-11.9-12.62-14.81-15.61-15.02-7.28,3.55,16.67-.87,18.78-10.45-2.97-9.2-27.63-23.29-19.09.15-.66.31-1.28.48-1.86-.66.74-1.33,1.46-2.01,2.17-2.46,3.64-5.05,7.2-7.33,10.96-.43,14.06-1.51,28.11.44,42.39,5.06,10.59,6.77-3.13,12.36,20.05,3.64,2.68,9.46,6.2,8.12,11.25-1.46,5.42-7.95,6.07-12.35,8.02-9.14,4.37-16.19-8.37-24.32-11.6.17-8.26-3.16-15.39-7.83-22.07.24-1.09.37-2.44.9-2.52.81-.12,2.09.36,2.57,1.02,2.39,3.26,4.52,6.71,6.91,9.97.46.62,1.98,1.23,2.41.94.67-.45,1.33-1.79,1.14-2.54-2.07-8.28-6.76-14.56-14.54-18.41-2.48-1.22-4.81-1.25-7.22.05-2.67,1.44-5.53,2.64-7.35,5.24-.9,1.28-1.22,2.6.58,3.66,1.2-.82,2.41-1.74,3.71-2.52,3.18-1.92,3.87-1.77,6.37.96,1.01,1.1,2.12,2.1,3.18,3.14l-.16.14s.1.04.16.06c-.27,2.99.26,5.81,1.49,8.58,2.03,4.57,3.81,9.26,5.82,13.84.17.38.44.71.76,1.03.88,21.32-3.02,29.47-15,7.64-9.38-4.02,2.77,15.83-.98,19.53-10.64-4.43-11.89-19.35-19.22-25.91-1.84,12.49-8.2,30.54.78,41.44,2.45-3.4,2.59-7.98,8.36-7.25,35.03,8.45,101.31-37.17,91.26-74.57-3.95.22-1.95,8.76-3.56,11.8-1.84,5.51-5.33,4.73-8.54,2.13-1.9-1.54-4.58.24-4.11,2.63.21,1.05.16,2.07-.32,3.03-2.83-1.7-5.45-5.45-8.67-5.92-5.1,7.2,10.3,14.27,5.67,21.45-5.31-3.6-7.75-12.08-12.49-16.99-4.91-3.41-9.21-4.51-10.95-11.3-2.08-5.83-5.46-16.43-4.2-24.07.59-3.6,3.57-4.63,6.4-2.32,21.76,17.73,10.56,21.35,5.18,14.73-.95-1.17-2.28-1.96-3.47-2.89-1.08-.85-1.94-.64-2.42.57-.17.43-.46,1-.31,1.35,2.43,5.93,6.76,9.82,12.85,11.77,2.32.75,4.82-1.46,5.17-4.03,2.13-15.7-12.13-25.88-14.32-28.92-.13-.19-.7-1.07-1.23-1.83,1.73-30.69,15.41,31.6,33.2,11.73,2.14-2.42,4.3-1.75,6.71-1.68,1.8.05,2.36-2.71,2.08-5.16,10.65,4.55,20.62-4.62,16.72-16.16Z" style="fill: #000; stroke-width: 0px;"/>
  <path d="M212.36,191.93c-10.59-1.69-25.3-37.51-15.28-42.91,2.17-1.17,3.77,4.81,4.95,8.55,1.39,4.38,2.94,8.7,6.19,12.14.33.35,1.05.85,1.28.72,1.05-.59,1.35-1.57.89-2.62-2.44-5.6-5.38-11-6.7-17.04-.54-2.48-1.3-4.98-1.36-7.48-.2-9.15-1.05-18.38,2.29-27.27.51-1.36.29-3.02.28-4.54,0-.43-.4-.93-.75-1.24-.17-.15-.88-.04-.97.15-3.29,6.49-4.53,13.41-4.33,20.65.14,5.21.03,10.41-2.22,15.23-.25.29-3.11,3.81-3.29,4.69-1.26,6.08-1.38,12.35-.28,18.39,1.09,5.98,4.03,20.73,19.89,24.85-.18-.78-.02-2.17-.58-2.26Z" style="fill: #000; stroke-width: 0px;"/>
  <path d="M180.36,271.76c5.51-38.19,18.69-54.1-24.49-15.8-.91,1.01-2.02.95-2.4-.09-1.38-5.8,4.56-10.23,8.28-13.68,5.42-5.06,15.59-7.79,7.36-13.41-1.31-.9-3.1-.59-4.07.66-14.61,18.94-4.66-16.24-12.17-22.54-6.19-6.43-2.01,24.96-2.15,31.99-.02.79-.33,1.56-.92,2.08-4.13,3.66-6.52-11.36-6.23-14.35-1.05-8.16,3.1-20.18-5.15-24.29-1.58-.79-3.51,0-4.12,1.67-3.17,8.63-5.86,25.99-8.49,33.54-.2.58-.57,1.08-1.06,1.45-12.27,9.24,4.67-33.03,5.24-37.77.82-1.69-1.17-4.48-3.01-3.77-9.36,4.79-17.57,11.36-23.24,20-1.75,2.67-11.07,27.47-13.7,22.45-12.18-23.22,14.99-33.27,22.2-38.65.8-.6,1.31-1.56,1.2-2.56-.74-6.48-25.32,16.38-25.77,19.79-4.58,4.12-5.85,27.39,2.27,27.11.84-.03,1.61-.48,2.13-1.14,7.52-9.6,13.25-20.54,22.25-28.95.69-.64,1.66-.98,2.58-.77.72.16,1.31.6,1.23,1.45-7.96,28.21.01,59.78,15.16,20.41.94-2.45,4.36-2.61,5.52-.26,1.85,3.75,3.29,7.81,5.64,11.31.09.13.17.28.24.42,2.42,5.26-.04,11.17,3.16,16.24,2.19,5.71,7.53-.11,7.91,6.82.01.21.04.44.1.64,1.52,5.62,1.43,5.65-1.93,9.09-3.96,4.05,22.53,18.12,26.46-9.1ZM170.29,252.83c.35-.34.77-.6,1.24-.72,1.04-.27,2.4-.16,2.53,1.16,1.18,4.06-.98,6.66-3.88,8.75s-6.24-1.4-4.23-4.2c1.44-2,3.16-3.86,4.34-4.98Z" style="fill: #000; stroke-width: 0px;"/>
  <path d="M111.8,185.37c-5.66-.29-20.63-4.48-28.87-6.3-3.77-.83-3.36-6.43.5-6.57.04,0,.08,0,.11,0,2.56-.06,20.34,4.99,25.45,5.51.36.04,2.57-.08,2.78-.5.12-.25-24.61-11.31-31.15-5.66-2.07,1.79-1.96,6.89.1,8.7,5.67,4.97,26.39,5.95,29.53,6.07,1.28.05,2.62-1.17,1.54-1.23Z" style="fill: #000; stroke-width: 0px;"/>
</svg>