<?xml version="1.0" encoding="UTF-8"?>
<svg id="Play" xmlns="http://www.w3.org/2000/svg" viewBox="0 0 425.2 425.2">
  <path id="Play-2" data-name="Play" d="M136.69,212.2c2.6,2.96,6.05,6.9,8.29,9.38.97,3.95-1.4,8.11-5.81,10.22-3.96,1.9-8.11,1.39-11.14-1.35-2.11-1.92-3.09-4.26-3.06-7.36h0c1.88-3.42,3.75-6.84,5.61-10.26,1.2-2.2,4.42-2.53,6.1-.62ZM120.03,198.59c-.13-.09-.27-.19-.4-.29-.68-.27-1.36-.54-2.05-.78-4.15-1.45-7.83-.33-10.96,2.39-3.58,3.11-4.36,10.57-1.32,14.71.86,1.18,2.62,2.13,4.15,2.46,2.84.61,5.76.05,8.12-1.56,2.73-1.86,5.22-4.06,7.74-6.18.02-.01.03-.03.05-.04,2.41-2.05,1.88-5.76-.75-7.56-1.53-1.05-3.06-2.1-4.57-3.16ZM140.58,188.02c1.16-2.46,1.19-5.27.04-7.74-.4-.86-.86-1.72-1.36-2.57-1.2-2.07-3.33-2.92-5.68-3.06-2.93-.17-5.82.34-8.16,2.05-1.3.95-2.75,2.29-3.11,3.68-.04.17-.08.33-.13.5-1.17,4.82.4,9.9,4.14,13.39.68.63,1.38,1.28,2.09,1.92,2.74,2.47,7.29,1.71,8.92-1.51,1.23-2.43,2.46-5.03,3.24-6.67ZM264.09,248.48c-18.25,5.24-39.54-1.51-40.68-21.47-5.42.65-16.88,0-16.88,0-5.93,6.48,4.77,28.44-34.48,29.13,0,0,2.26,10.62,2.53,19s-.7,17.43-14.59,28.77c-40.79,30.65-67.71-29.08-75.2-58.91-12.11-31.04,2.65-60.21,12.52-89.47,7.55-13.2,52.76-19.55,62.64-7,.1,6.13,8.44,9.94,8.04,13.86-.63,6.1-5.48-7.59-26.34-6.41-49.87,2.82-67.06,56.38-39.94,86.08,20.53,12.69,29.44,7.53,50.82,7.68,3.01,9.39-30.56,8.82-45.67,1.01-3.75-1.94-8.51.45-8.33,4.45,1.84,41.09,76.69,70.61,65.79,7.21-5.93-30.3,14.26,5.92,33.37-34.14,1.96-4.46.18-10.68,5.41-10.96,4.7.18,13.26.58,19.76.89,4.59.22,8.4,3.48,8.92,7.75,2.54,21.06,21.09,17.04,32.79,13.19,5.02-1.66,10.42.74,12.4,5.35,5.66,13.17,15.36,22.97,32.83,20.86,26.69-10.75,25.78-47.52,23.65-70.99-3.7,1.09-3.8,4.12-4.56,6.32-2.52,7.25-7.92,11.79-14.93,15.01-7.69,3.35-17.97,8.06-25.91,3.12,6.46-4.99,17.61-5.36,25.1-9.99,34.73-24.64-6.12-106.77-51.51-77.35-14.52,5.23-10.96,26.47-27.17,28.52-19.51,2.46-37.48,4.93-58.24,4.58-2.01-.03-.82-7.35.58-7.48,15.06-.94,28.54-1.26,42.71-2.67,8.77-.87,16.64-5.55,21.11-12.66,1.46-2.33,2.84-4.6,3.91-6.61,2.28-5.28,1.23-12.57,7.81-15.41,16.83-7.81,37.82-9.5,55.49-2.91,2.85.91,5.17,3.25,5.25,5.99,9.74,26.65,30.04,48.41,31.74,79.16,2.85,51.66-45,115.4-80.74,46.49ZM288.42,176.85c-2.12-.37-4.47.39-6.71.67-1.08.14-2.16.34-3.23.51-.46,2.58-.97,5.15-1.35,7.74-.23,1.59-.51,3.23-.33,4.8.71,6.46,6.78,11.89,14.97,7.34,2.6-1.45,4.19-3.54,5.48-6.05,1.68-3.29,1.23-6.4-.77-9.22-1.93-2.72-4.51-5.16-8.05-5.79ZM276.14,142.9c-.83.74-1.6,1.54-2.32,2.37-2.76,3.19-3.55,6.81-1.69,10.52,1.78,3.55,4.74,6,9.21,6.43,3.64.35,6.9-.45,9.39-2.99,2.73-2.8,5.09-5.84,4.86-9.85-.35-1.11-.46-2.25-1.03-3.13-4.95-7.64-12.09-8.99-18.42-3.35ZM159.74,193.74c-.57-1.24-2.38-2.36-3.87-2.78-.53-.15-1.06-.25-1.58-.3-1.95-.19-3.91.56-5.24,1.9-1.68,1.69-3.75,3.33-5.79,4.96-3.43,2.73-3.03,7.78.77,10.04.46.27.8.48.97.6,5.7,3.97,13.1,1.55,14.91-4.9.89-3.17,1.23-6.48-.16-9.51ZM258.16,166.79c-1.72,4.2-1.81,8.44.14,12.5,2.84,5.92,10.66,7.95,15.6,3.18,1.51-1.46,2.95-2.99,4.41-4.49.9-7.51-3.17-12.07-10.14-15-3.56-1.5-8.59.35-10.01,3.8ZM305.04,174.74c5.11-1.48,8.65-5.97,8.51-10.81-.12-4.12-3.75-8.32-8.26-9.03-1.55-.25-3.55.06-4.86.82-1.87,1.1-3.53,2.7-4.87,4.37-2.99,3.73-2.75,7.64.36,11.81,1.96,2.62,5.77,3.8,9.11,2.84ZM278.48,178.03c.01-.08.03-.17.04-.25l-.21.28c.06,0,.11-.02.17-.03ZM278.52,177.78c-.07.07-.14.14-.21.21,0,.02,0,.04,0,.06l.21-.28ZM254.5,232.93c9.18,0,16.62-6.95,16.62-15.53s-7.44-15.53-16.62-15.53-16.62,6.95-16.62,15.53,7.44,15.53,16.62,15.53ZM174.42,212.6c-9.18,0-16.62,6.95-16.62,15.53s7.44,15.53,16.62,15.53,16.62-6.95,16.62-15.53-7.44-15.53-16.62-15.53Z" style="fill: #000; stroke-width: 0px;"/>
  <path id="Play-3" data-name="Play" d="M136.69,212.2c2.6,2.96,6.05,6.9,8.29,9.38.97,3.95-1.4,8.11-5.81,10.22-3.96,1.9-8.11,1.39-11.14-1.35-2.11-1.92-3.09-4.26-3.06-7.36h0c1.88-3.42,3.75-6.84,5.61-10.26,1.2-2.2,4.42-2.53,6.1-.62ZM120.03,198.59c-.13-.09-.27-.19-.4-.29-.68-.27-1.36-.54-2.05-.78-4.15-1.45-7.83-.33-10.96,2.39-3.58,3.11-4.36,10.57-1.32,14.71.86,1.18,2.62,2.13,4.15,2.46,2.84.61,5.76.05,8.12-1.56,2.73-1.86,5.22-4.06,7.74-6.18.02-.01.03-.03.05-.04,2.41-2.05,1.88-5.76-.75-7.56-1.53-1.05-3.06-2.1-4.57-3.16ZM140.58,188.02c1.16-2.46,1.19-5.27.04-7.74-.4-.86-.86-1.72-1.36-2.57-1.2-2.07-3.33-2.92-5.68-3.06-2.93-.17-5.82.34-8.16,2.05-1.3.95-2.75,2.29-3.11,3.68-.04.17-.08.33-.13.5-1.17,4.82.4,9.9,4.14,13.39.68.63,1.38,1.28,2.09,1.92,2.74,2.47,7.29,1.71,8.92-1.51,1.23-2.43,2.46-5.03,3.24-6.67ZM264.09,248.48c-18.25,5.24-39.54-1.51-40.68-21.47-5.42.65-16.88,0-16.88,0-5.93,6.48,4.77,28.44-34.48,29.13,0,0,2.26,10.62,2.53,19s-.7,17.43-14.59,28.77c-40.79,30.65-67.71-29.08-75.2-58.91-12.11-31.04,2.65-60.21,12.52-89.47,7.55-13.2,52.76-19.55,62.64-7,.1,6.13,8.44,9.94,8.04,13.86-.63,6.1-5.48-7.59-26.34-6.41-49.87,2.82-67.06,56.38-39.94,86.08,20.53,12.69,29.44,7.53,50.82,7.68,3.01,9.39-30.56,8.82-45.67,1.01-3.75-1.94-8.51.45-8.33,4.45,1.84,41.09,76.69,70.61,65.79,7.21-5.93-30.3,14.26,5.92,33.37-34.14,1.96-4.46.18-10.68,5.41-10.96,4.7.18,13.26.58,19.76.89,4.59.22,8.4,3.48,8.92,7.75,2.54,21.06,21.09,17.04,32.79,13.19,5.02-1.66,10.42.74,12.4,5.35,5.66,13.17,15.36,22.97,32.83,20.86,26.69-10.75,25.78-47.52,23.65-70.99-3.7,1.09-3.8,4.12-4.56,6.32-2.52,7.25-7.92,11.79-14.93,15.01-7.69,3.35-17.97,8.06-25.91,3.12,6.46-4.99,17.61-5.36,25.1-9.99,34.73-24.64-6.12-106.77-51.51-77.35-14.52,5.23-10.96,26.47-27.17,28.52-19.51,2.46-37.48,4.93-58.24,4.58-2.01-.03-.82-7.35.58-7.48,15.06-.94,28.54-1.26,42.71-2.67,8.77-.87,16.64-5.55,21.11-12.66,1.46-2.33,2.84-4.6,3.91-6.61,2.28-5.28,1.23-12.57,7.81-15.41,16.83-7.81,37.82-9.5,55.49-2.91,2.85.91,5.17,3.25,5.25,5.99,9.74,26.65,30.04,48.41,31.74,79.16,2.85,51.66-45,115.4-80.74,46.49ZM288.42,176.85c-2.12-.37-4.47.39-6.71.67-1.08.14-2.16.34-3.23.51-.46,2.58-.97,5.15-1.35,7.74-.23,1.59-.51,3.23-.33,4.8.71,6.46,6.78,11.89,14.97,7.34,2.6-1.45,4.19-3.54,5.48-6.05,1.68-3.29,1.23-6.4-.77-9.22-1.93-2.72-4.51-5.16-8.05-5.79ZM276.14,142.9c-.83.74-1.6,1.54-2.32,2.37-2.76,3.19-3.55,6.81-1.69,10.52,1.78,3.55,4.74,6,9.21,6.43,3.64.35,6.9-.45,9.39-2.99,2.73-2.8,5.09-5.84,4.86-9.85-.35-1.11-.46-2.25-1.03-3.13-4.95-7.64-12.09-8.99-18.42-3.35ZM159.74,193.74c-.57-1.24-2.38-2.36-3.87-2.78-.53-.15-1.06-.25-1.58-.3-1.95-.19-3.91.56-5.24,1.9-1.68,1.69-3.75,3.33-5.79,4.96-3.43,2.73-3.03,7.78.77,10.04.46.27.8.48.97.6,5.7,3.97,13.1,1.55,14.91-4.9.89-3.17,1.23-6.48-.16-9.51ZM258.16,166.79c-1.72,4.2-1.81,8.44.14,12.5,2.84,5.92,10.66,7.95,15.6,3.18,1.51-1.46,2.95-2.99,4.41-4.49.9-7.51-3.17-12.07-10.14-15-3.56-1.5-8.59.35-10.01,3.8ZM305.04,174.74c5.11-1.48,8.65-5.97,8.51-10.81-.12-4.12-3.75-8.32-8.26-9.03-1.55-.25-3.55.06-4.86.82-1.87,1.1-3.53,2.7-4.87,4.37-2.99,3.73-2.75,7.64.36,11.81,1.96,2.62,5.77,3.8,9.11,2.84ZM278.48,178.03c.01-.08.03-.17.04-.25l-.21.28c.06,0,.11-.02.17-.03ZM278.52,177.78c-.07.07-.14.14-.21.21,0,.02,0,.04,0,.06l.21-.28ZM254.5,232.93c9.18,0,16.62-6.95,16.62-15.53s-7.44-15.53-16.62-15.53-16.62,6.95-16.62,15.53,7.44,15.53,16.62,15.53ZM174.42,212.6c-9.18,0-16.62,6.95-16.62,15.53s7.44,15.53,16.62,15.53,16.62-6.95,16.62-15.53-7.44-15.53-16.62-15.53Z" style="fill: #000; stroke-width: 0px;"/>
</svg>