<?xml version="1.0" encoding="UTF-8"?>
<svg id="Pokebola" xmlns="http://www.w3.org/2000/svg" viewBox="0 0 425.2 425.2">
  <path id="Pokebola-2" data-name="Pokebola" d="M264.15,229.05c-15.93-95.45-152.69-58.39-111.8,31.38,27.8,59.58,121.8,34.44,111.8-31.38ZM181.98,244.61c-.78,11.78.87,11.13-.26,14.84-.49,1.59-1.44,2.89-3.3,3.62-24.12,1.46-27.42-56.71-6.51-70.35,19.36-15.47,66.39-5.17,66.41,19.8-1.48,8.4-9.45,16.62-13.77,18.86-2.15,1.11-9.2-5.36-16.71-6.56-10.31-1.64-24.81,4.03-25.85,19.8ZM191.41,249.92c.24-9.72,9.57-13.6,16.54-10.6,6.23,2.68,7.78,10.22,4.12,15.78-6.02,9.15-21.2,10.28-20.66-5.17ZM248.57,253.22c-8.36,24.67-48.88,37.07-57.17,22.28-.51-.9,1.98-2.29,3.35-3.59.75-.71,1.9-1.02,2.79-.47,6.55,4.05,33.84-2.78,30.37-26.29-.28-1.88-1.68-4.21-.28-5.33,7.69-6.16,15.33-23.97,20.42-15.58,1.65,2.73,7.31,8.96.53,28.97Z" style="fill: #000; stroke-width: 0px;"/>
</svg>