<?xml version="1.0" encoding="UTF-8"?>
<svg id="Noche" xmlns="http://www.w3.org/2000/svg" viewBox="0 0 425.2 425.2">
  <path id="Noche-2" data-name="Noche" d="M229.06,220.38c1.37-4.76,2.45-9.57,1.78-14.54-.38-2.82-1.26-5.57-1.85-8.37-.06-.3.27-.76.55-1.01.13-.13.68-.07.81.09,1.6,1.95,2.51,4.23,2.82,6.7.25,2.03.28,4.1.4,6.15.05,4.17-.24,8.24-2.58,11.88-.22.34-.58.58-.88.86-.37-.59-1.19-1.31-1.06-1.76ZM167.55,251.73s.69-.49.74-.8c.2-1.16.27-2.34.35-3.16-.11-1.14-.04-1.98-.31-2.69-.21-.53-.85-.9-1.36-1.26-.04-.03-.73.52-.74.81-.09,1.95-.17,3.91-.05,5.85.03.46.85.89,1.37,1.25ZM261.85,226.74c-.49.18-.86.69-1.24,1.17-.13.16-.26.31-.39.45h0c.18.09.36.23.54.33s.36.2.55.21c2.04.14,4.08.21,6.2.3,1.96-.13,3.99-.23,6.02-.41.28-.03.76-.41.76-.61,0-.37-.22-.94-.51-1.08-3.91-1.91-7.93-1.84-11.94-.36ZM181.95,210.74c-1.87-1.18-3.06-2.98-2.9-5.09.29-3.75,1.65-7.23,4.43-9.88.79-.75,2.19-1.15,3.32-1.18,1.16-.03,2.39.47,3.5.96,1.54.68,2.76,1.78,3,3.59.79,5.85-3.95,10.3-6.67,11.67-1.51.76-3.14.9-4.67-.07ZM186.21,209.65c1.84-.73,5.33-5.88,5.41-6.67.52-5.09-2.92-7.94-6.59-6.09-2.41,1.21-5.01,3.73-4.66,9.42.09,1.38,3.16,4.4,5.84,3.34ZM196.8,270.33c6.99-4.53,9.79-13.4,7.01-21.11-.1-.29-.74-.32-.82,0-1.4,5.58-1.48,11.92-5.29,16.53-2.26,2.73-6.26,5.37-10.22,6.05-1.03-.02-2.06-.05-3.09-.09-1.57-1.17-3.26-2.11-4.99-2.68-4.77-1.58-16.13-1.76-16.23,5.59,0,.14.77-.44.82-.46.69-.32,15.68-13.59,22.81,12.28.95,7.67-5.35,16.01-9.08,22.3-.24.41.42.58.67.37,18.03-14.59,12.28-30.67,9.6-33.97.91-.34,7.84-4.19,8.81-4.82ZM319.3,97c.51.73,1.01,1.46,1.48,2.21.81,1.52,1.46,3.15,2.15,4.75.05.38.09.76.13,1.15-5.53,24.59-33.09,153.19-34.6,158.62-.57,2.04-1.61,3.92-3.45,5.05-8.86,5.44-165.62,81.9-167.91,82.89-1.86.8-3.91,2.05-5.93.88-.84-.49-1.53-1.25-2.21-2.02,2.12-8.11,4.14-16.25,6.42-24.31,0,0,.01-.02.01-.03,1.87-5.73,3.7-11.47,5.52-17.21,1.18-3.25,2.42-6.48,3.72-9.69,1.76-4.32,3.65-8.57,5.51-12.84.02.03.04.09.07.13-.63,2.21-1.27,4.41-1.93,6.61-1.45,4.84-3.16,9.67-4.23,14.61-.88,4.06-1.53,8.16-2.4,12.21-.22,1.05-.46,2.11-.72,3.17-.91,2.64-1.8,5.29-2.67,7.95-.29.64-.57,1.29-.91,1.9-.22.39-.21.76-.08,1.08-.99,3.03-1.98,6.07-2.96,9.11-.25.76-.24,1.63-.23,2.45,0,.37.31,1.04.46,1.04.68-.03,1.71-.02,1.98-.43,1.33-2.05,2.94-4.1,3.57-6.39,1.06-3.88,2.04-7.79,2.65-11.76,2.92-9.81,5.79-19.65,8.3-29.58.13-.23.25-.46.39-.68,1.75-2.75,4.11-4.03,7.42-3.05.28.08.68-.19,1.41-.43.22-1.86.2-3.98.76-5.92,2.9-9.98,5.22-20.12,8.91-29.87,4.71-12.45,9.18-24.99,13.79-37.47.28-.75.78-1.52,1.39-2.02.59-.48,1.55-.97,2.17-.8.61.16,1.34,1.11,1.41,1.78.17,1.63.32,3.38-.1,4.92-1.99,7.21-4.2,14.36-6.29,21.55-1.63,5.59-3.15,11.21-4.83,16.78-1.1,3.64-1.42,7.35-1.28,11.11.08,2.13.67,4.11,2.17,5.69.86.91,1.78,1.76,2.71,2.59,2.41,2.13,3.1,4.9,2.76,7.92-.32,2.88-.92,5.73-1.4,8.6-.39,2.32.37,3.5,3.09,4.61.76.31,1.63.35,2.42.61.34.12.69.44.86.76.34.64-.11,1.22-1.21,1.34-2.06.23-4.16.22-6.21.56-1.23.21-2.26,1.02-2.39,2.47-.11,1.27-3.25,15.75-2.03,16.44,2.51,1.42,117.52-54.89,126.09-61.55,1.69-5.76,3.58-11.28,4.9-16.94,1.88-8.09,3.55-16.24,4.92-24.44,3.77-22.56,9.39-44.72,13.99-67.1,1.2-5.84,2.38-11.69,3.57-17.53.03-7.94-2.01-15.57-10.72-15.66-.12.13-2.98.18-4.09.41-3.05.63-13.84,4.61-28.15,30.13-3,5.35-4.48,16.55-1.06,22.64,7.09,12.61,23.94,5.28,33.13,1.12.34-.16,1.29.02,1.05.58-3.98,9.26-19.19,9.53-27.54,7.33-10.45-2.76-12.67-11.18-10.99-21.14,1.6-9.52,8.72-20.29,13.2-26.06,4.55-5.87,14.48-16.92,24.1-17.35,5.83-.26,10.8,2.6,13.39,6.74.07-.35.14-.69.21-1.04-.99-4.33-1.94-8.48-5.7-11.42-3.23-2.52-7.15-3.12-10.73-2.09-1.42.72-2.84,1.43-4.25,2.16-.62.48-1.21,1.01-1.76,1.61-.08.09-.33,0-.23-.09.44-.42.88-.8,1.34-1.18-5.5,2.8-11.01,5.62-16.53,8.43-.61,1.39-.74,2.89.08,4.39.03.06-.1.08-.13.04-.87-1.28-1-2.7-.69-4.06-1.46.74-2.91,1.48-4.37,2.23-.33,1.01-.41,2.1.05,3.35.08.21-.34.26-.41.08-.44-1.02-.54-2.05-.39-3.04-18.77,9.54-37.65,18.92-56.82,27.35-.1.04-.32-.08-.17-.16,25.79-15.1,103.04-54.72,104.86-55.71.43-.24.83-.54,1.22-.86.33.04.67,0,.95-.18ZM317.51,104.77c.07-.31-.21-.79-.46-1.06-.22-.24-.71-.5-.94-.4-1.92.78-3.82,1.61-5.7,2.48-2.39,1.11-4.79,2.22-7.18,3.33-.03.12-.13.23-.31.33-1.12.56-2.24,1.14-3.36,1.7,2.09-.34,4.3-.14,6.64.81,3.8,1.54,6.77,5.05,7.86,8.98,1.12-5.4,2.26-10.79,3.45-16.18ZM336.17,105.32c-.08,1.08-.05,1.93-.21,2.74-2.27,11.42-29.53,168.63-29.87,175.29-.21,4.06-1.12,6.05-5.45,8.67-9.25,5.58-174.77,81.69-180.07,84.09-8.37,3.77-7.05,3.88-16.07-1.05-1.81-.99-3.52-2.23-5.11-3.55-5.2-4.34-5.58-6.33-3.46-12.91,4.09-12.65,8-25.37,12.06-38.03,5.08-15.83,10.8-31.46,15.22-47.5.33-1.2.77-2.37,1.22-3.54,8.18-21.41,13.49-43.63,18.76-65.86,1.63-6.87,3.47-13.69,5.07-20.57.89-3.84,2.83-6.92,6.01-9.17,3.39-2.4,162.89-91.06,167.01-90.24,1.5.3,11.31,13.14,14.05,18.27.57,1.06.61,2.4.84,3.37ZM330.07,112.29c.2-1.15-10.46-23.68-10.46-23.68,0,0-103.46,53.54-119.42,62.54-10.51,5.93-20.91,12.08-31.28,18.25-3.93,2.34-7.74,4.89-11.43,7.59-1.27.93-2.53,2.47-2.88,3.94-1.18,4.96-47.61,167.07-49.5,174.04-.03.09-.01.17-.02.26-.1.37-.21.74-.31,1.11-1.19,4.69,3.44,11.64,8.44,13.21,3.69,1.16,176.03-83.69,180.18-85.61,3.8-1.75,5.57-4.81,6.5-8.61.1-.4,27.52-147.89,30.17-163.04ZM140.63,260.54s18.72-69.69,19.5-72.03c1.07-3.24,41.41-26.53,44.19-29.69.13-.15.05-.7-.13-.87-.25-.25-.74-.53-1-.44-3.83,1.34-45.78,25.59-46.94,29.33-.56,1.8-1.15,3.59-1.78,5.36-.7,3.04-1.34,6.1-1.98,9.16-4.17,20-10.21,39.56-15.91,59.2.15-.02.45-.05.45-.05l3.59.03ZM215.33,199.57c-.03-.9-1.07-1.76-1.76-2.63,0,7.29,0,14.58,0,21.88.68-.88,1.7-1.76,1.73-2.66.2-5.52.21-11.06.04-16.58ZM213.39,219.02c0,.1-.02.21-.03.31.07-.06.12-.12.19-.18,0-.11,0-.23,0-.34-.05.07-.12.14-.17.21ZM249.54,175.4c-2.46,4.74-3.79,16.11,3.97,16.49.56.03,1.21-.61.61-1.05-4.69-3.45-5.77-9.98-4.02-15.33.1-.29-.44-.33-.55-.11ZM260.59,136.73c-5.15,3.95-9.07,11.02-8.04,17.62.06.4.9.41.86,0-.77-7.18,4.14-11.82,7.85-17.25.27-.39-.42-.57-.67-.37ZM162.42,200.62c-1.05,1.11-2.01,2.68-2.48,4.34-1.99,6.9.12,8,4.83,2.59,3.24-3.72,6.35-9.63,2.15-11.53-.79-.35-1.89.63-.86,1.06,4.05,1.71-1.94,11.36-4.57,10.33-1.56-.61-.15-4.45,1.68-6.49.32-.36-.48-.58-.74-.31ZM216.86,223.83c-1.32-2.19-3.84-1.24-5.11.42-.49.63.71.92,1.12.62,1.49-1.08,2.38-1.22,2.82.74.37,1.65.04,3.51-.58,5.05-.9,2.22-2.76,4.1-5.15,4.67-4.32,1.02-4.04-3.47-2.73-6.05.06-.12-.2-.18-.26-.08-1.33,2.27-2.28,6.11,1.27,6.79,3.12.6,6.34-1.78,7.83-4.34,1.21-2.1,2.17-5.56.8-7.82ZM256.42,217.75c.15.16.58.12.52-.16-.42-1.91,8.84-4.65,10.35-5.2,4.51-1.66,8.66-2,13.16.33,2.01,1.05,5.38,4.01,7.91,2.47,1.77-1.08,1.48-3.52.54-4.89-.98-1.44-3.72-2.59-5.27-3.23-6.64-2.75-13.2-1.6-19.25,1.78-1.59.89-10.44,6.09-7.95,8.9ZM289.02,193.08c.43-.23-.04-.55-.36-.44-5.5,1.77-11.25,3.17-14.93-2.49-.09-.14-.49-.06-.39.12,3.36,6.18,10.14,5.78,15.68,2.82ZM267.54,192.82c-4.13,12.07,20.69,8.87,25.78,4.44.31-.27-.17-.54-.43-.4-5.21,2.62-27.04,6.59-24.93-3.96.04-.22-.35-.27-.41-.08ZM240.97,267.98c7.92.62,16.1-7.19,15.64-14.9-.27-4.56-3.88-9.98-7.63-4.44-.22.32.35.48.56.31,3.53-2.9,5.34,1.09,5.39,4.13.04,3-.92,5.15-2.79,7.47-2.91,3.61-10.28,8.67-14.55,4.1-1.45-1.55-1.99-3.97-1.51-5.92,3.26-13.24,12.22-20.83,15.33-24.02.4-.41-1.18-2.38-1.64-2.06-4.04,2.78-30.85,33.6-8.79,35.33ZM214.8,238.6c-4.05,2.74-11.29,7.1-13.83.13-.72-1.99-.84-5.24-.19-8.21-.72,2.16-1.71,6.35-1.92,6.95-9.42,26.17-22.76,6.06-14.42-10.31.44-.86-.7-1.76-1.32-1.03-15.73,18.66,9.55,41.94,17.33,15.03.22.58,3.95,10.55,14.76-2.28.23-.28-.19-.43-.4-.29ZM203.83,178.2c-.64-.44-3.95-1.73-5.33-1.53-6.47.95-7.29,2.48-6.36,2.47,2.77-.04,5.93-1.94,12.24,3.86,5.93,5.45-.84,18.14-.62,17.93,6.52-6.34,5.08-14.63,5.04-14.75-.4-2.52-1.52-4.86-3.44-6.72-.55-1.62-.59-3.25-.42-4.91.1,0,.21-.03.23-.11,1.55-6.72,11.2-21.89,19.69-18.11,4.7,2.09,3.69,8.28,1.41,13.77-3.91,5.46-4.34,12.78-.2,17.52-1.41-10.01,14.44-35.86,23.29-23.47,1.77,2.48,3.62,2.06,2.95-.92-1.04-4.66-11.9-4.44-14.21-2.59-1.92,1.53-8.7,8.79-8.09.62-.58-2.17-1.92-5.66-4.58-6.51-9.18-2.93-17.82,9.41-20.2,17.66.11-.74.23-1.48.33-2.22,0-.06-.13-.07-.14-.01-.78,3.06-1.77,5.43-1.61,8.03Z" style="fill: #000; stroke-width: 0px;"/>
</svg>