<?xml version="1.0" encoding="UTF-8"?>
<svg id="Máquina" xmlns="http://www.w3.org/2000/svg" viewBox="0 0 425.2 425.2">
  <path id="Máquina-2" data-name="Máquina" d="M276.65,240.13c5.71-11.26,10.98-22.76,17.03-33.84,7.24-13.27,11.9-27.75,19.63-40.77,1.45-2.44.54-5.68-2.11-7.43-2.74-1.81-31.31-22.17-38.5-28.29-4.34-3.7-55.9-43.86-62.42-47.73-.8-.47-1.56-1.05-2.21-1.71-.27-.27-.41-.98-.24-1.3.62-1.23,1.22-2.54,2.13-3.54,3.9-4.26,5.55-4.41,9.48-1.36,4.47,3.46,99.94,74.39,102.01,75.34.98.45,1.83.1,2.19-.93.1-.28-.31-.82-.6-1.15-1.54-1.77-75-57.02-77.21-59.45-.5-.55.83-3.08,1.2-3.68,2.19-3.51,4.6-6.88,6.91-10.31,1.92-2.84,5-4.68,8.41-5.01,2.34-.23,4.71-.48,6.95-1.13,1.77-.51,3.45-1.51,4.99-2.57.61-.42,1.05-1.61.99-2.41-.24-3.25-2.34-4.98-5.56-4.8-.46.03-.92.24-1.38.28-3.02.23-3.3.27-3.74-2.32-.43-2.52-1.45-4.54-3.52-5.82-2.39-1.47-4.95-2.68-7.5-3.85-1.99-.91-4.93-.07-6.35,1.78-2,2.62-3.54,5.66-5.87,7.92-2.66,2.58-6.05,4.39-8.95,6.74-1.44,1.16-2.47,2.82-3.76,4.19-1.11,1.17-2.23,2.42-3.65,3.12-.52.26-1.15.29-1.7.09-1.88-.67-3.48-2.08-5.34-2.74-1.22-.43-5.61-2.62-6.69-2.09-2.94,1.43-8.42,9.73-9.4,11.31-.99,1.6-1.5,3.44-.3,5.3.6.92,1.18,1.85,1.77,2.78.07.05.14.1.2.15.82.63,1.82,1.69,2.87,2.94,5.19,6.14,6.09,14.85,2.23,21.9-9.11,16.62-26.47,48.25-35.01,63.57-2.64,4.73-5.66,7.92-16.18-.15-1.77-1.36-2.14,1.72-5.92-.14-4.19-2.06-1.64-9.42-11.94-13.13-4.53-1.63-11.56-.75-15.7,1.91-4.45,2.85-6.83,7.94-7.03,11.22-.53,8.74,3.42,17.26,10.94,18.89,10.01,2.27,12.69-.59,19.51,8.63,5.75,8.91-8.54,13.4-12.73,19.19-2.83,4.45-5.31,9.14-7.75,13.8-5.08,9.71-10.92,18.99-15.42,29-2.35,5.23-4.44,10.68-5.48,16.34-.25,1.35-.42,2.75-.48,4.16,4.05,5.98,3.45,11.64.35,18.23-3.99,8.49-6.57,17.67-9.59,26.6-1.2,3.57-2.03,7.27-2.86,10.95-.3,1.35-.35,2.87-.04,4.2.31,1.3,1.09,2.58,1.94,3.65,1.18,1.52,3.88,1.57,5.07.36,6.34-6.47,9.8-14.91,15.14-22.06,3.48-4.66,6.48-9.66,9.36-14.71,3.04-5.32,6.44-10.14,11.3-13.87,1.8-1.39,3.23-3.43,4.42-5.42,8.19-13.72,16.18-27.57,24.23-41.37,2.03-3.48,4.07-6.97,5.84-10.59,1.79-3.66,2.82-7.48.6-11.67-.37-.7-.22-1.86.05-2.69.74-2.22,4.92-7.53,4.92-7.53,0,0,61.33,39.42,76.02,46.07,2.55,1.15,5.28,1.92,7.96,2.77.27.09.87-.4,1.08-.76.15-.25.05-.87-.18-1.1-.99-.99-1.93-2.13-3.12-2.8-20.53-11.5-89.08-60.83-104.19-71.74-1.73-1.25-2.33-3.54-1.45-5.48l2.72-6s88.74,62.38,95.08,68.14c2.42,2.2,5.21,4.11,8.08,5.69,8.49,4.68,8.56,4.57,12.92-2.21,1.65-2.56,4.16-6.85,5.53-9.56ZM251.62,52.3c1.23-.33,2.86-.21,3.96.37,1.09.58,2.42,1.98,2.41,3.02,0,1.02-1.51,2.08-2.45,3.03-.28.29-.85.36-1.31.41-.92.11-1.85.15-3.33.26-.71-.38-2.35-.72-2.84-1.65-.66-1.26,1.77-4.97,3.53-5.44ZM234.96,76.35c2.29-1.49,4.59-3.04,7.08-4.13,1.62-.71,3.59-.9,5.17.64-.24,3.25-2.01,5.94-3.54,8.73-.78,1.41-2.12,1.86-3.37,1.02-1.9-1.28-3.79-2.57-5.6-3.98-.76-.59-.68-1.67.26-2.28ZM126.75,185.11c-1.51-.83-2.66-2.07-3.51-3.52-2.08-5.32-1.23-11.72,4.19-14.94,4.71-2.8,8.73-1.48,12.23,1.32,9.66,7.7.27,23.34-10.93,18.15-.65-.3-1.31-.64-1.99-1.01ZM113.51,316.98s-.02.05-.03.07c-.02.08-.06.14-.09.21-.2.51-.37,1.03-.46,1.57,0,.06-.01.12-.01.18-.01.91-.94,1.74-1.87,1.42-.56-.19-1.08-.51-1.54-.91-.08-.02-.17,0-.25-.03-.92-.32-2.06-1-2.09-2.08-.01-.5.02-1,.14-1.48.18-.72.53-1.39.85-2.05.43-.86,1.62-.91,2.28-.32-.06-.05-.12-.09-.18-.14.92.71,2.16.94,3.01,1.76.49.48.52,1.21.23,1.79ZM124.42,300.59c.03.28,0,.57-.15.85-1.11,2.19-2.51,4.31-4.15,6.19-1.01,1.67-2.2,3.23-3.66,4.47-.56.48-1.55.65-2.09,0-1.7-2.06-3.3-4.27-3.61-7-.12-1.04.03-2.07.28-3.08.08-1.28.47-2.52,1.27-3.52.08-.18.16-.37.24-.54.23-.51.7-.7,1.18-.69,1.26-.8,2.66-1.04,4.16-.59.86.26,1.69.61,2.55.85.83.24,1.44.36,2.16.15,1.08-.33,1.77.52,1.8,1.39.15.06.28.12.44.18-.12.46-.26.9-.42,1.34ZM158.99,209.26c.61-1.66,1.49-3.24,2.33-4.81.52-.97,1.39-1.3,2.24-.78.72.44,1.34,1.08,1.9,1.73.26.31,1.62,1.55,1.62,1.55l-2.91,4.83s-1.22,3.47-2.85,1.85c-1.65-1.63-2.92-2.78-2.33-4.37ZM153.68,214.99c.84-.23,1.67.41,2.35.82.96.58,1.91,1.18,2.86,1.78,1.81,1.13,3.6,2.37,5.51,3.33.74.37.88,1.35.53,2.02-.39.74-1.33.88-2.02.53-.42-.21-9.3-5.46-9.72-5.84-.87-.77-.74-2.3.5-2.64ZM164.11,232.18c1.56.84,2.29,3.32,1.39,4.92-3,5.33-6.1,10.59-9.05,15.94-6.36,11.53-12.68,23.09-18.97,34.66-1.52,2.79-3.87,4.03-6.9,4-2.81-.03-5.63-.2-8.42-.53-.84-.1-1.98-.72-2.31-1.42-1.39-2.95-2.72-5.97-3.68-9.08-.37-1.2-.03-2.89.56-4.08,6.81-13.95,13.29-28.07,21.2-41.45,2.38-4.03,4.79-8.04,7.67-12.86,6.95,3.71,12.74,6.8,18.52,9.9ZM272.6,140.28c1.64-.96,5.4,1,5.32,2.86-.16,3.32-1.54,6.05-4.33,7.96-.3.2-.79.12-1.46.19-.8-.87-1.99-1.71-2.54-2.86-1.33-2.77.16-6.49,3.01-8.15ZM180.1,185.71c-.5.51-1.77.64-2.54.42-1.26-.34-2.39-2.39-2.13-3.28.26-.9.38-1.86.77-2.69,9.64-20.5,19.96-40.63,33.24-59.21,3.63-5.07,6.48-10.63,9.51-16.08.79-1.42,1.87-2.66,2.85-3.96.72-.95,2.75-1.17,3.82-.24.66.57,1.06,1.45,1.77,2.46-.35,1.1-.55,2.51-1.19,3.67-3.21,5.74-6.38,11.5-9.84,17.08-11.63,18.77-22.8,37.79-32.94,57.41-.84,1.62-2.04,3.11-3.32,4.42ZM228.65,152.93l-13.23-11.06,2.99-5.23s13.43,11.42,13.52,11.43c.15-.02-3.29,4.86-3.29,4.86ZM240.65,160.78c-.45.58-1.38.79-2.1,1.17-1.25-2.26-1.18-4.56-.4-6.85.61-1.77,1.7-3.41,2.03-5.21.23-1.24-.04-3.02-.83-3.91-2.77-3.16-5.78-6.12-8.86-8.99-1.36-1.27-3.12-2.09-4.63-3.2-5.33-3.92-5.67-5.14-2.59-10.4,2.02-3.44,5.45-9.07,7.59-12.56,1.02-1.67,3.23-2.12,4.82-.98,7.6,5.45,27.51,19.79,29.87,22.12,1.41,1.39,1.75,3.3.67,5.09-2.66,4.41-5.35,8.82-8.22,13.1-.72,1.07-2.17,2.26-3.33,2.31-6.24.26-10.46,3.62-14.03,8.29ZM266.91,246.76c-1.21,2.09-3.8,2.44-6.08.79-1.14-.82-2.26-1.69-3.24-2.69-.64-.65-1-1.57-1.57-2.51.48-1.19.93-2.5,1.51-3.75,7.75-16.6,15.51-33.19,23.28-49.77.61-1.31,1.41-3.13,2.22-5.03,2.14-5.02.77-10.88-3.44-14.34-1.82-1.5-3.54-3.09-4.56-4.46.94-5.09,4.47-11.02,7.21-14.86.68-.95,2.85-1.49,3.78-.84,5.74,4.07,11.52,8.09,17.19,12.26,1.62,1.19,1.88,3.17,1.66,5.11-.1.93-.19,1.9-.54,2.75-2.73,6.49-5.25,13.08-8.34,19.41-8.65,17.73-17.53,35.35-26.35,53.01-.84,1.68-1.78,3.3-2.73,4.92ZM327.12,157.51c.35.26-50.13,105.62-53.35,107.77-.65.43-1.77.55-2.53.34-1.17-.33-1.32-1.3.16-3.48,5.94-12.87,48.28-96.5,51.39-102.31.59-1.11,2.08-1.77,3.22-2.54.23-.15.83,0,1.11.22Z" style="fill: #000; stroke-width: 0px;"/>
</svg>