<?xml version="1.0" encoding="UTF-8"?>
<svg id="Billete" xmlns="http://www.w3.org/2000/svg" viewBox="0 0 425.2 425.2">
  <path id="Billete-2" data-name="Billete" d="M302.76,239.8c-33.04-12.13-87.72-49.39-104.64-167.73-.11-.77-.24-1.53-.37-2.3-.3-1.76-2.66-3.26-4.45-2.87-3.98.87-7.25,2.9-9.48,6.27-1.5,2.26-37.02,107.64-37.02,108.97,0,4.82,10.06,38.7,15.27,51.31,3.42,8.27,7,16.52,11.21,24.41,6.79,12.73,14.74,24.72,24.12,35.8,10.41,12.31,22.13,23.05,35.7,31.7,3.59,2.29,18.2,13.06,21.98,12.22,2.55-.57,6.55-6.98,8.01-11.07,3.41-9.55,40.94-70.16,42.03-73.07.97-2.61,1.12-5.31,1.07-8.06-.05-2.54-.89-4.65-3.4-5.58ZM302.27,248.25c-.67.95-46.94,85.98-46.94,85.98,0,0-5.35-3.34-7.12-4.47-3.67-2.33-9.41-6.77-14.1-10.18-12.58-9.16-23.54-20.09-33.72-31.75-10.22-11.71-20.48-25.18-27.66-38.94-12.05-23.09-18.56-59.01-20.84-67.18,1.28-5.94,34.07-96.14,38.27-105.75.09-.2.64-.32.95-.28.32.04.82.25.89.48.32,1.11.71,2.24.74,3.38.16,8.27,2.12,16.18,4.6,24,2.82,8.9,5.66,17.8,8.48,26.7,4.01,12.67,9.78,24.62,15.45,36.56,5.85,12.32,12.73,24.12,20.15,35.57,4.25,6.55,9.47,12.27,15.48,17.39,12.31,10.5,26.17,18.2,41.17,23.99,1.09.42,2.12.98,3.18,1.48.89.42,1.53,2.28,1.02,3.01ZM187.46,247.54s0,.03,0,.05c0-.02,0-.03,0-.05.29.36.58.71.86,1.09,1,1.41,12.36,23.25,25.68,32.51-.25.51-.46,1.03-.6,1.58-9.87-2.76-24.31-27.16-27.24-33.96,0,0,.01,0,.02,0,.13-.05,1.24-.96,1.28-1.23,0,0,0,0,0,0ZM281.24,263.16c-.8,3.43-1.83,6.76-3.44,9.91-1.42,2.78-2.75,5.6-4.19,8.36-5.75,11.06-11.41,22.16-16.05,33.76-.85,2.11-2.33,4-3.69,5.86-.33.45-1.43.65-2.05.49-.9-.23-1.14-1.07-.78-1.84,1.32-2.82,7.25-16.48,7.91-17.78,3.87-7.64,7.52-15.4,11.6-22.93,2.43-4.47,4.54-9.03,6.24-13.81.33-.93-.44-2.64-1.4-2.86-9.17-2.07-16.03-7.65-22.08-14.47-1.11-1.25-1.38-2.78-1.06-4.36.39-1.9,1.01-3.76,1.38-5.66.32-1.6-.14-3.13-1.19-4.35-2.04-2.36-4.14-4.67-6.26-6.96-6.13-6.62-11-14.14-15.6-21.84-.98-1.64-2.07-3.34-1.88-5.42.03-.36.18-.74.38-1.04.47-.71,1.36-.82,1.82.08,17.29,33.44,36.61,42.37,37.97,43.75.42.42.74,1.58.49,1.87-.4.47-1.47.85-1.99.64-1.78-.74-3.47-1.72-5.16-2.67-1.34-.75-2.64-1.57-4.08-2.42-2.08,3.29-1.83,6.16.58,8.67,5.52,5.75,11.89,9.98,20.11,10.88,2.43.26,3.01,1.62,2.42,4.15ZM199.28,168.45c5.55,3,10.21,6.93,13.86,12.19,6.96,10.06,12.05,20.81,13.63,33.06,2.32,7.19,2.05,14.59,1.66,21.97-.29,5.48-1.63,10.77-4.11,15.66-1.03,2.03-2.47,4-4.16,5.5-1.37,1.22-3.33,2.11-5.16,2.43-6.93,1.21-13.09-.71-18.37-5.33-1.46-1.28-9.88-11.56-11.18-13.9-4.91-8.84-8.51-21.9-8.5-31.14,0-1.11.41-2.23.7-3.33.04-.15.57-.34.71-.25.3.2.66.53.72.86,1.13,6.9,2.94,13.64,4.95,20.33,1.81,6.02,4.77,11.42,8.21,16.66,3.29,5.02,7.61,8.75,12.82,11.61,2.15,1.18,4.37,1.45,6.73,1.44,3.94,0,6.94-1.94,8.4-5.29,2.18-4.96,15.92-34.11-14.73-73.39-2.59-3.32-6.69-5.25-10.05-7.87-.24-.19-.41-.91-.39-.92.66-.33,1.34-.8,2.05-.84.73-.04,1.56.19,2.21.54ZM252.69,305.5c-1.69-.39-3.26-1.16-4.64-2.39-3.48-3.11-6.79-6.41-10.13-9.67-1.67-1.63-3.24-3.35-4.88-5.01-.74-.75-2.58-.72-3.15.07-1.59,2.19-3.09,4.45-4.74,6.6-.54.7-1.4.6-1.97.01-.22-.23-.44-.67-.36-.92,1.13-3.77,3-7.16,5.36-10.29,1.37-1.82,4.57-2.34,6.25-.83,1.73,1.55,3.36,3.22,4.95,4.91,2.13,2.26,4.13,4.63,6.28,6.87,1.39,1.44,4,1.17,5.06-.58,2.62-4.32,5.11-8.72,7.64-13.09,2.72-4.71,5.41-9.45,8.18-14.14.36-.61,1.14-1.01,1.78-1.4.22-.14.73-.07.94.1.25.21.51.7.43.95-2.67,7.77-6.72,14.86-10.82,21.92-2.14,3.68-4.5,7.23-6.08,11.42.46.71.91,1.4,1.37,2.11-.58,1.08-1.05,2.22-1.48,3.38ZM163.04,188.77c1.74,3.02,4.46,11.4,6.08,14.55-.7,3.81-4.29,6.61-4.29,6.61,0,0-1.73-3.15-1.19-4.1,4.21-7.32-.65-11.73-2.64-14.72-4.24-6.37,1.44-15.62,1.44-15.62l14.97-39.14,1.4,3.83s-20.63,40.15-15.77,48.6ZM181.71,132.62l.07.09s-.07.03-.11.05c.01-.04.03-.09.04-.13ZM198.94,134.49c-5.57-11.97-10.02-24.35-12.52-37.35-.19-.98.54-2.13.85-3.23.56.23,1.04.28,1.25.55.7.89,8.27,31.09,17.17,46.55.77,1.33,1.17,2.87,1.49,4.36.09.44-.23.98-.52,1.5-.1.17-.19.35-.26.52-.16-.1-.36-.18-.53-.27-.18-.09-.33-.19-.41-.33-2.21-4.08-4.56-8.1-6.52-12.3ZM162.59,162.61c.2-1.81,15.06-48.45,15.06-48.45.2-.93,1-1.09,1.86-.72,1.88.81,7.45,20.14,9.77,24.83,1.63-.17,2.75-.32,3.88-.37.31-.01.86.27.9.49.11.66.28,1.52-.04,2-.61.93-1.45,1.78-2.36,2.44-1.41,1.02-3.22.8-4.16-.4-.94-1.2-6.89-17.12-8.48-21.37-.05-.13-.13-.25-.2-.37-.16.81-.35,1.62-.63,2.43-2.09,6.17-4.07,12.38-6.03,18.59-2.3,7.3-7.52,24.38-8.69,24-1.16-.38-1.01-1.98-.89-3.09ZM239.04,313.27c.14.21.12.68-.02.89-.2.29-.65.67-.89.62-1.11-.26-2.32-.44-3.24-1.04-3.9-2.5-7.98-4.82-11.51-7.79-7.7-6.48-14.8-13.62-21.35-21.28-.98-1.14-11.37-15.16-15.13-21.32-3.17-5.2-15.17-28.16-15.5-30.77-.03-.23.45-.66.77-.78.31-.11.87-.07,1.07.14.75.81,1.56,1.64,2.07,2.61,2.33,4.36,4.56,8.76,6.94,13.37.03-.02.35.71.49,1.09.73,1.96,14.57,25.65,17.86,29.37.16.37,5,5.3,7.1,7.56,9,9.66,18.67,18.52,29.87,25.61.62.39,1.05,1.11,1.48,1.73Z" style="fill: #000; stroke-width: 0px;"/>
</svg>