<?xml version="1.0" encoding="UTF-8"?>
<svg id="Trompeta" xmlns="http://www.w3.org/2000/svg" viewBox="0 0 425.2 425.2">
  <path id="Trompeta-2" data-name="Trompeta" d="M127.04,151.93c5.43,15.04,9.3,31.01,19.51,43.8,1.49,3.43,8.12,8.04,6.25,11.42-9.74-8.09-18.5-20.25-24.21-31.88-3.25-7.79-3.63-13.12-1.54-23.34ZM71.46,208.53c-1.12-1.24-2.73-4.8-4.62-2.85-2.3,3.02,1.72,7.86,4.59,8.22,28.48,9.08,54.8-53.62,45.24-75.52-1-2.01-4.75-6.74-6.83-3.66,4.2,5.19,3.72,11.31,3.52,17.37.96,19.78-22.49,26.47-22.2,46.67-1.17,7.59-13.09,15.17-19.7,9.77ZM243.18,329.74c-9.46,11.1-36.32,29.19-47.14,12.46-1.3-5.29,6.2,1.33,8.22,1.92,4.95,3.98,9.7-1.4,14.86-2.46,11.95-4.12,22.4-13.42,23.36-26.58,7.36-29.57-64.48-74.45-78.71-99.09.94-.92,14.61,11.7,30.26,26.91.64-.44,1.03-1.13,2.01-1.45,2.36-.76,4.85,1.35,6.42,2.76,2.47,2.22,2.84,3.63,2.71,4.87,2.89-.1,5.73,1.41,7.42,3.76.75,1.03.98,2.08,1.23,3.32.08.38.19.72.31,1.05.62-.3,1.49-.38,2.82.06,3.31,1.09,5.71,4.53,6.21,8.32.02.15,0,.26,0,.39.45.38.99.58,1.72.89,1.06.46,1.88.73,2.59,1.72,1.41,1.96,1.12,4.5.81,6.76-.07.53-.42.8-.83.87,8.07,8.28,13.83,14.42,14.58,15.68,8.82,11.34,31.77,5.97,32.78,24.66,2.47,17.75-20.6,27.14-31.62,13.15ZM201.58,245.95c-1.14-1.08-3.27-4.41-5.97-1.96-.08.07-.19.09-.28.18,2.5,2.43,5.03,4.92,7.57,7.42-.49-2.22,1.71-2.77-1.31-5.64ZM211.35,257.53c-.31-1.66-.41-2.8-1.64-4.1-1.33-1.4-2.92-2.92-4.11-1.58-1.22,1.38-1.27,2.39,4.2,6.6,1.17,1.17,1.68-.22,1.55-.91ZM219.37,263.06c-.76-.7-2.38-3.66-3.63-3.51-.86.1-1.65,2.62-1.98,2.86,1.79,1.8,3.55,3.56,5.26,5.29-.03-1.81,1.88-3.23.34-4.63ZM223.13,271.85c.94.95,1.84,1.88,2.74,2.79.26-1.32.62-2.97.06-4.25-.75-1.69-2.04-1.32-3.27-2.1-.01,0-.02-.02-.03-.03-.14.35-.28.71-.35,1.15.06-.35.55,1.66.61,1.83.07.21.16.4.24.6ZM271.7,317.25c-.43-11.82-15.79-13.68-24.79-15.76-1.6,3.09.48,8.47,1.56,11.99,2.71,4.07,5.64-3.87,7.91-5.43.48-.39,1.63.11,1.7.76.45,6.88-4.96,9.65-10.25,13.22,1.19,17.83,24.29,9.47,23.88-4.78ZM197.05,336.59c-4.99,4.29-8.07-.66-8.07-.66,0,0-49.69-44.53-60.34-60.68-5.83-11.37-4.6-26.15,2.42-36.76.85-1.38-.29-2.85-1.43-3.53-8.1-4.61-22.05-13.33-31.37-13.33-14.95,0-4.09,4.01-25.53,1.81-30.95-9.1-7.84-57.59,7.77-80.71,5.6-8.29,13.28-15.06,22.47-19.01,7.7-3.32,15.87-4.62,19.63,1.91,2.22,3.36,5.56,8.97,1.92,12.34-4.38-8.16-11.64-14.45-21.39-9.44-28.21,12.13-71.89,109.17-10.02,88.32,10.59-1.71,29.5,6.95,49.62,19.89,2.12-1.4,4.18-3.48,6-5.78,2.35-2.99,4.49-6.14,6.06-9.62,1.28-2.83,1.86-5.74,3.65-8.32.26-.38.84-.43,1.09,0,4.3,7.45-6.63,20.26-12.1,24.37-.61.46-1.22.86-1.83,1.22,11.47,7.57,23.23,16.42,33.96,25.46.01-.04.01-.07.03-.11.9-2.47,2.57-4.04,5.27-3.69,5.55.71,13.61,6.25,12.4,12.72-.08.45-.75.5-.96.13-1.3-2.39-1.46-4.92-3.52-6.99-1.79-1.81-4.3-3.01-6.73-3.7-.8-.23-1.5-.35-2.13-.29-1.17.79-2.13,2-2.74,3.29,0,0,0,.02,0,.03-.65,1.53-2.95,4.83,3.39,5.73,3.14.45,7.2,5.15,7.24,5.18.19-.18,1.02-1.24,1.22-1.42,1.26-1.16,3.61.44,2.48,1.91-.23.29-3.5,4.8-3.88,5.34.35.07.71.13,1.04.27,1.92.8,4.81,3.71,6.14,6.5.26-.36.52-.73.79-1.08.24-.07.46-.16.68-.25-1-2.08-2.01-4.39-4.15-4.71-.12-.02-.08-.17,0-.2,3.2-1.28,4.64,1.46,5.94,3.87.36-.25.67-.55.9-.92.47-.4.91-.84,1.27-1.35.89-1.24.89-2.55.43-3.76-.13-.75-.39-1.49-.67-2.16-.45-1.07-1.14-2.23-2.14-2.87-.46-.29-1.84-1.06-2.37-1.06-.1,0-.15-.12-.08-.19,1-1.05,1.45-1.54,3.02-1.02,1.37.45,2.51,1.49,3.4,2.59,1.98,2.49,2.88,6.09,1.23,8.99-.27.47-.81.79-1.36.78-.07,0-.14,0-.22,0-.12,0-.23-.03-.34-.06-.24.57-2.97,3-1.22,3.55,1.24,1.03,2.81,1.64,3.88,3,.87,1.1,1.71,2.6,1.98,4.09,7.97-2.2,4.01-9.42,2.15-10.32-.45-.22-1.59-1.38-1.81-1.84-.25-.5.16-1.04.71-.93,6.42,1.3,6.37,7.3,3.43,12.13-.41.68-.86,1.34-1.29,2.01,4.1,5.25,6.99,9.94,8.17,13.68,2.89,9.34-5,17.42-13.28,20.03-2.04.17-4.02-.45-5.88-1.49-.19,3.03-2.53,5.07-4.92,7.13ZM196.18,320.4c1.85,1.45,6.81,5.41,7.58,5.77,6.84,2.53,13.09-4.87,13.9-11.2.57-3.97-2.41-9.47-6.56-14.96-4.8,6.92-10.31,13.39-14.92,20.39ZM195.5,299.25c-3.22,4.11-6.57,8.03-9.51,12.29.98,1.06,5.07,4.99,6.26,5.88,1.73,1.28,4.19.72,5.16-1.2,2.24-4.48,4.71-8.75,7.54-13.07,1.2-1.83,2.41-3.5,3.48-5.15-1.25-1.75-1.38-4.02-3.22-5.46-.96-.75-2.03-1.18-2.94-1.94-2.11,3.06-4.65,5.96-6.77,8.66ZM190.3,284.05c-2.58,3.72-5.11,7.47-7.85,11.08-.85,1.12-1.85,2.58-2.97,4.05-1.57,2.06-1.26,4.99.68,6.72.63.56,1.24,1.12,1.85,1.68,1.58,1.48,4.12,1.08,5.14-.83,1.52-2.83,3.2-5.58,5.02-8.21,1.63-2.36,3.3-4.9,5.05-7.4-.33-.72-.59-1.5-.99-2.18-1.33-2.28-3.15-4.64-5.93-4.91ZM166.5,294.35c2.5,2.14,5.08,4.27,7.63,6.38.26-.23.5-.48.75-.72,2.02-3.45,5.01-6.49,7.19-9.79,1.96-2.96,3.66-6,5.6-8.88-1.63-2.21-3.9-3.93-6.4-5.08-.11-.05-.05-.21.06-.21,2.92-.05,4.87.85,6.94,2.95.2.2.39.46.57.73.36-.5.71-1,1.1-1.49-1.22-1.22-2.32-2.65-3.7-3.65-1.52-1.11-3.07-1.23-4.69-1.8-2.06,2.71-13.57,18.9-15.04,21.56ZM156.87,253.14c-14.2,16.06-5.12,28.15,7.59,39.43,1.49-2.69,3.18-5.24,4.99-7.71.06-.1.12-.2.18-.3.09-.15.2-.26.31-.34,2.4-3.22,4.97-6.34,7.48-9.49.73-1.02,1.51-2.01,2.27-3-.69-.66-1.11-1.53-1.28-2.57-6.51-5.03-14.47-11.05-21.54-16.01ZM194.1,335.18c2.25-1.62,5.96-4.03,6.44-6.6-1.53-1.06-41.49-36.06-41.83-36.19-3.17-3.49-6.15-7.11-8.8-10.91-8.38-12.58-4.16-16.68.31-26.88,1.29-2.94.25-6.4-2.43-8.16-.52-.34-.94-.61-1.15-.72,0,0-3.13-2.2-9.32-4.97-3.5-1.57-10.22,13.08-10.28,18.79-.23,20.62,65.2,76.98,67.06,75.64Z" style="fill: #000; stroke-width: 0px;"/>
</svg>