<?xml version="1.0" encoding="UTF-8"?>
<svg id="Reversa" xmlns="http://www.w3.org/2000/svg" viewBox="0 0 425.2 425.2">
  <path id="Reversa-2" data-name="Reversa" d="M327.11,139.83c-2.63-1.82-94.76-69.9-113.36-65.14-10.51,2.69-18.04,9.66-22.05,19.47-1.42,1.84-74.03,169.13-69.36,192.06,3.34,16.42,14.22,24.64,28.61,34.42,21.08,14.32,96.44,44.21,104.7,43.57,9.95-.76,12.1-6.83,16.59-15.25,1.91-3.58,58.78-172.78,59.75-175.88,6.17-19.67,5.12-26.35-4.89-33.26ZM309.3,214.31c-10.64,30.94-40.28,122.65-43.11,127.62-3.86,6.8-9.83,11.62-17.9,11.09-26.39-1.75-93.2-41.9-100.45-45.7-12.63-6.63-18.09-18.38-17.13-29.36,3.31-37.73,68.38-178.74,68.56-179.03,10.08-15.99,24.93-14.02,38.03-5.35,14.59,9.65,71.76,38.47,81.83,62.85,6,14.52-4,40.87-9.84,57.87ZM195.37,281.15c6.2.89,22.82,2.9,34.31,4.27,5.26.63,9.2-4.69,7.1-9.55l-4.24-9.81s-.13-2.21.73-2.93l28.51-23.48c.97-.8,1.21-2.2.56-3.28l-7.61-12.59c-.3-.49-.42-1.07-.34-1.64,0,0,2.06-19.42,3.41-35.14.89-10.41,7.01-21.63-18.08-18.6l-26.3,1.47c-4.84,0-5.39,6.61-4.33,8.31,0,0,9.52,6.75,2.63,13.17l-18.8,16.85c-.41.47-.63,1.07-.62,1.69,0,0-2.74,50.3.68,69.02.22,1.19,1.2,2.07,2.39,2.24ZM198.57,212.6l22.44-25.3c.77-.86.85-2.13.21-3.09l-2.57-3.85c-1.13-1.69.09-3.95,2.11-3.95h28.35c1.6,0,2.81,1.47,2.49,3.04l-5.41,26.87c-.8,4-2.35,10.44-6.33,3.62-1.3-2.22-2.53-6.16-5.87-2.45l-22.15,21.93c-1.11,1.1-2.94.95-3.85-.32l-9.6-13.33c-.69-.96-.63-2.28.16-3.17ZM207.14,241.18c.88,1.22,2.62,1.41,3.74.42l23.81-21.62c1.21-1.07,3.1-.75,3.89.66l8.15,14.44c.61,1.08.35,2.45-.63,3.23l-25.51,21.44c-.93.74-1.22,2.03-.7,3.1l5.33,10.9c.88,1.8-.57,3.86-2.56,3.64l-21.73-2.42c-1.32-.15-2.31-1.29-2.26-2.62,0,0-1.84-17.04-1.26-29.27.18-3.89-.59-9.43,1.5-10.17,3.54-1.25,8.22,8.27,8.22,8.27ZM279.69,155.55c9.73,14.66,12.6,30.97,12.28,48.85.02,12.46-6.99,39.88-9.73,49.21-.91,3.12-1.44,7.39-5.76,7.39-2.1,0-2.13-2.37-.36-8.4,20.78-71.03,1.29-88.25-1.37-95.02-.71-1.81-.68-3.64,1.13-4.12,1.03-.28,3.05.97,3.8,2.09ZM265.29,298.76c-11.36,11.55-23.17,18.23-39.57,20.62-41.55,6.05-60.59-20.69-66.15-37.36-2.31-6.92-5.16-13.67-5.59-21.2-.33-5.64-2.87-29.81.8-35.55.38-.59,1.27-1,2-1.15.45-.09,1.47.45,1.49.75.57,8.92,1.16,17.83,1.5,26.76.28,7.4,1.84,14.42,4.01,21.52,4.23,13.84,16.94,44.33,60.34,39.65,9.31-1,17.46-3.16,24.74-8.56,4.53-3.36,8.4-7.6,12.88-11.05,4.86-3.73,7.98,1.07,3.55,5.57ZM213.76,140.06c2.76-1.53,14.72-4.79,23.02-4.96,11.09-.23,24.84,4.37,27.49,6.07.4.26.68,1.32.47,1.75-.32.68-1.28,1.72-1.65,1.61-15.68-4.96-31.99-7.82-47.28-.86-5.33,2.42-4.81-2.07-2.05-3.6Z" style="fill: #000; stroke-width: 0px;"/>
</svg>