<?xml version="1.0" encoding="UTF-8"?>
<svg id="Gorra" xmlns="http://www.w3.org/2000/svg" viewBox="0 0 425.2 425.2">
  <path id="Gorra-2" data-name="Gorra" d="M88.07,232.09c23.96,12.38,19.8-56.7,69.16,7.09,16.23,19.89-11.06,60.5,14.41,70.19,20.13,4.92,38.96-9.58,58.42-7.26,27.98,8.44,57.68,9.45,84.06-4.83,16.73-7.84,19.21-28.44,25.61-44.01,9.48-26.74,3.2-56.48-14.3-79.05-9.28-9.59-10.5-25.33-21.55-32.75-13.69-9.55-28.14-4.39-42.33-6.19-92.89-6.44-69.04,32.99-108.03,43.39-24.78,5.15-62.83,4.85-70.37,34.91-3.31,6.97-1.83,14.27,4.93,18.51ZM276.41,148.87c4.53-4.69,27.54,1.38,21.17,8.58-6.75,1.22-20.01-.89-21.17-8.58ZM93.86,211.47c20.88-27.97,65.76-14.24,90.3-33.79,12.9-26.82,52.63-43.64,79.53-31.81,11.3,17.07,24.35,16.77,41.55,18.97,31.87,24.01,29.06,64.77,19.15,99.13,1.74,15.28-6.74,25.1-21.31,30.22-25.37,9.02-55.01,12.85-75.72-7.02-2.21-1.07-4.92-1.44-6.87-.14-12.82,7.69-27.85,8.67-41.96,12.45-19.7,5.31.86-52.35-17.34-69.75-47.76-68.69-75.17,14.43-67.32-18.27ZM193.63,182.62c44.93-5.83,66.22,68.97,38.26,96.86,3.4-27.65,13.44-57.7-10.99-81.03-6.3-9.09-21.28-8.1-27.27-15.82ZM301.27,246.92c2.59-16.29,7.24-32.79,9.17-49.79,3.17,16.21,3.56,39.76-9.17,49.79ZM233.31,184.83c-5.07-7.74,38.15-41.9,26.13-23.95-10.24,4.04-19.22,23.24-26.13,23.95Z" style="fill: #000; stroke-width: 0px;"/>
</svg>