<?xml version="1.0" encoding="UTF-8"?>
<svg id="Dado" xmlns="http://www.w3.org/2000/svg" viewBox="0 0 425.2 425.2">
  <path id="Dado-2" data-name="Dado" d="M296.82,182.64c-1.38-6.85-6.48-12.33-13.2-14.22-23.41-6.6-76.68-21.58-78.16-21.69-6.24-.45-11.12,2.19-14.73,7.01-14.23,18.97-47.11,61.71-49.97,66.63-3.57,6.16-3.68,12.09-1.1,18.97,7.02,18.75,11.72,35.64,20.73,53.36,2.44,4.81,7.06,9.15,11.71,12.05,7.19,4.49,54.12,10.22,68.95,14.07,4.74,1.23,9.47-.85,12.81-4.62,13.24-14.96,27.77-39.37,48.63-62.15,6.05-6.61-1.54-48.88-5.67-69.42ZM235.28,302.67c-4.69-.22-9.34-1.19-14-1.88-.03.15-.05.3-.08.45-14.89-2.46-29.79-4.83-44.64-7.51-1.55-.28-3.08-2.13-4.08-3.62-1.02-1.52-1.45-3.47-2.01-5.27-4.15-13.51-8.27-27.03-12.39-40.55-.8-2.63,2.19-4.82,5.58-4.16,20.35,3.96,40.7,7.93,61.06,11.86,3.13.6,5.46,2.79,6,5.38,2.92,13.78,5.47,27.64,7.82,41.53.19,1.11-2.18,3.82-3.27,3.77ZM291.67,248.04c-2.47,8.27-30.68,37.95-36.52,46-1.58,2.18-4.42,1.72-5.43-.71-2.84-6.83-8.26-37.36-9.37-45.66-.66-4.94-4.66-8.73-9.26-9.48-14.03-2.27-28.08-4.38-42.09-6.74-5.59-.94-11.14-2.24-16.63-3.68-3.57-.94-7.01-2.41-10.06-3.49-.83-5.04,1.38-8.15,3.45-11.32,9.86-15.09,20.04-29.97,29.4-45.36,4.13-6.8,9.49-8.66,16.61-7.76,2.81.35,5.69.72,8.34,1.66,15.18,5.4,57.42,14.88,59.95,17.19-6.38,10.89-20.7,26.66-26.6,37.39-2.22,4.03-3.39,8.66-4.83,13.08-.14.43.9,1.44,1.68,1.93.08-.26.14-.53.33-.78.15-.2.33-.39.48-.59,0,0,0,0-.01-.01.06-.07.13-.13.19-.2,2.17-2.88,36.6-45.14,37.19-42.39,3.12,14.49,7.55,46.36,3.21,60.93ZM179.29,285.31c-.6-2.37,1.38-4.99,4.08-5.53,2.4-.48,4.85,1.32,5.61,4.14.66,2.46-1.01,4.64-4.19,5.46-2.46.73-4.74-1.08-5.5-4.07ZM224.02,201.43c-.76,2.06-2.77,3.4-4.86,4.19-.6.5-1.25.94-1.95,1.19-3.76,1.38-10.07-.41-10.16-4.96-.57-1.86-.05-3.88,1.56-5.23.72-.61,2.05-1.22,3.38-1.44,1.99-.86,4.26-1.13,6.36-.75,1.85-.04,3.6.54,4.74,2.2.33.48.53.93.67,1.38.53,1.04.71,2.21.27,3.41ZM174.31,258.55c-.6-2.37,1.38-4.99,4.08-5.53,2.4-.48,4.85,1.32,5.61,4.14.66,2.46-1.01,4.64-4.19,5.46-2.46.73-4.74-1.08-5.5-4.07ZM210.69,263.47c-.6-2.37,1.38-4.99,4.08-5.53,2.4-.48,4.85,1.32,5.61,4.14.66,2.46-1.01,4.64-4.19,5.46-2.46.73-4.74-1.08-5.5-4.07ZM216.46,290.23c-.6-2.37,1.38-4.99,4.08-5.53,2.4-.48,4.85,1.32,5.61,4.14.66,2.46-1.01,4.64-4.19,5.46-2.46.73-4.74-1.08-5.5-4.07ZM254.73,261.68c-.6-2.37,1.38-4.99,4.08-5.53,2.4-.48,4.85,1.32,5.61,4.14.66,2.46-1.01,4.64-4.19,5.46-2.46.73-4.74-1.08-5.5-4.07ZM269.56,228.23c-.6-2.37,1.38-4.99,4.08-5.53,2.4-.48,4.85,1.32,5.61,4.14.66,2.46-1.01,4.64-4.19,5.46-2.46.73-4.74-1.08-5.5-4.07Z" style="fill: #000; stroke-width: 0px;"/>
</svg>