<?xml version="1.0" encoding="UTF-8"?>
<svg id="Tambor" xmlns="http://www.w3.org/2000/svg" viewBox="0 0 425.2 425.2">
  <path id="Tambor-2" data-name="Tambor" d="M178.98,174.58c-3.24-4.28,4.84-19.5,7.58-12.94-1.38,3.9-7.46,9.62-2.34,12.88,9.81,2.17,6.79-7.68,12.64-18.69,15.09-28.43,34.64-81.58,29.47-84.4-7.28-3.98-25.26,50.45-32.15,77.1-1.19-24.68,24.51-82.79,32.79-81.04,12.44,2.63-1.45,35.49-28.55,90.78-3.27,6.68-5.96,34.12-19.44,16.32ZM301.55,304.63c-42.57,30.93-128.86,66.24-155.83,27.94-9.44-8.9-2.43-17.8-2.43-17.8-3.44-11.94-14.56-36.13-14.56-36.13-2.43,1.92-15.1,1.92-9.23-14.52,4.41-12.36,25.41-36.17,25.41-36.17-2.97-2.16-10.08-5.22-9.33-5.7,2.81-1.81,8.82,6.21,12.4.93,10.25-14.33-7.89-10.06-14.67-7.37-18.5-1.16-43-5.8-61.73-10.96-5.55-1.53-9.13,5.94-4.34,9.12,12.6,8.39,50.96,6.46,59.11,10.22-8.69,1.48-45.39,7.24-62.91-10.19-11.64-11.58,5.99-13.56,19.03-8.98,15.14,3.28,50.83,9.17,50.83,9.17,24.93-10.38,19.15,8.09,19.15,8.09,32.34-29.94,175.91-56.44,157.28-3.92-.99,17.86,4.52,34.89,4.52,34.89,0,0,30.34,15.59-12.72,51.38ZM305.1,216.62c-1.01-.58-2.15-1.12-3.39-1.63,2.09,11.5,4.19,23.01,6.28,34.51.12.63-.21.87-.65.91,1.91.51,2.95.85,2.95.85l-5.2-34.64ZM174.92,279.99c-1.06.28-2.32-.92-2.7-1.81-5.04-11.69-9.57-23.6-13.55-35.7-1.08.85-2.13,1.72-3.16,2.6,4.23,13.23,9.3,26.19,15.17,38.78,11.17-9.99,22.66-17.5,34.03-23.09-4.01-12.27-8.25-24.46-12.7-36.58-11.15,4.32-21.6,9.69-30.55,16.19,4.04,12.57,8.66,24.96,13.89,37.09.33.76.75,2.21-.43,2.52ZM208.9,258.8c1.75-.79,3.5-1.55,5.25-2.25-.11-.15-.2-.32-.26-.5-3.64-11.91-7.72-23.68-12.19-35.3-1.83.59-3.64,1.21-5.44,1.86,4.43,11.99,8.64,24.06,12.64,36.19ZM218.39,254.91c19.5-7.18,38.08-9.21,53.37-9.05-2.67-11.89-5.35-23.77-8.02-35.66-17.67.41-38.18,3.35-57.66,9.18,4.52,11.69,8.64,23.54,12.32,35.53ZM274.84,245.92c1.88.06,3.71.15,5.48.26-2.91-11.92-5.53-23.92-7.86-35.97-1.85-.05-3.73-.07-5.66-.06,2.68,11.92,5.36,23.84,8.05,35.77ZM285.1,246.56c9.25.88,16.46,2.39,20.75,3.46-.87-.44-1.87-1.22-2.03-2.1-2.08-11.45-4.17-22.91-6.25-34.36-5.53-1.62-12.48-2.69-20.4-3.14,2.35,12.11,5,24.17,7.94,36.15ZM145.73,311.54c1.01-1.37,2.02-2.71,3.05-4.02-.13-.16-.26-.32-.34-.51l-3.27-6.99c-.25-.54-.21-1.12.04-1.64.25-.54.81-.86,1.35-1.04,1.18-.4,2.71.21,3.24,1.34.75,1.59,1.49,3.18,2.24,4.78,5.17-6.31,10.48-11.97,15.87-17.02-5.95-12.55-11.08-25.46-15.39-38.66-7.24,6.81-12.92,14.61-16.38,23.48.1.13.18.27.24.42,3.13,7.15,6.5,14.19,10.1,21.11.54,1.04.32,2.52-.87,2.99-1.21.48-2.54-.37-3.09-1.43-3.21-6.17-6.22-12.45-9.06-18.8-.54-.36-1.05-1.16-1.08-2.43-.35-.89-.31-1.99.44-2.59,2.63-10.24,9.24-19.47,18.35-27.61.03-.67.31-1.29,1.09-1.47.2-.04.4-.03.59,0,28.02-23.83,77.44-37.85,109.39-39.32,12.77,1.28,26.15,1.32,37.57,7.86,5.34,3.65,8.05-4.49,3.44-7.16-42.76-18.74-120.46-1.86-153.72,28.75-9.73,8.95-24.94,22.52-27.85,36.09-2.36,10.99,8.9,7.08,8.9,7.08l15.17,36.81ZM275.7,253.25c-45.65-3.3-104.17,28.91-122.49,53.29-.01.26-.08.53-.2.78-.2.42-.59.71-1,.9-5.82,8.5-6.46,15.89.49,20.24,5.46-21.61,61.93-52.98,38.91-32.46-109.94,80.79,69.85,45.91,114.77-.9,34.89-36.36-13.13-40.58-30.48-41.84Z" style="fill: #000; stroke-width: 0px;"/>
</svg>