<?xml version="1.0" encoding="UTF-8"?>
<svg id="Flor" xmlns="http://www.w3.org/2000/svg" viewBox="0 0 425.2 425.2">
  <path id="Flor-2" data-name="Flor" d="M310.79,162.83c3.58-9.57-10.94-12.17-7.43-1.18.07.41-.67,1.33-1.14,1.4-4.22,1.51-6.21-2.46-8.83-5.04-6.41-3.01-5.96,9.85-12.44,9.4-10.6-17.38-23.52-4.38-28.72-17.8,1.11-10.26-6.56-13.19-12.97-18.4-2.62-8.59-7.04-16.71-15.48-20.73-34.78-17.71-72.95,19.51-65.55,54.21-6.99,6.65-8.33,16.09-3.4,24.65-17.31,16.64-22.28,47.9-4.5,65.95,19.54,13.56-7.06,6.16,25.92,27.96,13.75,9.5-11.22,25.75,23.21,34.67,20.24,3.19,30.88-9.85,45.52-17.99,20.35,4.58,37.94-15.65,38.36-35,0-18.96,13.9-36.02,10.11-54.8-2.08-6.14-4.92-20.34-13.09-19.26,4.37,11.59,19.28,29.48,4.74,41.74-4.26,3.28-2.02,9.12-4.55,13.31-2.41,2.66-4.3-2.92-5.8-4.35-8.4-15.21-27.58-9.42-38.94-17.21.3-10.14,24.94-.93,27.11-6.82-6.71-4.7-12.96-2.08-19.36-.06-3.33,1.05-5.78-3.17-3.2-5.53,10.7-9.78,36.5-21.56,33.48-25.15-3.03,1.41-6.07,2.84-9.07,4.32-2.85,1.96-20.14,15.77-32.1,22.38-3.37,1.86-6.58-2.72-3.67-5.25,9.12-7.94,41.23-24.12,43.98-25.4-.14-8-44.3,20.27-48.17,22.24.79-26.41-11.96,10.84-20.75-3.24-7.17-5.69,14.88,40.96,0,50.25-9.16,8.87-26.46,21.66-38.39,15.09-2.39-5.13,2.93-10.22-4.93-12.36-17.93-10.96-19.67-39.23-8.12-55.52,7.49-6.84,7.42-15.18,9.02-24.1,6.35-9.84,13.86-3.05,21.21,1.42,5.49-4.55-8.6-10.54-11.92-13.49-17.68-14.38,3.47-38.77,18.23-46.51,20.23-13.7,47.73,2.69,48.55,26.18-2.71,19.84-1.44,36.81,6.13,5.29,3.07,15.76-5.66,25.06-10.77,40.04-.1,1.08,1.29,1.93,2.15.9,8.07-3.15,12.81-34.85,19.32-22.04,5.52,4.59,5.69-6.75,11.09-5.23,9.82.19,8.67,18.78,17.89,16.53,1.78-2.3,5.22-4.92,9.07-6.92,0-.48-.03-.94-.09-1.4-.11-.39-.21-.77-.32-1.16-.24.03-4.66,1.46-2.98-3.14,1.77-4.84,6.22-2.31,6.19-.02,0,.64-1.36,2.24-1.69,2.48.22.76.43,1.52.68,2.27.01.03,0,.06.01.08,3.48-1.57,7.12-2.53,10.11-2.24.16-.78.4-1.56.64-2.29.06-.2,1.52-.78,1.37-.14,0,.03-.18,2.71-.24,2.78,1.72.54,3.09,1.65,3.89,3.5,1.05-.49,1.77-1.61,2.75-2.06-1.57-3.24,3.97-4.05,4.03-.88.16,1.44-3.11,3.84-3.68,1.73-.81.81-1.73,1.58-2.75,2.17.25.83.4,1.79.44,2.88-.21,1.15-1.37,3.3-2.79,5.18.49,1.19.87,2.44,1.17,3.69.11.27.23.53.35.8.08-.09.18-.15.3-.17.07-.44.68-.57.92-.17.23.38,5.59,4.63,1.93,7.13-.6.41-2.7.51-3.24-.13-1.73-2.09-.03-4.45-.03-4.45-.09-.2-2.02-4.57-2.02-4.72,0-.04-.01-.09-.02-.13-.07-.21-.14-.41-.21-.62-.02-.04-.02-.08-.04-.12-1.84,2.13-3.85,3.44-4.69,1.5,8.84-10.75-12.67-12.31-9.42-.14-1.88,4.32-12.17-4.68-13.98,2.39.36.8,1.28,1.96,2.34,1.54,5.19-2.26,9.21,3.58,14.52,3.65,1.44,1.75,2.43,2.79,3.14,3.33-.01-.43-.03-.86-.04-1.29-.03-.19-.06-.39-.09-.58-.13-.84-.26-1.68-.4-2.52-.05-.31-.29-1.92,1.37-1.07.04.02.01.09.02.13h0s0,0,0,0c.21,1.36.29,4.27.29,4.31-.01.12.02.25.09.36,0,.36,2.81.22,1.69,2.43-.19.38-1.76,2.8-3.04,1.04-.16-.22-.4-1.05-.3-1.24.43-.58.48-1.22.11-1.5-.09-.07-.56-.36-1.12.38-.73.98-.67,2.35.16,3.34.55.66,1.39,1.01,2.26,1.01.44,0,.88-.09,1.3-.27,1.26-.54,2.17-1.78,2.26-3.07.12-1.57-.97-2.9-2.47-3.03.34-1.42.84-3.14,2.69-3.61,4.47-1.13,3.15,6.64,8.06,5.75,11.49-3.44-7.83-15.5,8.15-24.43,3.93-10.96-8.04-3.61-9.39-7.84ZM182.59,271.98c29.8-8.97,28.75-33.67,36.25-30.75,6.77,2.84,8.1-5.84,13.42-7.42,29.07-9.7,52.18,20.97,42.44,47.22-6.73,10.19-15.88,16.34-28.61,15.9-5.41-4.08,6.94-23.54-3.08-37.42-1.24-7.2-18.22-16.36-9.65-4.03,37.69,48.81-60.41,82.96-41.35,31.75,4.07-7.36,11.72-14.32,13.12-22.45-5.2-.61-7.88,9.87-11.58,13.31-2.68,7.2-18.08.37-10.97-6.11ZM306.45,162.79c-3.66-1.87-.88-8.85,2.66-2.98.59.97,1.13,4.92-2.66,2.98ZM301.6,182.65c-1.88,3.61-5.44,2.1-5.54-1.73.21-1.24,1.72-2.34,2.54-2.69,1.51.67,3.63,2.57,3,4.42Z" style="fill: #000; stroke-width: 0px;"/>
</svg>