<?xml version="1.0" encoding="UTF-8"?>
<svg id="Guitarra" xmlns="http://www.w3.org/2000/svg" viewBox="0 0 425.2 425.2">
  <path id="Guitarra-2" data-name="Guitarra" d="M191.32,186.04c3.5,2.78,7.12,5.42,10.75,8.04-.15.24-.27.43-.33.54-.33.6-1.68.98-2.37.67-.43-.19-.86-.37-1.29-.56-2.84-2.5-5.64-5.04-8.44-7.58-.04-.05-.09-.1-.13-.15-.08-.09-.16-.14-.25-.19-1.05-.95-2.11-1.88-3.15-2.83.12-.04.23-.06.32-.03,1.58.55,3.1,1.29,4.89,2.08ZM207.52,186.71c-2.97-2.37-5.96-4.71-9.05-6.91-.28.26-.7.36-1.1.07-.12-.09-.24-.18-.37-.26.08.19.09.39.05.58.62.62,0,1.67-.77,1.57,3.21,2.31,6.43,4.62,9.66,6.9.48-.62,1.01-1.28,1.57-1.95ZM352.34,293.05c-6.57,17.95-35.52,38.51-41.88,41.04-1.64.65-40.26,22.95-60.57-23.27-10.02-22.8-3.66-23.84-29.94-33.75-36.17-13.63-44.71-40.06-44.28-53.57.12-3.64,1.06-7.07,2.8-10.23,2.51-4.56,2.01-10.48,1.89-13.84-.67-18.47-69.54-67.69-72-68.19-3.32-.68-6.6-1.52-9.76-2.72-.59-.12-1.19-.23-1.79-.26-2-.12-3.86.14-5.77.75-.39.12-.77.26-1.15.39-.42.24-.97.4-1.7.35-.08,0-.15.02-.23.02-2.14-.05-3.35-1.09-3.92-2.52-.49-.89-.69-1.93-.53-2.93.19-1.16-.54-4.01-1.59-3.65-.27.09-.65.86-1.64,1.35-3.57,1.77-5.52,1.45-7.87-2.57-.19-.33-.38-.53-.58-.68-4.68,2.03-6.78-.23-7.42-2.96-.5-1.18-.92-2.5-.61-3.76.32-1.28,1.35-1.6,1.98-2.62.03-.05.04-.11.07-.16.83-3.49-5.86-13.95-4.8-16.33,2.2-4.9,8.67-16.79,9.86-17.65.4-.29,7.66,1.12,12.93,2.21.19-.19.4-.37.6-.52,1.56-1.16,3.76-1.72,5.67-1.19,2.21.61,3.61,3.22,3.47,5.42-.02.27-.09.58-.2.89.19.16.39.32.59.48,1.51-.76,4.06-.85,5.11-.34,1.98.96,3.36,4.38,2.62,6.61.84.66,1.68,1.31,2.52,1.97.15-.13.32-.26.51-.37,1.42-.83,3.44-.8,4.64.43,1.18,1.2,1.64,3.39,1.36,5.02,1.12.91,8.12,6.95,8.12,6.95,0,0,2.9,9.08,3.08,9.32,4.66,5.99,77.2,61.66,81.52,64.23,1.11.66,2.5.42,3.36-.38,45.2-42.01,61.94,11.21,77.06,21.62,3.03,2.08,5.73,4.08,9.44,4.6,2.94.41,5.82,1.1,8.82,1.19,4.77.14,9.44,1.18,14.09,2.14,8.71,1.8,54.63,36.88,36.11,87.5ZM104.82,91.26c1.48,1.16,2.95,2.31,4.43,3.46-.07-.94-.33-1.95-.89-2.68-.66-.86-1.88-1.12-2.91-.97-.24.03-.45.1-.63.19ZM94.66,83.12c1.83,1.51,3.68,3.01,5.53,4.49,0-.29-.04-.6-.14-.98-.27-.98-.83-2.01-1.66-2.63-.74-.55-2.46-1.03-3.72-.88ZM84.89,77.7c2.53.52,4.39.93,4.41.95.62.53,1.24,1.05,1.87,1.57-.25-1.15-.92-2.33-2-2.77-1.1-.45-2.5-.27-3.62,0-.17.04-.4.14-.65.25ZM72.24,115.54s0,0,0-.01c.25-.46.44-.96.48-1.48.15-1.8-1.13-2.7-2.86-3.07,0,0-.02,0-.03,0-.78-.16-1.54.11-2.08.61-.04,0-.08,0-.12.02-1.07.36-1.48,1.48-1.36,2.52.12,1.03.7,1.98,1.47,2.65.4.35.88.57,1.4.67.52.1,1.04-.01,1.52-.22.72-.31,1.38-.91,1.57-1.69ZM346.85,243.32c-4.12-9.01-9.79-16.95-16.62-24.1-1.86-1.95-3.91-3.59-6.2-5.03-5.67-3.57-11.71-5.76-18.47-5.71-4.79.04-9.61-.17-14.18-1.49-13.15-3.81-24.08-22.11-26.25-25.08-21.46-29.4-44.98-9.92-56.41,3.37-6.2-4.98-84.48-63.98-87.31-67.02-.45-.48-1.04-.25-1.39.45-.13.25-.25.65-.14.86.38.76.69,1.7,1.32,2.15,13.59,9.5,26.31,20.05,38.37,31.42.16.15.21.74.1.82-.4.28-.93.66-1.33.58-2.84-.59-4.16-3.18-6.2-4.83-8.03-6.53-16.07-13.04-24.17-19.48-2.54-2.02-5.24-3.85-7.92-5.69-.32-.22-.95,0-1.43,0,.04.29-.03.69.13.87,1.61,1.73,3.11,3.6,4.92,5.1,5.69,4.71,11.52,9.25,17.25,13.91.91.74,1.62,1.72,2.37,2.63.24.29.4.59.51.91-6.9-4.75-13.69-9.64-20.28-14.82-1.75-1.42-3.48-2.85-5.18-4.33-1.78-1.55-3.5-3.17-5.23-4.77-.47-.43-.97-.82-1.46-1.21-.09-.07-.19-.15-.28-.23.17-.4,1.83-5.02,2.51-6.33.8-1.53,1.11-3.45,1-5.37-.75-.47-1.49-.98-2.19-1.54-.03.07-.06.13-.11.21-.28.52-.47,1.16-.71,1.7-1.38,3.14-2.81,6.48-4.62,9.38-.01.02-.06.06-.08.02-1.25-1.85-.15-3.97.56-5.85.76-2,1.57-4.95,2.88-6.64,1.06-1.37,2.41-1.11,3.71-.3-.58-1.86-1.56-3.53-2.96-4.61-5.61-4.34-15.86-14.19-20.2-18.41-.54.2-1.13.16-1.7-.35-.07-.06-.02-.2.03-.26.17-.18.34-.36.5-.53-.55-.53-.86-.84-.86-.84l-14.51-3.68-1.63.38s-5.27,9.95-6.42,12.99c-.3.79,6.19,12.99,6.19,12.99l20.21,12.42s1.2-.17-.02,2.25c-.06.12-22.09-13.25-22.09-13.25,0,0-4.51-9.35-5.15-10.98-.17-.44-.79-.71-1.2-1.05-.23.43-.73.94-.64,1.29.09.35.25.97.44,1.72.26.76.48,1.56.74,2.34.71,2.14,2.32,4.98,2.54,7.18.03.3.03.51.02.71.16.22.34.42.53.6.56-.03,1.15.05,1.49.15.19.05.44.15.71.26.02,0,.04,0,.05,0,.01,0,.06,0,.1.01.03.03.07.05.1.08.06.03.12.05.19.08.11.04.21.07.32.11.03.02.06.04.09.05.06.04.12.08.17.13,1.23.64,2.44,1.6,2.11,2.56.08.42.44.72.84.77.18.09.39.14.55.1.31-.08.56-.2.81-.39.16.11.31.21.47.32-.04.01-.07.01-.11.03-.08.04-.13.11-.2.15v-.02c-.08.05-.13.11-.19.16-.01,0-.02.02-.03.03.7-.28,1.43-.28,2.08.29.13.11-.1.29-.2.3-1.27.12-2.51,1.35-3.15,2.39-.05.08-.08.15-.12.23-.04,1.11.15,2.4.96,3.19,3.62,3.55,5.54-.73,5.65-.83.27-.96-.11-1.83-.91-2.51-.55-.36-1.12-.7-1.76-.96-.56-.22.22-1.04.64-.96,1.43.29,2.95.98,3.42,2.42.02.01.03.02.05.03.33.31.67.62,1.03.9,1.24.99,2.68,1.74,4.12,2.48.38-.06.76-.07,1.12.02.81.22,1.77.83,1.53,1.75-.04.14-.19.27-.33.27-.61.03-.88-.32-1.48-.45-.6-.12-1.43-.11-1.98.17-.13.07-.25.16-.36.25-.47.78-.67,1.77-.45,2.64.03.12.09.24.13.36.04.25.09.5.17.74.09.29.25.57.42.84,1.05.55,2.51.66,4.27.37.88-.88,1.22-2.1.13-3.34-.52-.6,15.93.85,19.55.3,3.69,3.28,59.92,48.21,62.87,50.71,8.19,6.94,13.53,15.65,15.28,26.4.48,2.97.29,5.92.26,8.89-.02,2.4-16.71,18.16,1.3,40.18,14.56,17.8,47.73,26.15,50.33,27.56,2.16,1.17,3.55,3.01,4.55,5.29,2.75,6.27,4.48,12.87,6.42,19.39,3.41,11.51,10.87,19.57,20.87,25.54,6.36,3.79,13.48,4.49,20.71,3.97,3.53-.25,7.08-.47,10.41-2.12,7.2-3.57,14.23-7.36,19.88-13.29-.2-.24-.35-.59-.5-.59-1.46.02-2.94-.06-4.36.2-7.52,1.36-14.81-.08-22.07-1.76-1.71-.39-3.33-1.25-4.92-2.05-3.57-1.8-11.12-8.28-13.53-11.41-2.21-2.87-3.51-6.2-4.83-9.5-1.32-3.31-2.41-6.71-3.67-10.04-2.79-7.38-6.55-14-14.14-17.53-.26-.12-.61-.3-.69-.53-.15-.44-.14-.93-.2-1.41.29-.03.63-.18.88-.09,3.68,1.3,6.91,3.25,9.64,6.13,3.97,4.18,6.84,8.95,8.63,14.4.37,1.13.77,2.25,1.08,3.4,2.07,7.69,6.48,13.95,11.9,19.6,2.5,2.6,5.44,4.72,8.87,5.75,3.69,1.1,7.51,1.9,11.33,2.38,8.5,1.07,16.46-.56,23.96-4.94,3.12-1.82,6.07-3.59,8.28-6.52,1.06-1.41,2.52-2.52,3.8-3.76,7.54-7.27,10.62-16.3,10.29-26.57-.21-6.55-1.3-13-2.71-19.4-.71-3.22-1.86-6.27-3.22-9.24ZM184.06,175.76c.14-.27.23-.52.26-.76.07-.47-.05-.87-.24-1.25-.1-.19-.21-.37-.34-.55-.21-.3-.41-.6-.58-.9-3.81-2.77-7.67-5.48-11.65-8.01-.41.04-.85.39-1.19.69-.09.08.07.62.26.8,3.16,3.15,6.75,5.76,10.49,8.17.97.63,1.98,1.2,2.99,1.81ZM204.82,190.14c-3.8-2.68-7.57-5.4-11.34-8.13-.4.8-.79,1.6-1.19,2.4,3.52,2.81,7.16,5.48,10.82,8.12.46-.67,1.05-1.49,1.72-2.39ZM266.84,206.49c-8.1-.84-13.48,2.06-16.55,6.78,6.42-4.86,15.59-5.89,23.01-2.81,11.68,4.85,18.98,18.06,18.85,30.41-.01,1.2-1.87,1.01-1.85-.18.07-6.63-2.19-13.3-5.98-18.72-3.31-4.72-7.9-8.65-13.45-10.43-4.52-1.45-9.39-1.36-13.86.26-3.42,1.24-6.61,3.31-8.88,6.17-3.07,10.11.93,24.26,9.81,31.57,40.78,29.8,49.17-36.86,8.9-43.05ZM323.71,244.36c-1.24-.46-2.19.09-3.05,1.12-1.75,2.09-2.56,2.21-4.28.96-4.57-3.29-9.15-6.57-13.74-9.85-.24-.17-.53-.28-.81-.37-.84-.29-1.7-.61-2.55-.08-.44.27-.08,1.81.55,2.29,1.42,1.07,2.84,2.13,4.29,3.15,3.64,2.56,7.31,5.07,10.93,7.67.7.5,1.2,1.28,1.78,1.94.46.53.38,2.27-.17,2.47-.45.17-1.15.28-1.49.05-3.7-2.47-7.33-5.05-11.03-7.52-.96-.64-2.1-1.06-3.21-1.4-.33-.1-.9.38-1.27.7-.13.11-.06.65.1.83.59.65,1.21,1.3,1.9,1.83,4.25,3.23,8.56,6.38,12.73,9.7.41.33.19,1.67,0,2.47-.21.86-1.39,1.08-2.2.56-2.99-1.92-5.96-3.9-9-5.74-.92-.56-2.02-.85-3.07-1.18,2.97,2.36,5.77,4.96,8.64,7.44.73.46,1.47.9,2.23,1.32.49.27.51.75.28,1.12.02.18,0,.36-.07.52.02.01.04.03.06.04.13.09.12.6,0,.83-.07.13-.37.22-.59.2-.28.32-.72.46-1.14.1-1.13-.97-2.34-1.83-3.57-2.66-.02-.01-.05-.03-.07-.04-.45-.28-.88-.59-1.32-.88-2.75-1.76-5.59-3.4-8.19-5.34-.41-.21-.84-.39-1.28-.51-.23-.06-.72.08-.76.22-.14.48-.36,1.23-.13,1.46,3.35,3.44,7.63,5.61,11.47,8.38,4.25,3.07,4.99,4.08,2.92,8.86-.24.54-.4,1.12-.55,1.69-.25.96.62,2.37,1.71,2.81,2.56,1.04,4.15.72,5.44-1.25.97-1.48,2.05-2.97,2.62-4.62,2.32-6.77,5.3-13.21,8.75-19.47.84-1.51,1.14-3.35,1.54-5.07.3-1.26-.28-2.4-1.25-3.13-.93-.7-2.03-1.23-3.13-1.64ZM237.35,255.06c.1-.82.2-1.64.29-2.45-.27-.21-.57-.39-.96-.48-2.61-.58-5.21-1.28-7.85-1.56-6.62-.7-11.72-4.09-15.93-8.91-3.51-4.02-6.69-8.24-9.22-13.06-4.1-7.81-6.62-15.83-6-24.7.02-.29-.06-.58-.1-.87-.1-.78-.52-1.13-1.22-.87-.53.2-1.19.43-1.45.85-1.68,2.66-1.67,5.68-1.46,8.64.37,5.07,1.69,9.94,3.66,14.63,2.93,6.96,7.42,12.86,12.65,18.19,3.36,3.43,7.42,6.04,12.02,7.43,4.25,1.28,8.65,2.09,13,3.01.85.18,1.72.26,2.58.16ZM214.61,198.31c0,.11.02.2.08.25,7.67,6.86,15.69,13.28,24.11,19.19.23.16.57.24.84.21.24-.02.51-.2.67-.39.17-.2.31-.48.33-.74.06-.95-.43-1.66-1.14-2.24-6.35-5.21-12.78-10.33-19.43-15.14-.23.47-.8.79-1.35.4-1.3-.9-2.59-1.81-3.89-2.71-.07.38-.23.87-.22,1.18ZM239.85,225.95c.57-.02,1.27.04,1.65-.27.28-.23.3-1.04.14-1.48-.19-.53-.6-1.06-1.06-1.4-7.85-5.83-15.63-11.78-23.86-17.08-.23-.15-.58-.2-.86-.17-.28.03-.53.22-.8.34-.04.39-.22.95-.21,1.28,0,.11.03.2.08.25,7.72,6.5,15.99,12.28,24.1,18.26.23.17.55.29.82.28ZM221.28,195.72c6.08,4.97,12.13,9.98,18.76,14.22.34.22,1.25,0,1.54-.33.26-.3.26-1.3,0-1.52-4.81-3.84-9.7-7.59-14.54-11.39-2.76-2.17-5.44-4.46-8.69-5.9-.2-.09-.52.07-.79.12.01.29-.08.65.05.87.21.35.41.73.63,1.09.89.7,1.78,1.39,2.69,2.07.28.21.37.49.36.77ZM246.3,258.65c-.24.52-.48,1.1-.52,1.66-.05.77-.05,1.52,0,2.27,1.12.53,2.23,1.08,3.3,1.71.08.04.16.09.24.13-.04-1.76-.27-3.51-.45-5.27-.03-.27-.27-.51-.41-.76-.23-.13-.45-.29-.7-.37-.62-.2-1.17,0-1.46.64ZM239.2,254.6c-.02.19-.04.38-.06.57.08,1.63.11,3.28.28,4.9.27.09.54.2.81.29.12,0,.25.02.39.07.85.32,1.7.65,2.55,1,.06-1.37-.06-2.75-.32-4.12-.38-2.03-1.68-2.86-3.65-2.71Z" style="fill: #000; stroke-width: 0px;"/>
</svg>