<?xml version="1.0" encoding="UTF-8"?>
<svg id="Isla" xmlns="http://www.w3.org/2000/svg" viewBox="0 0 1327.3 1405.46">
  <path id="Isla-2" data-name="Isla" d="M395.79,1037.81c-1.72-.61-1.1-3.56-.11-4.81,1.52.83,1.13,3.88.11,4.81ZM405.2,991.29c2.16,1.04,3.11-3.02,1.47-4.49-.44-.05-11.24-3.13-9.69-1.32.63.61,7.34,5.4,8.22,5.81ZM411.23,908.72c7.02-1.81,12.86.87,16.65,2.74,7.82,3.88,7.27,3.11,2.9-.38-.83-.66-10.79-5.26-10.79-5.26-3.49-2.16-30.36-4.46-22.79,31.93,4.45,21.4,17.9,26.41,19.27,29.44.86,1.9-1.55,4.63-3.89,6.7-2.41,2.13-3.57,5.33-3.22,8.52.21,2.01.48,4.17.72,5.86,2.36-5.98,1.32-10.12,5.47-14.75,5.27-4,13.7-6.74,4.86-8.61-2.53-.54-4.84-1.79-6.67-3.6-7.54-7.43-31.31-45.2-2.48-52.6l-.02.02ZM465.79,1026.95c-3.02-.86-15.34-2.79-18.16-14.07-2.18-12.65-2.9-5.93-.87.34h0c.51,1.64,4.86,15.13,19.04,13.73h0ZM524.64,920.73c.14.75,1.33,1.07,1.53.32,2.71-10.12,19.11-16.2,27.13-10.58,10.51,8.2,7.13,11.66,8.95,12.43.05-.64.05-1.21,0-1.72,1.99,8.78-.05,17.29-5.35,24.8-.17.25.29.32.43.18,7.91-7.45,8.43-18.13,4.49-27.82-.02-.05-.08-.08-.14-.08-.08-.28-.17-.55-.26-.84,0,0-4.66-15.79-22.76-9-1.18.95-6.93,2.35-9.87,5.29-2.31,2.35-2.53,3.77-5.55,1.93-4.2-2.56-6.22-1.7-7.86-.67-2.12,1.33-3.36,4.98-2.67,6.81.75,2.01,1.49-.86,1.38-1.81.71-4.03,3.71-4.51,6.24-3.94,2.05.46,4.05,3.48,4.28,4.67l.03.02ZM574.07,942.45c-1.27,5.29-10.22,16.57-14.35,7.74-.05-.11-.29-.08-.25.05,3.6,9.07,12.65-.23,15.11-6.16,1.41,4.45-.64,7.28-4.02,10.61-.15.15.18.25.29.2,5.17-2.19,6.41-7.62,4.22-12.43-.15-.32-.92-.43-1.03,0h.02ZM544.7,1098.84c.75-.83,7.36-5.64,9.27-7.3l.87-.83c-.75-.66-6.79,3.89-7.05,3.94h0c-.97.69-1.93,1.38-2.9,2.07-.32-3.3.41-6.73-1.26-9.87-.48,2.58-.71,11.94,1.07,11.99h-.02ZM449.24,907.66c-.67.46-1.99,1.29-2.1,2.51.29-.31,2.77-1.41,3.2-1.61,4.08-1.84,6.71,1.78,7.36.2.61-1.38-.51-2.21,1.79-6.45.55-1.01,1.38-1.9,2.45-2.31,4.18-1.64,8.54,3.26,9.17,2.31-.29-.31-.63-.71-.87-.9-2.02-1.62-7.54-4.63-10.22-3.3-.11.08-.26.17-.52.34-2.48,1.66-3.88,6.81-3.66,8.46-.74.23-3.53-1.36-6.61.74l.02.02ZM451.98,1059.79c3.71-6.51,5.81-13.37,13.98-15.11.34-.08.21-.52-.08-.57-6.62-.83-10.05,5.93-12.49,10.97-.81,1.69-1.18,4.49-2.51,1.98-1.3-2.47-.61-6.48.09-8.95,1.44-5.07,4.74-9.63,8.78-12.95.09-.08-.05-.21-.14-.14-7.14,5.58-12.98,15.93-8.35,24.75.15.28.57.26.72,0v.02ZM424.2,1042.28c-4.37,1.96-5.59,7.73-6.28,11.97-.05.31.41.43.46.12.81-4.54,2.05-8.97,6.12-11.6.32-.2.05-.64-.29-.49ZM554.19,991.47c-5.21,5.2-18.09,11.24-22.96,2.62-.14-.23.37-.32.49-.2,5.47,4.98,14.48.78,19.62-2.9,3.94-2.82,7.19-7.5,5.44-12.55-.18-.54-.46-1.07-.75-1.62-1,1.21-2.27,2.05-3.97,2.44s-5.24.21-6.97.03c-2.79-.29-5.13-5.92-2.01-7.83,5.52-3.39,8.22-1.46,9.09-.51,1.06.51,2.07,1.24,2.97,2.07,2.41-1.87,2.16-14.99-6.01-21.93-2.13-1.81-4.78-2.91-7.54-3.36-14.15-2.27-17.17,5.73-17.53,8.02-.57,1.75-.44,3.77-2.1,5.53-.9-2.71.05-4.03.84-6.96,10.44-19.47,28.08-5.81,28.08-5.81,8.78,8.66,9.44,17.55,7.5,23.62-.37,1.12-.78,2.13-1.27,3.05.31.38.57.78.8,1.15,3.28,5.27.21,11.27-3.72,15.19l.02-.05ZM551.61,972.51c-3.07-1.84-4.67-1.89-7.51-.21-3.11,2.38-1.07,4.58,1.7,4.97,10.18,2.51,8.32-3.33,5.81-4.75ZM519.14,1003.99c-3.62,1.3-7.04,5.2-7.99,9.32-3.08-4.54-17.06-7.76-19.1-.89-.11.35.21.57.51.64,5.9,1.5,11.71,3.8,15.59,8.72.09.12.49.06.38-.12-1.67-2.87-3.89-4.81-6.81-6.38-1.82-.98-3.77-1.73-5.75-2.38-1.76-.57-3.33-.81-.92-2.42,2.68-1.79,7.05-.75,9.81.32,2.9,1.13,4.34,2.73,6.02,5.17.05.83.21,1.66.54,2.44.06.14.37.17.4,0,.6-2.47.52-4.97,1.53-7.36,1.04-2.47,2.73-4.45,5.03-5.66-1.52,4.25-2.87,8.48-1.59,13.01.05.17.44.14.41-.05-.87-4.86,1.27-9.4,2.87-13.89.2-.55-.63-.66-.97-.54l.03.05ZM491.71,1057.79c1.18-.81,6.25-5.1,2.94-4.28h0s-2.79,3.1-3.66,2.42c-1.64-1.27,3.66-6.36,2.93-7.82-1.95.11-2.54,2.38-3.79,3.6-1.01-.34-2.04-.67-3.05-1h0c-2.62-.77-23.14,11.17-21.35,7.45,6.71-11.47,12.26-15.7,11.73-16.23-1.55-1.07-2.67,1.56-3.56,2.5h0c-.93,1.52-18.18,22.33-9.66,18.01,0,0,19.99-10.71,24.72-9.46,1.27.34-2.87,7.43,2.74,4.8h0ZM574.99,958.5c1-3.79,2.84-10.01,7.42-10.62.25-.03.15-.29-.06-.29-4.92-.21-6.73,7.22-7.53,10.88-.02.09.14.11.17.03ZM444.78,1023.84c2.3,2.91,4.23.43.4-1.92-9.93-6.1-7.82-10.7-7.37-11.5.4-.67,2.82-1.73,1.76-2.61-.21-.18-.63,2.01-6.81,4.35h0c-2.76.89-11.48-.08-14.52-10.55-.28-.97-.77-2.76-2.12-3.43-.95,1.03,0,2.82.75,4.18.44.81.31,1.85-.4,2.47-.93.83-1.93,2.04-2.18,3.03,0,0-.44.93-.78,1.66-.35.74-1.12,1.21-1.93,1.12-2.91-.31-8.8-2.68-9.93-2.64-1.76.08-2.45,2.33-1.09,3.43,1.43,1.13,3.3,2.65,4.84,3.85,1.29,1,.89,3.03-.69,3.46-2.27.61-4.9,1.09-5.82,1.27-2.76.54-2.9,2.96-.25,3.85,1.64.55,3.63.9,5.17,1.15,1.09.18,1.78,1.23,1.61,2.31l-.05.37c-.11,1.15-1.16,1.96-2.3,1.76-1.69-.31-3.72-.64-4.09,0-.58,1.01,4.46,1.73,5.26,2.21h0c0,.51-1.38,16.55-1.38,16.55-.05,1.49-5.64,4.69-6.22,7.05-.15.89,2.59,1.3,4.15,1.46.67.06,1.26.49,1.56,1.09.57,1.13,1.01,2.04,1.75,3.22,1.5,2.39,5.07,2.07,6.12-.55.67-1.72,1.32-3.3,1.61-3.86,1.73-.44-.64-.29-1.06-2.9-.18-.66-.98,1.58-1.81,3.88-.58,1.64-2.87,1.78-3.63.21-.54-1.1-1.09-2.22-1.5-3.07-.38-.8-1.26-1.23-2.13-1.07-1.07.2-2.33.43-2.33.43l4.84-4.71c.38-.37.58-.87.6-1.41.29-20.94,3.57-22.23,3.57-22.23,1.11-1.76.71-2.75-1.23-2.99h0l-6.59-.74s7.97.03,12.29-5.7c.35-.46-9-5.53-9-5.53,0,0,4.9,1.35,7.82,1.95.97.2,1.96-.34,2.27-1.29,1.13-3.62,5.5-3.6,6.51-2.44,2.21,2.53,5.38,4,8.74,4.06,1.87.03,3.72.06,4.61.08.37,0,.72.11,1.03.29,1.16.74,2.15,1.64,2.99,2.76h0c.55,1.93,6.04,7.33,6.93,7.57l.02.03ZM410.91,1069.01c1.16,3.25,7.17.87,1.78-.15-.67-1.12-3.65-1.29-1.78.15ZM516.15,1051.65c.21.06.46-.21.2-.34-7.3-3.26-14.45,6.48-12.8,13.12-2.08-3.77-3.39-7.8-1.95-11.94,1.9-5.44,8.66-7.19,13.15-9.99.26-.17-.17-.37-.35-.26-5.21,3.08-12.74,4.74-14.21,11.53-1.3,5.98,2.38,12.05,6.21,16.74-1.84,3.28-5.47,8.87-5.47,8.87-.23.4-1.67,3.03-1.84,4.25h0c-1.03,4.69,8.03-1.55,8.03-1.55,7.1-3.03,5.49-4.28,5.49-4.29-1.76-.4-10.24,4.45-10.24,4.45h0c.11-.37,4.25-7.63,4.89-10.73.46.54.9,1.04,1.35,1.53.14.15.6.06.43-.18-1-1.55-2.16-3.2-3.31-4.94.41.35.87.66,1.39.93.08.05.18-.05.09-.11-.78-.43-1.43-.95-1.95-1.53-.37-.58-.74-1.16-1.09-1.75-2.56-6.19,4.86-16,12-13.84l-.03.03ZM468.4,988.71h0c-1.21.46-14.61,5.93-5.27,20.14h0c.37.52,5.82,5.81,6.67,5.95,0,0,5.75,2.56,1.78-.08-1.33-.89-14.94-7.42-7.3-20.54,6.77-8.15,11.86-5.41,12.69-7.37h0c-.12-1.9-5.81-3-2.8-9.5,2.79-6.02,7.59-4.31,7.89-6.25-1.44-1.2-8.98,2.13-9.69,6.12-.41,2.39-1.09,4.8,2.44,9.38-.51.23-5.93,1.95-6.44,2.16h.03ZM885.99,1206.38l-7-25.57c-.11-1.82-1.09-2.82-2.88-3.07h0c-.66-.38-1.3-.77-1.96-1.16-11.45-2.74-18.75,10.3-18.98,11.43,1.21,1.93,1.56,1.78,2.84.11h0c2.62-2.39,5.23-4.78,7.85-7.17,0,0,8.61-5.56,10.67,3.33,3.46,9.63,6.09,20.28,6.65,30.56-7.76,4.4-16.74,7.05-24.82,2.65-4.48-4.14-1.98-26.52-3.05-23.51l-.05.05h0c-.4.17-.81-.52-1.23-.4-.75.28-1.78,21.23-1.78,21.23.18,1.15.49,2.22,1.56,2.88h0c.49.49.97.98,1.46,1.49h0c6.18,6.1,16.11,7.22,23.77,2.94h0c10.61-4.15,10.44-9.12,7.36-13.37-.14-.81-.28-1.61-.41-2.42h0ZM559.52,1169.12h0c-.93-.48-1.89-.95-2.82-1.43h0c-1.04-.43-26.61-13.06-26.61-13.06-3.82-2.1-13.21-6.47-12.68-9.17-.61-4.98-1.79-9.9-3.36-14.59.12-6.41-2.22-12.48-2.58-18.88-.31-1.98.17-4.14-.98-5.95.25.02.49.03.74.06.09,0,.15-.11.05-.12-.23-.03-.52-.05-.84-.06-.18-.28-.41-.55-.71-.83,0,.23,0,.52.03.83-5.86.12-21,2.74-17.67-4.67,1.46-3.22,5.82-6.81,9.27-7.43,5.66-1.04,8.18,4.58,9.69,8.97.06.18.46.14.4-.08-1.09-3.99-3.36-8.91-8.03-9.4-3.99-.43-7.6,2.51-10.04,5.32-1.32,1.52-3.37,3.23-2.56,5.2.54,1.3,2.16,2.27,3.4,2.73,4.97,1.81,10.39-.64,15.53-.54.23,5.69,1.79,21.26,2.96,24.86,0,0,2.82,11.65,2.74,14.67-1.39-.41-2.8-.83-4.2-1.24l-34.82-21.14c-.08-.98-20.28-34.98-21.18-34.78-.26-.71-5.69-3.28-5.69-3.28-2.96-2.77-21.81-11.16-19.91-7.85,2.31,1.87,5.35,1.96,7.94,3.28,0-.05,7.46,4.9,7.46,4.9-2.22,0-10.53,5.56-10.53,5.56-.54.08-1.04.2-1.52.41-.41-3.68-2.47-7.27-6.1-8.17-.26-.06-.43.31-.18.44,4.06,2.1,4.35,5.46,4.87,9.09-.11,1.1-1.13,7.2-9.69,5.87-3.05-.48-2.01-3.95-1.99-4.43h0c-.25-3.56-1.59-6.64-5.01-7.22,0,0-7-2.35-9.66-.48-.78.17-6.9,7.59-9.4,10.67-.72.89-1.81,1.47-2.96,1.44-.98-.03-1.81-.46-2.33-1.95h0c-.54-3.43.29-6.67,1.18-9.96h0c.31-1.29,1.03-2.74-1.26-2.93h0c-1.29.78-3.89,13.99-1.56,16.25,3.36,3.25,9-1.35,9-1.35h0c.43-.6,7.85-8.45,8.71-10.5l.4-.14h0c.35.12,9.9,4.15,9.9,4.15l.26,3.36c-.21,5.33,8.52,7.76,19.01-1.36h0c5.9-1.95,11.11-5.46,17.64-4.74h0c.35.8,19.3,32.39,19.3,32.39.06.9.63,1.3,1.38,1.62.15.86.77,1.16,1.47,1.49.21.75,82.69,47.99,84.35,46.31.74-.92.11-1.66-.8-2.13l-.02-.03ZM390.77,1035.32c-.6,1.04-1.98,1.38-2.91.63-1.36-1.09-1.32-.34-.38,2.47.02.08.03.14.06.21.6,1.96,3.46,1.72,3.82-.29.28-1.56.43-3.17-.03-3.48-.14-.09-.34.12-.54.48l-.02-.02ZM562.05,1021.77c1.47.67,2.71,1.92,3.53,3.3.11.18.6.14.49-.09-.81-1.69-2.15-2.74-3.92-3.31-.08-.03-.18.06-.09.11h0ZM390.21,1075.8h0ZM984.21,1038.17c-1.03-.15-2.39,2.1-1.32,3.91h0c4.74,5.89,6.12,16.09-2.19,19.65-.09.05-.2.06-.29.08-10.68.72-12.49-3.86-13.75-1.89h0c-1.73,1.38,4.64,3.03,3.71,4.69-.95,1.67-1.36,4.51-2.19,5.47-6.53,7.6-13.57,22.85-23.68,29.74-.06.05-.14.08-.2.11-17.78,5.89-35.5,11.99-53.31,17.81-5.29,1.73-9.7,4.51-13.23,8.75-12.92,14.04-24.31,37.25-36.99,44.01-9.46,5.04-9.84.84-42.83,1.32-3.56.05-6.51,1.01-10.28,1.47-9.9,1.2-22.29-9.78-26.5-13.37-5.73-5.95-2.74-16.52-6.42-24.82-3.54,5.84,5.99,18.21,1.24,20.42-.18.09-.41.08-.61,0-4.28-1.7-6.32-3.02-6.12-8.28v-.15c-1.3-8.06-1.85-1.84-.9,2.02.49,2.01,1.64,5.41-1.39,5.46-2.07.72-2.53,3.31-4.89,2.99-4.41,1.09-9.07,1.89-13.01,3.88-.12.06-.25.17-.31.29-3.91,6.45-13.11,2.22-19.16,7.31-15.73,12.74,7.86-15.59,12.02-23.31.05-.09.12-.17.21-.23,3.36-2.31,4.74-7.3,5.78-11.11.06-.21.2-.37.4-.46,1.82-.95,2.88-3.16,5.3-3.45h0c5.33-1.85,10.61-3.68,14.82-7.33.03-.03.06-.05.09-.06,11.68-6.65,13.99-20.69,17.46-33.35.09-.37.43-.6.81-.57,3.17.31,11.99.09,16.92,12.23,2.85,7.02,8.43-1.67,8.17-3.92-.52-4.32-6.1-13.63-8.14-15.39-10.12-8.74,13.26,10.94,3.79,19.34-3.19,2.82-5.3-8.06-9.76-10.59-17.5-9.92-14.01.09-17.84,13.04h0c-8.84,7.82-21.78,6.68-33.31,6.38-.12,0-.23-.03-.34-.11-3.51-2.07-8.71-2.02-11.86-4.38-4.17,1.69-4.92-4.08-4.15-8.55,0-.08.03-.14.06-.21,10.53-22.3-27.07,20.17,32.86,14.9.05,0,.09,0,.14-.03,20.94-5.56,10.28,7.56-.25,13.09h-.03c-.32.15-8.61,4.12-10.97,4.52-5.52.93-9.07,13.41-12.32,16.45-.03.03-.06.06-.09.11-2.1,3.2-14.36,19.54-15.24,21.58-.03.06-.05.11-.09.15-11.05,13.78-18.52,33.78-37.05,39.36-.03,0-.08.02-.11.03-35.96,6.58-67.01.75-88.13-30.53-.03-.05-.06-.09-.11-.12-17.38-15.59-31.44-47.82-46.89-59.81-2.54-3.07-6.99-3.86-10.35-6.45-7.4-3.2,6.87,6.54,11.16,7.45.2.05.37.14.49.32,3.28,4.84,7.1,11.85,11.71,15.73.12.09.18.23.23.38,1.21,4.25,26.52,37.81,27.8,39.38,13.23,17.49,27.99,38.69,50.66,38.04h0c18.98,2.13,51.52,5.13,62.71-14.38h0c6.13-6.64,14.15-12.46,19.01-19.27.03-.05.06-.08.11-.12,1.49-1.24,8.37-8.02,11.96-8.86,2.56-.6,8.51,1.47,10.15-2.76.48-.37.97-.97,1.46-1.38h0c1.39-2.67,25.26-9.81,32.42-1.78,3.08,3.46,8.35,8.34,12.48,10.22,4.92,2.25,18.91,2.97,21.43,1.52,8.15-4.77,17.46-.32,26.38.09.09,0,.18.03.28.08,24.51,12.26,54.58-39.07,56.65-42.67.08-.14.2-.23.34-.29,3.71-1.84-.55-7.34,9.41-10.19.03,0,.06-.02.09-.02,7.68-1.23,45.25-16.51,50.66-17.92,1.73-.44,3.36-.9,4.86-1.33,4.05-1.16,7-4.29,8.92-8.05.06-.11.12-.2.18-.28,1.59-1.81,17.7-29.6,21.63-29.37h0c2.97,2.19,5.93,2.1,8.89-.03h0c5.13-4.2,7.73-9.67,4.15-21.89-.35-1.44-1.9-4.41-3.36-4.64l-.02-.06ZM979.72,999.2c1.35.23,1.61-1.27,1.99-2.22,0,0,.23-.92-.03-1.36.12-.89-2.53-3-2.47-1.55h0c.2,1.59-.95,4.08.51,5.15v-.02ZM985.88,1005.27c.98-1.44.81-3.39-.23-4.75-3,.23-3.53,9.35.23,4.75ZM1008.27,1028.18c1.69,2.27,5.47,7.76-11.79,6.68-8.75.02-11.71.43-13.83-2.58-.08-1.01,1.39-1.29,2.24-1.38h0c4.12.18,13.98,1.13,18.47,1.58,2.04.2,3.57-2.3,2.13-3.76-12.68-12.72-21.44-15.51-31.74-15.34-2.16,0-9.84,2.91-6.1-1.72,2.42-3.37,3.99-7.27,3.66-11.5-.26-8.94-14.53,12.09-15.66,10.79-.18-.52.11-2.01.95-2.15,5.78-14.7-4.78-5.63-6.28-6.59.08-1.67,1.93-3.31,3.72-3.53,10.41-2.62,5.44,5.9,7.2,4.84,0,0,4.15-6.12,4.52-6.42h0c8.18-6.3,8.2,2.56,7.77,6.42-.26,2.38-2.91,6.61-3.02,8.05h0c9.87-2.85,27.59,7.07,28.23,7.07,35.19-36.07-7.39-51.36-13.23-51.84-10.65-.12-9.75.98-12.48,2.33-4.35,2.9-4.23,5.93-5.01,8.54-2.04-2.77,4.29-8.23-1.1-15.3-3.94-5.15-7.92-1.96-10.38-2.73-.05-.06-.06-.11-.11-.17.63-2.41,21.58-30.95-21.34-28.56-.93.05-1.39,1.24-2.08,1.87-5.27-19.56-20.4-12.31-22.53-12.32h0c.12.57,2.31,5.98.52,9.73-2.56.23-.98-1.99-.95-3.92,0-3.11-7.16-19.51-22.98-21.54-7.45-.95-14.79,1.96-20.32,7.04-12.19,11.17-11.57,26.64-11.62,27.85h0c-.17,5.52-.18,11.33,3.13,16.06h0c.89.25,2.01.34,1.55,1.73-.58,1.39-2.19-1.49-5.41.71-1.33.9-2.27,2.3-2.74,3.85-.38,1.21-.83,2.45-1.96,3.54-.89-2.68.25-5.3,1.3-6.61.84-1.04,3.68-3.22,4.06-3.54h0c-.08-2.76-2.35-16.65-1.36-21.93,5.17-27.87,26.56-30.7,26.56-30.7,9.5-1.5,20.14,3.99,24.55,8.78,1.47,1.59,3.39,5.96,5.4,6.76,1.23.49,11.22-1.79,15.08-.49,9,3.02,9.21,11.33,9.21,11.33,1.76-8.66.49-36.62.49-36.62l-.4-4.71c-3.2.51-8.29,2.71-6.88-5.35h0c.18-1.93,1.43-3.69,1-5.73,0,0-21.18-13.26-22.07-16.17-5.12-7.28-5.78-18.55-2.36-26.7h0c6.15-12.66,15.94-17.98,23.3-17.99,15.56,0,27.24,14.3,27.02,23.74-.46,20.77-12.31,34.04-12.31,34.04-.4,2.05.21,3.85,1.36,5.5h0s1.36,3.39,1.32,4.22h0c-.21,1.92-8.69,4.26-8.71,4.29,0,0,.2,38.76,1.03,40.56,23.59-2.5,26.87,10.25,26.84,11.53,2.61,7.17-2.64,16.62-3.8,17.4,7.34.2,11.27,7.23,11.33,10.64,12.08-6.59,12.77-3.22,21.44-1.43,0,0,13.11,4.43,19.59,18.95,7.85,16.51-12.63,32.99-12.31,33.72l.54,1.5,7.34,7.62v.05ZM936.77,872.87c10.96-2.12,19.17-29.2,14.41-39.09-4.49-9.35-18.29-20.39-34.01-11.39-6.64,3.8-15.28,15.77-11.39,31.36,2.42,9.67,21.18,21,30.98,19.11h.02ZM937.12,885.33c1.03.09,2.87-.89,4.08-1.49-.08-.4.09-.87.64-1.38,0-.6-1.96-6.5-1.98-7.08-1.41-1.43-8.35,1.03-8.45,1.52,0,0-1.07,7.42-1.07,8.41,0,0,5.53-.31,6.76.02h.02ZM953.66,1037.36c-.09-.11-.41-.02-.29.12,5.47,6.36,11.17,13.34,10.51,21.8-.21.41-.43.83-.67,1.21-.15.26.29.34.43.18.02-.03.05-.05.06-.08-.12.8-.28,1.59-.52,2.42-.08.25.41.31.49.09.43-1.2.69-2.36.83-3.49,4.63-6.35,4.64-18.21-3.53-21.38-.03,0-.09.02-.05.05,6.22,3.76,6.28,12.83,3.71,19.31-.05-7.73-5.82-14.42-10.97-20.23h0ZM961.29,1069.07c1.59-7.33-.83-10.05-5.38-15.14-3.2-3.74-1.07,1.69,2.56,5.26,3.57,3.51.89,18.72,2.82,9.9v-.02ZM373.83,960.02h-.02.02ZM574.21,1124.07c-4.55-2.44-8.74-7.57-7.4-13.04.05-.17-.28-.21-.32-.06-1.55,5.36,2.31,11.68,7.48,13.41.23.08.55-.15.26-.31h-.02ZM578.71,1092.36c1.01.78,1.81,3.49,2.68,4.61.6.77,1.2,1.43,1.9,2.1,2.04,1.92,4.41,3.28,7.14,3.88.37.08.49-.43.15-.55-5.5-2.12-9.44-6.09-11.6-11.56-.11-.26-.32-.35-.58-.23-1.3.6-2.27,1.46-3.31,2.45-.93.89-3.48,4.34-4.83,4.35-1.84.02-3.19-2.08-3.39-3.46-.15-1.09.26-2.3.48-3.39.08-.4,1.18-5.52,1.98-3.94.06.11.21,0,.17-.09-.15-.31-.31-.61-.46-.93-.03-.06-.09-.06-.15-.05-1.93.84-2.44,6.91-2.47,8.86-.03,2.05.48,4.2,2.97,3.89,1.64-.2,3.11-1.82,4.25-2.88.78-.74,1.52-1.52,2.31-2.22,1.56-1.38,1.49-1.81,2.74-.83l.02-.02ZM569.89,1131.81c.17.03.4-.18.17-.28-1.9-.8-3.8-2.25-5.09-3.85-1.3-1.61-1.46-3.39-2.38-5.12-.03-.06-.12-.06-.17,0-.98,1.81.61,4.31,1.73,5.73,1.5,1.92,3.34,3.08,5.73,3.53v-.02ZM555.12,1026.31c2.8-2.51,6.36-.31,9.4.52.18.05.37-.15.17-.28-2.74-1.49-7.16-2.85-9.69-.31-.06.06.08.12.14.08l-.02-.02ZM590.61,1094.63c-.4-.71-.87-1.33-1.43-1.89.48.63.97,1.23,1.43,1.89ZM592.51,1099.53c-.2-1.33-.6-2.61-1.21-3.8-.2-.4-.44-.77-.69-1.12.89,1.55,1.44,3.37,1.61,4.95.02.2.31.17.28-.03h.02ZM588.59,1092.19c.21.17.4.35.6.55-.15-.21-.32-.41-.48-.64-.06-.09-.2.03-.12.09ZM369.9,1047.78v-.03s-.03-.06-.05-.09l.05.12ZM362.7,1016.13h0ZM390.21,1075.8c-20.49-6.12-10.99-34.04-10.48-35.24.78-1.85,2.13-3.66,2.13-3.66-6.93.41-10.47,13.84-11.94,10.85.17-.69,4.4-18.62,4.4-18.62h0c.08-.87,9.66-9.23,8.26-13-.03-.09-18.55-3.66-18.59-3.74-5.75-7.6,5.15-14.39,8.38-14.78.35-.05.6-.34.58-.69-.44-9.04-5.79-117.96-6.1-121.3v-.03c0-.46-.46-13.78-.46-13.78,0,0-3.17.43-4.26-.4-5.43-4.03,3.08-11.62-1.39-12.34-31.67-5.12-41.78-31.56-43.84-37.98-19.17-59.95,35.15-69.22,35.15-69.22,20.89-6.73,56.54,7.54,57.46,64.42.41,25.72-35.22,40.07-40.53,42.37-.38.17-.52.63-.31.98,1.2,1.81,2.79,6.5-1.39,12.72-.09.14,6.19,125.56,6.88,134.93.02.28,1.73.51,2.01.58,2.56.75,6.93,2.31,8.74,2.99.43.15.87-.12.9-.58.14-1.62.35-5.18.52-8.15.08-1.46,1.99-1.93,2.74-.67l2.76,4.2c.69,1.06,2.22,1.12,3,.14.77-.98,3.46-3.95,4.45-3.83,2.76.32-3.28,7.07-3.89,7.79-1.23,1.41-3.49,1.12-4.32-.57l-2.18-4.38s1.03,3.74,1.18,7.86c-.21,3.31-11.14-1.16-11.2-1.18-1.73-.31-14.58-3.25-14.33,8.45,0,0,2.73-.31,3.63-.12,24.91,5.49,18.62,6.88,16.14,11.82-3.45,5.79-9.49,6.53-9.33,14.55.02,1.09.31,2.21,1.09,1.46,2.07-2.01,13.84-10.07,9-1.3-15.6,28.33,3.53,36.65,3.53,36.65,1.2.58,1.66,1.59,1.67,2.85l-.05-.02ZM374.9,840.74c18.76-8.94,41.74-26.85,29.64-59.72-19.59-53.23-63.7-37.11-79.04-20.25-18.91,20.78-8.35,42.46-2.3,56.62,2.22,5.2,5.63,9.84,9.99,13.63,19.21,16.63,31.99,14.35,41.72,9.72h-.02ZM368.28,854.36c-.86-1.52-1.53-2.79-1.89-3.48-.17-.32-.55-.46-.89-.32l-1.99.81c-.29.12-.48.41-.43.72.11.89.23,2.73-.28,3.97-.41,1.03-.06,2.21.9,2.76.02,0,.05.03.06.05,2.88,1.66,6.13-1.61,4.49-4.51h.02ZM868.9,1058.07c6.94.12,9.69,5.38,9.93,2.88.11-1.15,1.13-2.01,2.28-2.05,2.25-.11,3.74-.23,5.18,2.04,2.68,4.23-6.79,17.14-10.45,25.7-.92,1.52-1.85,3.05-2.77,4.58-10.9-22.46-9.44-12.98-1.46,2.9,0,6.3-5.01,12.89-3.74,18.64,6.36-17.5,14.5-37.37,22.09-53.68,6.32-.08,12.68-1.53,19.16-.14,4.32.93,8.37,1.33,12.63,1.26h0c1,0,2.01-.03,3.02-.05h0c6.09-.41,5.9,3.07,9.52,6.09h0c3.66,3.53,8.48,6.84,9.27-1.52,1.53-7.68-5.66-13.04-3.54-8.94,1.43,2.16,3.76,11.48.03,12.49-4.72.55-8.29-7.92-8.29-7.92-2.01-2.36-4.77-1.29-7.23-1.58-.31-.34-16.75-.67-19.7-.72-12.42-.84-23.1-3-35.9.03l-.03-.02ZM893.56,1029.16c2.33-2.56.35-8.64-.58-9.93-2.71-3.74-9.76-7.85-11.3-9.7,1.39-1.39,3.74,1.07,5.33,2.24.4.29,8.22,6.07,9.14,12.14,5.73-1.5,10.61,2.42,10.96,2.8,2.02,3.03,1.78,6.65,1.5,7.23-1.9,3.13-12.17,3.08-15.63,2.13-2.13-.58-3.57-2.54-3.46-4-.63.18-1.21.34-1.66.4-6.09.93-14.7,1.5-19.22-3.2-.86-.03-4.61-8-.25-2.7,4.75,5.75,21.12,7.04,25.15,2.61l.02-.02ZM899.43,1035.29c2.12-.12,8.72-.8,7.51-4.97-.52-1.76-1.79-3.46-3.26-4-3.1-1.66-5.75-1.64-7.42-1.12-.03,1.9-.83,3.79-2.84,5.5h0s-1.04.66-1.29.74c-2.05.67,1.07,4.2,7.3,3.85h0ZM896.78,1007.98c1.81,1.38,9.37-2.33,10.09-2.56,0,0,8.51-1.9,8.48-3.13-.49-1.67-2.87-.38-4.09-.37h0c-1.64.48-10.35,4.45-10.35,4.45-8.61,1.92,1.23-18.55,15.65-10.04.83-1.13-2.04-2.22-2.59-2.28,0,0-9.66-4.2-15.88,5.96.49.17-3.08,5.61-1.29,7.96l-.02.02ZM876.87,964.62h0c-.14,1.72.74-.92,3.85,2.99,4.14,7.96,2.27.05.67-1.58-2.04-2.1-3.16-3.31-4.52-1.41ZM873.57,1054.01c1.35-4.48,1.09-9.06-.9-13.3-.06-.14-.4-.09-.32.06,1.85,4.34,1.62,8.61.75,13.15-.05.26.41.32.49.09h-.02ZM868.58,1052.31c.41-4.18-1.59-7.74-4.31-10.76-.03-.03-.11,0-.08.03,2.64,3.11,4.37,6.58,3.95,10.73-.02.2.4.2.41,0h.02ZM818.99,1090.43c9.66-13.52,3.36-30.98-6.68-42.3-.09-.11-.41-.02-.29.12,10.38,11.97,14.81,27.73,6.51,42.04-.12.21.35.29.46.14h0ZM811.1,1088.25c1.26,1.32,2.68,2.1,4.55,1.35,1.58-1.41-1.81-1.29-2.67-1.46-21.81-16.89-6.76,3.97-5.06,17.49.2,1.59-.34,3.14-1.21,4.49-1.29,1.93,1.79,2.18,2.97-1.35,2.36-6.53-11.73-25.2,1.43-20.51l-.02-.02ZM844.25,1101.02c-3.8,4.29-1.89,11.31,3.33,13.44.18.08.54-.09.31-.29-3.79-3.07-6.56-8.58-3.34-13.04.11-.15-.2-.23-.29-.12v.02ZM848.79,943.05h0c-1.39.29-2.7,3.51-3.05,3.6-.51-.92-5.13-3.79-8.49-.08-.74.83-.8,2.8-1.09,2.99,0,0-5.96-6.58-10.12.34h0c-.64,1.18-4.63,7.19-2.85,8.38,3.33-1.09,1.78-6.18,4.94-8.14,3.85-2.41,5.38-.32,5.9.21,3.33,4.03,3.6,2.8,4.08.06.35-1.99,2.45-3.25,4.32-2.48,2.8,1.15,3.4,3.02,6.51-3.68.05-.92,1.76-1.59-.15-1.21h0ZM826.42,1079.68c5.03-6.41,2.84-15.62-.18-22.42,0-.03-.09-.03-.08.02,2.53,7.02,3.65,15.53-.2,22.27-.12.21.35.28.46.14h0ZM871.29,1009.13c-.48.26-5.07,6.07-5.89,7.6,0,0-.15-1.92-1.01-1.73,0,0-4.45,1.96-4.72,2.82-1.72,1.2-7.82-2.9-5.87-.05h0c2.54,2.01,5.1,1.89,7.66.08h0c3.59-2.12,2.33.11,3,.38,1.98.78.95.26,2.74-1.99,2.96-6.18,6.18-6.42,6.18-6.42,5.9-1.23,2.61-3.2-2.1-.67v-.02ZM927.45,995.59h0c-1.85.84-3.91,1.62-5.09,3.39-1.61,1.69,3.95-2.47,7.37.48,0,0,12.77,8.78,12.26,21.81-.06,1.61-2.08,2.28-3.16,1.09-4.23-4.77-12.15-13.38-12.71-13.53h0c-1.46-1.67-5.64-2.19-2.96.52,1.61.87,7.63,2.84,16.31,18.58.35.64.86,1.07,1.44,1.33,2.38,1.06,5.09-.81,5.23-3.4,1.23-22.52-16.68-29.71-17.52-29.74-.61-.95,31.18-37.28,24.19-49.02-1.21-2.02-17.98,4.23-25.55,17.32-3.65,6.64-5.06,14.9-3.99,22.36.03,1.58,1.18,1.24.98,0h0c1.06-4.75,2.05-16.48,4.8-21.17,3.45-5.9,23.25-21.11,23.39-14.18-1.15,3.05-15.83,25.08-15.83,25.08-1.32,2.67-9.14,19.11-9.14,19.11l-.03-.03ZM882.11,986.83c-.43.35-.55.8-.4,1.32l.11.05v.03s-.08-.06-.11-.08c-3.99,3.34-.23,13.87,4.97,8.89.75-.17,1.53.06,2.28.11.14.48.12.93-.05,1.39h0c-1.04.74-1.3,1.75-1.1,2.94h0c-.15.97-.29,1.93-.43,2.9-.97.57-1.53,1.39-.49,2.19,2.28.34,2.19-3.48,2.28-5.07h.09v-.11c2.47-1.43,1.06-5,1.44-7.34.03-.06.05-.12.08-.17h0c-.48.61-1.2,1.06-2.01,1.35.03.4-.21.83-.74.81-.84-.02-1.67-.26-2.51-.2-.69.05-1.23.57-1.85.8-1,.38-2.15.05-2.61-.97-.4-.86-.26-1.87-.08-2.77.2-.93.52-1.84,1.03-2.65.58-.97,1.38-1.92,2.42-2.42s2.21-.46,3.3-.12c1.98.6,3.88,2.3,3.68,4.54,0,.08-.03.14-.05.21.09.05.18.12.28.17.37-.35.57-.81.52-1.43v-.03c.81-.23,1.29-.74,1.26-1.59.34-.41.4-.86.2-1.35,3.13-3.28,1.98-8.4.03-11.74-.89-3.56-4.25-2.84-1.58-.02.12,1.15.23,2.33,1.43,2.97h0c-.11,2.97.29,6.04-1.33,8.78h0c-4.15,1.13-6.1-6.44-10.02-1.39h-.03ZM916,933.23c-2.51-.69-4.34.92-4.34.92,0,0-1.99,1.49-.74,2.38,1.59.23.89-2.99,5.53-.98,1.99.86,1.18,4.02,1.18,4.02.83.83,1.21-.95,1.2-1.43-.08-1.52.66-3.97-2.84-4.92v.02ZM401.71,613.18c-22.33-71.35-16.43-150.76,8.23-220.66.15-.23.26-.48.32-.74-.06.11-.12.21-.18.32,36.27-102.4,117.3-187.01,226.34-206.45,31.53-5.81,72.44-7.94,104.09,1.73,17.69,1.61,33.17,7.71,48.54,14.32,63.43,25.52,115.86,75.58,148.68,135.28,6.53,11.51,13.09,24.2,17.7,36.74,13.89,32.05,22.26,65.16,25.01,99.98,3.13,18.87,3.53,40.22,1.24,59.75-.11,16.31-1.82,32.07-5.92,46.83-2.74,20.34-24.65,84.81-24.65,84.81,35.25,25.84,32.03,90.94-17.96,114.54,0,0-15.83,46.98-65.54,42.3-7.83-.74,3.28,14.07-10.44,11.74-11.25-1.9-9.96-10.25-1.79-14.44,83.93,11.43,81.04-77.53,57.74-89.87-17.52,28.16-129.64,88.03-74.94,54.86,116.55-70.68,124.14-164.91,124.63-166.38.09.08.14-.08.02-.06,60.28-178.03-47.82-402.11-243.37-427.21-33.05-3.23-60.67-.52-93.32,6.82-80.13,21.46-147.74,69.96-187.26,139.37-.15-.14-.34-.26-.4-.08.12.05.25.11.37.15-36.46,64.09-52.79,141.05-43.76,216.93,2.1,15.36,3.3,30.24,8.48,43.12,61.8,153.72,131.54,192.24,150.01,209.13,3.43,3.14-49.19-34.32-49.66-35.45-9.81-7.63-20.13-17.69-27.87-27.74-6.02-5.89-12.05-13.09-17.7-20.91-2.08,2.19-5.58,4.98-5.18,6.18,3.11,2.62,17.01,17.09,10.47,18.68,0,0-5.93,2.36-5.44,7.66l19.37,141.58c.29,1.58.78,3.34,1.29,4.77,5.3-2.82,14.07-2.62,18.41.21,4.8,3.14,14.94,23.9,13,24.85-2.31-.78-9.04-18.78-12.49-21.44h0c-3.07-3.3-8.38-4.49-13.26-3.69-4.55.75-8.32,3.89-9.67,8.31-.37,1.2-.6,2.5-.75,4.09-1.7,2.91-.28-6.53,1.24-9.17.6-1.03,1.49-1.89,2.56-2.61-2.28-9.81-21.89-148.49-21.89-148.49-1.04-2.19-7.71,3.69-8.52,2.39-3.43-5.59.81-25.61-5.79-25.8-19.1-.55-54.26-1.89-61.89-55.52-10.55-34.82,16.51-54.72,21.9-60.76h0ZM860.21,822.68c-1.36-1.29-3.85-1.26-5.12.12-4.28,4.6-5.86,5.76,2.02,9.38.95.44,2.07.61,3.07.28,3.6-1.2,3.45-6.53.03-9.78h0ZM949.78,671.77c-3.59,10.96-32.46,52.47-32.46,52.47,26.56,37.94,5.49,62.41,20.28,49.42,36.63-23.22,47.01-75.37,14.47-102.54-.8-.66-1.96-.31-2.28.67v-.02ZM450.59,732.43c-6.97,1.39-.15,20.48,1.89,19.08,2.84-1.93,8.02-3.6,8.6-5.66,1.38-4.83-6.18-14.99-10.48-13.43ZM456.29,719.07c-9.9-14.19-18.47-30.1-23.48-43.87,0,0-25.72-56.24-25.72-56.25-58.14,25.31-12,134.47,49.19,100.12h.02ZM856.54,1057.92c1.56.52,2.79,4.58,3.36,6.05.81,2.16,1.44,4.41,2.19,6.61.09.28.55.29.75.14,6.1-4.38,8.57-13.69,1.58-18.53-.14-.09-.58,0-.4.21,2.19,2.33,3.8,4.95,3.66,8.26-.11,2.61-1.35,6.9-3.82,8.22-1.76.93-1.47-.12-2.1-2.01-.41-1.23-.81-2.45-1.3-3.65-1.03-2.48-2.27-4.57-4.17-6.47-.14-.14-.4-.18-.55-.05-1.32,1.16-10.41,8.28-11.17,7.07-.37-.58,2.02-5.53,2.28-6.45.77-2.73,1.33-5.49,1.87-8.26.03-.17-.29-.21-.32-.06-1.12,5.56-2.54,10.94-5,16.08-.12.25.32.26.44.18,2.15-1.26,4.32-2.45,6.42-3.77,1.32-.83,4.61-4.12,6.3-3.56l-.03-.02ZM832.89,1000.08c.66-1.58,1.5-3.14,2.7-4.37,7.05-7.28,18.22-.87,24.74,3.82.18.14.61-.08.35-.26-5.4-3.89-12.61-8.35-19.62-6.99-6.9,1.35-9.37,8.02-10.36,14.24-.05.25.51.28.57.06,2.64-10.42,22.56-8.29,30.3-5.96.77,2.15,1.61,4.23,2.48,6.25.06.14.4.09.32-.06-4.55-10.73-9.46-26.23.02-35.71.11-.11-.05-.25-.15-.26-4.8-.69-10.42-.87-12.17,4.17-1.93,5.56-2.47,10.35,2.16,14.53.06.05.2,0,.12-.09-3.86-3.57-4.63-8.95-2.28-13.46.55-2.65,2.38-4.25,5.49-4.81,5.07-.58,6.44.2,4.06,2.36-.57,2.73-2.56,5.18-2.91,8.23-.75,6.28.71,12.75,2.85,18.81-7.88-2.47-19.71-3.43-27.02.98-1.43.86-2.02,2.22-3.2,3.13-.71,1.69-.51,1.15.61-1.61.25-1.01.57-2.01.97-2.97l-.02-.02ZM898.8,949.93c-1.84-.03-5.58,4.09-4.46,6.12,1.04,1.27,10.82,11.73,10.82,11.73,2.94,3.79,4.64,1.98,1.81-.12-1.58-1.56-5.49-6.27-8.69-9.55-1.64-1.69-1.61-4.51.26-5.92.21-.17.43-.28.63-.32,2.44-.55,4.97.38,6.79,2.08,9.76,9.15,11.13,21.69,11.42,25.38h0c.48,2.56.66,5.21,2.41,7.39.31-2.56-3.25-16.98-4.46-21.86-.51-1.67-3.68-14.7-16.54-14.91l.02-.02ZM849.97,1099.33c-1.41,1.84-1.3,4.95,0,6.79.09.14.49.12.48-.09-.12-1.12-.48-2.19-.54-3.33-.06-1.12.17-2.18.54-3.23.08-.25-.35-.29-.46-.14h-.02ZM931.4,1091.25c1.38-1.39,1.33-3.31.93-5.12-.06-.26-.69-.23-.66.06.15,1.67-.2,3.33-.74,4.9-.09.26.34.26.46.14v.02ZM935.9,1088.68c.15,2.64-.38,5.07-1.64,7.39-.12.21.37.31.49.09,1.27-2.35,1.82-4.81,1.66-7.5,0-.25-.52-.25-.51,0v.02ZM802.58,969.71c2.1.97,2.42-6.65-1.18-13.75-4.35-9.24,1.38,5.41.46,9.55.12,1.41-.83,3.4.74,4.2h-.02ZM713.66,833.09c-10.12,3.22-25.35,5.64-33.97,5.84-14.91.35-23.18-.49-30.9-1.66-1.06-.15-15.45-2.77-3.95.66h0c1.66.43,20.94,2.3,28.92,3,1.26.11,1.84,1.59,1.04,2.58-14.01,16.95,29.12,25.51,20.46,5.03,0,0-2.27-3.88-4.23-2.24,1.9,2.96,5.81,7.11-.58,11.62h0c-9.79,3.86-19.86-5.89-11.5-12.94.55-.46,1.26-.35,1.92-.09,8.22,3.25,8.51-2.42,8.02-3.4-.77,1-1.33,3.79-5.47,2.42-1.75-.58-1.62-3,.21-3.1,7.1-.37,23.57-1.81,30.35-7.42.25-.2-.14-.34-.31-.29l-.02-.02ZM699.94,1010.97c-.25-2.18-1.62-3.8-3.31-5.1-.21-.17-.69.06-.41.29,1.49,1.32,2.48,3.07,3.31,4.84.06.14.43.15.41-.05v.02ZM713.18,959.02c.14.08.58,0,.4-.21-5.13-6.41-13.29-6.42-19.62-2.21.84-2.36,1.76-4.64,3.79-6.32.12-.11-.09-.2-.18-.12-2.71,1.9-3.92,4.84-5.3,7.77-.25.54.72.61,1,.41,6.71-4.61,13.3-3.25,19.93.69v-.02ZM642.4,1015.81c-.25.31.38.46.58.25,1.66-1.85,3.83-2.7,6.04-3.68.23-.11.09-.35-.12-.34-2.53.2-4.94,1.82-6.48,3.79l-.02-.02ZM687.83,954.44s1.59-3.74-.12-2.39c-.69.69-2.07,4.54-2.25,4.9,1.92,1.33,2.31-1.04,2.38-2.5v-.02ZM650.6,954.68c-.11-.05-.28.09-.12.15,4.23,1.92,6.28,6.41,8.98,9.92.09.12.46.08.38-.12-1.61-4.05-5.09-8.34-9.23-9.96l-.02.02ZM696.61,1013.13c.11.12.58.08.46-.14-2.97-5.15-9.35-6.88-14.68-4.57-.14.06-.05.2.08.2.8-.02,1.58-.03,2.38-.06.11,0,.11-.12,0-.12-1.09,0-3.05,0,.11-.57,1.78-.32,3.6-.17,5.3.44,2.61.93,4.52,2.82,6.35,4.83l.02-.02ZM716.3,1058.93c.17,0,.51-.18.31-.38-1.69-1.73-3.59-2.94-5.56-3.59,1.06.44,2.1,1.12,3.1,2.08,1.69,1.64.35,1.29-1.27,1.49-1.13.14-2.25.37-3.34.69-2.31.67-4.49,1.78-6.42,3.2-4.02,2.99-6.71,7.31-7.63,12.2-3.59-7.16,2.73-18.06,10.15-20-1.9.38-3.79,1.27-5.55,2.74-4.92,4.09-7.97,11.57-4.66,17.5,0,.06-.03.11-.03.17-.03.18.37.2.41.05,2.45-9.76,10.24-16.32,20.49-16.16h.02ZM521.62,1086.13c-.17,1.58.43,4.63,1.56,3.53.83.03,5.44-8.49,21.01-7.71-.35-.78-1.38-1.49-1.92-1.82-.2-.12-.41-.2-.66-.25-1.89-.34-4.89-.87-9.81,1.53-1.15.57-8.26,6.91-8.6,6.94h0c-4.75-1.55,8.57-13.7,8.69-14.24-.35-.74-9.72,6.54-10.3,12l.02.02ZM711.04,1054.96c-1.79-.75-3.63-.8-5.41-.34,1.82-.37,3.65-.25,5.41.34ZM690.7,1091.18c-1.73,2.9-19.53,7.34-13.18.11,3.88-9.06-5.06,3.16-6.01,5.84,4.14,3.4,9.12.4,13.23-1.36,11.91.44,8.87-15.6,5.96-4.6v.02ZM696.51,1095.52c2.05-3.57-2.07-3.49-2.04.05-2.67,2.8,1.67,3.54,2.04-.05ZM662.13,1069.87c7.36-16.43,21.55-3.53,27.24,7.77.86,2.16-.34.78-1.13-.63-6.9-6.68-16.42-11.65-25.44-6.77-.21.12-.81-.03-.66-.37h0ZM663.8,1068.6c.31.35,1.72-.4,2.47-.6,7.8-2.07,15.39,2.05,21.12,7.6-2.22-3.63-4.94-7.04-8.08-9.66-3.16-2.62-7.2-4.92-11.28-2.65-.87.49-5.15,4.26-4.23,5.3h0ZM795.45,965.97c2.41-4.57-.34-8.26-4.06-10.87-.2-.14-.63-.11-.64.2-.15,2.28-.05,4.57,0,6.85-2.56-6.44-8.43-16.72-14.41-11.42-.15.14-.25.35-.09.52,3.53,4,6.56,8.51,8.61,13.44,0,.03.09.03.08-.02-1.09-3.85-2.76-7.27-5.06-10.51-.98-1.39-3.53-3.57-.51-3.8,1.79-.14,3.22,1.15,4.38,2.39,3.26,3.48,5.61,8.32,7,12.86.14.46,1.13.4,1.13-.11,0-.95-.93-9.17-.17-9.41.83-.26,3.08,3.11,3.37,3.79.89,2.05.31,3.92-.11,5.99-.05.26.38.29.49.09h-.03ZM850.81,811.85c-4.41-3.16-10.61-7.51-13.07-13.5-6.67,1.87,13.2,17.23,13.07,13.5ZM695.17,1104.53c.77.23,6.82-6.56,6.24-7.05-.09.21-.41.64-.67,1.03-.66,0-1.56.66-1.92,1.35-.78.17-5.52,4.94-5.49,5.81-11.62,7.94,7.92,22.88,5.21,31.25-.81,2.48-8.94,6.81-13.11,8.17,2.16.69,6.94-1.66,8.12-2.42,21.04-13.35-11.77-27.85,1.61-38.17v.03ZM875.7,829.43c-2.04-1.98-25.95,66.31-25.95,66.31-.51,2.7-12.31,33.26-9.99,21.87.23-9.38,15.66-78.54,14.91-79.96-1.06.54-2.04.97-2.04,2.33h0c-1.5,8.75-15.51,81.9-16.68,86.2h0l-2.3,17.57s42.95-113.65,42.06-114.33l-.02.02ZM662.37,958.67c2.77-.12,13.27,3.69,8.97-3.6-.58-1-2.84-4.84-2.79-5.33.58-.02,7.51,6.44,8.97,6.3,2.85-.29,6.56-5.24,9.61-11.36-.08-1.29-1.59-.29-2.99,1.06.38-10.88.9-58,.55-80.04-.15-.93.55-2.58-1.06-2.54-1.36.43-.46,4.51-.46,4.51.78,20.06-.48,64.1.64,78.4-1.07,1.07-2.01,2.28-2.08,2.71-.2,1-5.98,4.55-6.81,3.97-2.65-1.85-6.62-5.93-7.83-5.63h0c-1.75-.12.74,5.61,1.33,8.68.17.84-.48,1.62-1.35,1.66-2.87.09-5.96-.34-8.51.66.9,1.44,2.44.63,3.82.6l-.02-.03ZM819.88,947.16c-5.01,2.45-5.38,10.7-3.05,15.1.12.23.69.17.57-.11-2.22-5.32.4-10.18,2.85-14.78.11-.18-.26-.26-.37-.2v-.02ZM544.21,1071.45c-.58-1.67-8.06-1.44-7.73.11.2.89.11-.17,2.64-.51,1.99-.48,4.83.57,5.09.4h0ZM810.99,957.21h0c.14-.89.26-1.76.4-2.65,0,0,1.62-7.74.48-5.87-1.26,2.1-1.9,4.6-2.27,7.02h0c.28,8.83,1.39,1.5,1.39,1.5ZM645.73,1126.06c.74,2.21,3.6,7.45,8.08,12.2,2.04,2.16,7.8,9.38,8.86,10.28,5.78,4.95,19.31-.32,16.08-1.81-2.27-.06-3.6,2.04-5.95,2.28h0c-4.72,2.16-12.28-3.86-12.28-3.86,0,0-5.47-4.41-9.93-12.68-3.99-7.4-5.49-8.55-4.95-6.68-8.54.9-6.27,9.21-4.4,15.51.78,2.67,2.12,5.59,2.22,8.38.17,3.86-2.16,6.81-3.92,10.1-1.46,2.71-2.58,5.29-3.23,8.28-.48,2.16-2.01,16.31-9.12,8.28-2.94-3.31-1.47-11.59-1.95-15.77-.48-4.17-2.1-7.76-5.12-10.76-5.26-5.24-13.14-7.22-17.76-13.21-6.33-8.2-3.51-20.2-3.37-29.72,0-.12-.25-.12-.25,0-.17,8.45-2.41,18.16,1.12,26.23,2.73,6.27,8.8,9.26,14.29,12.74,7.99,5.04,10.38,10.85,10.87,19.77.2,3.51-.03,9.95,2.88,12.61,7.4,6.76,9.1-12.34,10.47-15.37,2.48-5.52,6.35-9.29,5-15.51-1.3-6.01-8.78-20.19,2.36-21.26l.02-.03ZM607.12,1094.49s.09-.02.05-.05c-.41-.23-.8-.51-1.15-.81-.06-.05-.17-.05-.21.02-.12.17-.25.32-.37.49-.03.05-.03.09,0,.12,3.72,4.97,10.45,15.24,18.3,12.66,3.34-1.1,5.13-5.06,8.14-6.65,2.3-1.21.49-1.47,3.99-.9,3.22.51,5,2.96,6.54,5.66,1.82,3.17,2.5,6.77,3.42,10.28.17.63,1.27.77,1.75.51,7.4-4.11,10.59-20.59,1.89-24.85-.2-.11-.64.06-.46.34,3.85,5.76,4.41,17.04-1.29,22.04-1.75-6.27-5.64-18.09-13.58-16.46-3.02.61-4.75,4.22-7.22,5.69-2.18,1.3-7.02,3.14-9.72,2.28-2.47-.78-5.04-3.68-6.84-5.56-.25-.26-5.56-5.95-3.23-4.77v-.03Z" style="fill: #010202; stroke-width: 0px;"/>
</svg>