<?xml version="1.0" encoding="UTF-8" standalone="no"?>
<svg
   id="Isla"
   viewBox="0 0 701.68082 1044.032"
   version="1.1"
   width="701.68085"
   height="1044.032"
   xmlns="http://www.w3.org/2000/svg"
   xmlns:svg="http://www.w3.org/2000/svg">
  <defs
     id="defs1" />
  <path
     id="Isla-2"
     data-name="Isla"
     d="m 82.987284,857.10097 c -1.72,-0.61 -1.1,-3.56 -0.11,-4.81 1.52,0.83 1.13,3.88 0.11,4.81 z m 9.41,-46.52 c 2.16,1.04 3.11,-3.02 1.47,-4.49 -0.44,-0.05 -11.24,-3.13 -9.69,-1.32 0.63,0.61 7.34,5.4 8.22,5.81 z m 6.03,-82.57 c 7.019996,-1.81 12.859996,0.87 16.649996,2.74 7.82,3.88 7.27,3.11 2.9,-0.38 -0.83,-0.66 -10.79,-5.26 -10.79,-5.26 -3.49,-2.16 -30.359996,-4.46 -22.789996,31.93 4.45,21.4 17.899996,26.41 19.269996,29.44 0.86,1.9 -1.55,4.63 -3.889996,6.7 -2.41,2.13 -3.57,5.33 -3.22,8.52 0.21,2.01 0.48,4.17 0.72,5.86 2.36,-5.98 1.32,-10.12 5.469996,-14.75 5.27,-4 13.7,-6.74 4.86,-8.61 -2.53,-0.54 -4.84,-1.79 -6.67,-3.6 -7.539996,-7.43 -31.309996,-45.2 -2.479996,-52.6 l -0.02,0.02 z m 54.559996,118.23 c -3.02,-0.86 -15.34,-2.79 -18.16,-14.07 -2.18,-12.65 -2.9,-5.93 -0.87,0.34 v 0 c 0.51,1.64 4.86,15.13 19.04,13.73 v 0 z m 58.85,-106.22 c 0.14,0.75 1.33,1.07 1.53,0.32 2.71,-10.12 19.11,-16.2 27.13,-10.58 10.51,8.2 7.13,11.66 8.95,12.43 0.05,-0.64 0.05,-1.21 0,-1.72 1.99,8.78 -0.05,17.29 -5.35,24.8 -0.17,0.25 0.29,0.32 0.43,0.18 7.91,-7.45 8.43,-18.13 4.49,-27.82 -0.02,-0.05 -0.08,-0.08 -0.14,-0.08 -0.08,-0.28 -0.17,-0.55 -0.26,-0.84 0,0 -4.66,-15.79 -22.76,-9 -1.18,0.95 -6.93,2.35 -9.87,5.29 -2.31,2.35 -2.53,3.77 -5.55,1.93 -4.2,-2.56 -6.22,-1.7 -7.86,-0.67 -2.12,1.33 -3.36,4.98 -2.67,6.81 0.75,2.01 1.49,-0.86 1.38,-1.81 0.71,-4.03 3.71,-4.51 6.24,-3.94 2.05,0.46 4.05,3.48 4.28,4.67 l 0.03,0.02 z m 49.43,21.72 c -1.27,5.29 -10.22,16.57 -14.35,7.74 -0.05,-0.11 -0.29,-0.08 -0.25,0.05 3.6,9.07 12.65,-0.23 15.11,-6.16 1.41,4.45 -0.64,7.28 -4.02,10.61 -0.15,0.15 0.18,0.25 0.29,0.2 5.17,-2.19 6.41,-7.62 4.22,-12.43 -0.15,-0.32 -0.92,-0.43 -1.03,0 h 0.02 z m -29.37,156.39 c 0.75,-0.83 7.36,-5.64 9.27,-7.3 l 0.87,-0.83 c -0.75,-0.66 -6.79,3.89 -7.05,3.94 v 0 c -0.97,0.69 -1.93,1.38 -2.9,2.07 -0.32,-3.3 0.41,-6.73 -1.26,-9.87 -0.48,2.58 -0.71,11.94 1.07,11.99 h -0.02 z m -95.46,-191.18 c -0.67,0.46 -1.99,1.29 -2.1,2.51 0.29,-0.31 2.77,-1.41 3.2,-1.61 4.08,-1.84 6.71,1.78 7.36,0.2 0.61,-1.38 -0.51,-2.21 1.79,-6.45 0.55,-1.01 1.38,-1.9 2.45,-2.31 4.18,-1.64 8.54,3.26 9.17,2.31 -0.29,-0.31 -0.63,-0.71 -0.87,-0.9 -2.02,-1.62 -7.54,-4.63 -10.22,-3.3 -0.11,0.08 -0.26,0.17 -0.52,0.34 -2.48,1.66 -3.88,6.81 -3.66,8.46 -0.74,0.23 -3.53,-1.36 -6.61,0.74 l 0.02,0.02 z m 2.74,152.13 c 3.71,-6.51 5.81,-13.37 13.98,-15.11 0.34,-0.08 0.21,-0.52 -0.08,-0.57 -6.62,-0.83 -10.05,5.93 -12.49,10.97 -0.81,1.69 -1.18,4.49 -2.51,1.98 -1.3,-2.47 -0.61,-6.48 0.09,-8.95 1.44,-5.07 4.74,-9.63 8.78,-12.95 0.09,-0.08 -0.05,-0.21 -0.14,-0.14 -7.14,5.58 -12.98,15.93 -8.35,24.75 0.15,0.28 0.57,0.26 0.72,0 z m -27.78,-17.51 c -4.37,1.96 -5.59,7.73 -6.28,11.97 -0.05,0.31 0.41,0.43 0.46,0.12 0.81,-4.54 2.05,-8.97 6.12,-11.6 0.32,-0.2 0.05,-0.64 -0.29,-0.49 z m 129.99,-50.81 c -5.21,5.2 -18.09,11.24 -22.96,2.62 -0.14,-0.23 0.37,-0.32 0.49,-0.2 5.47,4.98 14.48,0.78 19.62,-2.9 3.94,-2.82 7.19,-7.5 5.44,-12.55 -0.18,-0.54 -0.46,-1.07 -0.75,-1.62 -1,1.21 -2.27,2.05 -3.97,2.44 -1.7,0.39 -5.24,0.21 -6.97,0.03 -2.79,-0.29 -5.13,-5.92 -2.01,-7.83 5.52,-3.39 8.22,-1.46 9.09,-0.51 1.06,0.51 2.07,1.24 2.97,2.07 2.41,-1.87 2.16,-14.99 -6.01,-21.93 -2.13,-1.81 -4.78,-2.91 -7.54,-3.36 -14.15,-2.27 -17.17,5.73 -17.53,8.02 -0.57,1.75 -0.44,3.77 -2.1,5.53 -0.9,-2.71 0.05,-4.03 0.84,-6.96 10.44,-19.47 28.08,-5.81 28.08,-5.81 8.78,8.66 9.44,17.55 7.5,23.62 -0.37,1.12 -0.78,2.13 -1.27,3.05 0.31,0.38 0.57,0.78 0.8,1.15 3.28,5.27 0.21,11.27 -3.72,15.19 l 0.02,-0.05 z m -2.58,-18.96 c -3.07,-1.84 -4.67,-1.89 -7.51,-0.21 -3.11,2.38 -1.07,4.58 1.7,4.97 10.18,2.51 8.32,-3.33 5.81,-4.75 z m -32.47,31.48 c -3.62,1.3 -7.04,5.2 -7.99,9.32 -3.08,-4.54 -17.06,-7.76 -19.1,-0.89 -0.11,0.35 0.21,0.57 0.51,0.64 5.9,1.5 11.71,3.8 15.59,8.72 0.09,0.12 0.49,0.06 0.38,-0.12 -1.67,-2.87 -3.89,-4.81 -6.81,-6.38 -1.82,-0.98 -3.77,-1.73 -5.75,-2.38 -1.76,-0.57 -3.33,-0.81 -0.92,-2.42 2.68,-1.79 7.05,-0.75 9.81,0.32 2.9,1.13 4.34,2.73 6.02,5.17 0.05,0.83 0.21,1.66 0.54,2.44 0.06,0.14 0.37,0.17 0.4,0 0.6,-2.47 0.52,-4.97 1.53,-7.36 1.04,-2.47 2.73,-4.45 5.03,-5.66 -1.52,4.25 -2.87,8.48 -1.59,13.01 0.05,0.17 0.44,0.14 0.41,-0.05 -0.87,-4.86 1.27,-9.4 2.87,-13.89 0.2,-0.55 -0.63,-0.66 -0.97,-0.54 l 0.03,0.05 z m -27.43,53.8 c 1.18,-0.81 6.25,-5.1 2.94,-4.28 v 0 c 0,0 -2.79,3.1 -3.66,2.42 -1.64,-1.27 3.66,-6.36 2.93,-7.82 -1.95,0.11 -2.54,2.38 -3.79,3.6 -1.01,-0.34 -2.04,-0.67 -3.05,-1 v 0 c -2.62,-0.77 -23.14,11.17 -21.35,7.45 6.71,-11.47 12.26,-15.7 11.73,-16.23 -1.55,-1.07 -2.67,1.56 -3.56,2.5 v 0 c -0.93,1.52 -18.18,22.33 -9.66,18.01 0,0 19.99,-10.71 24.72,-9.46 1.27,0.34 -2.87,7.43 2.74,4.8 v 0 z m 83.28,-99.29 c 1,-3.79 2.84,-10.01 7.42,-10.62 0.25,-0.03 0.15,-0.29 -0.06,-0.29 -4.92,-0.21 -6.73,7.22 -7.53,10.88 -0.02,0.09 0.14,0.11 0.17,0.03 z m -130.21,65.34 c 2.3,2.91 4.23,0.43 0.4,-1.92 -9.93,-6.1 -7.82,-10.7 -7.37,-11.5 0.4,-0.67 2.82,-1.73 1.76,-2.61 -0.21,-0.18 -0.63,2.01 -6.81,4.35 v 0 c -2.76,0.89 -11.48,-0.08 -14.52,-10.55 -0.28,-0.97 -0.77,-2.76 -2.12,-3.43 -0.95,1.03 0,2.82 0.75,4.18 0.44,0.81 0.31,1.85 -0.4,2.47 -0.93,0.83 -1.93,2.04 -2.18,3.03 0,0 -0.44,0.93 -0.78,1.66 -0.35,0.74 -1.119996,1.21 -1.929996,1.12 -2.91,-0.31 -8.8,-2.68 -9.93,-2.64 -1.76,0.08 -2.45,2.33 -1.09,3.43 1.43,1.13 3.3,2.65 4.84,3.85 1.29,1 0.89,3.03 -0.69,3.46 -2.27,0.61 -4.9,1.09 -5.82,1.27 -2.76,0.54 -2.9,2.96 -0.25,3.85 1.64,0.55 3.63,0.9 5.17,1.15 1.09,0.18 1.78,1.23 1.61,2.31 l -0.05,0.37 c -0.11,1.15 -1.16,1.96 -2.3,1.76 -1.69,-0.31 -3.72,-0.64 -4.09,0 -0.58,1.01 4.46,1.73 5.26,2.21 v 0 c 0,0.51 -1.38,16.55 -1.38,16.55 -0.05,1.49 -5.64,4.69 -6.22,7.05 -0.15,0.89 2.59,1.3 4.15,1.46 0.67,0.06 1.26,0.49 1.56,1.09 0.57,1.13 1.01,2.04 1.75,3.22 1.5,2.39 5.07,2.07 6.12,-0.55 0.67,-1.72 1.32,-3.3 1.61,-3.86 1.729996,-0.44 -0.64,-0.29 -1.06,-2.9 -0.18,-0.66 -0.98,1.58 -1.81,3.88 -0.58,1.64 -2.87,1.78 -3.63,0.21 -0.54,-1.1 -1.09,-2.22 -1.5,-3.07 -0.38,-0.8 -1.26,-1.23 -2.13,-1.07 -1.07,0.2 -2.33,0.43 -2.33,0.43 l 4.84,-4.71 c 0.38,-0.37 0.58,-0.87 0.6,-1.41 0.29,-20.94 3.57,-22.23 3.57,-22.23 1.11,-1.76 0.71,-2.75 -1.23,-2.99 v 0 l -6.59,-0.74 c 0,0 7.97,0.03 12.289996,-5.7 0.35,-0.46 -8.999996,-5.53 -8.999996,-5.53 0,0 4.9,1.35 7.82,1.95 0.97,0.2 1.959996,-0.34 2.269996,-1.29 1.13,-3.62 5.5,-3.6 6.51,-2.44 2.21,2.53 5.38,4 8.74,4.06 1.87,0.03 3.72,0.06 4.61,0.08 0.37,0 0.72,0.11 1.03,0.29 1.16,0.74 2.15,1.64 2.99,2.76 v 0 c 0.55,1.93 6.04,7.33 6.93,7.57 l 0.02,0.03 z m -33.869996,45.17 c 1.16,3.25 7.169996,0.87 1.78,-0.15 -0.67,-1.12 -3.65,-1.29 -1.78,0.15 z m 105.239996,-17.36 c 0.21,0.06 0.46,-0.21 0.2,-0.34 -7.3,-3.26 -14.45,6.48 -12.8,13.12 -2.08,-3.77 -3.39,-7.8 -1.95,-11.94 1.9,-5.44 8.66,-7.19 13.15,-9.99 0.26,-0.17 -0.17,-0.37 -0.35,-0.26 -5.21,3.08 -12.74,4.74 -14.21,11.53 -1.3,5.98 2.38,12.05 6.21,16.74 -1.84,3.28 -5.47,8.87 -5.47,8.87 -0.23,0.4 -1.67,3.03 -1.84,4.25 v 0 c -1.03,4.69 8.03,-1.55 8.03,-1.55 7.1,-3.03 5.49,-4.28 5.49,-4.29 -1.76,-0.4 -10.24,4.45 -10.24,4.45 v 0 c 0.11,-0.37 4.25,-7.63 4.89,-10.73 0.46,0.54 0.9,1.04 1.35,1.53 0.14,0.15 0.6,0.06 0.43,-0.18 -1,-1.55 -2.16,-3.2 -3.31,-4.94 0.41,0.35 0.87,0.66 1.39,0.93 0.08,0.05 0.18,-0.05 0.09,-0.11 -0.78,-0.43 -1.43,-0.95 -1.95,-1.53 -0.37,-0.58 -0.74,-1.16 -1.09,-1.75 -2.56,-6.19 4.86,-16 12,-13.84 l -0.03,0.03 z m -47.75,-62.94 v 0 c -1.21,0.46 -14.61,5.93 -5.27,20.14 v 0 c 0.37,0.52 5.82,5.81 6.67,5.95 0,0 5.75,2.56 1.78,-0.08 -1.33,-0.89 -14.94,-7.42 -7.3,-20.54 6.77,-8.15 11.86,-5.41 12.69,-7.37 v 0 c -0.12,-1.9 -5.81,-3 -2.8,-9.5 2.79,-6.02 7.59,-4.31 7.89,-6.25 -1.44,-1.2 -8.98,2.13 -9.69,6.12 -0.41,2.39 -1.09,4.8 2.44,9.38 -0.51,0.23 -5.93,1.95 -6.44,2.16 h 0.03 z m 417.59,217.67003 -7,-25.57 c -0.11,-1.82003 -1.09,-2.82003 -2.88,-3.07003 v 0 c -0.66,-0.38 -1.3,-0.77 -1.96,-1.16 -11.45,-2.74 -18.75,10.30003 -18.98,11.43003 1.21,1.93 1.56,1.78 2.84,0.11 v 0 c 2.62,-2.39 5.23,-4.78 7.85,-7.17 0,0 8.61,-5.56003 10.67,3.33 3.46,9.63 6.09,20.28 6.65,30.56 -7.76,4.4 -16.74,7.05 -24.82,2.65 -4.48,-4.14 -1.98,-26.52 -3.05,-23.51 l -0.05,0.05 v 0 c -0.4,0.17 -0.81,-0.52 -1.23,-0.4 -0.75,0.28 -1.78,21.23 -1.78,21.23 0.18,1.15 0.49,2.22 1.56,2.88 v 0 c 0.49,0.49 0.97,0.98 1.46,1.49 v 0 c 6.18,6.1 16.11,7.22 23.77,2.94 v 0 c 10.61,-4.15 10.44,-9.12 7.36,-13.37 -0.14,-0.81 -0.28,-1.61 -0.41,-2.42 z m -326.47,-37.26003 v 0 c -0.93,-0.48 -1.89,-0.95 -2.82,-1.43 v 0 c -1.04,-0.43 -26.61,-13.06 -26.61,-13.06 -3.82,-2.1 -13.21,-6.47 -12.68,-9.17 -0.61,-4.98 -1.79,-9.9 -3.36,-14.59 0.12,-6.41 -2.22,-12.48 -2.58,-18.88 -0.31,-1.98 0.17,-4.14 -0.98,-5.95 0.25,0.02 0.49,0.03 0.74,0.06 0.09,0 0.15,-0.11 0.05,-0.12 -0.23,-0.03 -0.52,-0.05 -0.84,-0.06 -0.18,-0.28 -0.41,-0.55 -0.71,-0.83 0,0.23 0,0.52 0.03,0.83 -5.86,0.12 -21,2.74 -17.67,-4.67 1.46,-3.22 5.82,-6.81 9.27,-7.43 5.66,-1.04 8.18,4.58 9.69,8.97 0.06,0.18 0.46,0.14 0.4,-0.08 -1.09,-3.99 -3.36,-8.91 -8.03,-9.4 -3.99,-0.43 -7.6,2.51 -10.04,5.32 -1.32,1.52 -3.37,3.23 -2.56,5.2 0.54,1.3 2.16,2.27 3.4,2.73 4.97,1.81 10.39,-0.64 15.53,-0.54 0.23,5.69 1.79,21.26 2.96,24.86 0,0 2.82,11.65 2.74,14.67 -1.39,-0.41 -2.8,-0.83 -4.2,-1.24 l -34.82,-21.14 c -0.08,-0.98 -20.28,-34.98 -21.18,-34.78 -0.26,-0.71 -5.69,-3.28 -5.69,-3.28 -2.96,-2.77 -21.81,-11.16 -19.91,-7.85 2.31,1.87 5.35,1.96 7.94,3.28 0,-0.05 7.46,4.9 7.46,4.9 -2.22,0 -10.53,5.56 -10.53,5.56 -0.54,0.08 -1.04,0.2 -1.52,0.41 -0.41,-3.68 -2.47,-7.27 -6.1,-8.17 -0.26,-0.06 -0.43,0.31 -0.18,0.44 4.06,2.1 4.35,5.46 4.87,9.09 -0.11,1.1 -1.13,7.2 -9.69,5.87 -3.05,-0.48 -2.01,-3.95 -1.99,-4.43 v 0 c -0.25,-3.56 -1.59,-6.64 -5.01,-7.22 0,0 -6.999996,-2.35 -9.659996,-0.48 -0.78,0.17 -6.9,7.59 -9.4,10.67 -0.72,0.89 -1.81,1.47 -2.96,1.44 -0.98,-0.03 -1.81,-0.46 -2.33,-1.95 v 0 c -0.54,-3.43 0.29,-6.67 1.18,-9.96 v 0 c 0.31,-1.29 1.03,-2.74 -1.26,-2.93 v 0 c -1.29,0.78 -3.89,13.99 -1.56,16.25 3.36,3.25 9,-1.35 9,-1.35 v 0 c 0.43,-0.6 7.85,-8.45 8.71,-10.5 l 0.4,-0.14 v 0 c 0.35,0.12 9.899996,4.15 9.899996,4.15 l 0.26,3.36 c -0.21,5.33 8.52,7.76 19.01,-1.36 v 0 c 5.9,-1.95 11.11,-5.46 17.64,-4.74 v 0 c 0.35,0.8 19.3,32.39 19.3,32.39 0.06,0.9 0.63,1.3 1.38,1.62 0.15,0.86 0.77,1.16 1.47,1.49 0.21,0.75 82.69,47.99 84.35,46.31 0.74,-0.92 0.11,-1.66 -0.8,-2.13 l -0.02,-0.03 z m -168.749996,-133.8 c -0.6,1.04 -1.98,1.38 -2.91,0.63 -1.36,-1.09 -1.32,-0.34 -0.38,2.47 0.02,0.08 0.03,0.14 0.06,0.21 0.6,1.96 3.46,1.72 3.82,-0.29 0.28,-1.56 0.43,-3.17 -0.03,-3.48 -0.14,-0.09 -0.34,0.12 -0.54,0.48 z m 171.279996,-13.55 c 1.47,0.67 2.71,1.92 3.53,3.3 0.11,0.18 0.6,0.14 0.49,-0.09 -0.81,-1.69 -2.15,-2.74 -3.92,-3.31 -0.08,-0.03 -0.18,0.06 -0.09,0.11 v 0 z m -171.839996,54.03 z m 593.999996,-37.63 c -1.03,-0.15 -2.39,2.1 -1.32,3.91 v 0 c 4.74,5.89 6.12,16.09 -2.19,19.65 -0.09,0.05 -0.2,0.06 -0.29,0.08 -10.68,0.72 -12.49,-3.86 -13.75,-1.89 v 0 c -1.73,1.38 4.64,3.03 3.71,4.69 -0.95,1.67 -1.36,4.51 -2.19,5.47 -6.53,7.6 -13.57,22.85 -23.68,29.74 -0.06,0.05 -0.14,0.08 -0.2,0.11 -17.78,5.89 -35.5,11.99 -53.31,17.81 -5.29,1.73 -9.7,4.51 -13.23,8.75 -12.92,14.04 -24.31,37.25 -36.99,44.01 -9.46,5.04 -9.84,0.84 -42.83,1.32 -3.56,0.05 -6.51,1.01 -10.28,1.47 -9.9,1.2 -22.29,-9.78 -26.5,-13.37 -5.73,-5.95 -2.74,-16.52 -6.42,-24.82 -3.54,5.84 5.99,18.21 1.24,20.42 -0.18,0.09 -0.41,0.08 -0.61,0 -4.28,-1.7 -6.32,-3.02 -6.12,-8.28 v -0.15 c -1.3,-8.06 -1.85,-1.84 -0.9,2.02 0.49,2.01 1.64,5.41 -1.39,5.46 -2.07,0.72 -2.53,3.31 -4.89,2.99 -4.41,1.09 -9.07,1.89 -13.01,3.88 -0.12,0.06 -0.25,0.17 -0.31,0.29 -3.91,6.45 -13.11,2.22 -19.16,7.31 -15.73,12.74003 7.86,-15.59 12.02,-23.31 0.05,-0.09 0.12,-0.17 0.21,-0.23 3.36,-2.31 4.74,-7.3 5.78,-11.11 0.06,-0.21 0.2,-0.37 0.4,-0.46 1.82,-0.95 2.88,-3.16 5.3,-3.45 v 0 c 5.33,-1.85 10.61,-3.68 14.82,-7.33 0.03,-0.03 0.06,-0.05 0.09,-0.06 11.68,-6.65 13.99,-20.69 17.46,-33.35 0.09,-0.37 0.43,-0.6 0.81,-0.57 3.17,0.31 11.99,0.09 16.92,12.23 2.85,7.02 8.43,-1.67 8.17,-3.92 -0.52,-4.32 -6.1,-13.63 -8.14,-15.39 -10.12,-8.74 13.26,10.94 3.79,19.34 -3.19,2.82 -5.3,-8.06 -9.76,-10.59 -17.5,-9.92 -14.01,0.09 -17.84,13.04 v 0 c -8.84,7.82 -21.78,6.68 -33.31,6.38 -0.12,0 -0.23,-0.03 -0.34,-0.11 -3.51,-2.07 -8.71,-2.02 -11.86,-4.38 -4.17,1.69 -4.92,-4.08 -4.15,-8.55 0,-0.08 0.03,-0.14 0.06,-0.21 10.53,-22.3 -27.07,20.17 32.86,14.9 0.05,0 0.09,0 0.14,-0.03 20.94,-5.56 10.28,7.56 -0.25,13.09 h -0.03 c -0.32,0.15 -8.61,4.12 -10.97,4.52 -5.52,0.93 -9.07,13.41 -12.32,16.45 -0.03,0.03 -0.06,0.06 -0.09,0.11 -2.1,3.2 -14.36,19.54 -15.24,21.58 -0.03,0.06 -0.05,0.11 -0.09,0.15 -11.05,13.78003 -18.52,33.78003 -37.05,39.36003 -0.03,0 -0.08,0.02 -0.11,0.03 -35.96,6.58 -67.01,0.75 -88.13,-30.53003 -0.03,-0.05 -0.06,-0.09 -0.11,-0.12 -17.38,-15.59 -31.44,-47.82 -46.89,-59.81 -2.54,-3.07 -6.99,-3.86 -10.35,-6.45 -7.4,-3.2 6.87,6.54 11.16,7.45 0.2,0.05 0.37,0.14 0.49,0.32 3.28,4.84 7.1,11.85 11.71,15.73 0.12,0.09 0.18,0.23 0.23,0.38 1.21,4.25 26.52,37.81 27.8,39.38 13.23,17.49003 27.99,38.69003 50.66,38.04003 v 0 c 18.98,2.13 51.52,5.13 62.71,-14.38 v 0 c 6.13,-6.64 14.15,-12.46 19.01,-19.27003 0.03,-0.05 0.06,-0.08 0.11,-0.12 1.49,-1.24 8.37,-8.02 11.96,-8.86 2.56,-0.6 8.51,1.47 10.15,-2.76 0.48,-0.37 0.97,-0.97 1.46,-1.38 v 0 c 1.39,-2.67 25.26,-9.81 32.42,-1.78 3.08,3.46 8.35,8.34 12.48,10.22 4.92,2.25 18.91,2.97 21.43,1.52 8.15,-4.77 17.46,-0.32 26.38,0.09 0.09,0 0.18,0.03 0.28,0.08 24.51,12.26003 54.58,-39.07 56.65,-42.67 0.08,-0.14 0.2,-0.23 0.34,-0.29 3.71,-1.84 -0.55,-7.34 9.41,-10.19 0.03,0 0.06,-0.02 0.09,-0.02 7.68,-1.23 45.25,-16.51 50.66,-17.92 1.73,-0.44 3.36,-0.9 4.86,-1.33 4.05,-1.16 7,-4.29 8.92,-8.05 0.06,-0.11 0.12,-0.2 0.18,-0.28 1.59,-1.81 17.7,-29.6 21.63,-29.37 v 0 c 2.97,2.19 5.93,2.1 8.89,-0.03 v 0 c 5.13,-4.2 7.73,-9.67 4.15,-21.89 -0.35,-1.44 -1.9,-4.41 -3.36,-4.64 l -0.02,-0.06 z m -4.49,-38.97 c 1.35,0.23 1.61,-1.27 1.99,-2.22 0,0 0.23,-0.92 -0.03,-1.36 0.12,-0.89 -2.53,-3 -2.47,-1.55 v 0 c 0.2,1.59 -0.95,4.08 0.51,5.15 z m 6.16,6.07 c 0.98,-1.44 0.81,-3.39 -0.23,-4.75 -3,0.23 -3.53,9.35 0.23,4.75 z m 22.39,22.91 c 1.69,2.27 5.47,7.76 -11.79,6.68 -8.75,0.02 -11.71,0.43 -13.83,-2.58 -0.08,-1.01 1.39,-1.29 2.24,-1.38 v 0 c 4.12,0.18 13.98,1.13 18.47,1.58 2.04,0.2 3.57,-2.3 2.13,-3.76 -12.68,-12.72 -21.44,-15.51 -31.74,-15.34 -2.16,0 -9.84,2.91 -6.1,-1.72 2.42,-3.37 3.99,-7.27 3.66,-11.5 -0.26,-8.94 -14.53,12.09 -15.66,10.79 -0.18,-0.52 0.11,-2.01 0.95,-2.15 5.78,-14.7 -4.78,-5.63 -6.28,-6.59 0.08,-1.67 1.93,-3.31 3.72,-3.53 10.41,-2.62 5.44,5.9 7.2,4.84 0,0 4.15,-6.12 4.52,-6.42 v 0 c 8.18,-6.3 8.2,2.56 7.77,6.42 -0.26,2.38 -2.91,6.61 -3.02,8.05 v 0 c 9.87,-2.85 27.59,7.07 28.23,7.07 35.19,-36.07 -7.39,-51.36 -13.23,-51.84 -10.65,-0.12 -9.75,0.98 -12.48,2.33 -4.35,2.9 -4.23,5.93 -5.01,8.54 -2.04,-2.77 4.29,-8.23 -1.1,-15.3 -3.94,-5.15 -7.92,-1.96 -10.38,-2.73 -0.05,-0.06 -0.06,-0.11 -0.11,-0.17 0.63,-2.41 21.58,-30.95 -21.34,-28.56 -0.93,0.05 -1.39,1.24 -2.08,1.87 -5.27,-19.56 -20.4,-12.31 -22.53,-12.32 v 0 c 0.12,0.57 2.31,5.98 0.52,9.73 -2.56,0.23 -0.98,-1.99 -0.95,-3.92 0,-3.11 -7.16,-19.51 -22.98,-21.54 -7.45,-0.95 -14.79,1.96 -20.32,7.04 -12.19,11.17 -11.57,26.64 -11.62,27.85 v 0 c -0.17,5.52 -0.18,11.33 3.13,16.06 v 0 c 0.89,0.25 2.01,0.34 1.55,1.73 -0.58,1.39 -2.19,-1.49 -5.41,0.71 -1.33,0.9 -2.27,2.3 -2.74,3.85 -0.38,1.21 -0.83,2.45 -1.96,3.54 -0.89,-2.68 0.25,-5.3 1.3,-6.61 0.84,-1.04 3.68,-3.22 4.06,-3.54 v 0 c -0.08,-2.76 -2.35,-16.65 -1.36,-21.93 5.17,-27.87 26.56,-30.7 26.56,-30.7 9.5,-1.5 20.14,3.99 24.55,8.78 1.47,1.59 3.39,5.96 5.4,6.76 1.23,0.49 11.22,-1.79 15.08,-0.49 9,3.02 9.21,11.33 9.21,11.33 1.76,-8.66 0.49,-36.62 0.49,-36.62 l -0.4,-4.71 c -3.2,0.51 -8.29,2.71 -6.88,-5.35 v 0 c 0.18,-1.93 1.43,-3.69 1,-5.73 0,0 -21.18,-13.26 -22.07,-16.17 -5.12,-7.28 -5.78,-18.55 -2.36,-26.7 v 0 c 6.15,-12.66 15.94,-17.98 23.3,-17.99 15.56,0 27.24,14.3 27.02,23.74 -0.46,20.77 -12.31,34.04 -12.31,34.04 -0.4,2.05 0.21,3.85 1.36,5.5 v 0 c 0,0 1.36,3.39 1.32,4.22 v 0 c -0.21,1.92 -8.69,4.26 -8.71,4.29 0,0 0.2,38.76 1.03,40.56 23.59,-2.5 26.87,10.25 26.84,11.53 2.61,7.17 -2.64,16.62 -3.8,17.4 7.34,0.2 11.27,7.23 11.33,10.64 12.08,-6.59 12.77,-3.22 21.44,-1.43 0,0 13.11,4.43 19.59,18.95 7.85,16.51 -12.63,32.99 -12.31,33.72 l 0.54,1.5 7.34,7.62 v 0.05 z m -71.5,-155.31 c 10.96,-2.12 19.17,-29.2 14.41,-39.09 -4.49,-9.35 -18.29,-20.39 -34.01,-11.39 -6.64,3.8 -15.28,15.77 -11.39,31.36 2.42,9.67 21.18,21 30.98,19.11 h 0.02 z m 0.35,12.46 c 1.03,0.09 2.87,-0.89 4.08,-1.49 -0.08,-0.4 0.09,-0.87 0.64,-1.38 0,-0.6 -1.96,-6.5 -1.98,-7.08 -1.41,-1.43 -8.35,1.03 -8.45,1.52 0,0 -1.07,7.42 -1.07,8.41 0,0 5.53,-0.31 6.76,0.02 z m 16.54,152.03 c -0.09,-0.11 -0.41,-0.02 -0.29,0.12 5.47,6.36 11.17,13.34 10.51,21.8 -0.21,0.41 -0.43,0.83 -0.67,1.21 -0.15,0.26 0.29,0.34 0.43,0.18 0.02,-0.03 0.05,-0.05 0.06,-0.08 -0.12,0.8 -0.28,1.59 -0.52,2.42 -0.08,0.25 0.41,0.31 0.49,0.09 0.43,-1.2 0.69,-2.36 0.83,-3.49 4.63,-6.35 4.64,-18.21 -3.53,-21.38 -0.03,0 -0.09,0.02 -0.05,0.05 6.22,3.76 6.28,12.83 3.71,19.31 -0.05,-7.73 -5.82,-14.42 -10.97,-20.23 z m 7.63,31.71 c 1.59,-7.33 -0.83,-10.05 -5.38,-15.14 -3.2,-3.74 -1.07,1.69 2.56,5.26 3.57,3.51 0.89,18.72 2.82,9.9 z m -587.459996,-109.05 h -0.02 z m 200.379996,164.05 c -4.55,-2.44 -8.74,-7.57 -7.4,-13.04 0.05,-0.17 -0.28,-0.21 -0.32,-0.06 -1.55,5.36 2.31,11.68 7.48,13.41 0.23,0.08 0.55,-0.15 0.26,-0.31 z m 4.5,-31.71 c 1.01,0.78 1.81,3.49 2.68,4.61 0.6,0.77 1.2,1.43 1.9,2.1 2.04,1.92 4.41,3.28 7.14,3.88 0.37,0.08 0.49,-0.43 0.15,-0.55 -5.5,-2.12 -9.44,-6.09 -11.6,-11.56 -0.11,-0.26 -0.32,-0.35 -0.58,-0.23 -1.3,0.6 -2.27,1.46 -3.31,2.45 -0.93,0.89 -3.48,4.34 -4.83,4.35 -1.84,0.02 -3.19,-2.08 -3.39,-3.46 -0.15,-1.09 0.26,-2.3 0.48,-3.39 0.08,-0.4 1.18,-5.52 1.98,-3.94 0.06,0.11 0.21,0 0.17,-0.09 -0.15,-0.31 -0.31,-0.61 -0.46,-0.93 -0.03,-0.06 -0.09,-0.06 -0.15,-0.05 -1.93,0.84 -2.44,6.91 -2.47,8.86 -0.03,2.05 0.48,4.2 2.97,3.89 1.64,-0.2 3.11,-1.82 4.25,-2.88 0.78,-0.74 1.52,-1.52 2.31,-2.22 1.56,-1.38 1.49,-1.81 2.74,-0.83 l 0.02,-0.02 z m -8.82,39.45 c 0.17,0.03 0.4,-0.18 0.17,-0.28 -1.9,-0.8 -3.8,-2.25 -5.09,-3.85 -1.3,-1.61 -1.46,-3.39 -2.38,-5.12 -0.03,-0.06 -0.12,-0.06 -0.17,0 -0.98,1.81 0.61,4.31 1.73,5.73 1.5,1.92 3.34,3.08 5.73,3.53 v -0.02 z m -14.77,-105.5 c 2.8,-2.51 6.36,-0.31 9.4,0.52 0.18,0.05 0.37,-0.15 0.17,-0.28 -2.74,-1.49 -7.16,-2.85 -9.69,-0.31 -0.06,0.06 0.08,0.12 0.14,0.08 l -0.02,-0.02 z m 35.49,68.32 c -0.4,-0.71 -0.87,-1.33 -1.43,-1.89 0.48,0.63 0.97,1.23 1.43,1.89 z m 1.9,4.9 c -0.2,-1.33 -0.6,-2.61 -1.21,-3.8 -0.2,-0.4 -0.44,-0.77 -0.69,-1.12 0.89,1.55 1.44,3.37 1.61,4.95 0.02,0.2 0.31,0.17 0.28,-0.03 h 0.02 z m -3.92,-7.34 c 0.21,0.17 0.4,0.35 0.6,0.55 -0.15,-0.21 -0.32,-0.41 -0.48,-0.64 -0.06,-0.09 -0.2,0.03 -0.12,0.09 z m -218.689996,-44.41 v -0.03 c 0,0 -0.03,-0.06 -0.05,-0.09 z m -7.2,-31.65 z m 27.51,59.67 c -20.49,-6.12 -10.99,-34.04 -10.48,-35.24 0.78,-1.85 2.13,-3.66 2.13,-3.66 -6.93,0.41 -10.47,13.84 -11.94,10.85 0.17,-0.69 4.4,-18.62 4.4,-18.62 v 0 c 0.08,-0.87 9.66,-9.23 8.26,-13 -0.03,-0.09 -18.55,-3.66 -18.59,-3.74 -5.75,-7.6 5.15,-14.39 8.38,-14.78 0.35,-0.05 0.6,-0.34 0.58,-0.69 -0.44,-9.04 -5.79,-117.96 -6.1,-121.3 v -0.03 c 0,-0.46 -0.46,-13.78 -0.46,-13.78 0,0 -3.17,0.43 -4.26,-0.4 -5.43,-4.03 3.08,-11.62 -1.39,-12.34 -31.67,-5.12 -41.7800002,-31.56 -43.8400002,-37.98 -19.1699998,-59.95 35.1500002,-69.22 35.1500002,-69.22 20.89,-6.73 56.54,7.54 57.46,64.42 0.41,25.72 -35.22,40.07 -40.53,42.37 -0.38,0.17 -0.52,0.63 -0.31,0.98 1.2,1.81 2.79,6.5 -1.39,12.72 -0.09,0.14 6.19,125.56 6.88,134.93 0.02,0.28 1.73,0.51 2.01,0.58 2.56,0.75 6.93,2.31 8.74,2.99 0.43,0.15 0.87,-0.12 0.9,-0.58 0.14,-1.62 0.35,-5.18 0.52,-8.15 0.08,-1.46 1.99,-1.93 2.74,-0.67 l 2.76,4.2 c 0.69,1.06 2.22,1.12 3,0.14 0.77,-0.98 3.46,-3.95 4.45,-3.83 2.76,0.32 -3.28,7.07 -3.89,7.79 -1.23,1.41 -3.49,1.12 -4.32,-0.57 l -2.18,-4.38 c 0,0 1.03,3.74 1.18,7.86 -0.21,3.31 -11.14,-1.16 -11.2,-1.18 -1.73,-0.31 -14.58,-3.25 -14.33,8.45 0,0 2.73,-0.31 3.63,-0.12 24.91,5.49 18.62,6.88 16.14,11.82 -3.45,5.79 -9.49,6.53 -9.33,14.55 0.02,1.09 0.31,2.21 1.09,1.46 2.07,-2.01 13.84,-10.07 9,-1.3 -15.6,28.33 3.53,36.65 3.53,36.65 1.2,0.58 1.66,1.59 1.67,2.85 l -0.05,-0.02 z m -15.31,-235.06 c 18.76,-8.94 41.739996,-26.85 29.64,-59.72 -19.59,-53.23 -63.7,-37.11 -79.04,-20.25 -18.9100002,20.78 -8.3500002,42.46 -2.3,56.62 2.22,5.2 5.63,9.84 9.99,13.63 19.21,16.63 31.99,14.35 41.72,9.72 h -0.02 z m -6.62,13.62 c -0.86,-1.52 -1.53,-2.79 -1.89,-3.48 -0.17,-0.32 -0.55,-0.46 -0.89,-0.32 l -1.99,0.81 c -0.29,0.12 -0.48,0.41 -0.43,0.72 0.11,0.89 0.23,2.73 -0.28,3.97 -0.41,1.03 -0.06,2.21 0.9,2.76 0.02,0 0.05,0.03 0.06,0.05 2.88,1.66 6.13,-1.61 4.49,-4.51 h 0.02 z m 500.619996,203.71 c 6.94,0.12 9.69,5.38 9.93,2.88 0.11,-1.15 1.13,-2.01 2.28,-2.05 2.25,-0.11 3.74,-0.23 5.18,2.04 2.68,4.23 -6.79,17.14 -10.45,25.7 -0.92,1.52 -1.85,3.05 -2.77,4.58 -10.9,-22.46 -9.44,-12.98 -1.46,2.9 0,6.3 -5.01,12.89 -3.74,18.64 6.36,-17.5 14.5,-37.37 22.09,-53.68 6.32,-0.08 12.68,-1.53 19.16,-0.14 4.32,0.93 8.37,1.33 12.63,1.26 v 0 c 1,0 2.01,-0.03 3.02,-0.05 v 0 c 6.09,-0.41 5.9,3.07 9.52,6.09 v 0 c 3.66,3.53 8.48,6.84 9.27,-1.52 1.53,-7.68 -5.66,-13.04 -3.54,-8.94 1.43,2.16 3.76,11.48 0.03,12.49 -4.72,0.55 -8.29,-7.92 -8.29,-7.92 -2.01,-2.36 -4.77,-1.29 -7.23,-1.58 -0.31,-0.34 -16.75,-0.67 -19.7,-0.72 -12.42,-0.84 -23.1,-3 -35.9,0.03 l -0.03,-0.02 z m 24.66,-28.91 c 2.33,-2.56 0.35,-8.64 -0.58,-9.93 -2.71,-3.74 -9.76,-7.85 -11.3,-9.7 1.39,-1.39 3.74,1.07 5.33,2.24 0.4,0.29 8.22,6.07 9.14,12.14 5.73,-1.5 10.61,2.42 10.96,2.8 2.02,3.03 1.78,6.65 1.5,7.23 -1.9,3.13 -12.17,3.08 -15.63,2.13 -2.13,-0.58 -3.57,-2.54 -3.46,-4 -0.63,0.18 -1.21,0.34 -1.66,0.4 -6.09,0.93 -14.7,1.5 -19.22,-3.2 -0.86,-0.03 -4.61,-8 -0.25,-2.7 4.75,5.75 21.12,7.04 25.15,2.61 z m 5.87,6.13 c 2.12,-0.12 8.72,-0.8 7.51,-4.97 -0.52,-1.76 -1.79,-3.46 -3.26,-4 -3.1,-1.66 -5.75,-1.64 -7.42,-1.12 -0.03,1.9 -0.83,3.79 -2.84,5.5 v 0 c 0,0 -1.04,0.66 -1.29,0.74 -2.05,0.67 1.07,4.2 7.3,3.85 z m -2.65,-27.31 c 1.81,1.38 9.37,-2.33 10.09,-2.56 0,0 8.51,-1.9 8.48,-3.13 -0.49,-1.67 -2.87,-0.38 -4.09,-0.37 v 0 c -1.64,0.48 -10.35,4.45 -10.35,4.45 -8.61,1.92 1.23,-18.55 15.65,-10.04 0.83,-1.13 -2.04,-2.22 -2.59,-2.28 0,0 -9.66,-4.2 -15.88,5.96 0.49,0.17 -3.08,5.61 -1.29,7.96 l -0.02,0.02 z m -19.91,-43.36 v 0 c -0.14,1.72 0.74,-0.92 3.85,2.99 4.14,7.96 2.27,0.05 0.67,-1.58 -2.04,-2.1 -3.16,-3.31 -4.52,-1.41 z m -3.3,89.39 c 1.35,-4.48 1.09,-9.06 -0.9,-13.3 -0.06,-0.14 -0.4,-0.09 -0.32,0.06 1.85,4.34 1.62,8.61 0.75,13.15 -0.05,0.26 0.41,0.32 0.49,0.09 z m -4.99,-1.7 c 0.41,-4.18 -1.59,-7.74 -4.31,-10.76 -0.03,-0.03 -0.11,0 -0.08,0.03 2.64,3.11 4.37,6.58 3.95,10.73 -0.02,0.2 0.4,0.2 0.41,0 h 0.02 z m -49.59,38.12 c 9.66,-13.52 3.36,-30.98 -6.68,-42.3 -0.09,-0.11 -0.41,-0.02 -0.29,0.12 10.38,11.97 14.81,27.73 6.51,42.04 -0.12,0.21 0.35,0.29 0.46,0.14 z m -7.89,-2.18 c 1.26,1.32 2.68,2.1 4.55,1.35 1.58,-1.41 -1.81,-1.29 -2.67,-1.46 -21.81,-16.89 -6.76,3.97 -5.06,17.49 0.2,1.59 -0.34,3.14 -1.21,4.49 -1.29,1.93 1.79,2.18 2.97,-1.35 2.36,-6.53 -11.73,-25.2 1.43,-20.51 l -0.02,-0.02 z m 33.15,12.77 c -3.8,4.29 -1.89,11.31 3.33,13.44 0.18,0.08 0.54,-0.09 0.31,-0.29 -3.79,-3.07 -6.56,-8.58 -3.34,-13.04 0.11,-0.15 -0.2,-0.23 -0.29,-0.12 v 0.02 z m 4.54,-157.97 v 0 c -1.39,0.29 -2.7,3.51 -3.05,3.6 -0.51,-0.92 -5.13,-3.79 -8.49,-0.08 -0.74,0.83 -0.8,2.8 -1.09,2.99 0,0 -5.96,-6.58 -10.12,0.34 v 0 c -0.64,1.18 -4.63,7.19 -2.85,8.38 3.33,-1.09 1.78,-6.18 4.94,-8.14 3.85,-2.41 5.38,-0.32 5.9,0.21 3.33,4.03 3.6,2.8 4.08,0.06 0.35,-1.99 2.45,-3.25 4.32,-2.48 2.8,1.15 3.4,3.02 6.51,-3.68 0.05,-0.92 1.76,-1.59 -0.15,-1.21 v 0 z m -22.37,136.63 c 5.03,-6.41 2.84,-15.62 -0.18,-22.42 0,-0.03 -0.09,-0.03 -0.08,0.02 2.53,7.02 3.65,15.53 -0.2,22.27 -0.12,0.21 0.35,0.28 0.46,0.14 v 0 z m 44.87,-70.55 c -0.48,0.26 -5.07,6.07 -5.89,7.6 0,0 -0.15,-1.92 -1.01,-1.73 0,0 -4.45,1.96 -4.72,2.82 -1.72,1.2 -7.82,-2.9 -5.87,-0.05 v 0 c 2.54,2.01 5.1,1.89 7.66,0.08 v 0 c 3.59,-2.12 2.33,0.11 3,0.38 1.98,0.78 0.95,0.26 2.74,-1.99 2.96,-6.18 6.18,-6.42 6.18,-6.42 5.9,-1.23 2.61,-3.2 -2.1,-0.67 v -0.02 z m 56.16,-13.54 v 0 c -1.85,0.84 -3.91,1.62 -5.09,3.39 -1.61,1.69 3.95,-2.47 7.37,0.48 0,0 12.77,8.78 12.26,21.81 -0.06,1.61 -2.08,2.28 -3.16,1.09 -4.23,-4.77 -12.15,-13.38 -12.71,-13.53 v 0 c -1.46,-1.67 -5.64,-2.19 -2.96,0.52 1.61,0.87 7.63,2.84 16.31,18.58 0.35,0.64 0.86,1.07 1.44,1.33 2.38,1.06 5.09,-0.81 5.23,-3.4 1.23,-22.52 -16.68,-29.71 -17.52,-29.74 -0.61,-0.95 31.18,-37.28 24.19,-49.02 -1.21,-2.02 -17.98,4.23 -25.55,17.32 -3.65,6.64 -5.06,14.9 -3.99,22.36 0.03,1.58 1.18,1.24 0.98,0 v 0 c 1.06,-4.75 2.05,-16.48 4.8,-21.17 3.45,-5.9 23.25,-21.11 23.39,-14.18 -1.15,3.05 -15.83,25.08 -15.83,25.08 -1.32,2.67 -9.14,19.11 -9.14,19.11 l -0.03,-0.03 z m -45.34,-8.76 c -0.43,0.35 -0.55,0.8 -0.4,1.32 l 0.11,0.05 v 0.03 c 0,0 -0.08,-0.06 -0.11,-0.08 -3.99,3.34 -0.23,13.87 4.97,8.89 0.75,-0.17 1.53,0.06 2.28,0.11 0.14,0.48 0.12,0.93 -0.05,1.39 v 0 c -1.04,0.74 -1.3,1.75 -1.1,2.94 v 0 c -0.15,0.97 -0.29,1.93 -0.43,2.9 -0.97,0.57 -1.53,1.39 -0.49,2.19 2.28,0.34 2.19,-3.48 2.28,-5.07 h 0.09 v -0.11 c 2.47,-1.43 1.06,-5 1.44,-7.34 0.03,-0.06 0.05,-0.12 0.08,-0.17 v 0 c -0.48,0.61 -1.2,1.06 -2.01,1.35 0.03,0.4 -0.21,0.83 -0.74,0.81 -0.84,-0.02 -1.67,-0.26 -2.51,-0.2 -0.69,0.05 -1.23,0.57 -1.85,0.8 -1,0.38 -2.15,0.05 -2.61,-0.97 -0.4,-0.86 -0.26,-1.87 -0.08,-2.77 0.2,-0.93 0.52,-1.84 1.03,-2.65 0.58,-0.97 1.38,-1.92 2.42,-2.42 1.04,-0.5 2.21,-0.46 3.3,-0.12 1.98,0.6 3.88,2.3 3.68,4.54 0,0.08 -0.03,0.14 -0.05,0.21 0.09,0.05 0.18,0.12 0.28,0.17 0.37,-0.35 0.57,-0.81 0.52,-1.43 v -0.03 c 0.81,-0.23 1.29,-0.74 1.26,-1.59 0.34,-0.41 0.4,-0.86 0.2,-1.35 3.13,-3.28 1.98,-8.4 0.03,-11.74 -0.89,-3.56 -4.25,-2.84 -1.58,-0.02 0.12,1.15 0.23,2.33 1.43,2.97 v 0 c -0.11,2.97 0.29,6.04 -1.33,8.78 v 0 c -4.15,1.13 -6.1,-6.44 -10.02,-1.39 h -0.03 z m 33.89,-53.6 c -2.51,-0.69 -4.34,0.92 -4.34,0.92 0,0 -1.99,1.49 -0.74,2.38 1.59,0.23 0.89,-2.99 5.53,-0.98 1.99,0.86 1.18,4.02 1.18,4.02 0.83,0.83 1.21,-0.95 1.2,-1.43 -0.08,-1.52 0.66,-3.97 -2.84,-4.92 v 0.02 z m -514.289996,-320.05 c -22.33,-71.35 -16.43,-150.76 8.23,-220.66 0.15,-0.23 0.26,-0.48 0.32,-0.74 -0.06,0.11 -0.12,0.21 -0.18,0.32 36.269996,-102.4 117.299996,-187.010003 226.339996,-206.4500032 31.53,-5.80999999 72.44,-7.94 104.09,1.73 17.69,1.61 33.17,7.7100002 48.54,14.3200002 63.43,25.52 115.86,75.58 148.68,135.280003 6.53,11.51 13.09,24.2 17.7,36.74 13.89,32.05 22.26,65.16 25.01,99.98 3.13,18.87 3.53,40.22 1.24,59.75 -0.11,16.31 -1.82,32.07 -5.92,46.83 -2.74,20.34 -24.65,84.81 -24.65,84.81 35.25,25.84 32.03,90.94 -17.96,114.54 0,0 -15.83,46.98 -65.54,42.3 -7.83,-0.74 3.28,14.07 -10.44,11.74 -11.25,-1.9 -9.96,-10.25 -1.79,-14.44 83.93,11.43 81.04,-77.53 57.74,-89.87 -17.52,28.16 -129.64,88.03 -74.94,54.86 116.55,-70.68 124.14,-164.91 124.63,-166.38 0.09,0.08 0.14,-0.08 0.02,-0.06 60.28,-178.03 -47.82,-402.110003 -243.37,-427.2100032 -33.05,-3.23 -60.67,-0.52 -93.32,6.8200002 -80.13,21.46 -147.74,69.96 -187.26,139.370003 -0.15,-0.14 -0.34,-0.26 -0.4,-0.08 0.12,0.05 0.25,0.11 0.37,0.15 -36.459996,64.09 -52.789996,141.05 -43.759996,216.93 2.1,15.36 3.3,30.24 8.48,43.12 61.799996,153.72 131.539996,192.24 150.009996,209.13 3.43,3.14 -49.19,-34.32 -49.66,-35.45 -9.81,-7.63 -20.13,-17.69 -27.87,-27.74 -6.02,-5.89 -12.05,-13.09 -17.7,-20.91 -2.08,2.19 -5.58,4.98 -5.18,6.18 3.11,2.62 17.01,17.09 10.47,18.68 0,0 -5.93,2.36 -5.44,7.66 l 19.37,141.58 c 0.29,1.58 0.78,3.34 1.29,4.77 5.3,-2.82 14.07,-2.62 18.41,0.21 4.8,3.14 14.94,23.9 13,24.85 -2.31,-0.78 -9.04,-18.78 -12.49,-21.44 v 0 c -3.07,-3.3 -8.38,-4.49 -13.26,-3.69 -4.55,0.75 -8.32,3.89 -9.67,8.31 -0.37,1.2 -0.6,2.5 -0.75,4.09 -1.7,2.91 -0.28,-6.53 1.24,-9.17 0.6,-1.03 1.49,-1.89 2.56,-2.61 -2.28,-9.81 -21.89,-148.49 -21.89,-148.49 -1.04,-2.19 -7.71,3.69 -8.52,2.39 -3.43,-5.59 0.81,-25.61 -5.79,-25.8 -19.1,-0.55 -54.259996,-1.89 -61.889996,-55.52 -10.55,-34.82 16.51,-54.72 21.9,-60.76 v 0 z m 458.499996,209.5 c -1.36,-1.29 -3.85,-1.26 -5.12,0.12 -4.28,4.6 -5.86,5.76 2.02,9.38 0.95,0.44 2.07,0.61 3.07,0.28 3.6,-1.2 3.45,-6.53 0.03,-9.78 z m 89.57,-150.91 c -3.59,10.96 -32.46,52.47 -32.46,52.47 26.56,37.94 5.49,62.41 20.28,49.42 36.63,-23.22 47.01,-75.37 14.47,-102.54 -0.8,-0.66 -1.96,-0.31 -2.28,0.67 v -0.02 z m -499.19,60.66 c -6.97,1.39 -0.15,20.48 1.89,19.08 2.84,-1.93 8.02,-3.6 8.6,-5.66 1.38,-4.83 -6.18,-14.99 -10.48,-13.43 z m 5.7,-13.36 c -9.9,-14.19 -18.47,-30.1 -23.48,-43.87 0,0 -25.719996,-56.24 -25.719996,-56.25 -58.14,25.31 -12,134.47 49.189996,100.12 h 0.02 z m 400.25,338.85 c 1.56,0.52 2.79,4.58 3.36,6.05 0.81,2.16 1.44,4.41 2.19,6.61 0.09,0.28 0.55,0.29 0.75,0.14 6.1,-4.38 8.57,-13.69 1.58,-18.53 -0.14,-0.09 -0.58,0 -0.4,0.21 2.19,2.33 3.8,4.95 3.66,8.26 -0.11,2.61 -1.35,6.9 -3.82,8.22 -1.76,0.93 -1.47,-0.12 -2.1,-2.01 -0.41,-1.23 -0.81,-2.45 -1.3,-3.65 -1.03,-2.48 -2.27,-4.57 -4.17,-6.47 -0.14,-0.14 -0.4,-0.18 -0.55,-0.05 -1.32,1.16 -10.41,8.28 -11.17,7.07 -0.37,-0.58 2.02,-5.53 2.28,-6.45 0.77,-2.73 1.33,-5.49 1.87,-8.26 0.03,-0.17 -0.29,-0.21 -0.32,-0.06 -1.12,5.56 -2.54,10.94 -5,16.08 -0.12,0.25 0.32,0.26 0.44,0.18 2.15,-1.26 4.32,-2.45 6.42,-3.77 1.32,-0.83 4.61,-4.12 6.3,-3.56 l -0.03,-0.02 z m -23.65,-57.84 c 0.66,-1.58 1.5,-3.14 2.7,-4.37 7.05,-7.28 18.22,-0.87 24.74,3.82 0.18,0.14 0.61,-0.08 0.35,-0.26 -5.4,-3.89 -12.61,-8.35 -19.62,-6.99 -6.9,1.35 -9.37,8.02 -10.36,14.24 -0.05,0.25 0.51,0.28 0.57,0.06 2.64,-10.42 22.56,-8.29 30.3,-5.96 0.77,2.15 1.61,4.23 2.48,6.25 0.06,0.14 0.4,0.09 0.32,-0.06 -4.55,-10.73 -9.46,-26.23 0.02,-35.71 0.11,-0.11 -0.05,-0.25 -0.15,-0.26 -4.8,-0.69 -10.42,-0.87 -12.17,4.17 -1.93,5.56 -2.47,10.35 2.16,14.53 0.06,0.05 0.2,0 0.12,-0.09 -3.86,-3.57 -4.63,-8.95 -2.28,-13.46 0.55,-2.65 2.38,-4.25 5.49,-4.81 5.07,-0.58 6.44,0.2 4.06,2.36 -0.57,2.73 -2.56,5.18 -2.91,8.23 -0.75,6.28 0.71,12.75 2.85,18.81 -7.88,-2.47 -19.71,-3.43 -27.02,0.98 -1.43,0.86 -2.02,2.22 -3.2,3.13 -0.71,1.69 -0.51,1.15 0.61,-1.61 0.25,-1.01 0.57,-2.01 0.97,-2.97 l -0.02,-0.02 z m 65.91,-50.15 c -1.84,-0.03 -5.58,4.09 -4.46,6.12 1.04,1.27 10.82,11.73 10.82,11.73 2.94,3.79 4.64,1.98 1.81,-0.12 -1.58,-1.56 -5.49,-6.27 -8.69,-9.55 -1.64,-1.69 -1.61,-4.51 0.26,-5.92 0.21,-0.17 0.43,-0.28 0.63,-0.32 2.44,-0.55 4.97,0.38 6.79,2.08 9.76,9.15 11.13,21.69 11.42,25.38 v 0 c 0.48,2.56 0.66,5.21 2.41,7.39 0.31,-2.56 -3.25,-16.98 -4.46,-21.86 -0.51,-1.67 -3.68,-14.7 -16.54,-14.91 l 0.02,-0.02 z m -48.83,149.4 c -1.41,1.84 -1.3,4.95 0,6.79 0.09,0.14 0.49,0.12 0.48,-0.09 -0.12,-1.12 -0.48,-2.19 -0.54,-3.33 -0.06,-1.12 0.17,-2.18 0.54,-3.23 0.08,-0.25 -0.35,-0.29 -0.46,-0.14 z m 81.43,-8.08 c 1.38,-1.39 1.33,-3.31 0.93,-5.12 -0.06,-0.26 -0.69,-0.23 -0.66,0.06 0.15,1.67 -0.2,3.33 -0.74,4.9 -0.09,0.26 0.34,0.26 0.46,0.14 v 0.02 z m 4.5,-2.57 c 0.15,2.64 -0.38,5.07 -1.64,7.39 -0.12,0.21 0.37,0.31 0.49,0.09 1.27,-2.35 1.82,-4.81 1.66,-7.5 0,-0.25 -0.52,-0.25 -0.51,0 z m -133.32,-118.97 c 2.1,0.97 2.42,-6.65 -1.18,-13.75 -4.35,-9.24 1.38,5.41 0.46,9.55 0.12,1.41 -0.83,3.4 0.74,4.2 z m -88.92,-136.62 c -10.12,3.22 -25.35,5.64 -33.97,5.84 -14.91,0.35 -23.18,-0.49 -30.9,-1.66 -1.06,-0.15 -15.45,-2.77 -3.95,0.66 v 0 c 1.66,0.43 20.94,2.3 28.92,3 1.26,0.11 1.84,1.59 1.04,2.58 -14.01,16.95 29.12,25.51 20.46,5.03 0,0 -2.27,-3.88 -4.23,-2.24 1.9,2.96 5.81,7.11 -0.58,11.62 v 0 c -9.79,3.86 -19.86,-5.89 -11.5,-12.94 0.55,-0.46 1.26,-0.35 1.92,-0.09 8.22,3.25 8.51,-2.42 8.02,-3.4 -0.77,1 -1.33,3.79 -5.47,2.42 -1.75,-0.58 -1.62,-3 0.21,-3.1 7.1,-0.37 23.57,-1.81 30.35,-7.42 0.25,-0.2 -0.14,-0.34 -0.31,-0.29 l -0.02,-0.02 z m -13.72,177.88 c -0.25,-2.18 -1.62,-3.8 -3.31,-5.1 -0.21,-0.17 -0.69,0.06 -0.41,0.29 1.49,1.32 2.48,3.07 3.31,4.84 0.06,0.14 0.43,0.15 0.41,-0.05 z m 13.24,-51.95 c 0.14,0.08 0.58,0 0.4,-0.21 -5.13,-6.41 -13.29,-6.42 -19.62,-2.21 0.84,-2.36 1.76,-4.64 3.79,-6.32 0.12,-0.11 -0.09,-0.2 -0.18,-0.12 -2.71,1.9 -3.92,4.84 -5.3,7.77 -0.25,0.54 0.72,0.61 1,0.41 6.71,-4.61 13.3,-3.25 19.93,0.69 v -0.02 z m -70.78,56.79 c -0.25,0.31 0.38,0.46 0.58,0.25 1.66,-1.85 3.83,-2.7 6.04,-3.68 0.23,-0.11 0.09,-0.35 -0.12,-0.34 -2.53,0.2 -4.94,1.82 -6.48,3.79 z m 45.43,-61.37 c 0,0 1.59,-3.74 -0.12,-2.39 -0.69,0.69 -2.07,4.54 -2.25,4.9 1.92,1.33 2.31,-1.04 2.38,-2.5 v -0.02 z m -37.23,0.24 c -0.11,-0.05 -0.28,0.09 -0.12,0.15 4.23,1.92 6.28,6.41 8.98,9.92 0.09,0.12 0.46,0.08 0.38,-0.12 -1.61,-4.05 -5.09,-8.34 -9.23,-9.96 l -0.02,0.02 z m 46.01,58.45 c 0.11,0.12 0.58,0.08 0.46,-0.14 -2.97,-5.15 -9.35,-6.88 -14.68,-4.57 -0.14,0.06 -0.05,0.2 0.08,0.2 0.8,-0.02 1.58,-0.03 2.38,-0.06 0.11,0 0.11,-0.12 0,-0.12 -1.09,0 -3.05,0 0.11,-0.57 1.78,-0.32 3.6,-0.17 5.3,0.44 2.61,0.93 4.52,2.82 6.35,4.83 l 0.02,-0.02 z m 19.69,45.8 c 0.17,0 0.51,-0.18 0.31,-0.38 -1.69,-1.73 -3.59,-2.94 -5.56,-3.59 1.06,0.44 2.1,1.12 3.1,2.08 1.69,1.64 0.35,1.29 -1.27,1.49 -1.13,0.14 -2.25,0.37 -3.34,0.69 -2.31,0.67 -4.49,1.78 -6.42,3.2 -4.02,2.99 -6.71,7.31 -7.63,12.2 -3.59,-7.16 2.73,-18.06 10.15,-20 -1.9,0.38 -3.79,1.27 -5.55,2.74 -4.92,4.09 -7.97,11.57 -4.66,17.5 0,0.06 -0.03,0.11 -0.03,0.17 -0.03,0.18 0.37,0.2 0.41,0.05 2.45,-9.76 10.24,-16.32 20.49,-16.16 h 0.02 z m -194.68,27.2 c -0.17,1.58 0.43,4.63 1.56,3.53 0.83,0.03 5.44,-8.49 21.01,-7.71 -0.35,-0.78 -1.38,-1.49 -1.92,-1.82 -0.2,-0.12 -0.41,-0.2 -0.66,-0.25 -1.89,-0.34 -4.89,-0.87 -9.81,1.53 -1.15,0.57 -8.26,6.91 -8.6,6.94 v 0 c -4.75,-1.55 8.57,-13.7 8.69,-14.24 -0.35,-0.74 -9.72,6.54 -10.3,12 l 0.02,0.02 z m 189.42,-31.17 c -1.79,-0.75 -3.63,-0.8 -5.41,-0.34 1.82,-0.37 3.65,-0.25 5.41,0.34 z m -20.34,36.22 c -1.73,2.9 -19.53,7.34 -13.18,0.11 3.88,-9.06 -5.06,3.16 -6.01,5.84 4.14,3.4 9.12,0.4 13.23,-1.36 11.91,0.44 8.87,-15.6 5.96,-4.6 v 0.02 z m 5.81,4.34 c 2.05,-3.57 -2.07,-3.49 -2.04,0.05 -2.67,2.8 1.67,3.54 2.04,-0.05 z m -34.38,-25.65 c 7.36,-16.43 21.55,-3.53 27.24,7.77 0.86,2.16 -0.34,0.78 -1.13,-0.63 -6.9,-6.68 -16.42,-11.65 -25.44,-6.77 -0.21,0.12 -0.81,-0.03 -0.66,-0.37 v 0 z m 1.67,-1.27 c 0.31,0.35 1.72,-0.4 2.47,-0.6 7.8,-2.07 15.39,2.05 21.12,7.6 -2.22,-3.63 -4.94,-7.04 -8.08,-9.66 -3.16,-2.62 -7.2,-4.92 -11.28,-2.65 -0.87,0.49 -5.15,4.26 -4.23,5.3 v 0 z m 131.65,-102.63 c 2.41,-4.57 -0.34,-8.26 -4.06,-10.87 -0.2,-0.14 -0.63,-0.11 -0.64,0.2 -0.15,2.28 -0.05,4.57 0,6.85 -2.56,-6.44 -8.43,-16.72 -14.41,-11.42 -0.15,0.14 -0.25,0.35 -0.09,0.52 3.53,4 6.56,8.51 8.61,13.44 0,0.03 0.09,0.03 0.08,-0.02 -1.09,-3.85 -2.76,-7.27 -5.06,-10.51 -0.98,-1.39 -3.53,-3.57 -0.51,-3.8 1.79,-0.14 3.22,1.15 4.38,2.39 3.26,3.48 5.61,8.32 7,12.86 0.14,0.46 1.13,0.4 1.13,-0.11 0,-0.95 -0.93,-9.17 -0.17,-9.41 0.83,-0.26 3.08,3.11 3.37,3.79 0.89,2.05 0.31,3.92 -0.11,5.99 -0.05,0.26 0.38,0.29 0.49,0.09 h -0.03 z m 55.36,-154.12 c -4.41,-3.16 -10.61,-7.51 -13.07,-13.5 -6.67,1.87 13.2,17.23 13.07,13.5 z m -155.64,292.68 c 0.77,0.23 6.82,-6.56 6.24,-7.05 -0.09,0.21 -0.41,0.64 -0.67,1.03 -0.66,0 -1.56,0.66 -1.92,1.35 -0.78,0.17 -5.52,4.94 -5.49,5.81 -11.62,7.94 7.92,22.88 5.21,31.25 -0.81,2.48 -8.94,6.81 -13.11,8.17 2.16,0.69 6.94,-1.66 8.12,-2.42 21.04,-13.35 -11.77,-27.85 1.61,-38.17 v 0.03 z m 180.53,-275.1 c -2.04,-1.98 -25.95,66.31 -25.95,66.31 -0.51,2.7 -12.31,33.26 -9.99,21.87 0.23,-9.38 15.66,-78.54 14.91,-79.96 -1.06,0.54 -2.04,0.97 -2.04,2.33 v 0 c -1.5,8.75 -15.51,81.9 -16.68,86.2 v 0 l -2.3,17.57 c 0,0 42.95,-113.65 42.06,-114.33 l -0.02,0.02 z m -213.33,129.24 c 2.77,-0.12 13.27,3.69 8.97,-3.6 -0.58,-1 -2.84,-4.84 -2.79,-5.33 0.58,-0.02 7.51,6.44 8.97,6.3 2.85,-0.29 6.56,-5.24 9.61,-11.36 -0.08,-1.29 -1.59,-0.29 -2.99,1.06 0.38,-10.88 0.9,-58 0.55,-80.04 -0.15,-0.93 0.55,-2.58 -1.06,-2.54 -1.36,0.43 -0.46,4.51 -0.46,4.51 0.78,20.06 -0.48,64.1 0.64,78.4 -1.07,1.07 -2.01,2.28 -2.08,2.71 -0.2,1 -5.98,4.55 -6.81,3.97 -2.65,-1.85 -6.62,-5.93 -7.83,-5.63 v 0 c -1.75,-0.12 0.74,5.61 1.33,8.68 0.17,0.84 -0.48,1.62 -1.35,1.66 -2.87,0.09 -5.96,-0.34 -8.51,0.66 0.9,1.44 2.44,0.63 3.82,0.6 l -0.02,-0.03 z m 157.51,-11.51 c -5.01,2.45 -5.38,10.7 -3.05,15.1 0.12,0.23 0.69,0.17 0.57,-0.11 -2.22,-5.32 0.4,-10.18 2.85,-14.78 0.11,-0.18 -0.26,-0.26 -0.37,-0.2 v -0.02 z m -275.67,124.29 c -0.58,-1.67 -8.06,-1.44 -7.73,0.11 0.2,0.89 0.11,-0.17 2.64,-0.51 1.99,-0.48 4.83,0.57 5.09,0.4 z m 266.78,-114.24 v 0 c 0.14,-0.89 0.26,-1.76 0.4,-2.65 0,0 1.62,-7.74 0.48,-5.87 -1.26,2.1 -1.9,4.6 -2.27,7.02 v 0 c 0.28,8.83 1.39,1.5 1.39,1.5 z m -165.26,168.85 c 0.74,2.21 3.6,7.45 8.08,12.2 2.04,2.16 7.8,9.38 8.86,10.28 5.78,4.95 19.31,-0.32 16.08,-1.81 -2.27,-0.06 -3.6,2.04 -5.95,2.28 v 0 c -4.72,2.16 -12.28,-3.86 -12.28,-3.86 0,0 -5.47,-4.41 -9.93,-12.68 -3.99,-7.4 -5.49,-8.55 -4.95,-6.68 -8.54,0.9 -6.27,9.21 -4.4,15.51 0.78,2.67 2.12,5.59 2.22,8.38 0.17,3.86 -2.16,6.81 -3.92,10.1 -1.46,2.71 -2.58,5.29 -3.23,8.28 -0.48,2.16 -2.01,16.31003 -9.12,8.28 -2.94,-3.31 -1.47,-11.59 -1.95,-15.77 -0.48,-4.17 -2.1,-7.76 -5.12,-10.76 -5.26,-5.24 -13.14,-7.22 -17.76,-13.21 -6.33,-8.2 -3.51,-20.2 -3.37,-29.72 0,-0.12 -0.25,-0.12 -0.25,0 -0.17,8.45 -2.41,18.16 1.12,26.23 2.73,6.27 8.8,9.26 14.29,12.74 7.99,5.04 10.38,10.85 10.87,19.77 0.2,3.51 -0.03,9.95 2.88,12.61 7.4,6.76003 9.1,-12.34 10.47,-15.37 2.48,-5.52 6.35,-9.29 5,-15.51 -1.3,-6.01 -8.78,-20.19 2.36,-21.26 l 0.02,-0.03 z m -38.61,-31.57 c 0,0 0.09,-0.02 0.05,-0.05 -0.41,-0.23 -0.8,-0.51 -1.15,-0.81 -0.06,-0.05 -0.17,-0.05 -0.21,0.02 -0.12,0.17 -0.25,0.32 -0.37,0.49 -0.03,0.05 -0.03,0.09 0,0.12 3.72,4.97 10.45,15.24 18.3,12.66 3.34,-1.1 5.13,-5.06 8.14,-6.65 2.3,-1.21 0.49,-1.47 3.99,-0.9 3.22,0.51 5,2.96 6.54,5.66 1.82,3.17 2.5,6.77 3.42,10.28 0.17,0.63 1.27,0.77 1.75,0.51 7.4,-4.11 10.59,-20.59 1.89,-24.85 -0.2,-0.11 -0.64,0.06 -0.46,0.34 3.85,5.76 4.41,17.04 -1.29,22.04 -1.75,-6.27 -5.64,-18.09 -13.58,-16.46 -3.02,0.61 -4.75,4.22 -7.22,5.69 -2.18,1.3 -7.02,3.14 -9.72,2.28 -2.47,-0.78 -5.04,-3.68 -6.84,-5.56 -0.25,-0.26 -5.56,-5.95 -3.23,-4.77 v -0.03 z"
     style="fill:#010202;stroke-width:0px" />
</svg>
