<?xml version="1.0" encoding="UTF-8"?>
<svg id="Monalisa" xmlns="http://www.w3.org/2000/svg" viewBox="0 0 425.2 425.2">
  <path id="Monalisa-2" data-name="Monalisa" d="M232.53,107.84c-.39-1.15-.59-2.42-.56-3.63.02-.56.75-1.17,1.28-1.61.15-.12.83.18,1.09.46.56.6,1.19,1.23,1.49,1.97,8.02,20.08,39.46,120.73,42.13,129.02,1.03,3.19,1.45,6.34,1.12,9.62-1.52-.82-2.11-2.24-2.64-3.81-4.24-12.56-31.82-96.2-36.93-112.01-2.17-6.72-4.69-13.32-6.98-20ZM289.86,278.97c.24-.3,1.53-1.1,1.53-1.1l-8.78-25.8-1.98.74s8.72,26.8,9.23,26.15ZM228.99,304.11c.1-.37.17-.76.2-1.17-2.9,1.41-5.85,2.72-8.67,4.25-1.77.96-3.33,2.29-4.05,4.32,4-.47,7.32-2.49,10.56-4.67,1.04-.7,1.66-1.63,1.96-2.73ZM321.28,291.6c-9.83,7.09-112.9,66.2-129.3,73.5-1.13.5-2.35.87-3.56,1.12-1.72.36-3.41-.08-4.64-1.28-1.47-1.44-3-2.98-3.96-4.77-2.18-4.03-58.63-161.4-67.4-191.83-1.85-6.41-3.83-12.77-5.55-19.21-4.1-12.04,2.32-20.36,11.81-25.76,21.85-13.86,45.02-25.43,68.66-35.94,11.98-3.23,61.55-35.29,66.62-18.96,2.75,6.53,66.49,212.89,68.92,217.78,1.1,2.22.48,3.86-1.59,5.35ZM158.46,118.94c-.96-2.76-1.99-5.75-3.04-8.78-5.6,1.52-11.82,3.95-13.14,9.88-1.13,8.92,12.92,2.85,16.19-1.11ZM122.96,181.15c1.5,4.76,3.09,9.74,4.76,14.89.33-.49.72-.95,1.22-1.35.74-.6,1.6-.92,2.49-1.13.15-4.59-.7-8.96-2.92-13.02-.03,0-.05,0-.08,0-2.01-.29-3.95-.28-5.47.61ZM137.65,226.09c1.57-1.38,3.44-2.1,5.52-1.98-.31-.81-.49-1.29-.53-1.36-3.18-6.86-6.28-13.83-6.41-21.39-.04-2.48-1.02-3.58-2.32-4.19-1.94.04-3.98.32-5.33,1.57,2.86,8.79,5.92,18,9.06,27.36ZM217.13,344.39c-.16-.72-.8-1.69-1.44-1.88-1.55-.46-3.22-.74-4.82-.68-1.18.05-2.41.61-3.5,1.18-4.42,2.28-8.78,4.65-13.18,6.97-1.22.64-3.88-.05-4.43-1.2-.76-1.59-33.87-90.69-44.13-118.1-.48.28-1.02.47-1.7.43-1.17-.07-2.76.16-3.96.71-.12.05-.22.14-.33.21,17.69,52.32,37.22,106.64,38.23,109.62,2.22,6.53,5.98,12.46,7.36,19.31.22,1.07,2.17,1.88,3.06,1.4,8.76-4.76,17.52-9.51,26.27-14.3.72-.39,1.46-.89,1.93-1.53.42-.58.77-1.49.63-2.14ZM247.32,328.39c-.45-.55-.83-1.48-1.37-1.58-1.17-.22-2.61-.4-3.61.08-7.38,3.55-14.69,7.25-22,10.93-.75.38-.87,2.6,0,3.31.88.72,2.36,1.77,3.06,1.46,7.91-3.42,15.54-7.43,22.75-12.17.58-.38.79-1.34,1.17-2.04ZM286.24,305.51c-.08-2.3-2.13-3.71-3.51-3.06-.37.18-.82.22-1.16.43-9.83,6.11-19.66,12.22-29.46,18.37-.64.4-1.15,1.1-1.56,1.76-.14.23.09.85.33,1.15,1.1,1.38,3.05,1.96,4.37,1.26,9.11-4.87,18.22-9.74,27.29-14.68,1.06-.57,2.09-1.44,2.74-2.43.64-.96.78-2.25.95-2.8ZM316.71,282.83c-8.81-27.66-48.88-153.49-51.22-160.9-4.39-13.9-9.3-27.63-14.04-41.42-2.23-4.99-2.85-13.03-10.38-11.62-2.92.37-80.12,37.97-81.2,41.04-.14,10.23,2.69,6.45,11.5,2.04.82-.68,47.57-22.76,50.85-19.52-5.16,7.57-68.83,33.34-90.46,47.57-2.88,1.89-7.82,5.02-6.88,7.84.9,2.71-.29,2.27-2.3.83-3.03-2.17-2.78-6.73.42-8.63,4.87-2.91,17.96-13.02,15.55-18.14-3.29-5.37-23.5,9.23-27.11,12.25-1.82,1.53,2.88,19.26,10.51,43.76,1.24-.71,2.86-1.06,4.47-1.19-.05-.13-.09-.25-.14-.38.03-.04.07-.08.1-.12-.04-.07-.08-.13-.12-.2,1.47-1.02,2.1-2.53,1.42-4.11-1.41-3.27.7-6.42.7-6.42,52.69,149.61,52.53,149.32,58.56,163.96,1.26,3.07,2.27,6.24,3.43,9.35.44,1.17,3.16,2.21,4.36,1.69,1.14-.5,101.93-54.56,106.35-57.67,1.42-1,2.02-2.83,1.49-4.37-1.76-5.11-11.46-32.6-13.92-41.57-2.73-10.01-46.45-141.85-48.35-145.07-3.38-8.29-6.74.4-10.4-.78-2.36-.14-4.74-5.79-.87-6.01,4.84-.94,12.08-6.24,13.95-.03,9.29,14.56,62.9,181.97,66.08,192.72.86,2.92-.1,5.85-2.37,8.04-1.79,1.73-3.68,3.4-5.71,4.82-2.73,1.91-5.66,3.52-8.44,5.36-1.02.68-2.21,1.5-2.65,2.54-.42.98-.14,2.39.19,3.5.29.97,2.39,1.75,3.16,1.5.4-.13.88-.08,1.21-.29,4.89-3.03,13.75-8.6,19.22-12.04,2.8-1.76,4.05-5.19,3.04-8.34ZM212.57,120.91c-15.33,5.51-29.79,12.91-44.09,20.62-1.38.75-2.38,2.21-3.56,3.34.29.28.59.55,1.11,1.04.98-.21,2.25-.22,3.25-.75,17.68-9.38,35.71-17.97,54.72-24.35.77-.26,1.43-.83,2.11-1.31.33-.23.62-.55.85-.88.23-.34.57-1.03.49-1.09-.63-.47-1.5-1.32-2.01-1.15-4.33,1.4-8.59,2.99-12.88,4.53ZM227.06,165c0,3.37.78,6.58,2.28,9.63,1.13,2.31,3.45,3.93,5.98,3.65,1.54-.17,3.07-.44,4.61-.6,2.06,1.09,3.46,3.44,4.03,5.73.45,1.84.47,3.81-.08,5.63-.26.86-.65,1.71-1.23,2.4-.64.76-1.68,2.15-2.81,1.88-1.63-.38-2.33,2.13-.69,2.52,2.61.61,4.84-1.54,6.14-3.6.57-.9.96-1.9,1.22-2.94.29.83.59,1.67.88,2.5-.93,1.76-1.77,3.56-1.56,5.68.57.58,1.03,1.37,1.71,1.68,1.14.52,2.15,1.12,3.04,1.78,1.12,3.26,2.21,6.53,3.24,9.83.11.35.33.58.58.72.09.9.51,1.86.78,2.75.09.3.55.55.89.67.34.12.79.16,1.1.02.35-.16.87-.6.83-.84-1.34-8.05-22.07-65.89-25.9-79.49-.44-1.57-.53-3.27-.51-4.91,0-.6.78-1.19,1.36-2.01,1.91,3.35,36.35,101.2,39.19,112.41,2.84,11.2,6,22.31,8.99,33.47.57,2.14-.28,4.22-2.18,5.27-2.89,1.6-30.84,17.78-40.01,21.14.42-1.13.63-2.42,1.33-3.33.73-.94,31.3-17.82,33.33-19.25,2.22-1.57,3.29-3.76,3.08-6.41-.16-2.04-.39-4.17-1.12-6.05-1.49-3.85-3.33-7.57-5.22-11.79-.84,1.04-1.9,1.77-2.07,2.67-.7,3.65-1.02,7.38-1.69,11.04-.5,2.76-1.01,5.64-3.8,7.28-1.96-6.23-1.88-6.24.11-12.26.26-.78.61-1.58.63-2.38.22-7.88.45-15.77.53-23.65.03-3.36-.99-6.49-2.4-9.57-1.55-3.4-4.33-4.91-7.59-5.85-.3-.09-.75.1-1.15.37,9.32,8.72,10.34,25.58,1.67,35.06-.13.15-.72.19-.67-.13,1.2-6.48,3.63-12.71,3.01-19.4-.43-4.63-2.08-8.69-4.89-12.36-.16-.21-2.5-2.11-3.51-3-.95-.09-2.19.22-4.43.76-.43.1-.8.2-1.18.31-.29.37-.56.75-.72,1.18-1.71,4.28-2.97,8.67-2.68,13.36.38,6.18-.31,12.37,2.48,18.37,3.12,6.71,2.76,6.87,1.25,14.38.55.6,1.07,1.25,1.67,1.79.93.83,1.99,1.51,2.87,2.38,1.45,1.44,1.27,4.31-.44,5.5-1.34.93-2.83,1.99-4.37,2.22-4.54.69-9.15.71-13.66-.26-1.01-.22-1.84-1.3-2.73-2.07.03-.04.06-.09.1-.14,3.97-.05,7.95-.04,11.91-.18,1.17-.04,2.41-.34,3.45-.85.51-.25.73-1.24.92-1.95.05-.19-.47-.65-.81-.8-.71-.32-1.67-.94-2.19-.7-4.03,1.86-8.48,2.25-12.61,3.73-.28.1-.46.45-.67.75-.08,0-.17,0-.25,0l.13.16c-3.54,1.29-5.03,4.1-5.59,7.59-.22,1.58-.37,3.18-.67,4.74-.28,1.45.65,2.13,1.49,3.01.76.79.5,1.59-.45,1.78-2.57.51-4.39-.5-4.51-2.62-.04-.8,0-1.6.06-2.41.07-.81.16-1.61.21-2.42h0c-.3-.23-.57-.46-.81-.67-1.68-1.52-1.82-2.68-.58-4.09,2.17-2.48,4.35-4.95,6.48-7.47.21-.24.15-.85,0-1.2-.12-.29-.55-.6-.87-.63-3.28-.28-6.58-.37-9.84-.79-3.24-.42-6.42-1.2-9.65-1.74-1.3-.21-3.54,1.19-4,2.46-1.12,3.1-2.32,6.19-3.17,9.37-.41,1.54-.19,3.28-.08,4.92.16,2.45,2.3,4.65,4.83,4.87,2.88.25,5.77.28,8.66.47.37.02,1.04.47,1.02.58-.16.66-.31,1.55-.79,1.87-3.74,2.49-7.72,2.83-11.73.73-1.74-.91-3.33-2.1-4.98-3.19.23,1.64.45,3.28.68,4.92.81,1.52,1.66,3.02,2.41,4.47.79,1.53,1.88,3.77,3.19,5.8,3.17,1.6,6.45,1.91,9.97.25,2.6-1.23,4.66-.27,6.23,1.99-3.54,1.95-7.26,3.16-11.24,2.96.04.43-.26.87-.85.76-1.36-.25-2.54-.93-3.59-1.81-.29-.15-.6-.26-.85-.44-.54-.4-.83-.89-.99-1.43-1.37-1.71-2.45-3.71-3.35-5.42-1.25-2.37-2.36-4.89-3.06-7.5-.1-.01-.21-.04-.31-.05-.69-.06-1.42-.02-2.1.13-.15.03-.31.77-.2,1.09,1.21,3.52,2.5,7.01,3.71,10.53.11.31-.11.79-.28,1.14-.46.93-1.23.98-1.84-.03-5.22-8.6-8.69-18.03-12.14-27.38-4.75-12.88-9.49-25.77-13.5-38.93-4.61-15.15-10.6-30.59-14.71-45.86-1.41-5.22.77-9.8,1.21-8.29,2.58,8.75,24.59,73.42,25.69,77.08.48,1.61,3,.92,2.52-.69-2.41-8.05-30.17-95.02-31.01-97.15-1.09-2.77-1.29-5.64-.72-8.56.07-.37.4-.79.73-.97.18-.1.81.2.89.43,1.21,3.5,35.82,112.88,41.27,129.86.32.99,1.27,1.78,2.01,2.63-.05-1.24-.1-2.48-.14-3.71-.1-4.04.06-8.06,1.52-11.99.56-1.51.67-3.25.73-4.89.23-6.23.31-12.47.53-18.7.15-4.21,0-8.31-2.43-12.01-.67-1.02-1.02-2.27-1.46-3.44-1.71-4.5-1.62-8.96.43-13.33.7-1.5,1.58-2.92,2.38-4.37.92-1.67.51-3.32-.54-4.64-1.54-1.95-3.41-3.63-5.03-5.52-2.21-2.59-3.82-5.52-3.62-9.04.18-3.12-1.26-5.62-2.76-8.11-1.93-3.21-3.93-6.37-5.88-9.56-1.82-2.98-2.2-6.24-1.72-9.63.59-4.17,2.06-8.05,4.21-11.65,1.3-2.18,2.99-4.11,5.41-4.99,6.31-2.29,11.84-5.97,17.56-9.34,2.89-1.7,6.14-2.46,9.57-2.41,3.05.04,5.73.88,7.96,3,1.21,1.15,2.46,2.25,3.56,3.49,3.1,3.5,5.42,7.34,5.42,12.25ZM202.23,207.48c.61,1.46,1.92,2.69,3.1,3.82.87.83,1.99,1.55,3.12,1.93,4.54,1.48,12.17-1.45,15.22-5.42,2.43-2,4.54-4.56,5.33-7.5.5-1.86.22-3.71-.75-5.28-.03-.28-.08-.57-.12-.85-2.93-1.3-6.16-4.85-8.88-8.89-.09.92-1.2,1.37-1.88.95-.91-.2-1.56-.73-2.06-1.6-.41-.72-.56-1.49-.59-2.28-1.91,1-3.77,2.07-5.59,3.24-.74.47-1.74-.49-1.23-1.23.99-1.44,2.37-2.25,3.94-2.92.55-.24,1.12-.45,1.68-.67.06-.03.12-.05.18-.07.28-.11.56-.21.84-.33.52-.22.96-.5,1.46-.6-1.25-2.43-2.19-4.75-2.65-6.57-.76-1.32-1.65-2.55-2.83-3.47-1.62-1.86-3.63-2.82-6.29-2.64-2.45.16-4.91.58-7.36.5-.54-.02-1.01.05-1.44.18-.2-1.24-.32-2.48-.32-3.79,0-.27-.12-.53-.28-.75-.36,1.95-1.04,3.8-1.82,5.64.05.26.08.53.13.79-.07.11-.16.21-.22.33-1.7,3.27-3.1,6.7-4.53,9.87,1.91,3.32,4.54,6.32,5.42,9.78,1.68,6.57,5.87,11.79,8.4,17.86ZM197.88,258.74c-1.89,2.62-1.25,5.28-.17,7.96,1.98-2.61,1.5-5.26.17-7.96ZM205.35,247.22c1.08-3.54,1.84-7.17,2.67-10.77.06-.24-.44-.6-.7-.94-4.17,2.45-6.75,6.12-7.8,10.77-.35,1.54,0,3.25.13,4.87.03.33.41.77.74.9.34.14.87.08,1.22-.09,1.98-.98,3.15-2.77,3.74-4.73ZM217.07,267.46c-.26-1.13-.5-2.34-.83-3.52-.61-2.16-1.99-3.55-4.2-4.11-1.6-.41-3.24-.76-4.77-1.37-.97-.39-1.76-.52-2.09.42-.24.69-.15,1.59.06,2.31.34,1.19,1.02,2.28,1.35,3.47.82,2.9,2.98,3.74,5.66,3.87,1.65.08,3.32.24,4.82-1.07ZM230.44,269.28c-.73-3.98-1.98-7.77-4.86-10.8-.23-.24-.7-.25-1.51-.51-1.07.65-2.51,1.35-3.69,2.34-.47.39-.71,1.61-.46,2.19.98,2.19,2.01,4.42,3.4,6.35,1.25,1.75,3.35,2.22,5.46,1.78.65-.14,1.72-1,1.66-1.36ZM232.77,254.59c-.53.55-1.01,1.35-1.1,2.1-.53,4.32.92,8.02,4.03,10.99.4.39,1.69.28,2.28-.07.97-.57,1.71-1.54,2.78-2.56-1.7-3.8-3.34-7.47-5.02-11.12-.13-.28-.7-.63-.91-.54-.74.29-1.53.64-2.06,1.2ZM233.95,241.65c-.24-2.06-.87-4.09-.95-6.15-.09-2.46.23-4.93.37-7.49-1.15-.71-2.17-1.37-3.22-1.99-1.07-.64-2.2-1.18-3.23-1.88-2.36-1.59-3.02-3.63-2.16-6.45.36-1.17.93-2.31,1.04-3.5.04-.47-1.14-1.56-1.38-1.46-2.67,1.1-5.29,2.35-7.88,3.64-1.15.57-1.52,1.93-.92,3.13.74,1.49,1.61,2.91,2.35,4.4.84,1.67.47,3.28-.69,4.59-1.09,1.23-2.57,2.14-3.62,3.4-.76.91-1.61,2.21-1.53,3.26.48,5.92-.98,11.52-2.28,17.18-.37,1.62,1.39,3.11,3.18,2.73,2.44-.51,4.85-1.2,7.31-1.56,3.39-.49,6.29-2.07,9.22-3.65,3.27-1.76,4.8-4.5,4.38-8.2ZM181.67,128.5c3.82-.16,6.94-2.25,10.18-3.91,5.06-2.59,22.91-9.78,26.31-12.01.23-.15.35-.93.19-1.11-.47-.5-1.23-1.29-1.66-1.17-3.89,1.07-13.96,5.64-15.4,6.29-6.33,2.86-12.58,5.9-18.83,8.92-.7.34-1.28.95-1.84,1.52-.14.14-.09.67.06.86.24.29.66.64.98.62ZM269.18,289.75c-7.81,2.99-56.19,30.42-60.79,33.92-.15.11-.25.29-.33.49-.08.2-.15.41-.25.59h0c.68.27,1.53.96,2,.76,5.24-2.24,52.44-29.23,59.76-33.89.3-.19.4-.71.6-1.08-.7-.27-.47-.98-.99-.78ZM202.67,191.73c.87,1.34,2.41,1.81,3.8.92.93-.59.79-1.78.02-2.29-.1-.77-.37-1.57-.82-2.24-.31-.45-.76-.72-1.26-.91-.61-.57-1.74-.5-2.31.1,0,0-.01,0-.02,0-.04,0-.06-.02-.1,0-.06.02-.12.05-.17.08,0,0,0,0,0,0,0,0-.02,0-.02.01-.92.36-1.78.85-2.53,1.48-.7.47-1.35,1-1.95,1.63-.61.64.16,1.63.94,1.22,1.31-.7,2.44-1.65,3.62-2.54.12.89.34,1.79.83,2.53ZM210.62,195.82c1.53.13,3.01-1.04,4.15-1.92.85-.65-.14-1.89-.89-1.15-.77.75-1.63,1.65-2.67,2.01-1.53.52-2.08-1.16-2.38-2.34-.07-.26-.52-.21-.48.07.18,1.37.61,3.2,2.28,3.34ZM207.83,204c1.76,1.25,4.41.11,5.77-1.24.15-.15.2-.3.21-.45.03.03.07.06.12.04,2.87-1.28,6.09-2.46,7.99-5.1.51-.71,1.13-1.72.85-2.64-.29-.96-1.3-1.32-2.2-1.13-.66.14-.5.97,0,1.18,1.1.46,1.04.88.47,1.89-.34.61-.77,1.19-1.26,1.68-1.66,1.67-3.94,2.77-5.98,3.92,0,0,0,.01,0,.01-.09-.48-.73-.84-1.25-.43-1.14.92-2.31.91-3.68.81-.29-.02-.74,0-.92-.28-.31-.49.54-1.52.93-1.64.22-.07,0-.38-.13-.22-.34.41-.97.54-1.36.92-.24.24-.43.54-.49.87-.14.75.34,1.4.92,1.82Z" style="fill: #000; stroke-width: 0px;"/>
</svg>