<?xml version="1.0" encoding="UTF-8"?>
<svg id="Ratón" xmlns="http://www.w3.org/2000/svg" viewBox="0 0 425.2 425.2">
  <path d="M266.02,252.78c-.06-.21-.14-.41-.25-.6-16.45-28.43-48.86-24.26-70.97-5.17-.41,1.06-10.52,15.24,2.83,37.75.33.55-10.52-.27-9.75-22.82.15-4.34.98-9.86,2.34-13.99-6.27,1.21-23.19,11.66-17.51,35.32.4,1.65-1.97,2.67-3.42,1.8-18.04-10.89-11.12-45.74-3.07-56.6,11.66-15.73,60.07-42.88,51.57-68.97-6.82-20.94-47.76,2.35-63.38,15.07-.61.5-1.43.66-2.17.4-2.5-.88-4.69-2.24-7.59-.1-5.82,4.27-7.87,9.64-11.66,16.11-1.6,2.72,6.9,10.23,8.36,9.17,3.95-2.88,9.47-9.43,13.96-14.56,1.61-1.85-.39-7.45,1.69-8.96,17.93-13,30.87-21.15,43.82-20.68,10.95.4,16.48,9.3,12.07,19.33-10.35,23.54-46.63,41.65-54.14,60.26-5.79,14.37-8.16,49.35,12.88,55.01,0,0,2.16,17.8,27.62,13.23,25.23-4.52,75.61-17.99,66.79-51.01ZM144.37,195.06l-1.7,1.96c-.83.96-2.3,1.04-3.24.18l-4.16-3.83c-.77-.71-.95-1.85-.44-2.76l1.29-2.32c.71-1.28,2.42-1.55,3.5-.57l4.58,4.19c.9.83.98,2.22.18,3.15Z" style="fill: #000; stroke-width: 0px;"/>
</svg>