<?xml version="1.0" encoding="UTF-8"?>
<svg id="Switch" xmlns="http://www.w3.org/2000/svg" viewBox="0 0 425.2 425.2">
  <path id="Switch-2" data-name="Switch" d="M332.52,177.57c-1.63,3.8-4.35,6.17-8.63,6.44-1.54.1-3.21-.97-3.58-2.2-.38-1.27.18-2.3.9-3.14,2.33-2.72,5.4-4.02,7.02-4.31,3.17-.1,4.78,2.08,4.29,3.22ZM96.64,192.95c2.78-9.98-1.19-11.3-4.02-13.31-.74-.52-2.28-1.15-3.43-1.15-4.33,0-9.54,5.96-11.65,13.31-2.11,7.35-.31,13.31,4.02,13.31.18,0,.36-.03.55-.05.77.76,1.73,1.19,2.89,1.19,4.33,0,9.6-5.95,11.65-13.31ZM309.63,199.84c4.53-.76,10.6-6.5,5.26-10.08-4.22-1.85-9.18,1.65-9.43,6.08-.38,2.42,1.71,4.56,4.17,4ZM282.59,215.19c-.19-1.41-.86-2.56-2.13-3.23-3.82-2.03-11.23.8-16.53,6.3-4.74,4.92-4.46,9.58-3.71,12.84.22.94.86,2.56,2.13,3.23,3.82,2.03,11.23-.8,16.53-6.3,4.74-4.92,6.18-10.3,3.71-12.84ZM330.95,185.99c-.74-.2-1.51-.27-2.36-.42-3.24.18-5.73,1.78-7.6,4.49-.83,1.21-.4,3.27.94,4.06.66.39,1.34.85,2.06.98,4.4.79,7.42-1.08,8.93-5.42.45-1.29-.59-3.31-1.96-3.68ZM81.62,229.31c.79-2.74-.8-4.96-3.54-4.96s-5.6,2.22-6.38,4.96c-.79,2.74.8,4.96,3.54,4.96s5.59-2.22,6.38-4.96ZM70.09,239.23c.79-2.74-.8-4.96-3.54-4.96s-5.6,2.22-6.38,4.96c-.79,2.74.8,4.96,3.54,4.96s5.6-2.22,6.38-4.96ZM69.55,254.11c2.74,0,5.6-2.22,6.38-4.96s-.8-4.96-3.54-4.96-5.6,2.22-6.38,4.96.8,4.96,3.54,4.96ZM80.7,244.19c2.74,0,5.6-2.22,6.38-4.96.79-2.74-.8-4.96-3.54-4.96s-5.6,2.22-6.38,4.96c-.79,2.74.8,4.96,3.54,4.96ZM361.69,200.81c-5.57,4.49-58.53,54.67-75.5,64.3-6.2,3.52-12.97,4.98-19.87,6.18-14.5,2.52-25.26-4.97-31.24-10.23-1.48-1.3-2.78-2.8-4.26-4.09-1.17-1.01-2.76-1.37-4.28-1.07-1.89.38-49.22,12.2-61.97,15.46-18.39,4.71-36.93,8.76-55.44,12.96-8.3,1.88-16.43,4.54-24.67,6.73-2.72.72-4.9,2.27-7.11,3.85-3.29,2.36-6.98,3.1-10.97,3.2-6.34.16-12.34-.88-17.96-3.93-7.16-3.87-10.55-9.99-10.89-17.95-.13-3.12,33.52-102.13,42.66-108.31,11.38-7.69,25.76-11.74,28.42-12.24,1.14-.21,2.31-.23,3.47-.27,1.29-.04,2.59.18,3.53.95-.95,2.13-1.88,4.27-2.76,6.43-1.7.82-3.47,1.45-5.28,2.02-3.32,1.04-26.52,1.14-33.9,19.85-1.7,4.3-26.92,74.7-28.24,84.13-.24,1.73,1.36,4.15,3,4.5,5.66,1.21,11.25,2.8,17.11,2.83,3.1.02,6.19.16,9.28.27,1.26.05,3.02,1.2,2.61,1.55-.57.47-1.26,1.02-1.94,1.08-8.87.72-17.73,1.06-26.52-.9-.26-.06-.73.34-.92.64-.17.28-.24.76-.12,1.06,1.06,2.69,3.12,4.5,5.75,5.33,3.31,1.04,6.74,1.76,10.16,2.36,4.28.75,8.41.11,12.46-1.63,2.38-1.02,3.77-2.63,4.48-4.92,3.46-11.06,37.92-122.4,38.04-122.77.07-.16.14-.32.21-.49,2.24-2.11,140.99-39.53,143.68-39.84,2.43-.28,12.28,16.59,11.44,20.59-.24,1.13-6.88,55.81-9.4,65.53-.07.27.24.74.51.95.22.17.73.23.95.09,2.92-1.87,5.78-3.85,8.74-5.66,2.29-1.39,4.67-2.64,7.1-3.76.43-.2,1.31.49,1.92.87.09.05-.1.78-.33,1.05-.99,1.17-38.78,34.12-42.3,37.3-3.38,3.05-3.74,6.44-1.4,10.38,3.82,6.43,13.73,10.39,18.1,10.63,2.63.14,5.25.56,7.87.91.17.02.38.54.38.83,0,.35-.07.88-.3,1.02-.94.58-6.71,1.23-8.57.93-2.62-.42-7.83-1.46-7.83-1.46-.71.63,2.45,7.33,12.85,6.91,32.41-1.31,89.09-63.04,92.08-66.04,1.07-1.08,1.9-2.41,2.82-3.64.73-.96.36-2.63-.57-3.05-.88-.4-34.55,27.66-41.61,33.63-.54.46-.95.3-1.34-.08-1.51-1.48-1.52-3.94-.2-5.59,3.72-4.63,25.74-21.53,31.87-26.9,2.94-2.57,5.37-5.6,7.36-8.95,1.06-1.78,1.09-3.76.36-5.61-3.01-7.54-8.74-12.61-16.69-12.73-8.18-.11-24.33,13.15-24.98,13.92.94.6,1.93,1.12,2.8,1.79,1.93,1.47,2.37,2.57.89,4.95-.11.18-.19.34-.27.51-.48-.15-.98-.27-1.51-.32-3.02-.32-6.26,1.03-8.21,3.35-.25.29-.46.61-.66.92-.53-1.32-1.35-2.52-2.69-3.54-1.88.24-3.76.59-5.66.67-.63.03-1.42-.53-1.92-1.04-.69-.7-.58-2.49.13-3.19,2.47-2.45,25.54-20.71,27.81-22.8,2.68-2.47,5.79-3.83,9.24-4.7,1.67-.42,3.42-.56,5.12-.27,10.13,1.69,17.38,7.46,22.63,15.84,2.26,3.6,4.07,7.5,5.83,11.38.78,1.72,1.12,3.69,1.36,5.59.6,4.59-.87,8.62-4.75,11.76ZM243.96,180.04c2.01-8.58,4.92-21.02,7.85-33.46,1.24-5.27,2.55-10.53,3.71-15.82.08-.38-.97-1.49-1.26-1.41-14.6,3.88-117.33,33.02-119.44,34-1.44.67-2.54,1.81-2.98,3.38-1.05,3.73-29.4,97.49-30.48,102.39-.22,1.02,1.16,2.37,2.16,2.18,1.51-.29,3.02-.56,4.5-.96,14.93-4.14,29.79-8.57,44.8-12.39,22.52-5.73,45.15-11.04,67.73-16.56,1.87-.46,3.72-1.05,5.52-1.74,2.29-.89,3.82-2.49,4.36-5.02,1.29-6.06,2.51-12.14,4.02-18.14,2.74-10.9,5.66-21.74,9.51-36.46Z" style="fill: #000; stroke-width: 0px;"/>
</svg>