<?xml version="1.0" encoding="UTF-8"?>
<svg id="Destellos" xmlns="http://www.w3.org/2000/svg" viewBox="0 0 425.2 425.2">
  <path d="M323.73,164.69c-2.58,4.86-2.25,7.3-.49,8.79,2.28,1.93,5.8,1.4,7.59-.99,4.07-5.43,4.73-16.35,12.86-12.82,2.95.43,12.11,5.6,13.03,2.42,1.36-4.69-13.55-5.27-17.18-9.35-4.19-4.34,3.64-14.58,4.69-21.12.5-3.13-4.06-4.34-5.35-1.44-8.29,18.61-4.11,24.41-28.14,12.13-2.12-1.01-10.13-4.58-10.97-.7-1.77,8.12,33.64,7.12,23.95,23.07Z" style="fill: #000; stroke-width: 0px;"/>
  <path d="M224.17,188.2c15.39,8.06,28.86-15.95,20.47-28.17-19.93-27.56-52.65,14.45-20.47,28.17ZM221.42,159.06c14.04-10.14,28.73,11,17.47,22.68-13.97,14.3-33.28-12.72-17.47-22.68Z" style="fill: #000; stroke-width: 0px;"/>
  <path d="M222.83,125.44c7.27-1.39,9.97-13.64,1.44-15.41-10.79-2.35-12.03,16.11-1.44,15.41ZM219.09,119.68c-1.13-6.25,5.89-6.97,6.89-2.37,1.25,5.76-6.05,7.04-6.89,2.37Z" style="fill: #000; stroke-width: 0px;"/>
  <path d="M211.78,258.36c14.06-5.1-7.01-22.3-9.33-8.62,12.05-2.05,10.94,10.63,0,3.92-.1,5.25,5.39,5.63,9.34,4.7Z" style="fill: #000; stroke-width: 0px;"/>
  <path d="M183.27,140c-.11,1.6,1.83,3.58,3.5,3.59,1.7,0,3.57-1.81,3.61-3.51.04-1.63-1.88-3.65-3.47-3.64-1.55,0-3.53,1.94-3.64,3.57Z" style="fill: #000; stroke-width: 0px;"/>
  <path d="M88.64,145.43c-29.07,47.11-35.44,13.33-12.45-14.76,1.86-2.28,5.42.25,3.86,2.75-5.7,9.17-14.54,21.24-13.7,27.47.26,1.94,2.8,2.62,4.09,1.15,4.14-4.72,9.61-14.28,14.47-19.53,1.94-2.09,5.22.49,3.72,2.92ZM112.9,172.4c4.42,5.23,13.15,2.51,13.48-4.33.86-17.42-13.66-45.85-17.65-43.33-4.35,2.74,3.71,4.03,12.41,35.63,1.34,4.86-2.78,10.1-6.26,6.45-6.32-6.63-6.61-16.42-9.74-14.8-4.91,2.54,1.42,12.91,7.75,20.38ZM104.57,103.1c5.3-1.04,12.12-15.11,19.29-20.8,1.84-1.46,4.54.33,3.88,2.59-2.62,9.03-13.02,15.5-18.95,23.05-1.8,2.29,1.21,5.26,3.47,3.42,10.36-8.43,24.78-29.21,18.46-36.08-.74-.8-1.99-.9-2.92-.34-8.14,4.92-29.59,29.4-23.23,28.16ZM82.36,71.26c-14.78-10.33-3.21,42.62,3.06,38.01,3.08-2.26-12.45-28.73-6.43-33.54,2.91-2.32,6.35,8.07,9.24,14.67.94,2.14,4.05,1.44,4.01-.89-.1-5.47-5.01-14.29-9.88-18.24Z" style="fill: #000; stroke-width: 0px;"/>
  <path d="M350.97,276.94c-2.78,6.76-6.49,13.03-11.17,18.58-3.43,4.06-7.48,7.62-11.36,11.28-.74.69-3,1.89-3.58,1.15-1.1-1.4,1.95-4.62,3.55-6.17,7.21-6.96,13.27-14.75,17.36-23.95.25-.57.1-1.48-.18-2.09-.29-.64-1.14-.6-1.84.03-1.7,1.53-3.43,3.04-5.01,4.69-5.29,5.51-10.48,11.11-15.81,16.58-1.3,1.33-3.99,4.12-5.06,3.09-1.09-1.04,1.92-4.65,2.59-5.43,5.43-6.4,9.28-10.93,14.9-17.17,2.29-2.54,4.92-4.8,7.56-6.97,1.13-.93,2.68-1.39,4.09-1.92,1.64-.61,4.05.96,4.4,2.68.39,1.92.3,3.82-.43,5.61ZM295.89,295.22c2.41,2.44,4.77,4.94,7.33,7.21,2.32,2.05,4.14,4.22,3.98,7.53,0,.08.67.28,1.02.26.36-.03.84-.16,1.04-.42,1.3-1.73,1.5-4,.34-5.25-3.11-3.34-6.22-6.69-9.47-9.89-3.87-3.79-6.94-8.08-8.91-13.13-.27-.7-.6-1.47-.55-2.17.05-.67.5-1.35.92-1.92.14-.19.77-.16,1.09-.04,2.66,1,4.1,3.29,5.64,5.45,3.31,4.64,6.51,9.37,10.73,13.27.38.35,1.39.3,1.97.07.71-.28.64-1.07.05-1.84-.23-.3-.41-.64-.85-1.34-3.38-4.53-6.9-9.51-10.7-14.26-1.64-2.05-3.76-3.74-5.81-5.4-2.09-1.68-5.64-.07-6.23,2.68-.49,2.29-.41,4.55.52,6.71,1.97,4.57,4.37,8.89,7.9,12.48ZM309.25,319.67c-1.11-1.85-7.35,4.43-6.29,6.32s7.4-4.46,6.29-6.32ZM346.41,341.55c-2.76-5.34-13.78-24.87-15.85-27.59-.42-.56-2.17-3-3.02-2.5-.78.46.47,3.42.55,3.58,1.77,3.76,12.23,21.32,13.6,24.4.65,1.46,2.59,3.47-2.71,6.63-1.66.99.35,4.65,2.8,3.45,7.02-3.42,4.63-7.97,4.63-7.97ZM299.61,316.81c-1.28,4.6,4.99-.41,4.27-2.41-1.8-1.26-3.42,1.05-4.27,2.41ZM327.02,331.78c-.19,1.5,1.75,4.11,3.11,2.85.87-1.73-2.16-5.24-3.11-2.85ZM293.58,323.23c-.62-.53-3.51,2.17-2.01,2.56.67.17,2.63-2.03,2.01-2.56Z" style="fill: #000; stroke-width: 0px;"/>
</svg>