<?xml version="1.0" encoding="UTF-8"?>
<svg id="Monciclo" xmlns="http://www.w3.org/2000/svg" viewBox="0 0 425.2 425.2">
  <path id="Monciclo-2" data-name="Monciclo" d="M272.79,205.96c-1.19-.99-2.93-.91-4.03.17-.62.61-1.25,1.24-1.69,1.69-3.16,3.28-5.94,6.97-8.14,10.96-.57,1.03-1.07,2.17-.75,3.37.26.97,1.07,1.41,1.5,2.21.8,1.52-3.52,6.88-4.03,7.59-3.76,5.26-7.5,10.54-11.31,15.76-.51.7-1.42,1.11-2.23,1.72-1-2.8-.31-5.34.11-7.86.42-2.54,1.15-5.06,1.31-7.62.76-12.32-.54-24.53-2.41-36.68-.1-.63-.36-1.24-.5-1.87-1.04-4.48-3.09-8.48-5.74-12.21-1.41-1.98-1.51-4.2-1.2-6.5.18-1.34.65-2.59,2.05-2.99,2.38-.68,3.73-2.28,4.8-4.41,3.48-6.97,5.69-7.56,8.13-14.93,2.58-7.78,2.95-15.4.39-22.61-.87-2.44-2.01-4.76-3.85-6.67-1.1-1.14-2.1-2.39-3.01-3.44,1.31-3.36,2.4-6.4,3.68-9.36,1.16-2.67,2.43-5.29,3.83-7.84,1.79-3.23,4.41-5.52,8.37-6.37,2.82,1.88,5.77,3.83,8.71,5.81,32.3,12.05,39.98-54.59,3.18-42.45-6.35,4.23-12.74,3.87-19.41,2.12-4.82-.62-7.54-4.73-9.8-8.64-9.64-13.23-30.68-4.16-33.83,10.04-1.7,5.37-2.43,10.77,1.32,15.71,2.49,6.48-5.33,18.41,12.74,23.14,1.82.48,1.85,1.9,1.28,4.16-.46,1.85-1.04,3.66-1.56,5.48-2.03.69-3.86,1.25-5.65,1.93-2.75,1.04-14.22-.23-17.01,33.61-.32.77-2.01,4.09-2.14,5.14-.1.75.02,2.03.07,3.04.1,2.29-3.69,13.73-4.22,15.61-.78,2.78-1.12,5.81-2.49,8.27-1.55,2.77-10.2,11.4-22.54,27.71-10.39,13.73-17.81,29.28-24.06,45.28-3.75,9.61-7.26,19.36-8.98,29.63-.37,2.2-1.29,4.31-2.1,6.41-.14.37-1.2.77-1.57.6-1.15-.55-31.14-16.27-34.14-17.48-9.59-3.87-8.25.51-10.58,7.54-.7,2.13-1.76,4.24-1.66,6.49.04.87.59,1.86,1.2,2.54.84.95,35.96,15.55,36.28,15.58,2.27.18,5.4,1.47,8.91,3.7.05,3.07.05,6.29.18,9.5.13,3.23.09,6.5.67,9.66,1.04,5.71,2.03,11.5,3.87,16.98,3.08,9.22,10,18.2,19.46,22.33,24.08,10.51,44.9-17.99,50.47-28.04,6.26-11.31,12.39-22.69,18.42-34.13,1.5-2.85,3.55-5.55,4.41-8.54,1.16-4.03,33.21-55.71,38.07-60.79.72.33,27.49,23.57,29.4,24.75,1.06.66,2.92.24,3.5-.73,3.76-6.36,10.57-12.44,12.64-17.13.44-1,.19-2.43-.56-3.22-9.64-10.17-30.99-28.1-37.73-33.7ZM121.67,294.51c-.44,1.17-.62,2.45-1.15,3.68-.48,1.12-1.8,1.62-2.92,1.16-3.48-1.43-7.02-2.88-10.55-4.37-5.03-2.12-10.05-4.26-15.03-6.48-.51-.23-1.07-.43-1.64-.65-1.16-.45-1.79-1.71-1.46-2.9.49-1.79,1.35-3.86,2.05-5.41.58-1.29,2.1-1.84,3.38-1.23,6.56,3.16,25.19,12.24,27.11,14.4.34.38.4,1.28.2,1.8ZM129.86,303.21c-.29.66-1.48.12-1.48.12,0,0-1.9-2.4-1.39-4.07.08-.27.38-.48.58-.72.4.11.88.13,1.25.28.12.05.33.19.33.19,0,0,1.39,2.66.72,4.2ZM200.66,153.05c.56-2.5,1.41-4.96,2.35-7.35,2.47-6.3-1.66-11.82,5.49-21.24,3.73-4.92,9.57-4.19,12.86-3.39,1.46.36,2.57-.39,3.1-1.64,1.13-2.66,2.1-5.39,3.08-8.11.54-1.5.97-3.04,1.46-4.59.99-.47,1.81-1.14,2.69-1.22,3.62-.31,6.92-1.46,10.05-3.23.43-.24,1.11-.03,1.66-.03.51,1.41-.37,2.48-.76,3.62-1.59,4.57-1.91,9.85-4.89,13.65-5.49,6.99,1.75,4.8,7.3,13.88,6.09,9.96-2.82,22.5-5.48,25.91-1.98,2.54-2.03,6.12-3.13,9.14-.48,1.33-1.66,1.9-2.99,2.12-3.06.5-5.77-.05-7.81-2.64-.85-1.07-1.35-2.28-.99-3.57.69-2.48,1.57-4.91,2.38-7.36.56-1.72,1.13-3.43,1.67-5.06.71-2.15.75-4.48.02-6.62-.47-1.37-1.06-2.64-1.76-3.86-2.25-3.96-7.07-4.91-10.8-2.18-2.15,1.57-3.77,3.53-4.65,6.03-.53,1.51-.94,3.08-1.29,4.64-.7,3.11,4.23,11.87-5.76,9.01-3.04-.87-4.24-3.85-3.78-5.9ZM224.44,242.72c-4.48,7.04-8.61,14.3-12.92,21.45-.08.14-.58.22-.68.12-.21-.2-.41-.55-.41-.83.03-.96.03-1.95.27-2.87,4.18-15.84,8.39-31.68,12.64-47.5.41-1.54.99-3.05,1.67-4.48.22-.47,1.01-.7,1.58-.97.07-.03.48.37.53.62,1.15,5.67,2.39,11.32,1.95,17.49.86,6.09-1.22,11.64-4.62,16.98ZM215.55,150.4c.29-1.84,1.24-4.77,4.37-5.66.7-.2,3.11.6,3.68,1.43,1.49,2.15,1.52,4.15.51,7.02-2.05,5.78-4.01,11.61-5.09,17.69-.11.62-.71,1.16-1.34,1.17-1.42.04-8.96,1.79-8.11-.97.32-1.03,1.06-4.25,1.23-4.71.17-.47,3.77-3.62,3.83-5.55s.44-9.27.93-10.44ZM198.06,171.57c.24-2.73,1.01-5.36,1.47-8.05.04-.23.57-1.97,1.3-1.97h.09c.06,0,.11.03.16.04.05.01.1.02.15.04.08.03.15.05.22.1.22.12.43.28.65.42.39.25.79.47,1.21.67.85.41,1.79.68,2.73.78.81.09,1.2.78.87,1.52-.46,1.05-1.83,5.73-2.27,6.52-.56,1.01-3.25,1.65-4.32,2.28-.44.26-1.23.22-1.75.01-.68-.27-.52-2.15-.5-2.36ZM189.76,228.71c5.24-8.49,10.12-17.27,17.52-24.19.44-.41,1.11-.62,1.7-.82.14-.05.57.28.6.47.1.94.35,1.94.13,2.81-2.04,8.09-11.31,45.35-13.59,53.73-.13.47-.8.46-.91-.02-1.91-7.85-3.86-15.76-5.74-23.68-.31-1.32-.52-2.66-.55-4.02-.03-1.47.13-3.13.85-4.29ZM174.85,257.71c2.79-5.77,5.71-11.47,8.65-17.17.21-.4,1.04-.48,1.59-.71.25.16.59.26.72.49.3.55.58,1.14.72,1.75,2.11,8.73,4.46,17.38,7.15,25.95.28.9.35,1.88.5,2.82.13.82-.64,2.25-1.33,2.27-.6.02-1.36-.02-1.77-.37-1.48-1.22-12.66-7.59-13.81-8.12-3.44-1.6-4.13-3.37-2.42-6.92ZM170.84,268.14c.34-.66,1.8-1.02,2.54-.57,6.04,3.66,12.09,7.31,18.1,11.02.59.37.49,1.13-.02,1.62-.19.18-16.9.76-21.71.62-1.11-.03-2.29-1.65-2.21-2.72.29-3.59,1.68-6.81,3.29-9.96ZM160.16,306.02c1.1-5.68,2.42-11.32,3.62-16.99.6-2.84,2.3-3.49,4.92-3.51,2.58-.02,22.07-.8,22.07-.8,0,0,.61.3.74.56.14.26.13.65.06.94-.07.29-.26.61-.49.81-5.58,4.86-11.18,9.7-16.77,14.56-4.13,3.59-8.23,7.22-12.4,10.78-.36.31-1.07.26-1.62.24-.15,0-.39-.54-.39-.82.03-1.93-.12-3.91.24-5.78ZM197.49,321.79c-4.12,7.69-8.35,15.34-15.11,21.16-.73.63-1.51,1.23-2.36,1.67-.5.26-1.33.4-1.74.15-.43-.26-.76-1.07-.73-1.61.05-.94.32-1.9.66-2.79,1.71-4.53,3.35-9.09,5.24-13.54,3.79-8.95,6.05-18.38,8.9-27.62.19-.61.27-1.26.34-1.9.19-1.72-3.49.91-4.24,3.27-4.86,15.35-10.88,30.29-16.26,45.45-.31.88-.97,1.65-1.48,2.46-.5.78-2.86,1.12-3.55.51-.48-.42-1.04-.8-1.39-1.32-5.33-7.82-6.76-16.58-5.99-25.8.1-1.17.87-2.45,1.68-3.37,1.71-1.92,3.55-3.75,5.51-5.41,4.91-4.17,27.99-24.44,29.27-24.93.21-.08.59.11.81.28.22.18.52.56.45.74-.83,2.35.72,4.39.82,6.61.09,1.93-.02,3.88,0,5.81.06,4.85.24,9.69.17,14.54-.03,1.9-.13,4.04-.99,5.65ZM200.21,275.78c0,.14-.04.29-.11.45-.23.48-.39.99-.56,1.5-.06.24-.12.47-.16.72-.03.18-.14.34-.29.46-.08.2-.13.41-.22.6-.09.19-.25.31-.43.38-.52.85-1.94.46-1.86-.51-.24-.18-.45-.5-.42-.79.19-1.74.7-3.36,1.35-4.93-.06-.22-.09-.46-.03-.65,2.88-8.57,4.69-17.42,6.89-26.17.94-3.75,1.74-7.55,2.93-11.23,3.97-12.31,6.61-24.92,9.16-37.57,1.66-8.22,3.9-16.3,6.3-24.33.36-1.2,1.86-1.71,3.13-1.06.85.44,1.75.85,2.46,1.47.42.37.8,1.17.71,1.68-.3,1.62-.78,3.2-1.18,4.79-2.67,10.82-5.22,21.68-8.68,32.27-6.34,19.44-11.09,39.22-15.86,59.76-.59.21-1.13.41-1.65.6-.15.23-.31.45-.45.69-.37.61-.71,1.24-1.01,1.88ZM204.33,281.05c0,.57-.47.99-1.01,1.01-.38.02-.7-.23-.88-.55-.41-.22-.63-.68-.51-1.14.09-.36.22-.72.36-1.07.06-.39.15-.75.32-1.13.19-.42.48-.79.8-1.12.29-.29.74-.36,1.11-.21.37.16.62.52.62.93,0,.13,0,.25,0,.38,0,.41-.27.79-.45,1.15-.14.28-.28.56-.42.84.02.3.04.6.04.91ZM209.47,295.2c-1.15,4.09-2.78,7.97-5.25,11.45-.15.21-.59.22-1.13.4-.57-4.13-1.27-8.22-1.63-12.33-.1-1.15.71-2.44,1.31-3.55.29-.55,1.02-.89,1.64-.79,1.97.32,3.47,1.55,4.68,3.06.35.43.53,1.22.38,1.76ZM224.49,289.89c-.49.39-.9.89-1.42,1.09-.56.21-1.27.3-1.85.17-5.13-1.17-9.31-3.78-12.19-8.26-.14-.23-.12-.65-.02-.93.27-.75.8-.96,1.45-.61.55.3,1.12.59,1.62.97,3.79,2.86,7.84,5.23,12.4,6.68.09.03.01.6.01.89ZM219.96,273.42c-.23.59-.63,1.12-.97,1.67-1.34,2.13-3.61,2.65-5.82,1.29-.55-.33-1.05-.74-1.56-1.13-.82-.65-1-1.68-.49-2.56,1.79-3.06,3.54-6.14,5.36-9.18,2.48-4.16,5-8.29,7.52-12.42.15-.24.52-.35,1.03-.68.18.92.53,1.75.45,2.55-.64,7.14-2.9,13.85-5.52,20.46ZM229.03,286.27c-.18.2-.45.28-.72.3-.14,0-.27-.02-.39-.09-.13-.04-.23-.11-.33-.21-.11-.11-.18-.25-.23-.4-.03-.03-.05-.05-.08-.08-.03-.02-.05-.03-.08-.05h-.12c-.27,0-.52-.11-.72-.3-.2-.18-.28-.45-.3-.72,0-.14.02-.27.09-.39.04-.13.11-.23.21-.33.18-.18.46-.3.72-.3h.68c.27,0,.52.11.72.3.1.09.17.21.22.34.14.13.28.27.39.43.15.22.24.5.24.77,0,.27-.12.52-.3.72ZM304.25,244.39c-.57.78-1.2,1.52-1.85,2.23-1.06,1.16-2.34,1.38-3.07.46-1.77-2.23-22.31-18.58-29.61-25.98-.52.82-1.04,1.64-1.55,2.47.65.84,1.34,1.65,2.05,2.44.16.13.3.27.46.39.04.03,13.13,12.47,14.86,14.12,5.54,4.49,10.88,8.99,12.38,10.57.06.07.06.2.04.35-.02.15-2.51,4.81-2.59,4.76-4.35-2.75-20.42-18.38-24.57-21.45-.76-.57-1.09-2.29-1.02-2.45.44-1.04.2-1.99-.29-2.77-.89-1.43-3.01-1.36-3.92.06-6.52,10.18-32.53,50.61-33.84,52.43-.17.24-.61.55-.79.48-.64-.23-.84-.82-.55-1.5,2.47-5.73,33.17-52.81,33.45-55.09.13-1.05,0-2.1-.42-3.07-.22-.52-.52-.96-.89-1.39-.02-.03-.12-.15-.22-.26.22-.38.54-1.06.58-1.14.28-.47.56-.95.85-1.41.58-.93,1.19-1.84,1.83-2.74.69-.96,1.86-2.34,2.81-3.43.86-.98,2.34-1.09,3.32-.23,6.82,5.99,31.29,27.49,32.52,28.62.82.75.85,2.47.05,3.55Z" style="fill: #000; stroke-width: 0px;"/>
</svg>