<?xml version="1.0" encoding="UTF-8"?>
<svg id="Venus" xmlns="http://www.w3.org/2000/svg" viewBox="0 0 425.2 425.2">
  <path id="Venus-2" data-name="Venus" d="M215.01,263.44s0-.01,0-.02c.04-.02.07-.04.1-.06l-.09.08ZM303.51,339.4s-.37.42-.51.39c-.86-.21-1.79-.35-2.54-.79-2.18-1.25-4.29-2.61-6.41-3.96-3.85-2.46-7.86-4.61-12.02-6.27-.59.38-.8.8-.59,1.26,1.13,2.48.89,4.88-.37,7.23-.76,1.41-1.39,2.89-2.26,4.22-3.79,5.75-6.69,11.93-9.19,18.33-.66,1.7-1.37,3.39-2.18,5.03-.93,1.88-1.48,3.79-1.47,5.91,0,1.11-.29,2.26-.62,3.34-.69,2.27-2.16,3.35-4.54,3.45-1.14.05-2.29-.02-3.43.04-2.6.13-4.98-.49-7.13-1.98-3.99-2.78-8.5-4.39-13.09-5.84-1.09-.34-2.22-.56-3.28-.99-1.27-.51-2.53-1.08-3.68-1.81-2.41-1.51-4.24-3.46-4.3-6.56-.04-2.2-1.16-3.86-2.76-5.24-.23-.02-.53-.14-.62-.05-3.05,3.08-6.09,6.17-9.1,9.29-.29.3-.38.81-.6,1.31,2.48,4.3,4.97,8.65,7.49,12.99.7,1.21,1.66,2.07,3.12,2.45,1.75.46,3.47,1.1,5.15,1.81,8.62,3.64,17.23,7.32,25.83,11.01.54.23.9.27,1.15-.25.08-.18.1-.45.02-.63-1.15-2.78-2.62-5.31-5.16-7.09-1.13-.79-2.3-1.42-3.56-1.99-7.3-3.28-14.44-6.86-21.15-11.24-.31-.2-.42-.74-.53-1.15-.03-.11.33-.47.46-.44.66.12,1.35.25,1.94.53,1.85.89,3.7,1.79,5.49,2.8,6.56,3.71,13.45,6.78,20.22,10.07,1.01.49,2.11.8,3.29,1.24.56,4.37,2.56,8.07,5.8,11.37,1.94-1.76,3.78-3.45,5.64-5.11.68-.61,1.41-1.16,2.12-1.73.77-.61,1.95-.69,1.8-.13-.1.39-.13.88-.38,1.13-2.93,2.88-5.9,5.72-8.87,8.56-.16.15-.38.28-.59.34-.43.12-.92.33-1.31.23-.88-.22-1.75-.54-2.55-.95-6.54-3.28-13.35-5.94-20.06-8.83-4.4-1.9-8.64-4.15-12.95-6.26-1.02-.5-2.02-1.05-3.03-1.58-2.81.37-4.03-1.67-5.36-3.54-2.12-2.98-4.28-5.92-6.36-8.93-.77-1.12-1.43-2.34-2.01-3.57-.62-1.32-.52-2.71.23-3.94.71-1.16,1.58-2.23,2.4-3.32,2.19-2.93,4.3-5.91,6.61-8.74,1.3-1.6,2.33-3.35,3.45-5.05,1.36-2.05,2.05-4.03,1.48-6.41-.33-1.36-.07-2.71-.03-4.07.18-6.16.24-12.33.29-18.49.01-1.66-.45-3.09-2.18-3.92-2.84-1.37-4.36-3.95-5.64-6.66-.69-1.45-1.11-2.95-.71-4.63,1.17-4.97.72-10.01.29-15.01-.2-2.26-.82-4.49-1.4-6.69-.22-.85-.86-1.59-1.3-2.39-1.01-1.79-2.03-3.57-3.01-5.37-1.03-1.9-1.14-3.92-.69-5.99.1-.44.23-.89.39-1.31,1.07-2.92.8-5.82-.07-8.74-.84-2.84-1.59-5.71-2.38-8.57-1.55-5.61-1.43-11.34-.81-17.01.37-3.36,1.4-6.71,2.81-9.84,1.78-3.96,3.58-7.92,6.4-11.29,3.02-3.62,4.58-7.86,5.3-12.44.27-1.69-.19-3.49-1.63-4.25-6.93-3.64-11.64-9.43-15.9-15.73-.2-.29-.79-.54-1.12-.47-.33.08-.59.57-.81.91-.11.18-.09.44-.12.67-.03.23-.05.45-.09.68-.44,2.89-.81,3.74-4.51,3.86-2.28.07-4.57.08-6.86.14-1.41.03-2.71.44-3.86,1.24-.28.2-.55.75-.48,1.05.09.37.5.89.84.95,4.06.78,8.12,1.27,12.14-.26.83-.32,1.86.1,1.66.47-.31.57-.71,1.35-1.23,1.51-2.83.83-5.61,1.94-8.66,1.84-1.85-.06-3.62-.37-5.33-1.09-2.81-1.18-4.33-3.36-4.57-6.28-.15-1.79.11-3.64.34-5.44.18-1.35.49-2.71.95-3.99,1.27-3.52,1.29-7.15,1.36-10.82.06-3.26-.29-6.28-2.3-9.07-1.47-2.05-2.03-4.58-2.03-7.15,0-2.05-.08-4.12.06-6.16.21-3.09,1.51-5.61,3.96-7.67,3.49-2.94,6.81-6.08,10.17-9.18.83-.77,1.6-1.64,2.27-2.55.53-.73.99-1.56,1.24-2.41.62-2.14.48-4.85-.23-8.05-1.3-.23-2.71.1-3.81-1.06-1.47-1.54-3.61-1.9-5.45-2.79-2.5-1.22-4.84-2.63-6.28-5.11-.74-1.27-1.83-2.06-3.17-2.44-5.25-1.49-7.31-5.9-9.32-10.26-.42-.92-.23-2.3.1-3.33.62-1.94,1.56-3.78,2.4-5.77-.77-2.37-1.59-4.74-2.3-7.13-.68-2.3-.35-4.53.79-6.62,1.81-3.33,4.39-5.78,8.05-7.04,2.71-.93,5.34-.93,8.01.22.86.37,1.92.12,2.42-.75,1.12-1.93,2.64-3.06,4.93-3.19.64-.04,1.13-.64,1.4-1.34,1.07-2.86,2.99-5.11,5.28-7.05,2.68-2.27,5.73-2.69,8.99-1.55,3.56,1.25,6.39,3.53,8.51,6.62.96,1.41,2.03,2.42,3.84,2.38.44,0,.95.1,1.31.32,3.67,2.28,6.13,5.42,6.62,9.83.15,1.38-.14,2.74-.8,3.98-.42.81-.83,1.65-1.39,2.35-2.61,3.27-2.23,6.77-.84,10.33.58,1.49,1.37,2.89,1.98,4.36.91,2.17,1.12,4.39.49,6.7-.42,1.53-.74,3.11-.97,4.68-.82,5.74-4.39,8.77-9.77,10.07-.66.16-1.35.27-1.98.5-.92.34-1.45,1.07-1.63,2.02-.22,1.14-.12,2.27.32,3.36.31.76,1.43,1.58,2.15,1.39,2.88-.78,5.88-.8,8.78-1.31,3.03-.53,5.91-.07,8.83.38,3.83.6,6.8,2.54,8.72,5.97.44.8.95,1.57,1.31,2.4.93,2.15,2.33,3.87,4.13,5.36,1.48,1.23,2.17,3.03,1.91,4.91-.24,1.68.05,3.12.76,4.6.49,1.03.83,2.13,1.16,3.22.66,2.19,1.12,4.36.53,6.72-.44,1.75-.47,3.62-.58,5.44-.15,2.53.09,4.99,1.05,7.4.85,2.11,1.4,4.34,2.18,6.49,1.87,5.17,2.98,10.52,3.9,15.93.73,4.28,1.79,8.41,3.92,12.3,2.53,4.63,4.3,9.57,4.52,14.95.04.9.49,1.78.52,2.68.12,2.94,1.14,5.32,3.85,6.77.4.21.77.51,1.07.85,1.77,1.98,2.7,4.25,1.99,6.92-.88,3.31-1.8,6.6-2.79,9.88-1.66,5.47-2.98,10.99-3.68,16.68-.3,2.47-1.04,4.89-1.62,7.33-.12.49-.57.65-1.09.43-.19-.08-.44-.32-.44-.5-.05-3.64-.11-7.29.58-10.87,1.16-6.05,2.62-12.04,4.94-17.77.43-1.06.8-2.14,1.17-3.22.53-1.53.66-3.11.53-4.73-.18-2.34-1.97-3.99-4.59-4.1-2.11-.09-2.3-.27-2.34-2.18-.03-1.37-.06-2.74-.03-4.11.12-5.59-1.55-10.8-3.42-15.96-.15-.43-.36-.85-.6-1.23-.83-1.35-1.95-2.6-2.46-4.06-.75-2.13-1.26-4.4-1.56-6.65-.48-3.66-1.56-7.13-2.81-10.56-2.27-6.22-3.79-12.66-5.62-19.01-.12-.43-.26-.9-.53-1.24-.27-.34-.69-.71-1.08-.76-1.35-.19-2.72-.29-4.08-.35-1.63-.07-3.18-.39-4.58-1.24-.33-.2-.5-.67-.74-1.02.19-.12.38-.33.58-.35,1.36-.09,2.72-.14,4.08-.2,1.37-.06,2.73-.09,4.1-.18.87-.06,1.77-.85,1.95-1.66.38-1.78.79-3.57,1.1-5.36.11-.65.07-1.37-.07-2.02-.65-3.01-1.93-5.56-4.87-7.05-2.65-1.34-5.26-2.8-7.23-5.11-.74-.86-1.47-1.77-1.97-2.77-.51-1.01-.67-2.18.02-3.25.08-.12.35-.24.46-.19.19.08.43.26.48.44.44,1.86,1.56,3.27,2.94,4.52,1.7,1.55,3.59,2.82,5.69,3.75.43.19.81-.05.99-.56.07-.21.08-.46.05-.68-.03-.22-.07-.5-.22-.64-2.76-2.79-4.65-6.18-6.7-9.46-1.43-2.28-3.54-3.53-6.18-3.83-1.81-.21-3.65-.37-5.47-.34-2.97.06-5.93.28-8.9.46-.92.06-1.68.43-2.46.99-1.15.83-2.14.58-2.97-.26-1.67-1.69-2.67-3.67-2.79-6.07-.06-1.12.21-2.29-.67-3.5-1.44-.66-3.09-1.38-4.71-2.17-.61-.3-1.16-.72-1.71-1.13-.92-.69-1.75-1.46-2.13-2.59-.06-.19-.03-.46.06-.65.26-.54.65-.63,1.12-.32.76.5,1.51,1.01,2.28,1.5,1.59,1.01,3.34,1.39,5.22,1.43,3.45.08,6.86-.04,10.06-1.55,2.15-1.02,3.86-2.41,4.43-4.88.26-1.11.73-2.17.92-3.29.67-3.96.37-7.74-2.28-11.04-.64-.79-1.16-1.69-1.76-2.51-.42-1.85-1.34-3.76-2.98-4.76-.41-.25-.91,0-1.05.43-.15.46-.25.96-.26,1.45-.13.94.19,1.89.68,2.73.08.3.21.57.34.6.02,0,.04.01.06.02.82,1.17,1.83,2.19,2.74,3.29.09.11.22.16.36.18.01.05.01.1.02.15.03.18.05.37.07.55.05.82-.12,1.64-.46,2.38-.07.16-.17.3-.26.45-.29.27-.64.51-1.02.69-.19.09-.56.11-.66,0-.04-.04-.08-.1-.12-.15.06-.19.13-.39.19-.58.08-.26-.03-.54-.23-.72.1-.48.02-.98-.17-1.44.02-.11.04-.21.06-.33-.15-.13-.3-.26-.45-.39-.84-1.35-2.12-2.42-3.31-3.46-.43-.62-.8-1.29-1.06-2.01.15-2.08.62-4.12,1.09-6.16.12-.39.25-.78.36-1.18.04-.12.02-.25-.01-.37.03-.13.05-.26.08-.39.49-.95,1.2-1.73,2.33-1.98,2.37-.53,2.57-2.13,2.48-4.02-.41-.49-.97-.94-1.12-1.5-.29-1.09-.29-2.25-.43-3.38-.12-.94-.43-1.78-1.41-2.16-.67-.26-1.58.4-1.99,1.43-.34.85-.67,1.7-.92,2.58-.72,2.54-2.71,3.51-4.99,4.14-.66.18-1.36.34-2.02.3-3.26-.19-6.29.72-9.3,1.77-.11.04-.43-.24-.5-.42-.06-.18,0-.52.14-.64,1.59-1.38,3.38-2.29,5.32-2.85.45.39.95.72,1.54.91,1.06.35,2.23.2,3.25-.22,1.29-.53,2.41-1.42,3.34-2.49.92-.59,1.59-1.47,1.81-2.67,0-.05.01-.11.02-.16.03-.06.06-.11.08-.16,1.01-2.28,1.43-5.23-.14-7.38-1.46-2.01-4.25-2.92-6.65-2.9-1.16.01-2.4.28-3.32,1.02-.17.05-.35.07-.53.13-2.01.66-3.62,1.99-4.65,3.84-.94,1.69-.69,3.52-.25,5.34.17.69-.67,1.38-1.25,1.11-.83-.38-1.63-.82-2.46-1.2-.41-.19-.86-.43-1.28-.43-.41,0-.92.2-1.2.49-.24.25-.42.86-.28,1.13.31.59.84,1.07,1.27,1.6,2.56,3.22,1.98,4.35.35,7.45-.21.4-.54.74-.86,1.06-.83.85-1.78,1.43-3.04,1.13-1.61-.39-2.61-1.71-2.61-3.53,0-.41.27-.86.53-1.21.35-.47,1.13-.41,1.79.11.17.13.23.41.39.56.66.58,1.22.56,1.6-.03,1.49-2.35.37-4.6-2.36-4.76-.45-.03-.91-.08-1.36-.13-.98-.12-1.76.29-2.49.89-1.66,1.36-2.58,3.21-3.13,5.2-.22.81-.11,1.88.27,2.63.81,1.62,1.95,3.08,2.83,4.67.71,1.29.61,2.71-.16,3.92-.73,1.14-1.76,2.08-2.56,3.17-.67.91-1.35,1.86-1.78,2.89-1.08,2.6-.11,4.82,2.54,6.11.41.2.97.23,1.25.53.44.47.9,1.09.96,1.69.07.63-.28,1.32-.5,1.96-.8,2.35-.26,4.13,2.18,5.92,1.67,1.22,3.52,2.11,5.68,2.13,1.27.01,2.04.8,2.7,1.8.26.39.82.34,1.1-.08.22-.33.41-.88.28-1.19-.56-1.28-1.4-2.37-2.87-2.7-.89-.2-1.83-.21-2.68-.49-1.81-.6-3.16-1.79-3.96-3.55-1.35-2.95.29-6.18,3.51-6.83.69-.14,1.4.13,1.78.76.17.28.17.88-.02,1.1-.27.3-.81.35-1.21.56-1.9.97-2.19,2.77-.74,4.23.42.95,1.1,1.81,1.87,2.46,1.31,1.1,2.98,1.79,4.7,1.47.63-.11,1.17-.4,1.64-.78-.05,1.05.09,2.02.77,3.01,2.27,3.29,2.98,7.15,3.52,10.98.47,3.31-.54,6.41-2.98,8.77-3.27,3.18-6.46,6.46-10.24,9.08-2.81,1.96-4.19,4.82-4.33,8.18-.18,4.33-.12,8.7.79,12.95,1.07,5,.82,10,.46,14.99-.14,2.01-.9,4-1.57,5.93-.69,1.99-1.04,3.98-.71,6.04.05.31.67.84.86.77,2.64-.88,5.42-.72,8.11-1.14.88-.14,1.8-.11,2.7-.07,3.34.14,3.96-.35,4.06-3.66.12-4.1.27-8.19-.82-12.24-.87-3.23-.08-6.33,1.63-9.19.29-.49,1.36-1.05,1.63-.82.41.35.49.74.29,1.24-1.51,3.76-1,7.64-.61,11.49.09.87.5,1.77.98,2.53,2.07,3.28,4.07,6.62,6.37,9.73,2.17,2.94,4.75,5.57,8.1,7.25,2.07,1.04,3.76,2.56,5.42,4.13,2.74,2.59,3.26,5.79,2.82,9.37-.57,4.66-2.45,8.79-5,12.62-2.93,4.41-5.1,9.17-6.84,14.13-1.37,3.88-2.28,7.87-2.41,12.02-.12,3.96,1.07,7.66,2.12,11.38.49,1.75,1.23,3.44,1.81,5.17.64,1.93,1.43,3.82.66,5.96-.18.49.36,1.25.59,1.89-.99.53-1.86,1.19-2.19,2.33-.52,1.8-.55,3.61.16,5.37.25.63.55,1.27.96,1.81,1.82,2.43,2.55,5.27,3.38,8.14,1.6,5.54,2.28,11.16,2.23,16.9-.01,1.37-.02,2.74-.09,4.11-.12,2.38.57,4.46,1.94,6.41,1.04,1.49,1.97,3.08,2.77,4.71,2.03,4.13,3.35,8.42,3.4,13.11.09,8.24-.29,16.42-1.94,24.51-.26,1.25.04,2.22.7,3.19.34.5.83.63,1.15.16.9-1.3,1.68-2.68,2.56-3.99.2-.31.59-.51.94-.69.37-.19.53,1.1.18,1.9-1.09,2.51-2.26,4.99-3.28,7.53-.56,1.39-.14,2.72.87,3.79.62.66,1.3,1.33,2.09,1.73,1.41.73,2.9,1.32,4.4,1.85,2.15.77,4.32,1.46,6.5,2.14,3.74,1.16,7.3,2.68,10.3,5.24,1.67,1.43,3.51,2.05,5.67,1.91.91-.06,1.83-.02,2.73-.14.93-.12,1.71-.56,2.18-1.45.86-1.64,1.47-3.34,1.49-5.21.02-1.6.13-3.2.08-4.79-.18-5.29.98-10.44,1.65-15.64.32-2.49,1.29-4.84,2.84-6.89.13-.17.38-.25.58-.36.19.36.61.78.54,1.08-.59,2.66-1.3,5.3-1.92,7.96-.41,1.78-.78,3.57-.14,5.57.5-.58,1.03-1.01,1.31-1.57,3.11-6.1,6.14-12.24,9.28-18.32,1.01-1.95,1.34-3.86.59-5.92-.86-2.36-1.56-4.79-2.65-7.04-2.39-4.95-3.95-10.12-4.91-15.5,1.17.11,2.2.54,2.48,1.79,1.2,5.4,3.48,10.37,5.98,15.25.44.85,1.15,1.47,2.1,1.58,3.5.42,6.52,2.06,9.46,3.82,3.92,2.34,7.91,4.61,11.18,7.87.45.45.68,1.14.97,1.74ZM219.92,72.39c-.37-.15-.77-.2-1.17-.24-.04,0-.21.41-.15.46.31.29.66.53,1,.79.08-.07.18-.13.27-.19.09-.06.16-.13.19-.22.06-.18-.01-.55-.13-.6ZM219.12,64.55l.08.11s0-.02.01-.03c.81.67,1.59,1.38,2.45,1.97.2.13.96-.12,1.06-.36,1.08-2.69.59-5.1-1.42-7.46-.38,1.09-.66,1.93-.96,2.76-.37,1.03-.75,2.06-1.12,3.1-.03-.03-.06-.05-.1-.08ZM176.33,87.34c.05-2.38.57-4.46,2.47-6.06.68-.58,1.3-1.25,1.89-1.92.55-.63.69-1.93.29-2.54-.49-.76-.99-1.52-1.51-2.26-2.71-3.82-3.6-7.75-.79-11.93.31-.46.2-.91-.28-1.18-.15-.08-.42-.03-.61.04-2.38.95-4.35,2.45-5.77,4.58-.94,1.4-1.09,2.99-.39,4.54.36.81.95,1.53,1.48,2.26.84,1.14,1.17,2.44,1.2,3.82.04,2.06-.19,4.05-1.18,5.93-.63,1.19-1.22,2.44-1.6,3.73-.87,2.97.43,5.84,3.27,7.45.09.05.19.09.29.11.31.08.67.08.99.13.3.02.63-.18.87-.46.23-.28.37-.64.29-.95-.46-1.74-.96-3.45-.92-5.3ZM271.24,307.34s.07,0,.11.01c0-.03-.01-.06-.02-.08l-.09.07ZM306.86,348.17c.25-1.1.28-2.25.41-3.42-.14-.64-.26-1.29-.44-1.94-.06-.21-.3-.56-.36-.54-.41.13-.92.25-1.14.55-.39.53-.72,1.17-.88,1.82-.69,2.87-1.26,5.76-1.95,8.63-.58,2.42-1.27,4.81-1.92,7.21-1.78,1.75-3.56,3.51-5.35,5.26-.32.32-.66.63-1.01.91-7.22,5.96-13.33,12.99-19.31,20.14-.12.14-.2.43-.13.58.25.52.7.64,1.16.29,1.07-.83,2.14-1.68,3.17-2.56,7.97-6.78,14.55-15.03,22.71-21.61,1.25-1.01,2-2.48,2.39-4.06.92-3.75,1.81-7.5,2.65-11.26ZM289.48,358.52c-2.32.61-3.89,2.33-5.52,3.89-6.75,6.48-13.81,12.6-21,18.57-1.39,1.16-2.83,2.32-3.63,4.02-.09.2-.18.57-.09.64.31.24.75.61,1.04.54,1.59-.39,2.86-1.38,4.07-2.43,6.37-5.53,12.76-11.04,19.06-16.64,2.04-1.81,3.86-3.87,5.73-5.87.45-.48.69-1.16.97-1.77.07-.14-.08-.39-.14-.59-.16-.13-.36-.41-.48-.38ZM253.91,244.57c3.38-4.15,5.42-8.96,7.58-13.72.64-1.41.73-3.07,1.02-4.62.02-.13-.28-.45-.45-.47-.39-.04-.88-.08-1.17.12-.34.24-.54.71-.73,1.11-1.61,3.52-3.17,7.07-4.84,10.56-.48,1.01-1.25,1.89-1.92,2.8-.55.74-1.98.66-2.34-.12-.57-1.24-1.14-2.48-1.64-3.74-1.51-3.82-3.23-7.54-5.42-11.03-.19-.3-.65-.41-.99-.62-.13.41-.48.91-.35,1.21,1.07,2.51,2.23,4.99,3.36,7.48,1.89,4.15,3.45,8.4,3.83,12.92-.77,1.49-1.51,2.89-2.24,4.3.24.23.49.45.74.67,2.3-1.93,3.69-4.57,5.54-6.85ZM235.46,317.76c-1.23-2.17-2.81-4.15-5.17-5.29-.17-.08-.46-.1-.61,0-.45.25-.61.75-.27,1.15,2.22,2.6,4.53,5.12,5.87,8.33,3.26,7.8,5.99,15.73,5.91,24.34-.01,1.37,0,2.73.05,4.1.03.67.08,1.37.3,2,.11.31.62.69.93.68.35-.01.91-.39.97-.7.28-1.32.42-2.67.66-4.4-.24-1.9-.51-4.15-.82-6.39-.15-1.12-.4-2.24-.56-3.36-1.03-7.31-3.65-14.07-7.26-20.45ZM262.72,299.17c-.84-2.91-.85-5.86-.85-8.83,0-10.28.03-20.56,0-30.83,0-1.34-.24-2.68-.41-4.02-.02-.16-.29-.28-.44-.42-.15.17-.41.34-.43.52-.2,2.72-.32,5.45-.56,8.17-.26,2.95-.86,5.88-.91,8.83-.09,4.78-.4,9.58.74,14.32.37,1.53.21,3.18.28,4.78.08,1.83.06,3.66.26,5.47.15,1.34.55,2.67.95,3.97.23.74.14,1.74,1.18,2.07.63-1.33.55-2.75.18-4.03ZM273.66,295.31c.96-3.66.68-7.21-1.18-10.61-2.1-3.82-3.47-7.92-4.35-12.2-.36-1.77-.95-3.5-1.53-5.21-.08-.23-.71-.33-1.1-.37-.13-.02-.45.32-.43.48.34,5.04,1.63,9.85,3.68,14.47.65,1.46,1.46,2.85,2.02,4.34.81,2.13,1.22,4.23.75,6.64-.65,3.34-.68,6.79-1.5,10.13-.16.65-.05,1.36-.03,2.04.03.95.52,1.64,1.25,2.18.03-.64-.04-1.33.19-1.9,1.27-3.22,1.36-6.69,2.23-9.99ZM271.25,307.2s0,.1,0,.14l.09-.07s-.05-.05-.08-.07ZM211.25,75.83c.08-.42.15-.84.24-1.25-.29-.38-.6-.73-.99-.93-2.83-1.47-5.72-1.46-8.44.33-2.13,1.4-3.76,3.32-5.12,5.45-.31.48-.28.98.2,1.15.35.13.92.11,1.21-.1,1.29-.93,2.5-1.97,3.79-2.91.42-.31.87-.07,1.08.34-.65,1.26-1.32,2.45-1.86,3.7-.14.32.09.86.27,1.25.16.35.5.45.86.29.1-.42.24-.83.42-1.23.31-.72.76-1.46,1.33-2.07.15-.26.33-.5.56-.71.4-.36.87-.64,1.32-.94.34-.23.77-.05.98.26.04.07.09.13.14.19.03.04.03.04,0-.01.03.04.06.07.08.11.08.11.17.21.26.31.2.24.4.48.59.74.22.29.4.61.54.94.17.25.31.51.43.78.23-.04.43-.22.58-.54.61-1.25.94-2.5.79-3.95-.07-.67.28-1,.76-1.2ZM216.19,266.43c2.22,1.77,4.66,2.8,7.58,2.14,1.55-.35,3.13-.6,4.67-1,9.11-2.33,15.89-7.56,19.93-16.15-.25-.22-.5-.44-.74-.67-1.72,1.79-3.62,3.44-5.14,5.38-4.11,5.28-9.63,8.14-15.98,9.5-3.81.82-7.67,1.05-10.86-1.97-.13-.12-.35-.15-.54-.21-.09,1.15.15,2.22,1.09,2.96ZM215.1,263.46s0-.07,0-.11l-.09.08s.06.02.09.02ZM252.02,283.81c1.28-3.65,2.1-7.41,2.76-11.21.11-.65-.03-1.35-.11-2.02-.02-.2-.2-.43-.38-.55-.08-.05-.42.1-.48.24-.96,2.05-1.59,4.18-1.91,6.46-.83,5.8-3.12,10.87-7.77,14.68-.68.56-1.21,1.31-1.81,1.97l.3.35c.85-.27,1.84-.34,2.54-.83,3.24-2.29,5.55-5.33,6.87-9.09ZM229.13,155.82s-.11,0-.16,0c-.53,1.61-1.36,3.14-2.34,4.51-1.03,1.44-2.35,3.09-4,3.85-.53.24-1.1.42-1.68.57-.34.25-.7.49-1.06.72-.15.61-.29,1.22-.41,1.84,4.22-1.59,7.35-4.45,9.48-8.43.41-.77.54-1.68.76-2.43-.29-.31-.45-.61-.6-.61ZM193.93,92.13c0,.88.61,1.1,1.29,1.18.37-.4.7-.82,1-1.26-.82-.72-1.31-1.74-1.57-2.79-.33-1.32-.4-2.69-.34-4.07-.1-.38-.15-.76-.16-1.15-.05-.34-.08-.68-.06-1.02.02-.32.09-.63.17-.94-.03-.23-.07-.45-.09-.69-.02-.2-.19-.45-.36-.56-.15-.09-.44-.08-.61,0-.91.43-1.33,1.23-1.26,2.17.15,2.04.78,3.99,1.67,5.82.53,1.1.32,2.17.32,3.29ZM227.63,147.69c.18.38.59.67.94.94.16.13.48.24.63.17.48-.24.59-.67.44-1.17-.59-2.01-1.53-3.85-3.22-5.12-2.55-1.92-5.17-3.75-8.23-4.8-.18-.06-.42.03-.63.05-.13.16-.37.31-.37.47,0,.2.11.49.27.61,1.66,1.19,3.29,2.43,5.03,3.52,2.18,1.36,3.99,3.01,5.14,5.35ZM259.89,307.39c.17-.21.34-.41.52-.61-.98-3.03-3.28-5-5.73-6.82-.48-.36-1.34-.55-1.89-.39-1.58.46-3,1.19-3.38,2.88.03.05.07.1.09.15.05.08.09.17.14.25.03.04.05.09.08.13,0,0,0,.01.02.02.01.02.02.03.03.05.27-.1.55-.2.79-.35,2.1-1.31,3.47-1.04,5.27.73,1.34,1.33,2.37,2.99,4.05,3.97ZM248.4,303.9s-.05-.09-.08-.13c-1.65,1.62-2.69,3.56-2.83,5.95,0,.16.27.34.45.56,1.46-1.46,2.07-3.41,3.02-5.14.05-.09.08-.2.12-.3-.24-.31-.48-.61-.68-.94ZM249.36,189.67c.02.38.39.75.6,1.12.24-.31.68-.61.68-.92.01-2.22-.05-4.45-.15-6.67-.01-.26-.44-.49-.68-.74-.13.18-.35.35-.37.54-.12.88-.19,1.77-.27,2.66.05,0,.11,0,.16,0,0,1.33-.05,2.67.03,4ZM234.87,295.75c1.08.26,1.74.61,2.33.52,2.03-.32,3.99-.89,5.41-2.54l-.3-.35c-2.54.1-4.78,1.12-7.44,2.37ZM216.7,94.74c.18,1.06.66,2.17,1.79,2.55.54.19,1.28.02,1.85-.2.32-.12.61-.68.64-1.06.02-.3-.3-.79-.59-.93-.78-.37-1.71-.43-2.23-1.26-.25-.28-.51-.55-.79-.81-.24.57-.76,1.19-.67,1.7ZM220.11,93.32c.8-.32,1.06-.92.67-1.51-.43-.65-1.13-.94-1.7-.71-.89.36-1.39,1.06-1.69,1.93.28.26.54.53.79.81.43-.11.87-.21,1.3-.32.22-.06.43-.12.64-.21ZM206.02,86.09c.49-.42.92-.9,1.37-1.36-.17-.15-.34-.43-.49-.42-1.18.1-1.96.64-2,1.4,0,.13.31.29.44.4.25,0,.56.09.68-.02ZM191.19,77.4c-.27.22-.4.66-.5,1.03-.03.11.24.31.38.46.34-.2.71-.37,1.02-.61.13-.1.22-.42.15-.55-.22-.44-.68-.62-1.05-.32ZM226.89,296.96c.36.2.72.56,1.08.57.37.01.75-.31,1.12-.49-.36-.2-.72-.55-1.08-.57-.37-.01-.75.31-1.12.49Z" style="fill: #000; stroke-width: 0px;"/>
</svg>