<?xml version="1.0" encoding="UTF-8" standalone="no"?>
<svg
   id="Destellos"
   viewBox="0 0 64.454496 81.253126"
   version="1.1"
   width="64.454498"
   height="81.253128"
   xmlns="http://www.w3.org/2000/svg"
   xmlns:svg="http://www.w3.org/2000/svg">
  <defs
     id="defs7" />
  <path
     d="m 63.786608,8.4342024 c -2.78,6.7599996 -6.49,13.0299996 -11.17,18.5799996 -3.43,4.06 -7.48,7.62 -11.36,11.28 -0.74,0.69 -3,1.89 -3.58,1.15 -1.1,-1.4 1.95,-4.62 3.55,-6.17 7.21,-6.96 13.27,-14.75 17.36,-23.9499996 0.25,-0.57 0.1,-1.48 -0.18,-2.09 -0.29,-0.64 -1.14,-0.6 -1.84,0.03 -1.7,1.53 -3.43,3.0399996 -5.01,4.6899996 -5.29,5.51 -10.48,11.11 -15.81,16.58 -1.3,1.33 -3.99,4.12 -5.06,3.09 -1.09,-1.04 1.92,-4.65 2.59,-5.43 5.43,-6.4 9.28,-10.93 14.9,-17.1699996 2.29,-2.54 4.92,-4.8 7.56,-6.97 1.13,-0.93 2.68,-1.39000003 4.09,-1.92000003 1.64,-0.61 4.05,0.96000003 4.4,2.68000003 0.39,1.92 0.3,3.82 -0.43,5.61 z M 8.7066084,26.714202 c 2.4099996,2.44 4.7699996,4.94 7.3299996,7.21 2.32,2.05 4.14,4.22 3.98,7.53 0,0.08 0.67,0.28 1.02,0.26 0.36,-0.03 0.84,-0.16 1.04,-0.42 1.3,-1.73 1.5,-4 0.34,-5.25 -3.11,-3.34 -6.22,-6.69 -9.47,-9.89 -3.8699996,-3.79 -6.9399996,-8.08 -8.9099996,-13.13 -0.27,-0.7 -0.6,-1.47 -0.55,-2.17 0.05,-0.67 0.5,-1.3499996 0.92,-1.9199996 0.14,-0.19 0.77,-0.16 1.09,-0.04 2.66,1 4.1,3.2899996 5.6399996,5.4499996 3.31,4.64 6.51,9.37 10.73,13.27 0.38,0.35 1.39,0.3 1.97,0.07 0.71,-0.28 0.64,-1.07 0.05,-1.84 -0.23,-0.3 -0.41,-0.64 -0.85,-1.34 -3.38,-4.53 -6.9,-9.51 -10.7,-14.26 -1.64,-2.0499996 -3.7599996,-3.7399996 -5.8099996,-5.3999996 -2.09,-1.68 -5.63999999,-0.07 -6.22999999,2.68 -0.49,2.29 -0.41,4.5499996 0.52,6.7099996 1.96999999,4.57 4.36999999,8.89 7.89999999,12.48 z m 13.3599996,24.45 c -1.11,-1.85 -7.35,4.43 -6.29,6.32 1.06,1.89 7.4,-4.46 6.29,-6.32 z m 37.16,21.88 c -2.76,-5.34 -13.78,-24.87 -15.85,-27.59 -0.42,-0.56 -2.17,-3 -3.02,-2.5 -0.78,0.46 0.47,3.42 0.55,3.58 1.77,3.76 12.23,21.32 13.6,24.4 0.65,1.46 2.59,3.47 -2.71,6.63 -1.66,0.99 0.35,4.65 2.8,3.45 7.02,-3.42 4.63,-7.97 4.63,-7.97 z m -46.8,-24.74 c -1.28,4.6 4.99,-0.41 4.27,-2.41 -1.8,-1.26 -3.42,1.05 -4.27,2.41 z m 27.41,14.97 c -0.19,1.5 1.75,4.11 3.11,2.85 0.87,-1.73 -2.16,-5.24 -3.11,-2.85 z m -33.4399996,-8.55 c -0.62,-0.53 -3.51,2.17 -2.01,2.56 0.67,0.17 2.63,-2.03 2.01,-2.56 z"
     style="fill:#000000;stroke-width:0px"
     id="path7" />
</svg>
